<svg xmlns="http://www.w3.org/2000/svg" width="225.725" height="103.23" viewBox="0 0 225.725 103.23">
  <g id="Group_3295" data-name="Group 3295" transform="translate(-2280.443 -8524.435)">
    <g id="Product">
      <g id="Group_3292" data-name="Group 3292">
        <g id="Group_3291" data-name="Group 3291">
          <path id="Path_4032" data-name="Path 4032" d="M2457.807,8623.084a46.453,46.453,0,1,1,32.847-13.606A46.147,46.147,0,0,1,2457.807,8623.084Z" fill="#fff"/>
          <g id="Group_3290" data-name="Group 3290">
            <path id="Path_4033" data-name="Path 4033" d="M2457.807,8532.089a44.4,44.4,0,1,1-17.337,3.5,44.25,44.25,0,0,1,17.337-3.5m0-3.817a48.361,48.361,0,1,0,48.361,48.36,48.36,48.36,0,0,0-48.361-48.36Z" fill="#2a2a2a"/>
          </g>
        </g>
        <circle id="Ellipse_3053" data-name="Ellipse 3053" cx="13.648" cy="13.648" r="13.648" transform="translate(2444.159 8562.984)" fill="#2a2a2a"/>
        <circle id="Ellipse_3054" data-name="Ellipse 3054" cx="11.147" cy="11.147" r="11.147" transform="translate(2446.147 8587.24) rotate(-87.298)" fill="#fff"/>
        <path id="Path_4034" data-name="Path 4034" d="M2456.147,8576.632a19.046,19.046,0,0,0,10.569,17.062v26.354a7.641,7.641,0,0,1-7.619,7.618h-86.83a7.641,7.641,0,0,1-7.619-7.618v-86.83a7.642,7.642,0,0,1,7.619-7.619h86.83a7.642,7.642,0,0,1,7.619,7.619v26.354A19.046,19.046,0,0,0,2456.147,8576.632Z" fill="#e67a32"/>
        <path id="Path_4035" data-name="Path 4035" d="M2411.538,8594.139l-6.358-21.531-5.965,21.531h-10.508l9.99-32.559h13.359l9.987,32.559Zm19.626,0-9.768-32.559h10.5l9.988,32.559Z" fill="#fff"/>
      </g>
    </g>
    <g id="Planning">
      <g id="Group_3294" data-name="Group 3294">
        <ellipse id="Ellipse_3055" data-name="Ellipse 3055" cx="40.208" cy="31.288" rx="40.208" ry="31.288" transform="translate(2289.721 8551.646)" fill="#fff"/>
        <path id="Path_4036" data-name="Path 4036" d="M2371.009,8568.462c4.067,4.221,5.84,9.808,5.058,16.606-1.463,12.707-19.119,27.739-40.533,28.227,26.7-4.728,32.538-26.141,32.4-32.747-.129-6.131-6.908-10.044-12.44-9.905a13.189,13.189,0,0,1-7.83,2.244c-4.769,0-9.529-1.761-11.336-3.337-3.712-3.239-4.154-6.084-3.871-7.9.02-.126.057-.247.085-.371h-2.92c.029.124.066.245.085.371.284,1.816-.158,4.661-3.871,7.9-1.807,1.576-6.566,3.337-11.335,3.337a12.915,12.915,0,0,1-8.192-2.5,15.811,15.811,0,0,1-5.2-9.17,20.729,20.729,0,0,0,4.464,11.062c-6-3.823-13,2.434-12.074,15.319s15.3,22.711,23.825,25.006c-21.761-1.737-31.333-17.684-33.187-28.808a24.651,24.651,0,0,1,3.907-17.394c-2.124-.437-4.83-1.847-6.627-5.9a10.282,10.282,0,0,1,.56-9.758c1.593-2.618,4.288-4.478,6.706-4.624a8.885,8.885,0,0,1,6.5,2.3,11.434,11.434,0,0,1,3.051,4.732,42.857,42.857,0,0,1,8.729-15.5c9.316-10.221,23.291-13.036,27.149-13.21s2.017,3.023-.544,4.287c2.248-.882,7.092-1.506,10.15-.6s1.066,2.886-.672,3.894c3.476-.9,5.458-.893,5.772.314.146.564-.384,1.842-2.388,2.606,9.688.853,15.65,9.275,17.856,17.448,2.294-4.1,4.872-5.289,6.759-5.5a6.98,6.98,0,0,1,6.258,2.916c2.285,3.256,3.442,10.375-.33,15.272A8.613,8.613,0,0,1,2371.009,8568.462Z" fill="#fff"/>
        <g id="Group_3293" data-name="Group 3293">
          <rect id="Rectangle_550" data-name="Rectangle 550" width="7.786" height="7.788" rx="1.878" transform="translate(2326.495 8615.937)" fill="#e67a32"/>
          <path id="Path_4037" data-name="Path 4037" d="M2347.765,8624.54c-.585,1.211-2.045,1.6-4.852,1.028s-7.414-1.114-7.379-7.686c-.035-.694.452-1.425,1.842-1.946s7.787-2.434,9.178-2.642,3.928,0,4.066,2.294S2348.123,8623.8,2347.765,8624.54Z" fill="#e67a32"/>
          <path id="Path_4038" data-name="Path 4038" d="M2324.761,8617.883c.035,6.571-3.841,7.341-6.655,7.909s-5.841-.1-6.953-2.323a19.54,19.54,0,0,1-1.48-7.88c.14-2.294,2.678-2.5,4.068-2.294s7.787,2.12,9.177,2.642S2324.8,8617.188,2324.761,8617.883Z" fill="#e67a32"/>
        </g>
        <path id="Path_4039" data-name="Path 4039" d="M2340.94,8549.074a9.824,9.824,0,0,1,5.108-2.4,7.964,7.964,0,0,1,5.338,1.208,9.684,9.684,0,0,1,3.684,4.735,7.666,7.666,0,0,0-2.551-6.186,8.479,8.479,0,0,0-6.769-2.078,9.694,9.694,0,0,0-6.115,3.429,12.323,12.323,0,0,0-2.711,6.086c.644-.9,1.214-1.8,1.894-2.6A17.7,17.7,0,0,1,2340.94,8549.074Z" fill="#2a2a2a"/>
        <path id="Path_4040" data-name="Path 4040" d="M2337.759,8574.638a3.424,3.424,0,0,1-1.345,2.573,3.582,3.582,0,0,0,.6-2.533,3.284,3.284,0,0,0-1.253-2.021,5.887,5.887,0,0,0-2.282-1,11.353,11.353,0,0,0-2.6-.313,7.54,7.54,0,0,0-4.828,1.28,3.857,3.857,0,0,0-1.344,2.037,3.144,3.144,0,0,0,.4,2.552,3.11,3.11,0,0,1-1.132-2.655,4.383,4.383,0,0,1,1.28-2.8,6.245,6.245,0,0,1,2.672-1.549c.245-.072.493-.135.742-.193l.748-.1a13.045,13.045,0,0,1,1.5-.084,11.907,11.907,0,0,1,2.95.442,6.38,6.38,0,0,1,2.69,1.5A3.916,3.916,0,0,1,2337.759,8574.638Z" fill="#2a2a2a"/>
        <path id="Path_4041" data-name="Path 4041" d="M2334.324,8576.011a3.441,3.441,0,0,0-1.282.759,6.519,6.519,0,0,0-.974,1.173,1.983,1.983,0,0,1,.668-1.509,1.956,1.956,0,0,1,.745-.428A1.338,1.338,0,0,1,2334.324,8576.011Z" fill="#2a2a2a"/>
        <path id="Path_4042" data-name="Path 4042" d="M2328.84,8577.827a9.423,9.423,0,0,0-1.011-.895c-.17-.139-.349-.268-.526-.4s-.354-.276-.566-.4a1.374,1.374,0,0,1,.734.091,2.422,2.422,0,0,1,.639.361A1.762,1.762,0,0,1,2328.84,8577.827Z" fill="#2a2a2a"/>
        <path id="Path_4043" data-name="Path 4043" d="M2356.182,8575.82a33.191,33.191,0,0,1-10.954,7.145,37.8,37.8,0,0,1-6.337,1.922,43.937,43.937,0,0,1-6.571.832,47.506,47.506,0,0,1-13.11-1.263,44.049,44.049,0,0,1-12.181-4.742,69.4,69.4,0,0,0,12.461,3.356,63.09,63.09,0,0,0,6.362.762,51.964,51.964,0,0,0,6.383.071,45.364,45.364,0,0,0,6.327-.708,44.31,44.31,0,0,0,6.175-1.563A45.22,45.22,0,0,0,2356.182,8575.82Z" fill="#2a2a2a"/>
        <path id="Path_4044" data-name="Path 4044" d="M2338.361,8591.3a9.6,9.6,0,0,0-3.451-.714c-1.174-.081-2.352-.093-3.53-.063s-2.355.1-3.533.219a31.477,31.477,0,0,0-3.551.559,9.889,9.889,0,0,1,3.383-1.486,16.724,16.724,0,0,1,3.672-.5,15.311,15.311,0,0,1,3.7.34c.3.063.607.152.905.237s.592.214.883.326A4.133,4.133,0,0,1,2338.361,8591.3Z" fill="#2a2a2a"/>
        <path id="Path_4045" data-name="Path 4045" d="M2376.969,8565.078c3.772-4.9,2.615-12.017.33-15.272a6.98,6.98,0,0,0-6.258-2.916c-1.887.209-4.465,1.4-6.759,5.5-2.206-8.173-8.168-16.6-17.856-17.448,2-.765,2.534-2.042,2.388-2.606-.314-1.207-2.3-1.218-5.772-.314,1.738-1.008,3.732-2.989.672-3.894s-7.9-.278-10.15.6c2.561-1.264,4.4-4.462.544-4.287s-17.833,2.989-27.149,13.21a42.857,42.857,0,0,0-8.729,15.5,11.434,11.434,0,0,0-3.051-4.732,8.885,8.885,0,0,0-6.5-2.3c-2.418.146-5.113,2.006-6.706,4.624a10.282,10.282,0,0,0-.56,9.758c1.8,4.057,4.5,5.466,6.627,5.9a24.651,24.651,0,0,0-3.907,17.394c1.854,11.124,11.426,27.07,33.187,28.808-8.529-2.295-22.9-12.122-23.825-25.006s6.072-19.143,12.074-15.319a20.729,20.729,0,0,1-4.464-11.062,15.811,15.811,0,0,0,5.2,9.17,12.915,12.915,0,0,0,8.192,2.5c4.769,0,9.528-1.761,11.335-3.337,3.713-3.239,4.155-6.084,3.871-7.9-.019-.126-.056-.247-.085-.371h2.92c-.028.124-.065.245-.085.371-.283,1.816.159,4.661,3.871,7.9,1.807,1.576,6.567,3.337,11.336,3.337a13.189,13.189,0,0,0,7.83-2.244c5.532-.139,12.311,3.774,12.44,9.905.14,6.606-5.7,28.02-32.4,32.747,21.414-.487,39.07-15.52,40.533-28.227.782-6.8-.991-12.386-5.058-16.606A8.613,8.613,0,0,0,2376.969,8565.078Zm-80.718-3.371c-2.373-.5-4.823.754-6.914,3.061-1.7-.1-4.462-.944-6.263-5.01a8.512,8.512,0,0,1,.451-8.076c1.278-2.1,3.442-3.642,5.261-3.753a7,7,0,0,1,5.178,1.843,10.949,10.949,0,0,1,3.25,6.9A39.452,39.452,0,0,0,2296.251,8561.707Zm28.388,6.472c-2.243,1.956-12.049,4.929-17.191.788a14.035,14.035,0,0,1-4.567-8.14,2.865,2.865,0,0,1,2.339-3.414c.442-.071.868-.124,1.3-.186-.017.128-.038.251-.049.378.095-.144.2-.273.294-.411a54.192,54.192,0,0,1,7.178-.51,29.589,29.589,0,0,1,11,1.721,4.766,4.766,0,0,1,2.964,3.524C2328.212,8563.887,2327.082,8566.048,2324.639,8568.179Zm34.641-7.352a14.032,14.032,0,0,1-4.568,8.14c-5.141,4.141-14.947,1.167-17.19-.788-2.443-2.131-3.574-4.292-3.269-6.249a4.765,4.765,0,0,1,2.962-3.524,29.6,29.6,0,0,1,11-1.721,54.978,54.978,0,0,1,8.723.729,2.822,2.822,0,0,1,1.893,1.2A2.852,2.852,0,0,1,2359.28,8560.827Zm1.273-2.887c-.068-.121-.141-.241-.221-.359a4.625,4.625,0,0,0-3.1-1.964c-9.744-1.574-17.1-.454-20.738,1.119a7.259,7.259,0,0,0-2.379,1.65h-6.068a7.257,7.257,0,0,0-2.379-1.65c-3.179-1.376-9.205-2.4-17.183-1.588a10.153,10.153,0,0,1,1.321-1.118,9.962,9.962,0,0,1,4.2-1.686,10.177,10.177,0,0,1,4.526.314,10.3,10.3,0,0,1,4.163,2.489,7.051,7.051,0,0,0-3.523-4,8.982,8.982,0,0,0-5.485-.871,8.84,8.84,0,0,0-4.957,2.508,8.054,8.054,0,0,0-1.684,2.535c-.695.088-1.4.186-2.116.3a4.687,4.687,0,0,0-3.893,4.05,15.231,15.231,0,0,1,7.034-13.256c8.065-4.937,19.328-.556,21.066,6.952,2.921-8.2,15.643-14.322,24.543-9.8C2358.758,8546.14,2361.114,8551.91,2360.553,8557.94Zm10,8.737a7.627,7.627,0,0,1-1.542-.046,25.2,25.2,0,0,0-4.345-2.77,19.856,19.856,0,0,0,.236-8.609c1.729-4.019,3.915-6.285,6.342-6.556a5.109,5.109,0,0,1,4.568,2.153c1.581,2.255,3.182,8.619-.282,13.116A6.773,6.773,0,0,1,2370.551,8566.678Z" fill="#2a2a2a"/>
        <path id="Path_4046" data-name="Path 4046" d="M2373.049,8554.324a2.864,2.864,0,0,0-1.294.275,5.552,5.552,0,0,0-1.985,1.534,6.052,6.052,0,0,0-1.171,2.193,4.349,4.349,0,0,0-.041,2.44,14.085,14.085,0,0,1,.934-2.074,12.134,12.134,0,0,1,1.232-1.763,9.864,9.864,0,0,1,1.512-1.488,3.385,3.385,0,0,1,.872-.512.667.667,0,0,1,.873.24.728.728,0,0,0-.255-.6A1.2,1.2,0,0,0,2373.049,8554.324Z" fill="#2a2a2a"/>
        <path id="Path_4047" data-name="Path 4047" d="M2291.643,8553.081a4.4,4.4,0,0,0-2.285-1.359,2.74,2.74,0,0,0-1.371.023,1.905,1.905,0,0,0-1.064.749,2.729,2.729,0,0,1,2.1.222,5.977,5.977,0,0,1,1.628,1.28,8.074,8.074,0,0,1,1.214,1.744,9.214,9.214,0,0,1,.755,2.177,3.816,3.816,0,0,0,.239-2.521A4.99,4.99,0,0,0,2291.643,8553.081Z" fill="#2a2a2a"/>
        <path id="Path_4048" data-name="Path 4048" d="M2346.506,8560.18a4.853,4.853,0,0,0-3.706-.413,5.927,5.927,0,0,0-3.074,2.039,4.379,4.379,0,0,0-.994,3.4,5.79,5.79,0,0,1,1.692-2.766,6.55,6.55,0,0,1,2.695-1.5,4.791,4.791,0,0,1,2.976.1,6.4,6.4,0,0,1,2.544,2A4.628,4.628,0,0,0,2346.506,8560.18Z" fill="#2a2a2a"/>
        <path id="Path_4049" data-name="Path 4049" d="M2316.532,8559.767a4.856,4.856,0,0,0-3.707.413,4.637,4.637,0,0,0-2.133,2.849,6.409,6.409,0,0,1,2.545-2,4.791,4.791,0,0,1,2.976-.1,6.556,6.556,0,0,1,2.7,1.5,5.8,5.8,0,0,1,1.692,2.766,4.379,4.379,0,0,0-.994-3.4A5.937,5.937,0,0,0,2316.532,8559.767Z" fill="#2a2a2a"/>
        <path id="Path_4050" data-name="Path 4050" d="M2324.639,8568.179c-2.243,1.956-12.049,4.929-17.191.788a14.035,14.035,0,0,1-4.567-8.14,2.865,2.865,0,0,1,2.339-3.414c.442-.071,1.5-.213,1.545-.219a54.192,54.192,0,0,1,7.178-.51,29.589,29.589,0,0,1,11,1.721,4.766,4.766,0,0,1,2.964,3.524C2328.212,8563.887,2327.082,8566.048,2324.639,8568.179Zm34.641-7.352a14.032,14.032,0,0,1-4.568,8.14c-5.141,4.141-14.947,1.167-17.19-.788-2.443-2.131-3.574-4.292-3.269-6.249a4.765,4.765,0,0,1,2.962-3.524,29.6,29.6,0,0,1,11-1.721,54.978,54.978,0,0,1,8.723.729,2.822,2.822,0,0,1,1.893,1.2A2.852,2.852,0,0,1,2359.28,8560.827Zm-58.177.386a14.289,14.289,0,0,0,5.2,9.17,12.915,12.915,0,0,0,8.192,2.5c4.769,0,9.528-1.761,11.335-3.337,3.713-3.239,4.155-6.084,3.871-7.9-.019-.126-.056-.247-.085-.371h2.92c-.028.124-.065.245-.085.371-.283,1.816.159,4.661,3.871,7.9,1.807,1.576,6.567,3.337,11.336,3.337a13.189,13.189,0,0,0,7.83-2.244c3.146-2.775,5.57-6.771,5.215-11.674a5.96,5.96,0,0,0-.375-1.388,4.621,4.621,0,0,0-3.1-1.964c-9.744-1.574-17.1-.454-20.738,1.119a7.259,7.259,0,0,0-2.379,1.65h-6.068a7.257,7.257,0,0,0-2.379-1.65c-3.179-1.376-9.205-2.4-17.183-1.588-.228.015-2.835.353-3.554.469a4.616,4.616,0,0,0-3.1,1.966,5.7,5.7,0,0,0-.726,2.515A8.993,8.993,0,0,0,2301.1,8561.213Z" fill="#e67a32"/>
      </g>
    </g>
  </g>
</svg>
