<svg xmlns="http://www.w3.org/2000/svg" width="231.324" height="109.536" viewBox="0 0 231.324 109.536">
  <g id="Group_3289" data-name="Group 3289" transform="translate(-1865.88 -8516.448)">
    <g id="Group_3286" data-name="Group 3286">
      <path id="Path_4007" data-name="Path 4007" d="M2084.478,8520.266a8.945,8.945,0,0,1,8.908,8.909v83.871a8.945,8.945,0,0,1-8.908,8.908H1957.212a8.947,8.947,0,0,1-8.909-8.908v-83.871a8.947,8.947,0,0,1,8.909-8.909h127.266m0-3.817H1957.212a12.764,12.764,0,0,0-12.727,12.727v83.871a12.765,12.765,0,0,0,12.727,12.727h127.266a12.764,12.764,0,0,0,12.726-12.727v-83.871a12.764,12.764,0,0,0-12.726-12.727Z" fill="#e67a32"/>
      <g id="Group_3284" data-name="Group 3284">
        <rect id="Rectangle_544" data-name="Rectangle 544" width="81.73" height="5.157" transform="translate(1954.667 8543.067)" fill="#2a2a2a"/>
        <rect id="Rectangle_545" data-name="Rectangle 545" width="29.231" height="5.157" transform="translate(1977.356 8557.857)" fill="#2a2a2a"/>
        <rect id="Rectangle_546" data-name="Rectangle 546" width="84.711" height="5.157" transform="translate(1989.28 8572.647)" fill="#2a2a2a"/>
        <rect id="Rectangle_547" data-name="Rectangle 547" width="26.002" height="5.157" transform="translate(2030.766 8587.437)" fill="#2a2a2a"/>
        <rect id="Rectangle_548" data-name="Rectangle 548" width="33.785" height="5.157" transform="translate(2008.409 8602.227)" fill="#2a2a2a"/>
        <g id="Group_3283" data-name="Group 3283">
          <path id="Path_4008" data-name="Path 4008" d="M2020.25,8534.9c-1.228,0-2.223.713-2.223,1.592V8617.4c0,.879.995,1.591,2.223,1.591s2.223-.712,2.223-1.591v-80.914C2022.473,8535.609,2021.477,8534.9,2020.25,8534.9Z" fill="#e67a32"/>
        </g>
      </g>
      <g id="Group_3285" data-name="Group 3285">
        <path id="Path_4009" data-name="Path 4009" d="M2072.614,8531.523H2068.7v2.088h3.917a1.935,1.935,0,0,1,1.926,1.926v28.182a1.939,1.939,0,0,1-1.926,1.928h-24.827a1.938,1.938,0,0,1-1.926-1.928v-28.182a1.935,1.935,0,0,1,1.926-1.926h3.891v-2.088h-3.891a4.026,4.026,0,0,0-4.014,4.014v28.182a4.027,4.027,0,0,0,4.014,4.015h24.827a4.027,4.027,0,0,0,4.014-4.015v-28.182A4.026,4.026,0,0,0,2072.614,8531.523Z" fill="#2a2a2a"/>
        <path id="Path_4010" data-name="Path 4010" d="M2070.654,8544.418h-11.273a1.044,1.044,0,0,1,0-2.088h11.273a1.044,1.044,0,0,1,0,2.088Z" fill="#e67a32"/>
        <path id="Path_4011" data-name="Path 4011" d="M2070.654,8552.415h-11.273a1.044,1.044,0,0,1,0-2.088h11.273a1.044,1.044,0,0,1,0,2.088Z" fill="#e67a32"/>
        <path id="Path_4012" data-name="Path 4012" d="M2070.654,8560.411h-11.273a1.043,1.043,0,0,1,0-2.087h11.273a1.043,1.043,0,1,1,0,2.087Z" fill="#e67a32"/>
        <path id="Path_4013" data-name="Path 4013" d="M2051.806,8545.576a1.04,1.04,0,0,1-.743-.312l-2.12-2.151a1.043,1.043,0,1,1,1.487-1.464l1.407,1.428,3.56-3.322a1.044,1.044,0,0,1,1.424,1.527l-4.3,4.014A1.04,1.04,0,0,1,2051.806,8545.576Z" fill="#e67a32"/>
        <path id="Path_4014" data-name="Path 4014" d="M2051.806,8553.651a1.04,1.04,0,0,1-.743-.312l-2.12-2.151a1.044,1.044,0,0,1,1.487-1.466l1.407,1.429,3.56-3.321a1.044,1.044,0,1,1,1.424,1.526l-4.3,4.014A1.041,1.041,0,0,1,2051.806,8553.651Z" fill="#e67a32"/>
        <path id="Path_4015" data-name="Path 4015" d="M2051.806,8561.6a1.039,1.039,0,0,1-.743-.311l-2.12-2.152a1.044,1.044,0,0,1,1.487-1.465l1.407,1.428,3.56-3.32a1.043,1.043,0,1,1,1.424,1.525l-4.3,4.015A1.04,1.04,0,0,1,2051.806,8561.6Z" fill="#e67a32"/>
        <path id="Path_4016" data-name="Path 4016" d="M2067.734,8528.88h-3.053a4.883,4.883,0,0,0-8.987,0h-3.053a.966.966,0,0,0-.963.963v6.069a.965.965,0,0,0,.963.963h15.093a.965.965,0,0,0,.963-.963v-6.069A.966.966,0,0,0,2067.734,8528.88Zm-1.028,6h-13.037v-4.013h3.629c0-.027,0-.054,0-.081a2.89,2.89,0,0,1,5.781,0c0,.027,0,.054,0,.081h3.629Z" fill="#2a2a2a"/>
      </g>
    </g>
    <g id="Group_3288" data-name="Group 3288">
      <ellipse id="Ellipse_3052" data-name="Ellipse 3052" cx="40.208" cy="31.288" rx="40.208" ry="31.288" transform="translate(1875.158 8551.646)" fill="#fff"/>
      <path id="Path_4017" data-name="Path 4017" d="M1956.446,8568.462c4.066,4.221,5.84,9.808,5.057,16.606-1.462,12.707-19.119,27.739-40.533,28.227,26.7-4.728,32.539-26.141,32.4-32.747-.129-6.131-6.909-10.044-12.441-9.905a13.184,13.184,0,0,1-7.829,2.244c-4.769,0-9.529-1.761-11.337-3.337-3.712-3.239-4.153-6.084-3.87-7.9.02-.126.057-.247.084-.371h-2.92c.029.124.066.245.086.371.283,1.816-.158,4.661-3.871,7.9-1.807,1.576-6.567,3.337-11.335,3.337a12.917,12.917,0,0,1-8.193-2.5,15.808,15.808,0,0,1-5.2-9.17,20.731,20.731,0,0,0,4.464,11.062c-6-3.823-13,2.434-12.074,15.319s15.3,22.711,23.824,25.006c-21.761-1.737-31.333-17.684-33.187-28.808a24.662,24.662,0,0,1,3.907-17.394c-2.124-.437-4.829-1.847-6.626-5.9a10.276,10.276,0,0,1,.56-9.758c1.593-2.618,4.288-4.478,6.706-4.624a8.881,8.881,0,0,1,6.5,2.3,11.428,11.428,0,0,1,3.052,4.732,42.842,42.842,0,0,1,8.729-15.5c9.316-10.221,23.29-13.036,27.149-13.21s2.017,3.023-.545,4.287c2.248-.882,7.092-1.506,10.151-.6s1.066,2.886-.672,3.894c3.476-.9,5.458-.893,5.771.314.146.564-.383,1.842-2.387,2.606,9.687.853,15.65,9.275,17.856,17.448,2.294-4.1,4.871-5.289,6.758-5.5a6.978,6.978,0,0,1,6.258,2.916c2.285,3.256,3.442,10.375-.329,15.272A8.613,8.613,0,0,1,1956.446,8568.462Z" fill="#fff"/>
      <g id="Group_3287" data-name="Group 3287">
        <path id="Rectangle_549" data-name="Rectangle 549" d="M1.876,0H5.91A1.876,1.876,0,0,1,7.786,1.876V5.91A1.878,1.878,0,0,1,5.909,7.788H1.878A1.878,1.878,0,0,1,0,5.91V1.876A1.876,1.876,0,0,1,1.876,0Z" transform="translate(1911.932 8615.937)" fill="#e67a32"/>
        <path id="Path_4018" data-name="Path 4018" d="M1933.2,8624.54c-.585,1.211-2.045,1.6-4.852,1.028s-7.413-1.114-7.379-7.686c-.034-.694.452-1.425,1.842-1.946s7.788-2.434,9.178-2.642,3.928,0,4.067,2.294S1933.56,8623.8,1933.2,8624.54Z" fill="#e67a32"/>
        <path id="Path_4019" data-name="Path 4019" d="M1910.2,8617.883c.034,6.571-3.841,7.341-6.656,7.909s-5.84-.1-6.952-2.323a19.53,19.53,0,0,1-1.48-7.88c.14-2.294,2.678-2.5,4.068-2.294s7.786,2.12,9.176,2.642S1910.232,8617.188,1910.2,8617.883Z" fill="#e67a32"/>
      </g>
      <path id="Path_4020" data-name="Path 4020" d="M1926.377,8549.074a9.821,9.821,0,0,1,5.107-2.4,7.967,7.967,0,0,1,5.339,1.208,9.683,9.683,0,0,1,3.684,4.735,7.669,7.669,0,0,0-2.551-6.186,8.48,8.48,0,0,0-6.769-2.078,9.691,9.691,0,0,0-6.115,3.429,12.306,12.306,0,0,0-2.711,6.086c.644-.9,1.213-1.8,1.894-2.6A17.642,17.642,0,0,1,1926.377,8549.074Z" fill="#2a2a2a"/>
      <path id="Path_4021" data-name="Path 4021" d="M1923.2,8574.638a3.425,3.425,0,0,1-1.346,2.573,3.582,3.582,0,0,0,.6-2.533,3.291,3.291,0,0,0-1.253-2.021,5.887,5.887,0,0,0-2.283-1,11.339,11.339,0,0,0-2.6-.313,7.54,7.54,0,0,0-4.828,1.28,3.857,3.857,0,0,0-1.344,2.037,3.144,3.144,0,0,0,.4,2.552,3.108,3.108,0,0,1-1.132-2.655,4.385,4.385,0,0,1,1.279-2.8,6.252,6.252,0,0,1,2.673-1.549c.245-.072.493-.135.742-.193l.748-.1a13.031,13.031,0,0,1,1.5-.084,11.918,11.918,0,0,1,2.95.442,6.381,6.381,0,0,1,2.69,1.5A3.92,3.92,0,0,1,1923.2,8574.638Z" fill="#2a2a2a"/>
      <path id="Path_4022" data-name="Path 4022" d="M1919.761,8576.011a3.445,3.445,0,0,0-1.283.759,6.521,6.521,0,0,0-.973,1.173,1.984,1.984,0,0,1,.668-1.509,1.953,1.953,0,0,1,.744-.428A1.341,1.341,0,0,1,1919.761,8576.011Z" fill="#2a2a2a"/>
      <path id="Path_4023" data-name="Path 4023" d="M1914.276,8577.827a9.3,9.3,0,0,0-1.01-.895c-.17-.139-.35-.268-.526-.4s-.355-.276-.567-.4a1.371,1.371,0,0,1,.734.091,2.4,2.4,0,0,1,.639.361A1.758,1.758,0,0,1,1914.276,8577.827Z" fill="#2a2a2a"/>
      <path id="Path_4024" data-name="Path 4024" d="M1941.619,8575.82a33.194,33.194,0,0,1-10.954,7.145,37.824,37.824,0,0,1-6.337,1.922,43.929,43.929,0,0,1-6.572.832,47.515,47.515,0,0,1-13.11-1.263,44.073,44.073,0,0,1-12.181-4.742,69.437,69.437,0,0,0,12.462,3.356,63.1,63.1,0,0,0,6.362.762,51.962,51.962,0,0,0,6.383.071,45.354,45.354,0,0,0,6.326-.708,44.234,44.234,0,0,0,6.175-1.563A45.23,45.23,0,0,0,1941.619,8575.82Z" fill="#2a2a2a"/>
      <path id="Path_4025" data-name="Path 4025" d="M1923.8,8591.3a9.6,9.6,0,0,0-3.451-.714c-1.174-.081-2.352-.093-3.53-.063s-2.355.1-3.533.219a31.468,31.468,0,0,0-3.551.559,9.883,9.883,0,0,1,3.382-1.486,16.723,16.723,0,0,1,3.673-.5,15.3,15.3,0,0,1,3.7.34c.305.063.608.152.906.237s.591.214.882.326A4.134,4.134,0,0,1,1923.8,8591.3Z" fill="#2a2a2a"/>
      <path id="Path_4026" data-name="Path 4026" d="M1962.406,8565.078c3.771-4.9,2.614-12.017.329-15.272a6.978,6.978,0,0,0-6.258-2.916c-1.887.209-4.464,1.4-6.758,5.5-2.206-8.173-8.169-16.6-17.856-17.448,2-.765,2.533-2.042,2.387-2.606-.313-1.207-2.3-1.218-5.771-.314,1.738-1.008,3.731-2.989.672-3.894s-7.9-.278-10.151.6c2.562-1.264,4.4-4.462.545-4.287s-17.833,2.989-27.149,13.21a42.842,42.842,0,0,0-8.729,15.5,11.428,11.428,0,0,0-3.052-4.732,8.881,8.881,0,0,0-6.5-2.3c-2.418.146-5.113,2.006-6.706,4.624a10.276,10.276,0,0,0-.56,9.758c1.8,4.057,4.5,5.466,6.626,5.9a24.662,24.662,0,0,0-3.907,17.394c1.854,11.124,11.426,27.07,33.187,28.808-8.528-2.295-22.9-12.122-23.824-25.006s6.072-19.143,12.074-15.319a20.731,20.731,0,0,1-4.464-11.062,15.808,15.808,0,0,0,5.2,9.17,12.917,12.917,0,0,0,8.193,2.5c4.768,0,9.528-1.761,11.335-3.337,3.713-3.239,4.154-6.084,3.871-7.9-.02-.126-.057-.247-.086-.371h2.92c-.027.124-.064.245-.084.371-.283,1.816.158,4.661,3.87,7.9,1.808,1.576,6.568,3.337,11.337,3.337a13.184,13.184,0,0,0,7.829-2.244c5.532-.139,12.312,3.774,12.441,9.905.14,6.606-5.7,28.02-32.4,32.747,21.414-.487,39.071-15.52,40.533-28.227.783-6.8-.991-12.386-5.057-16.606A8.613,8.613,0,0,0,1962.406,8565.078Zm-80.718-3.371c-2.373-.5-4.823.754-6.914,3.061-1.7-.1-4.462-.944-6.263-5.01a8.512,8.512,0,0,1,.45-8.076c1.278-2.1,3.442-3.642,5.262-3.753a7,7,0,0,1,5.177,1.843,10.943,10.943,0,0,1,3.251,6.9A39.435,39.435,0,0,0,1881.688,8561.707Zm28.387,6.472c-2.242,1.956-12.049,4.929-17.191.788a14.041,14.041,0,0,1-4.567-8.14,2.867,2.867,0,0,1,2.339-3.414c.443-.071.869-.124,1.3-.186-.017.128-.038.251-.049.378.1-.144.2-.273.294-.411a54.162,54.162,0,0,1,7.177-.51,29.593,29.593,0,0,1,11,1.721,4.766,4.766,0,0,1,2.964,3.524C1913.649,8563.887,1912.518,8566.048,1910.075,8568.179Zm34.642-7.352a14.034,14.034,0,0,1-4.569,8.14c-5.14,4.141-14.947,1.167-17.189-.788-2.443-2.131-3.574-4.292-3.27-6.249a4.767,4.767,0,0,1,2.963-3.524,29.6,29.6,0,0,1,11-1.721,54.982,54.982,0,0,1,8.723.729,2.823,2.823,0,0,1,1.892,1.2A2.852,2.852,0,0,1,1944.717,8560.827Zm1.273-2.887c-.069-.121-.141-.241-.222-.359a4.621,4.621,0,0,0-3.1-1.964c-9.745-1.574-17.1-.454-20.738,1.119a7.259,7.259,0,0,0-2.379,1.65h-6.068a7.264,7.264,0,0,0-2.38-1.65c-3.178-1.376-9.2-2.4-17.183-1.588a10.144,10.144,0,0,1,1.322-1.118,9.957,9.957,0,0,1,4.2-1.686,10.177,10.177,0,0,1,4.526.314,10.315,10.315,0,0,1,4.163,2.489,7.052,7.052,0,0,0-3.524-4,8.979,8.979,0,0,0-5.484-.871,8.834,8.834,0,0,0-4.957,2.508,8.033,8.033,0,0,0-1.684,2.535c-.7.088-1.4.186-2.117.3a4.687,4.687,0,0,0-3.892,4.05,15.232,15.232,0,0,1,7.034-13.256c8.064-4.937,19.328-.556,21.066,6.952,2.92-8.2,15.643-14.322,24.543-9.8C1944.195,8546.14,1946.551,8551.91,1945.99,8557.94Zm10,8.737a7.617,7.617,0,0,1-1.541-.046,25.194,25.194,0,0,0-4.345-2.77,19.874,19.874,0,0,0,.236-8.609c1.729-4.019,3.915-6.285,6.342-6.556a5.106,5.106,0,0,1,4.567,2.153c1.582,2.255,3.183,8.619-.282,13.116A6.772,6.772,0,0,1,1955.987,8566.678Z" fill="#2a2a2a"/>
      <path id="Path_4027" data-name="Path 4027" d="M1958.486,8554.324a2.866,2.866,0,0,0-1.295.275,5.548,5.548,0,0,0-1.984,1.534,6.054,6.054,0,0,0-1.172,2.193,4.352,4.352,0,0,0-.04,2.44,14.085,14.085,0,0,1,.934-2.074,12.127,12.127,0,0,1,1.231-1.763,9.976,9.976,0,0,1,1.512-1.488,3.409,3.409,0,0,1,.873-.512.667.667,0,0,1,.873.24.732.732,0,0,0-.256-.6A1.2,1.2,0,0,0,1958.486,8554.324Z" fill="#2a2a2a"/>
      <path id="Path_4028" data-name="Path 4028" d="M1877.08,8553.081a4.4,4.4,0,0,0-2.285-1.359,2.744,2.744,0,0,0-1.372.023,1.909,1.909,0,0,0-1.064.749,2.731,2.731,0,0,1,2.1.222,5.991,5.991,0,0,1,1.628,1.28,8.083,8.083,0,0,1,1.214,1.744,9.22,9.22,0,0,1,.754,2.177,3.809,3.809,0,0,0,.24-2.521A5,5,0,0,0,1877.08,8553.081Z" fill="#2a2a2a"/>
      <path id="Path_4029" data-name="Path 4029" d="M1931.943,8560.18a4.853,4.853,0,0,0-3.706-.413,5.929,5.929,0,0,0-3.074,2.039,4.376,4.376,0,0,0-.995,3.4,5.8,5.8,0,0,1,1.693-2.766,6.547,6.547,0,0,1,2.694-1.5,4.791,4.791,0,0,1,2.976.1,6.4,6.4,0,0,1,2.545,2A4.637,4.637,0,0,0,1931.943,8560.18Z" fill="#2a2a2a"/>
      <path id="Path_4030" data-name="Path 4030" d="M1901.968,8559.767a4.853,4.853,0,0,0-3.706.413,4.632,4.632,0,0,0-2.133,2.849,6.406,6.406,0,0,1,2.544-2,4.794,4.794,0,0,1,2.977-.1,6.547,6.547,0,0,1,2.694,1.5,5.789,5.789,0,0,1,1.692,2.766,4.371,4.371,0,0,0-.994-3.4A5.928,5.928,0,0,0,1901.968,8559.767Z" fill="#2a2a2a"/>
      <path id="Path_4031" data-name="Path 4031" d="M1910.075,8568.179c-2.242,1.956-12.049,4.929-17.191.788a14.041,14.041,0,0,1-4.567-8.14,2.867,2.867,0,0,1,2.339-3.414c.443-.071,1.5-.213,1.546-.219a54.162,54.162,0,0,1,7.177-.51,29.593,29.593,0,0,1,11,1.721,4.766,4.766,0,0,1,2.964,3.524C1913.649,8563.887,1912.518,8566.048,1910.075,8568.179Zm34.642-7.352a14.034,14.034,0,0,1-4.569,8.14c-5.14,4.141-14.947,1.167-17.189-.788-2.443-2.131-3.574-4.292-3.27-6.249a4.767,4.767,0,0,1,2.963-3.524,29.6,29.6,0,0,1,11-1.721,54.982,54.982,0,0,1,8.723.729,2.823,2.823,0,0,1,1.892,1.2A2.852,2.852,0,0,1,1944.717,8560.827Zm-58.177.386a14.291,14.291,0,0,0,5.2,9.17,12.917,12.917,0,0,0,8.193,2.5c4.768,0,9.528-1.761,11.335-3.337,3.713-3.239,4.154-6.084,3.871-7.9-.02-.126-.057-.247-.086-.371h2.92c-.027.124-.064.245-.084.371-.283,1.816.158,4.661,3.87,7.9,1.808,1.576,6.568,3.337,11.337,3.337a13.184,13.184,0,0,0,7.829-2.244c3.146-2.775,5.571-6.771,5.215-11.674a5.906,5.906,0,0,0-.375-1.388,4.619,4.619,0,0,0-3.1-1.964c-9.745-1.574-17.1-.454-20.738,1.119a7.259,7.259,0,0,0-2.379,1.65h-6.068a7.264,7.264,0,0,0-2.38-1.65c-3.178-1.376-9.2-2.4-17.183-1.588-.227.015-2.834.353-3.554.469a4.615,4.615,0,0,0-3.1,1.966,5.677,5.677,0,0,0-.726,2.515A8.993,8.993,0,0,0,1886.54,8561.213Z" fill="#e67a32"/>
    </g>
  </g>
</svg>
