<svg xmlns="http://www.w3.org/2000/svg" width="231.325" height="109.536" viewBox="0 0 231.325 109.536">
  <g id="Group_3282" data-name="Group 3282" transform="translate(-1446.091 -8516.448)">
    <g id="Group_3262" data-name="Group 3262">
      <g id="Group_3248" data-name="Group 3248">
        <rect id="Rectangle_539" data-name="Rectangle 539" width="152.719" height="109.305" rx="12.727" transform="translate(1524.696 8516.448)" fill="#e67a32"/>
      </g>
      <g id="Group_3253" data-name="Group 3253">
        <g id="Group_3249" data-name="Group 3249">
          <rect id="Rectangle_540" data-name="Rectangle 540" width="123.362" height="1.29" transform="translate(1544.144 8551.658)" fill="#fff"/>
        </g>
        <g id="Group_3250" data-name="Group 3250">
          <path id="Path_3956" data-name="Path 3956" d="M1590.985,8568.241a4.779,4.779,0,0,0,.057.829,1.335,1.335,0,0,0,.177.488.809.809,0,0,0,.321.282,3.032,3.032,0,0,0,.635.2v.432h-3.869v-.432a1.793,1.793,0,0,0,.732-.313.844.844,0,0,0,.242-.488,5.987,5.987,0,0,0,.057-.97v-7.623a6.192,6.192,0,0,0-.044-.885,1.11,1.11,0,0,0-.145-.432.744.744,0,0,0-.269-.247,3.041,3.041,0,0,0-.573-.207v-.432h4.371a4.946,4.946,0,0,1,3.071.789,2.856,2.856,0,0,1,1.009,2.4,4.11,4.11,0,0,1-.317,1.648,3.082,3.082,0,0,1-.9,1.2,3.588,3.588,0,0,1-1.375.67,6.669,6.669,0,0,1-1.665.2q-.978,0-1.516-.034Zm0-3.657h1.022a4.444,4.444,0,0,0,1.644-.26,1.937,1.937,0,0,0,.991-.863,3.222,3.222,0,0,0,.344-1.6,3.431,3.431,0,0,0-.2-1.266,1.983,1.983,0,0,0-1.41-1.251,4.29,4.29,0,0,0-1.075-.128c-.581,0-1.019.013-1.313.035Z" fill="#fff"/>
          <path id="Path_3957" data-name="Path 3957" d="M1600.6,8566.012a11.444,11.444,0,0,0,.991,5.084,5.067,5.067,0,0,0,3.027,2.68l-.211.679a6.372,6.372,0,0,1-3.957-2.921,11.41,11.41,0,0,1,.005-10.866,6.378,6.378,0,0,1,3.952-2.93l.238.679a5.08,5.08,0,0,0-3.054,2.648A10.971,10.971,0,0,0,1600.6,8566.012Z" fill="#fff"/>
          <path id="Path_3958" data-name="Path 3958" d="M1606.036,8570.471v-.432a2.764,2.764,0,0,0,.582-.2.733.733,0,0,0,.273-.246,1.149,1.149,0,0,0,.141-.432,6.461,6.461,0,0,0,.044-.891v-7.623a6.422,6.422,0,0,0-.044-.894,1.068,1.068,0,0,0-.146-.427.757.757,0,0,0-.268-.243,3.052,3.052,0,0,0-.582-.207v-.432h3.86a8.543,8.543,0,0,1,2.727.365,4.733,4.733,0,0,1,1.793,1.08,4.422,4.422,0,0,1,1.093,1.775,7.9,7.9,0,0,1,.361,2.534,9.165,9.165,0,0,1-.339,2.621,5.188,5.188,0,0,1-.991,1.9,4.573,4.573,0,0,1-1.384,1.1,5.325,5.325,0,0,1-1.568.5,14.882,14.882,0,0,1-2.362.149Zm2.688-.819q.352.035,1.039.035a6.481,6.481,0,0,0,1.322-.123,3.764,3.764,0,0,0,1.058-.389,2.906,2.906,0,0,0,.854-.734,4.072,4.072,0,0,0,.617-1.084,6.244,6.244,0,0,0,.348-1.362,11.207,11.207,0,0,0,.111-1.639,7.21,7.21,0,0,0-.516-2.938,3.475,3.475,0,0,0-1.454-1.679,4.489,4.489,0,0,0-2.243-.529q-.6,0-1.136.035Z" fill="#fff"/>
          <path id="Path_3959" data-name="Path 3959" d="M1621.3,8566.012a11,11,0,0,0-.987-4.947,5.063,5.063,0,0,0-3.057-2.648l.238-.679a6.383,6.383,0,0,1,3.952,2.93,11.407,11.407,0,0,1,0,10.866,6.37,6.37,0,0,1-3.956,2.921l-.212-.679a5.067,5.067,0,0,0,3.027-2.68A11.428,11.428,0,0,0,1621.3,8566.012Z" fill="#fff"/>
        </g>
        <g id="Group_3252" data-name="Group 3252">
          <g id="Group_3251" data-name="Group 3251">
            <path id="Path_3960" data-name="Path 3960" d="M1553.821,8542.437a4.747,4.747,0,0,0,.057.828,1.332,1.332,0,0,0,.176.489.812.812,0,0,0,.322.282,2.965,2.965,0,0,0,.634.2v.432h-3.868v-.432a1.8,1.8,0,0,0,.731-.312.857.857,0,0,0,.243-.489,5.981,5.981,0,0,0,.057-.97v-7.622a6.364,6.364,0,0,0-.044-.886,1.094,1.094,0,0,0-.146-.431.732.732,0,0,0-.268-.247,2.929,2.929,0,0,0-.573-.207v-.433h4.371a4.954,4.954,0,0,1,3.071.789,2.86,2.86,0,0,1,1.009,2.4,4.088,4.088,0,0,1-.318,1.647,3.066,3.066,0,0,1-.9,1.2,3.548,3.548,0,0,1-1.374.67,6.721,6.721,0,0,1-1.666.2q-.978,0-1.515-.036Zm0-3.656h1.022a4.433,4.433,0,0,0,1.643-.261,1.939,1.939,0,0,0,.992-.863,3.224,3.224,0,0,0,.343-1.6,3.43,3.43,0,0,0-.2-1.265,1.982,1.982,0,0,0-1.41-1.251,4.3,4.3,0,0,0-1.075-.128q-.873,0-1.313.036Z" fill="#fff"/>
            <path id="Path_3961" data-name="Path 3961" d="M1563.435,8540.207a11.436,11.436,0,0,0,.991,5.085,5.071,5.071,0,0,0,3.027,2.679l-.212.679a6.368,6.368,0,0,1-3.956-2.922,11.4,11.4,0,0,1,0-10.864,6.378,6.378,0,0,1,3.952-2.931l.238.679a5.083,5.083,0,0,0-3.053,2.648A10.956,10.956,0,0,0,1563.435,8540.207Z" fill="#fff"/>
            <path id="Path_3962" data-name="Path 3962" d="M1568.872,8544.666v-.432a2.737,2.737,0,0,0,.581-.2.744.744,0,0,0,.273-.247,1.116,1.116,0,0,0,.141-.433,6.272,6.272,0,0,0,.044-.89v-7.622a6.286,6.286,0,0,0-.044-.895,1.074,1.074,0,0,0-.145-.428.756.756,0,0,0-.269-.241,2.905,2.905,0,0,0-.581-.207v-.433h3.859a8.513,8.513,0,0,1,2.727.366,4.729,4.729,0,0,1,1.794,1.079,4.433,4.433,0,0,1,1.092,1.776,7.886,7.886,0,0,1,.362,2.532,9.161,9.161,0,0,1-.34,2.622,5.176,5.176,0,0,1-.991,1.9,4.576,4.576,0,0,1-1.383,1.1,5.256,5.256,0,0,1-1.569.5,14.74,14.74,0,0,1-2.362.15Zm2.687-.819q.352.035,1.04.035a6.427,6.427,0,0,0,1.322-.123,3.808,3.808,0,0,0,1.057-.388,2.916,2.916,0,0,0,.855-.736,4.038,4.038,0,0,0,.617-1.084,6.331,6.331,0,0,0,.348-1.36,11.375,11.375,0,0,0,.11-1.64,7.231,7.231,0,0,0-.515-2.938,3.487,3.487,0,0,0-1.454-1.68,4.512,4.512,0,0,0-2.243-.527c-.4,0-.779.011-1.137.035Z" fill="#fff"/>
            <path id="Path_3963" data-name="Path 3963" d="M1588.046,8532.056l-6.362,16.4H1580.3l6.38-16.4Z" fill="#fff"/>
            <path id="Path_3964" data-name="Path 3964" d="M1594.365,8544.807a4.19,4.19,0,0,1-3.53-1.528,7.3,7.3,0,0,1-1.185-4.525,10.331,10.331,0,0,1,.3-2.643,5.224,5.224,0,0,1,.974-1.975,4.233,4.233,0,0,1,1.582-1.233,4.965,4.965,0,0,1,2.04-.405,4.29,4.29,0,0,1,3.6,1.524,7.156,7.156,0,0,1,1.194,4.477,10.6,10.6,0,0,1-.3,2.683,5.268,5.268,0,0,1-.965,1.987,4.116,4.116,0,0,1-1.595,1.234A5.269,5.269,0,0,1,1594.365,8544.807Zm3.225-5.974H1591.4a7.569,7.569,0,0,0,.828,3.908,2.741,2.741,0,0,0,3.648.951,2.729,2.729,0,0,0,.978-1.026,4.956,4.956,0,0,0,.564-1.63,12.465,12.465,0,0,0,.168-2.168Zm-6.177-.934h6.141a9.058,9.058,0,0,0-.277-2,4.778,4.778,0,0,0-.63-1.445,2.748,2.748,0,0,0-.943-.881,2.482,2.482,0,0,0-1.216-.3,2.566,2.566,0,0,0-2.238,1.142A6.364,6.364,0,0,0,1591.413,8537.9Z" fill="#fff"/>
            <path id="Path_3965" data-name="Path 3965" d="M1604.771,8540.207a11.013,11.013,0,0,0-.986-4.947,5.068,5.068,0,0,0-3.058-2.648l.238-.679a6.378,6.378,0,0,1,3.952,2.931,11.4,11.4,0,0,1,0,10.864,6.368,6.368,0,0,1-3.956,2.922l-.212-.679a5.071,5.071,0,0,0,3.027-2.679A11.436,11.436,0,0,0,1604.771,8540.207Z" fill="#fff"/>
            <path id="Path_3966" data-name="Path 3966" d="M1616.438,8539.582l1.146-1.454a3,3,0,0,0,.3-.463,1.012,1.012,0,0,0,.114-.462.426.426,0,0,0-.15-.335.984.984,0,0,0-.467-.194v-.432h2.882v.432a1.982,1.982,0,0,0-.683.379,6.188,6.188,0,0,0-.85.907l-1.824,2.239,2.009,2.705a6.085,6.085,0,0,0,.775.89,2.243,2.243,0,0,0,.687.44v.432h-3.542v-.432q.732-.088.731-.546a1.014,1.014,0,0,0-.061-.353,1.567,1.567,0,0,0-.229-.388l-1.278-1.78-1.357,1.762a2.425,2.425,0,0,0-.234.357.788.788,0,0,0-.083.366.516.516,0,0,0,.163.392.853.853,0,0,0,.515.189v.432h-2.943v-.432a2.312,2.312,0,0,0,.524-.265,3.028,3.028,0,0,0,.476-.41q.243-.25.639-.734l1.833-2.274-1.877-2.573a8.14,8.14,0,0,0-.617-.767,2.422,2.422,0,0,0-.423-.361,1.41,1.41,0,0,0-.388-.176v-.432h3.455v.432q-.7.105-.7.546a.96.96,0,0,0,.092.405,2.312,2.312,0,0,0,.286.45Z" fill="#fff"/>
            <path id="Path_3967" data-name="Path 3967" d="M1628.3,8542.437a4.636,4.636,0,0,0,.058.828,1.332,1.332,0,0,0,.176.489.8.8,0,0,0,.322.282,2.965,2.965,0,0,0,.634.2v.432h-3.868v-.432a1.8,1.8,0,0,0,.731-.312.856.856,0,0,0,.242-.489,5.97,5.97,0,0,0,.058-.97v-7.622a6.364,6.364,0,0,0-.044-.886,1.094,1.094,0,0,0-.146-.431.728.728,0,0,0-.269-.247,2.889,2.889,0,0,0-.572-.207v-.433h4.37a4.95,4.95,0,0,1,3.071.789,2.858,2.858,0,0,1,1.009,2.4,4.107,4.107,0,0,1-.317,1.647,3.066,3.066,0,0,1-.9,1.2,3.561,3.561,0,0,1-1.374.67,6.722,6.722,0,0,1-1.666.2q-.978,0-1.516-.036Zm0-3.656h1.023a4.44,4.44,0,0,0,1.643-.261,1.937,1.937,0,0,0,.991-.863,3.224,3.224,0,0,0,.344-1.6,3.429,3.429,0,0,0-.2-1.265,1.978,1.978,0,0,0-1.41-1.251,4.289,4.289,0,0,0-1.075-.128q-.872,0-1.313.036Z" fill="#fff"/>
            <path id="Path_3968" data-name="Path 3968" d="M1637.913,8540.207a11.435,11.435,0,0,0,.992,5.085,5.065,5.065,0,0,0,3.027,2.679l-.212.679a6.373,6.373,0,0,1-3.957-2.922,11.407,11.407,0,0,1,.005-10.864,6.376,6.376,0,0,1,3.952-2.931l.238.679a5.078,5.078,0,0,0-3.053,2.648A10.955,10.955,0,0,0,1637.913,8540.207Z" fill="#fff"/>
            <path id="Path_3969" data-name="Path 3969" d="M1648.056,8544.807a4.188,4.188,0,0,1-3.529-1.528,7.292,7.292,0,0,1-1.186-4.525,10.374,10.374,0,0,1,.3-2.643,5.238,5.238,0,0,1,.974-1.975,4.24,4.24,0,0,1,1.582-1.233,4.964,4.964,0,0,1,2.04-.405,4.291,4.291,0,0,1,3.6,1.524,7.155,7.155,0,0,1,1.194,4.477,10.649,10.649,0,0,1-.3,2.683,5.3,5.3,0,0,1-.965,1.987,4.132,4.132,0,0,1-1.595,1.234A5.278,5.278,0,0,1,1648.056,8544.807Zm3.225-5.974h-6.186a7.591,7.591,0,0,0,.828,3.908,2.742,2.742,0,0,0,3.649.951,2.744,2.744,0,0,0,.978-1.026,5.007,5.007,0,0,0,.564-1.63,12.58,12.58,0,0,0,.167-2.168Zm-6.177-.934h6.142a9.061,9.061,0,0,0-.278-2,4.778,4.778,0,0,0-.63-1.445,2.74,2.74,0,0,0-.943-.881,2.48,2.48,0,0,0-1.216-.3,2.568,2.568,0,0,0-2.238,1.142A6.364,6.364,0,0,0,1645.1,8537.9Z" fill="#fff"/>
            <path id="Path_3970" data-name="Path 3970" d="M1658.463,8540.207a11,11,0,0,0-.987-4.947,5.065,5.065,0,0,0-3.058-2.648l.238-.679a6.376,6.376,0,0,1,3.952,2.931,11.407,11.407,0,0,1,.005,10.864,6.373,6.373,0,0,1-3.957,2.922l-.211-.679a5.066,5.066,0,0,0,3.026-2.679A11.435,11.435,0,0,0,1658.463,8540.207Z" fill="#fff"/>
          </g>
        </g>
      </g>
      <g id="Group_3261" data-name="Group 3261">
        <g id="Group_3254" data-name="Group 3254">
          <path id="Path_3971" data-name="Path 3971" d="M1552.353,8595.48h5.31v.639h-5.31Zm0,2.244h5.31v.64h-5.31Z" fill="#fff"/>
          <path id="Path_3972" data-name="Path 3972" d="M1564.324,8597.205l-5.3,2.228v-.692l4.446-1.828-4.446-1.827v-.693l5.31,2.235Z" fill="#fff"/>
        </g>
        <g id="Group_3260" data-name="Group 3260">
          <g id="Group_3255" data-name="Group 3255">
            <path id="Path_3973" data-name="Path 3973" d="M1571.28,8593.037l2.3,3.477v.4l-2.584,3.563h3.04a1.16,1.16,0,0,0,.846-.262,2.446,2.446,0,0,0,.429-1.187h.672l-.148,2.557h-6.362v-.329l3.006-4.134-2.819-4.369v-.329h6.2v2.342h-.631a3.681,3.681,0,0,0-.567-1.4,1.081,1.081,0,0,0-.843-.322Z" fill="#fff"/>
            <path id="Path_3974" data-name="Path 3974" d="M1587.944,8594.406a2.861,2.861,0,0,1-.292,1.318,2.629,2.629,0,0,1-.809.95,3.476,3.476,0,0,1-1.12.55,4.7,4.7,0,0,1-1.3.175h-1.067v2.886a1.035,1.035,0,0,0,.077.413.532.532,0,0,0,.319.271,2.077,2.077,0,0,0,.426.087,5.138,5.138,0,0,0,.561.047v.478h-4.087v-.478c.107-.009.262-.023.466-.047a1.549,1.549,0,0,0,.426-.087.573.573,0,0,0,.292-.255.893.893,0,0,0,.091-.43v-6.872a1.268,1.268,0,0,0-.067-.423.494.494,0,0,0-.316-.282,2.949,2.949,0,0,0-.507-.124c-.167-.024-.312-.041-.432-.05v-.478h4.349a3.43,3.43,0,0,1,2.157.642A2.05,2.05,0,0,1,1587.944,8594.406Zm-2.04,1.624a1.8,1.8,0,0,0,.3-.667,3.04,3.04,0,0,0,.074-.621,3.51,3.51,0,0,0-.091-.779,1.79,1.79,0,0,0-.312-.69,1.556,1.556,0,0,0-.617-.49,2.3,2.3,0,0,0-.953-.174h-.947v4.208h.685a2.65,2.65,0,0,0,1.178-.226A1.723,1.723,0,0,0,1585.9,8596.03Z" fill="#fff"/>
            <path id="Path_3975" data-name="Path 3975" d="M1593.085,8603.782a3.859,3.859,0,0,1-2.876-1.847,7.944,7.944,0,0,1-1.044-4.354,8.1,8.1,0,0,1,1.044-4.413,3.894,3.894,0,0,1,2.876-1.869v.558a2.679,2.679,0,0,0-1.96,1.644,9.837,9.837,0,0,0-.671,4.094,9.683,9.683,0,0,0,.658,3.978,2.674,2.674,0,0,0,1.973,1.661Z" fill="#fff"/>
            <path id="Path_3976" data-name="Path 3976" d="M1603.313,8596.876a4.58,4.58,0,0,1-.456,2.107,4.328,4.328,0,0,1-1.188,1.463,5.149,5.149,0,0,1-1.658.853,6.425,6.425,0,0,1-1.9.282h-3.947v-.478a4.519,4.519,0,0,0,.507-.036,1.608,1.608,0,0,0,.413-.084.579.579,0,0,0,.292-.259.875.875,0,0,0,.09-.413v-6.871a1.03,1.03,0,0,0-.077-.41.576.576,0,0,0-.305-.288,1.822,1.822,0,0,0-.45-.148,3.93,3.93,0,0,0-.416-.06v-.478h4.161a5.569,5.569,0,0,1,1.691.266,5.046,5.046,0,0,1,1.45.715,4.113,4.113,0,0,1,1.315,1.563A5.088,5.088,0,0,1,1603.313,8596.876Zm-1.644-.007a5.535,5.535,0,0,0-.255-1.735,4.008,4.008,0,0,0-.745-1.352,3.29,3.29,0,0,0-1.138-.866,3.5,3.5,0,0,0-1.5-.315c-.183,0-.39,0-.621.011s-.4.012-.513.017v7.322a.934.934,0,0,0,.356.845,2.009,2.009,0,0,0,1.094.235,3.431,3.431,0,0,0,1.489-.3,2.677,2.677,0,0,0,1.034-.839,3.74,3.74,0,0,0,.607-1.3A6.88,6.88,0,0,0,1601.669,8596.869Z" fill="#fff"/>
            <path id="Path_3977" data-name="Path 3977" d="M1609.668,8591.359l-4.637,13.066h-.872l4.624-13.066Z" fill="#fff"/>
            <path id="Path_3978" data-name="Path 3978" d="M1614.662,8601.688a3.192,3.192,0,0,1-2.688-1.164,5.561,5.561,0,0,1-.9-3.447,7.853,7.853,0,0,1,.232-2.013,3.979,3.979,0,0,1,.741-1.5,3.221,3.221,0,0,1,1.205-.939,3.781,3.781,0,0,1,1.554-.31,3.269,3.269,0,0,1,2.741,1.161,5.453,5.453,0,0,1,.91,3.41,8.1,8.1,0,0,1-.232,2.043,4.035,4.035,0,0,1-.735,1.515,3.122,3.122,0,0,1-1.215.938A4,4,0,0,1,1614.662,8601.688Zm2.456-4.551h-4.711a5.768,5.768,0,0,0,.631,2.977,2.09,2.09,0,0,0,2.778.725,2.073,2.073,0,0,0,.745-.782,3.8,3.8,0,0,0,.429-1.24,9.543,9.543,0,0,0,.128-1.651Zm-4.705-.712h4.678a6.884,6.884,0,0,0-.211-1.522,3.645,3.645,0,0,0-.48-1.1,2.09,2.09,0,0,0-.718-.671,1.892,1.892,0,0,0-.926-.228,1.957,1.957,0,0,0-1.7.869A4.851,4.851,0,0,0,1612.413,8596.426Z" fill="#fff"/>
            <path id="Path_3979" data-name="Path 3979" d="M1621.408,8606.158h-1.866v-.259l.186-.016a.656.656,0,0,0,.166-.032.272.272,0,0,0,.162-.123.442.442,0,0,0,.053-.229v-2.383a.468.468,0,0,0-.057-.229.5.5,0,0,0-.158-.175.738.738,0,0,0-.215-.08,1.629,1.629,0,0,0-.259-.041v-.254l1.362-.086.055.055v3.146a.431.431,0,0,0,.053.227.307.307,0,0,0,.166.134,1.215,1.215,0,0,0,.168.057,1.186,1.186,0,0,0,.184.029Zm-.493-5.427a.571.571,0,0,1-.147.389.467.467,0,0,1-.708.008.516.516,0,0,1-.147-.362.54.54,0,0,1,.147-.376.455.455,0,0,1,.346-.159.48.48,0,0,1,.366.15A.494.494,0,0,1,1620.915,8600.731Z" fill="#fff"/>
            <path id="Path_3980" data-name="Path 3980" d="M1625.969,8597.581a7.945,7.945,0,0,1-1.044,4.354,3.859,3.859,0,0,1-2.876,1.847v-.55a2.677,2.677,0,0,0,1.974-1.661,9.7,9.7,0,0,0,.657-3.978,9.837,9.837,0,0,0-.671-4.094,2.677,2.677,0,0,0-1.96-1.644v-.558a3.894,3.894,0,0,1,2.876,1.869A8.1,8.1,0,0,1,1625.969,8597.581Z" fill="#fff"/>
            <path id="Path_3981" data-name="Path 3981" d="M1638.016,8594.406a2.875,2.875,0,0,1-.292,1.318,2.638,2.638,0,0,1-.809.95,3.481,3.481,0,0,1-1.121.55,4.7,4.7,0,0,1-1.295.175h-1.067v2.886a1.018,1.018,0,0,0,.077.413.529.529,0,0,0,.319.271,2.045,2.045,0,0,0,.426.087,5.1,5.1,0,0,0,.56.047v.478h-4.087v-.478c.108-.009.263-.023.467-.047a1.569,1.569,0,0,0,.426-.087.577.577,0,0,0,.292-.255.9.9,0,0,0,.09-.43v-6.872a1.244,1.244,0,0,0-.067-.423.494.494,0,0,0-.315-.282,2.952,2.952,0,0,0-.507-.124c-.168-.024-.312-.041-.433-.05v-.478h4.349a3.433,3.433,0,0,1,2.158.642A2.052,2.052,0,0,1,1638.016,8594.406Zm-2.041,1.624a1.8,1.8,0,0,0,.3-.667,2.965,2.965,0,0,0,.074-.621,3.508,3.508,0,0,0-.09-.779,1.823,1.823,0,0,0-.312-.69,1.56,1.56,0,0,0-.618-.49,2.3,2.3,0,0,0-.953-.174h-.946v4.208h.684a2.647,2.647,0,0,0,1.178-.226A1.722,1.722,0,0,0,1635.975,8596.03Z" fill="#fff"/>
            <path id="Path_3982" data-name="Path 3982" d="M1643.156,8603.782a3.857,3.857,0,0,1-2.875-1.847,7.944,7.944,0,0,1-1.044-4.354,8.1,8.1,0,0,1,1.044-4.413,3.892,3.892,0,0,1,2.875-1.869v.558a2.676,2.676,0,0,0-1.959,1.644,9.821,9.821,0,0,0-.671,4.094,9.7,9.7,0,0,0,.657,3.978,2.676,2.676,0,0,0,1.973,1.661Z" fill="#fff"/>
            <path id="Path_3983" data-name="Path 3983" d="M1647.995,8601.688a3.194,3.194,0,0,1-2.688-1.164,5.568,5.568,0,0,1-.9-3.447,7.9,7.9,0,0,1,.231-2.013,3.993,3.993,0,0,1,.742-1.5,3.212,3.212,0,0,1,1.2-.939,3.777,3.777,0,0,1,1.553-.31,3.271,3.271,0,0,1,2.742,1.161,5.454,5.454,0,0,1,.909,3.41,8.1,8.1,0,0,1-.231,2.043,4.064,4.064,0,0,1-.735,1.515,3.136,3.136,0,0,1-1.215.938A4,4,0,0,1,1647.995,8601.688Zm2.457-4.551h-4.712a5.768,5.768,0,0,0,.631,2.977,2.091,2.091,0,0,0,2.779.725,2.08,2.08,0,0,0,.745-.782,3.8,3.8,0,0,0,.429-1.24,9.531,9.531,0,0,0,.128-1.651Zm-4.705-.712h4.678a6.887,6.887,0,0,0-.212-1.522,3.618,3.618,0,0,0-.479-1.1,2.093,2.093,0,0,0-.719-.671,1.89,1.89,0,0,0-.926-.228,1.954,1.954,0,0,0-1.7.869A4.843,4.843,0,0,0,1645.747,8596.426Z" fill="#fff"/>
            <path id="Path_3984" data-name="Path 3984" d="M1654.742,8606.158h-1.867v-.259l.186-.016a.639.639,0,0,0,.166-.032.274.274,0,0,0,.163-.123.441.441,0,0,0,.053-.229v-2.383a.468.468,0,0,0-.057-.229.505.505,0,0,0-.159-.175.727.727,0,0,0-.215-.08,1.636,1.636,0,0,0-.258-.041v-.254l1.362-.086.054.055v3.146a.441.441,0,0,0,.053.227.309.309,0,0,0,.167.134,1.22,1.22,0,0,0,.168.057,1.186,1.186,0,0,0,.184.029Zm-.493-5.427a.571.571,0,0,1-.147.389.463.463,0,0,1-.362.166.457.457,0,0,1-.346-.158.516.516,0,0,1-.147-.362.54.54,0,0,1,.147-.376.455.455,0,0,1,.346-.159.48.48,0,0,1,.366.15A.494.494,0,0,1,1654.249,8600.731Z" fill="#fff"/>
            <path id="Path_3985" data-name="Path 3985" d="M1659.3,8597.581a7.945,7.945,0,0,1-1.044,4.354,3.859,3.859,0,0,1-2.876,1.847v-.55a2.674,2.674,0,0,0,1.973-1.661,9.683,9.683,0,0,0,.658-3.978,9.837,9.837,0,0,0-.671-4.094,2.679,2.679,0,0,0-1.96-1.644v-.558a3.894,3.894,0,0,1,2.876,1.869A8.1,8.1,0,0,1,1659.3,8597.581Z" fill="#fff"/>
          </g>
          <g id="Group_3256" data-name="Group 3256">
            <path id="Path_3986" data-name="Path 3986" d="M1570.937,8590.977h-1.588v-.176l.194-.015a.762.762,0,0,0,.179-.03.243.243,0,0,0,.119-.088.277.277,0,0,0,.037-.156v-2.555a.347.347,0,0,0-.027-.146.223.223,0,0,0-.129-.1,1.289,1.289,0,0,0-.188-.056,1.065,1.065,0,0,0-.185-.031v-.177h1.588v.177a1.65,1.65,0,0,0-.184.018,1.565,1.565,0,0,0-.186.041.2.2,0,0,0-.127.1.334.334,0,0,0-.032.148v2.554a.292.292,0,0,0,.036.146.25.25,0,0,0,.123.1,1.371,1.371,0,0,0,.17.044,1.4,1.4,0,0,0,.2.025Z" fill="#fff"/>
            <path id="Path_3987" data-name="Path 3987" d="M1572.933,8591.059a1.516,1.516,0,0,1-.6-.124,1.545,1.545,0,0,1-.513-.357,1.721,1.721,0,0,1-.353-.57,2.067,2.067,0,0,1-.132-.76,2.173,2.173,0,0,1,.129-.767,1.8,1.8,0,0,1,.358-.593,1.58,1.58,0,0,1,.534-.381,1.648,1.648,0,0,1,.659-.134,1.577,1.577,0,0,1,.472.065,1.746,1.746,0,0,1,.4.181l.1-.169h.2l.022,1.258h-.2a2.892,2.892,0,0,0-.119-.4,1.54,1.54,0,0,0-.186-.363.907.907,0,0,0-.284-.266.732.732,0,0,0-.375-.1.969.969,0,0,0-.449.107,1.028,1.028,0,0,0-.359.315,1.56,1.56,0,0,0-.226.512,2.706,2.706,0,0,0-.082.693,2.133,2.133,0,0,0,.086.621,1.571,1.571,0,0,0,.245.5,1.175,1.175,0,0,0,.376.331.988.988,0,0,0,.486.119,1.05,1.05,0,0,0,.37-.063.976.976,0,0,0,.294-.168,1.307,1.307,0,0,0,.218-.248,1.368,1.368,0,0,0,.155-.3l.186.09a1.393,1.393,0,0,1-1.407.974Z" fill="#fff"/>
            <path id="Path_3988" data-name="Path 3988" d="M1576.189,8590.977H1574.6v-.176l.194-.015a.76.76,0,0,0,.179-.03.239.239,0,0,0,.119-.088.277.277,0,0,0,.037-.156v-2.555a.349.349,0,0,0-.027-.146.224.224,0,0,0-.129-.1,1.248,1.248,0,0,0-.188-.056,1.061,1.061,0,0,0-.185-.031v-.177h1.588v.177a1.674,1.674,0,0,0-.184.018,1.565,1.565,0,0,0-.186.041.2.2,0,0,0-.127.1.348.348,0,0,0-.032.148v2.554a.291.291,0,0,0,.036.146.249.249,0,0,0,.123.1,1.491,1.491,0,0,0,.37.069Z" fill="#fff"/>
          </g>
          <g id="Group_3257" data-name="Group 3257">
            <path id="Path_3989" data-name="Path 3989" d="M1572.431,8606.407h-1.186v-.164l.118-.01a.441.441,0,0,0,.106-.021.174.174,0,0,0,.1-.078.273.273,0,0,0,.034-.145v-1.515a.293.293,0,0,0-.036-.145.328.328,0,0,0-.1-.111.453.453,0,0,0-.137-.051,1.12,1.12,0,0,0-.164-.026v-.161l.865-.055.035.034v2a.271.271,0,0,0,.034.144.2.2,0,0,0,.1.086,1.059,1.059,0,0,0,.107.035.585.585,0,0,0,.117.019Zm-.313-3.447a.363.363,0,0,1-.093.247.3.3,0,0,1-.23.106.29.29,0,0,1-.22-.1.329.329,0,0,1-.093-.229.342.342,0,0,1,.093-.239.29.29,0,0,1,.22-.1.3.3,0,0,1,.232.1A.311.311,0,0,1,1572.118,8602.96Z" fill="#fff"/>
            <path id="Path_3990" data-name="Path 3990" d="M1573.689,8604.287a.327.327,0,0,1-.1.239.341.341,0,0,1-.48,0,.326.326,0,0,1-.1-.239.331.331,0,0,1,.1-.24.341.341,0,0,1,.582.24Zm0,1.834a.324.324,0,0,1-.1.238.344.344,0,0,1-.48,0,.323.323,0,0,1-.1-.238.34.34,0,0,1,.681,0Z" fill="#fff"/>
            <path id="Path_3991" data-name="Path 3991" d="M1575.513,8606.407h-1.185v-.164l.118-.01a.443.443,0,0,0,.1-.021.171.171,0,0,0,.1-.078.273.273,0,0,0,.034-.145v-1.515a.293.293,0,0,0-.036-.145.328.328,0,0,0-.1-.111.456.456,0,0,0-.136-.051,1.163,1.163,0,0,0-.164-.026v-.161l.865-.055.034.034v2a.281.281,0,0,0,.034.144.2.2,0,0,0,.106.086,1.044,1.044,0,0,0,.106.035.585.585,0,0,0,.117.019Zm-.313-3.447a.363.363,0,0,1-.093.247.3.3,0,0,1-.23.106.29.29,0,0,1-.22-.1.329.329,0,0,1-.093-.229.342.342,0,0,1,.093-.239.29.29,0,0,1,.22-.1.3.3,0,0,1,.232.1A.31.31,0,0,1,1575.2,8602.96Z" fill="#fff"/>
          </g>
          <g id="Group_3258" data-name="Group 3258">
            <rect id="Rectangle_541" data-name="Rectangle 541" width="29.425" height="0.854" transform="translate(1591.977 8607.737)" fill="#fff"/>
          </g>
          <g id="Group_3259" data-name="Group 3259">
            <rect id="Rectangle_542" data-name="Rectangle 542" width="29.425" height="0.854" transform="translate(1627.953 8607.737)" fill="#fff"/>
          </g>
        </g>
      </g>
    </g>
    <g id="Group_3281" data-name="Group 3281">
      <g id="Group_3263" data-name="Group 3263">
        <ellipse id="Ellipse_3051" data-name="Ellipse 3051" cx="40.208" cy="31.288" rx="40.208" ry="31.288" transform="translate(1455.369 8551.646)" fill="#fff"/>
      </g>
      <g id="Group_3264" data-name="Group 3264">
        <path id="Path_3992" data-name="Path 3992" d="M1536.657,8568.462c4.066,4.221,5.84,9.808,5.057,16.606-1.462,12.707-19.119,27.739-40.533,28.227,26.7-4.728,32.539-26.141,32.4-32.747-.129-6.131-6.909-10.044-12.441-9.905a13.184,13.184,0,0,1-7.829,2.244c-4.769,0-9.529-1.761-11.337-3.337-3.712-3.239-4.153-6.084-3.87-7.9.02-.126.057-.247.084-.371h-2.92c.029.124.066.245.086.371.283,1.816-.158,4.661-3.871,7.9-1.807,1.576-6.567,3.337-11.335,3.337a12.917,12.917,0,0,1-8.193-2.5,15.814,15.814,0,0,1-5.2-9.17,20.731,20.731,0,0,0,4.464,11.062c-6-3.823-13,2.434-12.074,15.319s15.3,22.711,23.824,25.006c-21.761-1.737-31.333-17.684-33.187-28.808a24.662,24.662,0,0,1,3.907-17.394c-2.124-.437-4.829-1.847-6.626-5.9a10.276,10.276,0,0,1,.56-9.758c1.593-2.618,4.288-4.478,6.706-4.624a8.881,8.881,0,0,1,6.5,2.3,11.428,11.428,0,0,1,3.052,4.732,42.841,42.841,0,0,1,8.729-15.5c9.316-10.221,23.29-13.036,27.149-13.21s2.017,3.023-.545,4.287c2.248-.882,7.092-1.506,10.151-.6s1.066,2.886-.672,3.894c3.476-.9,5.458-.893,5.771.314.146.564-.383,1.842-2.387,2.606,9.687.853,15.65,9.275,17.856,17.448,2.294-4.1,4.872-5.289,6.758-5.5a6.978,6.978,0,0,1,6.258,2.916c2.285,3.256,3.442,10.375-.329,15.272A8.612,8.612,0,0,1,1536.657,8568.462Z" fill="#fff"/>
      </g>
      <g id="Group_3268" data-name="Group 3268">
        <g id="Group_3265" data-name="Group 3265">
          <path id="Rectangle_543" data-name="Rectangle 543" d="M1.876,0H5.909A1.878,1.878,0,0,1,7.786,1.878V5.91A1.878,1.878,0,0,1,5.909,7.788H1.878A1.878,1.878,0,0,1,0,5.91V1.876A1.876,1.876,0,0,1,1.876,0Z" transform="translate(1492.143 8615.937)" fill="#e67a32"/>
        </g>
        <g id="Group_3266" data-name="Group 3266">
          <path id="Path_3993" data-name="Path 3993" d="M1513.412,8624.54c-.585,1.211-2.045,1.6-4.851,1.028s-7.414-1.114-7.38-7.686c-.034-.694.452-1.425,1.842-1.946s7.788-2.434,9.178-2.642,3.928,0,4.067,2.294S1513.771,8623.8,1513.412,8624.54Z" fill="#e67a32"/>
        </g>
        <g id="Group_3267" data-name="Group 3267">
          <path id="Path_3994" data-name="Path 3994" d="M1490.409,8617.883c.034,6.571-3.841,7.341-6.656,7.909s-5.84-.1-6.952-2.323a19.526,19.526,0,0,1-1.48-7.88c.14-2.294,2.678-2.5,4.068-2.294s7.786,2.12,9.176,2.642S1490.443,8617.188,1490.409,8617.883Z" fill="#e67a32"/>
        </g>
      </g>
      <g id="Group_3269" data-name="Group 3269">
        <path id="Path_3995" data-name="Path 3995" d="M1506.588,8549.074a9.821,9.821,0,0,1,5.107-2.4,7.967,7.967,0,0,1,5.339,1.208,9.684,9.684,0,0,1,3.684,4.735,7.668,7.668,0,0,0-2.551-6.186,8.479,8.479,0,0,0-6.769-2.078,9.692,9.692,0,0,0-6.115,3.429,12.3,12.3,0,0,0-2.711,6.086c.644-.9,1.213-1.8,1.894-2.6A17.642,17.642,0,0,1,1506.588,8549.074Z" fill="#2a2a2a"/>
      </g>
      <g id="Group_3270" data-name="Group 3270">
        <path id="Path_3996" data-name="Path 3996" d="M1503.407,8574.638a3.428,3.428,0,0,1-1.345,2.573,3.586,3.586,0,0,0,.6-2.533,3.292,3.292,0,0,0-1.253-2.021,5.887,5.887,0,0,0-2.283-1,11.339,11.339,0,0,0-2.6-.313,7.54,7.54,0,0,0-4.828,1.28,3.857,3.857,0,0,0-1.344,2.037,3.144,3.144,0,0,0,.4,2.552,3.107,3.107,0,0,1-1.132-2.655,4.386,4.386,0,0,1,1.279-2.8,6.253,6.253,0,0,1,2.673-1.549c.245-.072.493-.135.742-.193l.748-.1a13.031,13.031,0,0,1,1.5-.084,11.919,11.919,0,0,1,2.95.442,6.38,6.38,0,0,1,2.69,1.5A3.92,3.92,0,0,1,1503.407,8574.638Z" fill="#2a2a2a"/>
      </g>
      <g id="Group_3271" data-name="Group 3271">
        <path id="Path_3997" data-name="Path 3997" d="M1499.972,8576.011a3.446,3.446,0,0,0-1.283.759,6.526,6.526,0,0,0-.973,1.173,1.984,1.984,0,0,1,.668-1.509,1.961,1.961,0,0,1,.744-.428A1.341,1.341,0,0,1,1499.972,8576.011Z" fill="#2a2a2a"/>
      </g>
      <g id="Group_3272" data-name="Group 3272">
        <path id="Path_3998" data-name="Path 3998" d="M1494.487,8577.827a9.311,9.311,0,0,0-1.01-.895c-.17-.139-.35-.268-.526-.4s-.355-.276-.567-.4a1.371,1.371,0,0,1,.734.091,2.4,2.4,0,0,1,.639.361A1.758,1.758,0,0,1,1494.487,8577.827Z" fill="#2a2a2a"/>
      </g>
      <g id="Group_3273" data-name="Group 3273">
        <path id="Path_3999" data-name="Path 3999" d="M1521.83,8575.82a33.192,33.192,0,0,1-10.954,7.145,37.821,37.821,0,0,1-6.337,1.922,43.928,43.928,0,0,1-6.572.832,47.515,47.515,0,0,1-13.11-1.263,44.073,44.073,0,0,1-12.181-4.742,69.433,69.433,0,0,0,12.462,3.356,63.094,63.094,0,0,0,6.362.762,51.962,51.962,0,0,0,6.383.071,45.354,45.354,0,0,0,6.326-.708,44.232,44.232,0,0,0,6.175-1.563A45.227,45.227,0,0,0,1521.83,8575.82Z" fill="#2a2a2a"/>
      </g>
      <g id="Group_3274" data-name="Group 3274">
        <path id="Path_4000" data-name="Path 4000" d="M1504.009,8591.3a9.6,9.6,0,0,0-3.451-.714c-1.174-.081-2.352-.093-3.53-.063s-2.355.1-3.533.219a31.472,31.472,0,0,0-3.551.559,9.884,9.884,0,0,1,3.382-1.486,16.729,16.729,0,0,1,3.673-.5,15.3,15.3,0,0,1,3.7.34c.3.063.608.152.906.237s.591.214.882.326A4.136,4.136,0,0,1,1504.009,8591.3Z" fill="#2a2a2a"/>
      </g>
      <g id="Group_3275" data-name="Group 3275">
        <path id="Path_4001" data-name="Path 4001" d="M1542.617,8565.078c3.771-4.9,2.614-12.017.329-15.272a6.978,6.978,0,0,0-6.258-2.916c-1.886.209-4.464,1.4-6.758,5.5-2.206-8.173-8.169-16.6-17.856-17.448,2-.765,2.533-2.042,2.387-2.606-.313-1.207-2.3-1.218-5.771-.314,1.738-1.008,3.731-2.989.672-3.894s-7.9-.278-10.151.6c2.562-1.264,4.4-4.462.545-4.287s-17.833,2.989-27.149,13.21a42.841,42.841,0,0,0-8.729,15.5,11.428,11.428,0,0,0-3.052-4.732,8.881,8.881,0,0,0-6.5-2.3c-2.418.146-5.113,2.006-6.706,4.624a10.276,10.276,0,0,0-.56,9.758c1.8,4.057,4.5,5.466,6.626,5.9a24.662,24.662,0,0,0-3.907,17.394c1.854,11.124,11.426,27.07,33.187,28.808-8.528-2.295-22.9-12.122-23.824-25.006s6.072-19.143,12.074-15.319a20.731,20.731,0,0,1-4.464-11.062,15.814,15.814,0,0,0,5.2,9.17,12.917,12.917,0,0,0,8.193,2.5c4.768,0,9.528-1.761,11.335-3.337,3.713-3.239,4.154-6.084,3.871-7.9-.02-.126-.057-.247-.086-.371h2.92c-.027.124-.064.245-.084.371-.283,1.816.158,4.661,3.87,7.9,1.808,1.576,6.568,3.337,11.337,3.337a13.184,13.184,0,0,0,7.829-2.244c5.532-.139,12.312,3.774,12.441,9.905.14,6.606-5.7,28.02-32.4,32.747,21.414-.487,39.071-15.52,40.533-28.227.783-6.8-.991-12.386-5.057-16.606A8.612,8.612,0,0,0,1542.617,8565.078Zm-80.718-3.371c-2.373-.5-4.823.754-6.914,3.061-1.7-.1-4.462-.944-6.263-5.01a8.512,8.512,0,0,1,.45-8.076c1.278-2.1,3.442-3.642,5.262-3.753a7,7,0,0,1,5.177,1.843,10.943,10.943,0,0,1,3.251,6.9A39.435,39.435,0,0,0,1461.9,8561.707Zm28.387,6.472c-2.242,1.956-12.049,4.929-17.191.788a14.042,14.042,0,0,1-4.567-8.14,2.867,2.867,0,0,1,2.339-3.414c.443-.071.869-.124,1.3-.186-.017.128-.038.251-.049.378.095-.144.2-.273.294-.411a54.165,54.165,0,0,1,7.177-.51,29.594,29.594,0,0,1,11,1.721,4.766,4.766,0,0,1,2.964,3.524C1493.86,8563.887,1492.729,8566.048,1490.286,8568.179Zm34.642-7.352a14.034,14.034,0,0,1-4.569,8.14c-5.14,4.141-14.947,1.167-17.189-.788-2.443-2.131-3.574-4.292-3.27-6.249a4.767,4.767,0,0,1,2.963-3.524,29.6,29.6,0,0,1,11-1.721,54.98,54.98,0,0,1,8.723.729,2.867,2.867,0,0,1,2.339,3.414Zm1.273-2.887c-.069-.121-.141-.241-.222-.359a4.621,4.621,0,0,0-3.1-1.964c-9.745-1.574-17.1-.454-20.738,1.119a7.26,7.26,0,0,0-2.379,1.65h-6.068a7.263,7.263,0,0,0-2.38-1.65c-3.178-1.376-9.2-2.4-17.183-1.588a10.153,10.153,0,0,1,1.322-1.118,9.957,9.957,0,0,1,4.2-1.686,10.178,10.178,0,0,1,4.526.314,10.315,10.315,0,0,1,4.163,2.489,7.052,7.052,0,0,0-3.524-4,8.978,8.978,0,0,0-5.484-.871,8.833,8.833,0,0,0-4.957,2.508,8.036,8.036,0,0,0-1.684,2.535c-.695.088-1.4.186-2.117.3a4.687,4.687,0,0,0-3.892,4.05,15.232,15.232,0,0,1,7.034-13.256c8.064-4.937,19.328-.556,21.066,6.952,2.92-8.2,15.643-14.322,24.543-9.8C1524.406,8546.14,1526.762,8551.91,1526.2,8557.94Zm10,8.737a7.617,7.617,0,0,1-1.541-.046,25.2,25.2,0,0,0-4.345-2.77,19.874,19.874,0,0,0,.236-8.609c1.729-4.019,3.915-6.285,6.342-6.556a5.106,5.106,0,0,1,4.567,2.153c1.582,2.255,3.183,8.619-.282,13.116A6.773,6.773,0,0,1,1536.2,8566.678Z" fill="#2a2a2a"/>
      </g>
      <g id="Group_3276" data-name="Group 3276">
        <path id="Path_4002" data-name="Path 4002" d="M1538.7,8554.324a2.867,2.867,0,0,0-1.3.275,5.549,5.549,0,0,0-1.984,1.534,6.058,6.058,0,0,0-1.172,2.193,4.351,4.351,0,0,0-.04,2.44,14.073,14.073,0,0,1,.934-2.074,12.117,12.117,0,0,1,1.231-1.763,9.971,9.971,0,0,1,1.512-1.488,3.409,3.409,0,0,1,.873-.512.667.667,0,0,1,.873.24.732.732,0,0,0-.256-.6A1.2,1.2,0,0,0,1538.7,8554.324Z" fill="#2a2a2a"/>
      </g>
      <g id="Group_3277" data-name="Group 3277">
        <path id="Path_4003" data-name="Path 4003" d="M1457.291,8553.081a4.4,4.4,0,0,0-2.285-1.359,2.744,2.744,0,0,0-1.372.023,1.91,1.91,0,0,0-1.064.749,2.732,2.732,0,0,1,2.105.222,5.99,5.99,0,0,1,1.628,1.28,8.074,8.074,0,0,1,1.214,1.744,9.214,9.214,0,0,1,.754,2.177,3.809,3.809,0,0,0,.24-2.521A5,5,0,0,0,1457.291,8553.081Z" fill="#2a2a2a"/>
      </g>
      <g id="Group_3278" data-name="Group 3278">
        <path id="Path_4004" data-name="Path 4004" d="M1512.154,8560.18a4.853,4.853,0,0,0-3.706-.413,5.928,5.928,0,0,0-3.074,2.039,4.376,4.376,0,0,0-.995,3.4,5.8,5.8,0,0,1,1.693-2.766,6.546,6.546,0,0,1,2.694-1.5,4.791,4.791,0,0,1,2.976.1,6.4,6.4,0,0,1,2.545,2A4.632,4.632,0,0,0,1512.154,8560.18Z" fill="#2a2a2a"/>
      </g>
      <g id="Group_3279" data-name="Group 3279">
        <path id="Path_4005" data-name="Path 4005" d="M1482.179,8559.767a4.853,4.853,0,0,0-3.706.413,4.633,4.633,0,0,0-2.133,2.849,6.406,6.406,0,0,1,2.544-2,4.794,4.794,0,0,1,2.977-.1,6.547,6.547,0,0,1,2.694,1.5,5.789,5.789,0,0,1,1.692,2.766,4.371,4.371,0,0,0-.994-3.4A5.929,5.929,0,0,0,1482.179,8559.767Z" fill="#2a2a2a"/>
      </g>
      <g id="Group_3280" data-name="Group 3280">
        <path id="Path_4006" data-name="Path 4006" d="M1490.286,8568.179c-2.242,1.956-12.049,4.929-17.191.788a14.042,14.042,0,0,1-4.567-8.14,2.867,2.867,0,0,1,2.339-3.414c.443-.071,1.5-.213,1.546-.219a54.165,54.165,0,0,1,7.177-.51,29.594,29.594,0,0,1,11,1.721,4.766,4.766,0,0,1,2.964,3.524C1493.86,8563.887,1492.729,8566.048,1490.286,8568.179Zm34.642-7.352a14.034,14.034,0,0,1-4.569,8.14c-5.14,4.141-14.947,1.167-17.189-.788-2.443-2.131-3.574-4.292-3.27-6.249a4.767,4.767,0,0,1,2.963-3.524,29.6,29.6,0,0,1,11-1.721,54.98,54.98,0,0,1,8.723.729,2.867,2.867,0,0,1,2.339,3.414Zm-58.177.386a14.291,14.291,0,0,0,5.2,9.17,12.917,12.917,0,0,0,8.193,2.5c4.768,0,9.528-1.761,11.335-3.337,3.713-3.239,4.154-6.084,3.871-7.9-.02-.126-.057-.247-.086-.371h2.92c-.027.124-.064.245-.084.371-.283,1.816.158,4.661,3.87,7.9,1.808,1.576,6.568,3.337,11.337,3.337a13.184,13.184,0,0,0,7.829-2.244c3.146-2.775,5.571-6.771,5.215-11.674a5.906,5.906,0,0,0-.375-1.388,4.619,4.619,0,0,0-3.1-1.964c-9.745-1.574-17.1-.454-20.738,1.119a7.26,7.26,0,0,0-2.379,1.65h-6.068a7.263,7.263,0,0,0-2.38-1.65c-3.178-1.376-9.2-2.4-17.183-1.588-.227.015-2.834.353-3.554.469a4.614,4.614,0,0,0-3.1,1.966,5.677,5.677,0,0,0-.726,2.515A9.041,9.041,0,0,0,1466.751,8561.213Z" fill="#e67a32"/>
      </g>
    </g>
  </g>
</svg>
