<svg xmlns="http://www.w3.org/2000/svg" width="44.159" height="45.314" viewBox="0 0 44.159 45.314"><defs><style>.a{fill:none;}.b{fill:#fff;}.c{fill:#2a2a2a;}</style></defs><g transform="translate(-0.001 0.008)"><g transform="translate(0.001 -0.008)"><ellipse class="a" cx="17.94" cy="13.959" rx="17.94" ry="13.959" transform="translate(4.14 12.146)"/><rect class="b" width="3.473" height="3.473" rx="1.737" transform="translate(20.546 40.828)"/><path class="b" d="M71.73,111.932c-.263.541-.912.712-2.165.46s-3.31-.5-3.3-3.429c0-.311.2-.638.823-.871s3.477-1.086,4.077-1.179,1.753,0,1.813,1.027A13.454,13.454,0,0,1,71.73,111.932Z" transform="translate(-41.706 -67.264)"/><path class="b" d="M41.924,108.967c0,2.932-1.716,3.273-2.965,3.529a2.769,2.769,0,0,1-3.1-1.038,8.659,8.659,0,0,1-.66-3.514c.059-1.027,1.194-1.112,1.813-1.027s3.473.949,4.1,1.179S41.939,108.656,41.924,108.967Z" transform="translate(-22.149 -67.268)"/><path class="b" d="M69.787,26.038a4.385,4.385,0,0,1,2.291-1.071,3.57,3.57,0,0,1,2.383.541A4.315,4.315,0,0,1,76.1,27.621a3.418,3.418,0,0,0-1.138-2.761,3.8,3.8,0,0,0-3.032-.919A4.326,4.326,0,0,0,69.2,25.471,5.464,5.464,0,0,0,68,28.177c.285-.4.541-.8.845-1.156A7.932,7.932,0,0,1,69.787,26.038Z" transform="translate(-42.795 -15.042)"/><path class="b" d="M58.545,56.811a1.52,1.52,0,0,1-.6,1.149,1.6,1.6,0,0,0,.271-1.131,1.453,1.453,0,0,0-.56-.9,2.617,2.617,0,0,0-1.019-.449,5.189,5.189,0,0,0-1.16-.141,3.369,3.369,0,0,0-2.157.571,1.7,1.7,0,0,0-.6.908,1.4,1.4,0,0,0,.178,1.138,1.383,1.383,0,0,1-.5-1.186,1.953,1.953,0,0,1,.571-1.231,2.8,2.8,0,0,1,1.194-.689c.107-.033.219-.059.33-.085l.334-.048c.222-.037.445-.022.667-.037a5.512,5.512,0,0,1,1.316.2,2.891,2.891,0,0,1,1.2.663A1.753,1.753,0,0,1,58.545,56.811Z" transform="translate(-32.969 -34.409)"/><path class="c" d="M63.148,62.033a1.531,1.531,0,0,0-.575.341,2.966,2.966,0,0,0-.434.523.886.886,0,0,1,.319-.675.945.945,0,0,1,.33-.189.6.6,0,0,1,.36,0Z" transform="translate(-39.107 -39.02)"/><path class="c" d="M56.636,62.968a3.647,3.647,0,0,0-.467-.4l-.234-.182a2.828,2.828,0,0,0-.256-.182.623.623,0,0,1,.33.041,1,1,0,0,1,.285.163A.786.786,0,0,1,56.636,62.968Z" transform="translate(-35.042 -39.143)"/><path class="b" d="M53.932,61.85a14.723,14.723,0,0,1-4.882,3.188,16.68,16.68,0,0,1-2.824.86,19.571,19.571,0,0,1-2.932.371,22.38,22.38,0,0,1-2.965-.078,21.87,21.87,0,0,1-2.9-.486A19.671,19.671,0,0,1,32,63.588a30.688,30.688,0,0,0,5.56,1.483,28.373,28.373,0,0,0,2.839.341,22.807,22.807,0,0,0,2.847.03,20.015,20.015,0,0,0,2.839-.3,19.712,19.712,0,0,0,2.754-.7A20.112,20.112,0,0,0,53.932,61.85Z" transform="translate(-20.139 -38.922)"/><path class="b" d="M59.065,78.98a4.263,4.263,0,0,0-1.542-.319c-.523-.037-1.049-.041-1.575-.03s-1.049.044-1.575.1a14.144,14.144,0,0,0-1.583.248,4.374,4.374,0,0,1,1.509-.663,7.413,7.413,0,0,1,1.638-.222,6.868,6.868,0,0,1,1.649.148c.137.03.271.07.4.107s.263.1.393.145A1.879,1.879,0,0,1,59.065,78.98Z" transform="translate(-33.223 -49.143)"/><path class="b" d="M43.068,18.128a6.231,6.231,0,0,0,.148-6.813A3.11,3.11,0,0,0,40.422,10c-.841.093-1.99.623-3.014,2.454-.986-3.647-3.644-7.413-7.966-7.784.893-.341,1.112-.912,1.064-1.164-.141-.541-1.023-.545-2.595-.141.775-.449,1.664-1.334.3-1.738a8.533,8.533,0,0,0-4.53.271c1.153-.552,1.983-1.979.263-1.905A19.911,19.911,0,0,0,11.832,5.889a19.156,19.156,0,0,0-3.9,6.917A5.108,5.108,0,0,0,6.576,10.7a3.959,3.959,0,0,0-2.9-1.027A4.129,4.129,0,0,0,.682,11.731a4.593,4.593,0,0,0-.248,4.355A4.118,4.118,0,0,0,3.4,18.718a11.005,11.005,0,0,0-1.742,7.762c.827,4.963,5.1,12.08,14.827,12.855-3.836-1.027-10.245-5.408-10.66-11.168s2.7-8.525,5.386-6.824A9.267,9.267,0,0,1,9.219,16.4a6.989,6.989,0,0,0,2.32,4.077,5.76,5.76,0,0,0,3.655,1.112,8.909,8.909,0,0,0,5.06-1.483c1.657-1.446,1.853-2.717,1.727-3.525a.837.837,0,0,0-.037-.167h1.3a1.514,1.514,0,0,1-.037.167c-.126.808.07,2.079,1.727,3.525a8.857,8.857,0,0,0,5.056,1.483,5.886,5.886,0,0,0,3.5-1c2.469-.059,5.493,1.687,5.56,4.422.063,2.965-2.543,12.5-14.456,14.608,9.556-.215,17.421-6.924,18.085-12.6a8.7,8.7,0,0,0-2.254-7.413A3.84,3.84,0,0,0,43.068,18.128Zm-36.025-1.5a3.368,3.368,0,0,0-3.084,1.364,3.26,3.26,0,0,1-2.795-2.224,3.792,3.792,0,0,1,.2-3.6,3.36,3.36,0,0,1,2.346-1.675,3.11,3.11,0,0,1,2.309.823,4.893,4.893,0,0,1,1.453,3.077,17.251,17.251,0,0,0-.43,2.239ZM19.72,19.515c-1,.871-5.375,2.2-7.669.371a6.254,6.254,0,0,1-2.039-3.633,1.271,1.271,0,0,1,.2-.99,1.249,1.249,0,0,1,.841-.534c.2-.033.389-.056.582-.082,0,.056-.019.111-.022.167.044-.063.089-.122.13-.185a24.835,24.835,0,0,1,3.2-.226,13.573,13.573,0,0,1,4.911.767,2.124,2.124,0,0,1,1.32,1.572C21.314,17.6,20.81,18.562,19.72,19.515Zm15.457-3.28a6.329,6.329,0,0,1-2.039,3.633c-2.294,1.853-6.672.519-7.669-.371-1.09-.953-1.594-1.916-1.46-2.791a2.131,2.131,0,0,1,1.323-1.572,13.215,13.215,0,0,1,4.908-.767,24.494,24.494,0,0,1,3.892.326,1.264,1.264,0,0,1,.845.534,1.286,1.286,0,0,1,.2,1.008Zm.567-1.29q-.046-.082-.1-.159a2.05,2.05,0,0,0-1.383-.875c-4.348-.7-7.632-.2-9.267.5a3.217,3.217,0,0,0-1.06.741H21.24a3.254,3.254,0,0,0-1.06-.741,16.433,16.433,0,0,0-7.669-.7,4.923,4.923,0,0,1,.589-.5,4.415,4.415,0,0,1,1.876-.741,4.559,4.559,0,0,1,2.02.137,4.626,4.626,0,0,1,1.853,1.112,3.158,3.158,0,0,0-1.572-1.787,4.011,4.011,0,0,0-2.446-.371,3.94,3.94,0,0,0-2.224,1.112,3.614,3.614,0,0,0-.741,1.131c-.308.041-.623.085-.941.137a2.057,2.057,0,0,0-1.386.875,2.12,2.12,0,0,0-.352.93,6.848,6.848,0,0,1,3.14-5.931c3.6-2.2,8.622-.245,9.4,3.1,1.308-3.658,6.983-6.409,10.957-4.4a6.307,6.307,0,0,1,3.065,6.424Zm4.448,3.9a3.184,3.184,0,0,1-.686-.022,11.554,11.554,0,0,0-1.939-1.234,8.851,8.851,0,0,0,.1-3.84c.771-1.794,1.75-2.806,2.832-2.925a2.28,2.28,0,0,1,2.039.96,5.467,5.467,0,0,1-.126,5.853A3.032,3.032,0,0,1,40.2,18.844Z" transform="translate(-0.001 0.008)"/><path class="b" d="M107.953,36a1.3,1.3,0,0,0-.578.122,2.468,2.468,0,0,0-.882.686,2.661,2.661,0,0,0-.523.979,1.916,1.916,0,0,0-.019,1.09,5.771,5.771,0,0,1,.415-.927,5.612,5.612,0,0,1,.549-.786,4.385,4.385,0,0,1,.675-.663,1.512,1.512,0,0,1,.389-.23.293.293,0,0,1,.371.107.33.33,0,0,0-.111-.271A.571.571,0,0,0,107.953,36Z" transform="translate(-66.635 -22.653)"/><path class="b" d="M9.905,33.388a1.931,1.931,0,0,0-1.019-.6,1.223,1.223,0,0,0-.612,0,.827.827,0,0,0-.474.334,1.216,1.216,0,0,1,.938.1,2.691,2.691,0,0,1,.741.571,3.566,3.566,0,0,1,.541.778,4.044,4.044,0,0,1,.337.971,1.69,1.69,0,0,0,.107-1.112,2.257,2.257,0,0,0-.56-1.034Z" transform="translate(-4.909 -20.605)"/><path class="b" d="M73.6,42.539a2.161,2.161,0,0,0-1.653-.185,2.647,2.647,0,0,0-1.371.927,1.961,1.961,0,0,0-.445,1.516,2.6,2.6,0,0,1,.741-1.234,2.91,2.91,0,0,1,1.2-.671,2.146,2.146,0,0,1,1.331.041,2.884,2.884,0,0,1,1.134.893,2.072,2.072,0,0,0-.938-1.286Z" transform="translate(-44.127 -26.598)"/><path class="b" d="M39.028,42.379a2.161,2.161,0,0,0-1.646.174,2.072,2.072,0,0,0-.953,1.271,2.884,2.884,0,0,1,1.134-.893,2.146,2.146,0,0,1,1.331-.041,2.91,2.91,0,0,1,1.2.671,2.6,2.6,0,0,1,.741,1.234,1.946,1.946,0,0,0-.437-1.5A2.647,2.647,0,0,0,39.028,42.379Z" transform="translate(-22.927 -26.612)"/><path class="b" d="M35.357,42.567c-1,.871-5.375,2.2-7.669.371a6.254,6.254,0,0,1-2.039-3.633,1.271,1.271,0,0,1,.2-.99,1.249,1.249,0,0,1,.841-.534c.2-.033.671-.1.689-.1a24.834,24.834,0,0,1,3.2-.226,13.573,13.573,0,0,1,4.911.767,2.124,2.124,0,0,1,1.32,1.572C36.951,40.651,36.447,41.614,35.357,42.567Zm15.457-3.28a6.329,6.329,0,0,1-2.039,3.633c-2.294,1.853-6.672.519-7.669-.371-1.09-.953-1.594-1.916-1.46-2.791a2.131,2.131,0,0,1,1.323-1.572,13.215,13.215,0,0,1,4.908-.767,24.494,24.494,0,0,1,3.892.326,1.264,1.264,0,0,1,.845.534,1.286,1.286,0,0,1,.2,1.008Zm-25.947.171a6.368,6.368,0,0,0,2.32,4.077,5.76,5.76,0,0,0,3.655,1.112,8.909,8.909,0,0,0,5.06-1.483c1.657-1.446,1.853-2.717,1.727-3.525a.837.837,0,0,0-.037-.167h1.3a1.513,1.513,0,0,1-.037.167c-.126.808.07,2.079,1.727,3.525a8.857,8.857,0,0,0,5.056,1.483,5.886,5.886,0,0,0,3.5-1,6.309,6.309,0,0,0,2.328-5.189,2.724,2.724,0,0,0-.171-.619,2.039,2.039,0,0,0-1.383-.875c-4.348-.7-7.632-.2-9.267.5a3.217,3.217,0,0,0-1.06.741H36.877a3.254,3.254,0,0,0-1.06-.741,16.433,16.433,0,0,0-7.669-.7c-.1,0-1.264.159-1.583.211a2.057,2.057,0,0,0-1.386.875,2.565,2.565,0,0,0-.322,1.112,3.707,3.707,0,0,0,0,.5Z" transform="translate(-15.638 -23.045)"/></g></g></svg>