<svg xmlns="http://www.w3.org/2000/svg" xmlns:xlink="http://www.w3.org/1999/xlink" width="59.821" height="59.896" viewBox="0 0 59.821 59.896"><defs><style>.a{fill:#e9791a;}.b{clip-path:url(#a);}.c{clip-path:url(#b);}.d{clip-path:url(#c);}</style><clipPath id="a"><path class="a" d="M30.711-52.4A18.812,18.812,0,0,0,11.9-33.589,18.812,18.812,0,0,0,30.711-14.777,18.812,18.812,0,0,0,49.523-33.589,18.812,18.812,0,0,0,30.711-52.4Zm0,35.657A16.935,16.935,0,0,1,13.772-33.682,16.856,16.856,0,0,1,30.711-50.528,16.935,16.935,0,0,1,47.651-33.589,16.856,16.856,0,0,1,30.711-16.743Z" transform="translate(-11.9 52.4)"/></clipPath><clipPath id="b"><path class="a" d="M59.241-38.263l-5.147-1.778a23.438,23.438,0,0,0-2.808-6.926l2.34-4.867a.854.854,0,0,0-.187-1.029L48.76-57.542a.877.877,0,0,0-1.029-.187l-4.773,2.246a25,25,0,0,0-7.113-2.995l-1.778-4.867A.82.82,0,0,0,33.224-64H26.579a.9.9,0,0,0-.842.655l-1.685,4.867a25,25,0,0,0-7.113,2.995l-4.773-2.34a.854.854,0,0,0-1.029.187L6.458-52.957a.877.877,0,0,0-.187,1.029l2.34,4.867A23.438,23.438,0,0,0,5.8-40.135L.655-38.357A1.27,1.27,0,0,0,0-37.327v6.645a.9.9,0,0,0,.655.842L5.99-27.968A28.818,28.818,0,0,0,8.8-21.417L6.27-16.27a.854.854,0,0,0,.187,1.029l4.679,4.679a.877.877,0,0,0,1.029.187L17.5-12.9a24.462,24.462,0,0,0,6.27,2.527l1.965,5.615a.9.9,0,0,0,.842.655h6.645a.9.9,0,0,0,.842-.655l1.965-5.615A24.462,24.462,0,0,0,42.3-12.9l5.335,2.527a.854.854,0,0,0,1.029-.187l4.679-4.679a.877.877,0,0,0,.187-1.029l-2.527-5.241a28.142,28.142,0,0,0,2.808-6.458l5.335-1.872a.9.9,0,0,0,.655-.842v-6.645A.83.83,0,0,0,59.241-38.263Zm-1.217,6.832-5.147,1.778a.8.8,0,0,0-.562.655,22.137,22.137,0,0,1-2.9,6.832,1.107,1.107,0,0,0-.094.936l2.433,5.054-3.744,3.744-5.147-2.433a1.6,1.6,0,0,0-.936,0,24.231,24.231,0,0,1-6.645,2.714.99.99,0,0,0-.655.562L32.756-6.162H27.421l-1.965-5.428a.8.8,0,0,0-.655-.562,24.231,24.231,0,0,1-6.645-2.714.7.7,0,0,0-.842,0l-5.147,2.433L8.423-16.176l2.433-5.054a1.107,1.107,0,0,0-.094-.936,21.392,21.392,0,0,1-2.9-6.926.989.989,0,0,0-.562-.655L1.872-31.431v-5.335l5.054-1.778a.8.8,0,0,0,.562-.655,22.505,22.505,0,0,1,2.9-7.3,1.107,1.107,0,0,0,.094-.936L8.236-52.114l3.744-3.744,4.586,2.246a1.107,1.107,0,0,0,.936-.094,21.423,21.423,0,0,1,7.393-3.088.99.99,0,0,0,.655-.562l1.685-4.773h5.335l1.685,4.773a.8.8,0,0,0,.655.562A24.851,24.851,0,0,1,42.4-53.705a1.107,1.107,0,0,0,.936.094l4.586-2.246,3.744,3.744-2.246,4.679a1.107,1.107,0,0,0,.094.936,22.505,22.505,0,0,1,2.9,7.3.99.99,0,0,0,.562.655l5.054,1.778Z" transform="translate(0 64)"/></clipPath><clipPath id="c"><path class="a" d="M39.479-42.7H23.008A2.758,2.758,0,0,0,20.2-39.892v13.757a2.758,2.758,0,0,0,2.808,2.808H39.479a2.758,2.758,0,0,0,2.808-2.808V-39.892A2.879,2.879,0,0,0,39.479-42.7Zm-5.9,1.872v4.492H28.9v-4.492Zm6.832,14.693a.884.884,0,0,1-.936.936H23.008a.884.884,0,0,1-.936-.936V-39.892a.884.884,0,0,1,.936-.936h4.024V-35.4a.884.884,0,0,0,.936.936h6.551a.884.884,0,0,0,.936-.936v-5.428h4.024a.884.884,0,0,1,.936.936Z" transform="translate(-20.2 42.7)"/></clipPath></defs><g transform="translate(0 64)"><g class="b" transform="translate(11.137 -53.144)"><path class="a" d="M6.9-10.419H53.881V-57.4H6.9Z" transform="translate(-11.579 52.721)"/></g><g class="c" transform="translate(0 -64)"><path class="a" d="M-5,.255H64.18V-69H-5Z" transform="translate(0.321 64.321)"/></g><g class="d" transform="translate(18.905 -44.066)"><path class="a" d="M15.2-18.968H46.646V-47.7H15.2Z" transform="translate(-19.879 43.021)"/></g></g></svg>