<svg xmlns="http://www.w3.org/2000/svg" width="20.002" height="24.001" viewBox="0 0 20.002 24.001"><defs><style>.a{fill:#fd907e;}.b{fill:#e97919;}</style></defs><path class="a" d="M12.834,18.333h-.5v1h.5a.5.5,0,0,0,0-1Z" transform="translate(-7.832 -2.832)"/><path class="a" d="M16.417,18.333h-.75v3h.75a.251.251,0,0,0,.251-.251v-2.5A.253.253,0,0,0,16.417,18.333Z" transform="translate(-6.165 -2.832)"/><path class="b" d="M26.585,8h-14.5a2.752,2.752,0,0,0-2.75,2.75v18.5A2.752,2.752,0,0,0,12.083,32h14.5a2.752,2.752,0,0,0,2.75-2.75V10.75A2.751,2.751,0,0,0,26.585,8ZM14.335,26h-.5v1.25a.75.75,0,0,1-1.5,0v-4.5a.75.75,0,0,1,.75-.75h1.25a2,2,0,0,1,0,4Zm7,.251A1.753,1.753,0,0,1,19.584,28h-1.5a.75.75,0,0,1-.75-.75v-4.5a.75.75,0,0,1,.75-.75h1.5a1.753,1.753,0,0,1,1.751,1.751ZM25.586,24.5a.75.75,0,0,1,0,1.5H23.835v1.25a.75.75,0,0,1-1.5,0v-3.5A1.753,1.753,0,0,1,24.086,22h1.5a.75.75,0,1,1,0,1.5h-1.5a.251.251,0,0,0-.251.251v.75Z" transform="translate(-9.333 -8)"/></svg>