<svg xmlns="http://www.w3.org/2000/svg" width="38.583" height="38.584" viewBox="0 0 38.583 38.584"><defs><style>.a{fill:#fff;}.b{fill:none;stroke:#fff;stroke-width:2px;}</style></defs><g transform="translate(-348.494 -324.041)"><g transform="translate(348.494 324.041)"><path class="a" d="M332.013,688.4H295.056a1.627,1.627,0,0,1-1.626-1.626V649.819h1.357v36.958a.269.269,0,0,0,.269.269h36.958Z" transform="translate(-293.43 -649.819)"/></g><g transform="translate(354.528 335.217)"><path class="a" d="M304.846,671.365a2.7,2.7,0,1,1,2.7-2.7A2.7,2.7,0,0,1,304.846,671.365Zm0-4.046a1.345,1.345,0,1,0,1.345,1.345A1.346,1.346,0,0,0,304.846,667.319Z" transform="translate(-302.145 -665.962)"/></g><g transform="translate(356.55 327.001)"><path class="a" d="M307.767,659.5a2.7,2.7,0,1,1,2.7-2.7A2.705,2.705,0,0,1,307.767,659.5Zm0-4.046a1.345,1.345,0,1,0,1.345,1.344A1.346,1.346,0,0,0,307.767,655.452Z" transform="translate(-305.066 -654.095)"/></g><g transform="translate(364.388 326.169)"><path class="a" d="M319.087,658.3a2.7,2.7,0,1,1,2.7-2.7A2.706,2.706,0,0,1,319.087,658.3Zm0-4.047a1.345,1.345,0,1,0,1.345,1.345A1.346,1.346,0,0,0,319.087,654.25Z" transform="translate(-316.386 -652.893)"/></g><g transform="translate(374.824 346.833)"><path class="a" d="M338.616,693.151l-3.813-3.813,3.813-3.813,3.813,3.813Zm-1.894-3.813,1.894,1.894,1.895-1.894-1.895-1.894Z" transform="translate(-334.803 -685.526)"/></g><g transform="translate(377.5 337.689)"><path class="a" d="M339.138,677.159l-3.813-3.814,3.813-3.813,3.813,3.813Zm-1.894-3.814,1.894,1.895,1.894-1.895-1.894-1.893Z" transform="translate(-335.325 -669.532)"/></g><g transform="translate(366.427 348.762)"><path class="a" d="M323.145,693.151l-3.813-3.813,3.813-3.813,3.813,3.813Zm-1.894-3.813,1.894,1.894,1.894-1.894-1.894-1.894Z" transform="translate(-319.332 -685.526)"/></g><path class="b" d="M13.69,40.469s-.567-7.354,8.083-12.148,16.54-8.563,19.847-17.175" transform="translate(340.09 317.195)"/></g></svg>