<svg xmlns="http://www.w3.org/2000/svg" width="114.002" height="100.396" viewBox="0 0 114.002 100.396"><defs><style>.a{fill:#9b9b9b;}.b{fill:#e9791a;}</style></defs><g transform="translate(-49.187 -451.113)"><g transform="translate(56.06 501.313)"><path class="a" d="M101.687,518.112a50.255,50.255,0,0,1-50.2-50.2h2.988a47.264,47.264,0,0,0,47.212,47.209Z" transform="translate(-51.487 -467.915)"/></g><g transform="translate(106.26 451.113)"><path class="a" d="M118.483,501.313H115.5A47.263,47.263,0,0,0,68.289,454.1v-2.988A50.252,50.252,0,0,1,118.483,501.313Z" transform="translate(-68.289 -451.113)"/></g><g transform="translate(76.54 469.869)"><g transform="translate(0 10.177)"><rect class="a" width="41.828" height="2.988"/></g><g transform="translate(10.461 11.671)"><path class="a" d="M63.5,490.89,61.843,488.4l4.284-2.856A29.088,29.088,0,0,0,79.106,461.3h2.988a32.076,32.076,0,0,1-14.308,26.737Z" transform="translate(-61.843 -461.297)"/></g><g transform="translate(9.797 17.647)"><path class="a" d="M80.211,486.915l-9.253-6.17A20.933,20.933,0,0,1,61.621,463.3h2.988a17.957,17.957,0,0,0,8,14.963l9.256,6.17Z" transform="translate(-61.621 -463.297)"/></g><g transform="translate(19.42)"><rect class="a" width="2.988" height="11.671"/></g><g transform="translate(28.232 28.547)"><path class="b" d="M70.5,497.342l-2.708-1.266,13.6-29.13,13.6,29.13-2.708,1.266-10.887-23.33Z" transform="translate(-67.791 -466.945)"/></g><g transform="translate(34.845 45.548)"><rect class="b" width="13.966" height="2.988"/></g></g><g transform="translate(146.452 494.144)"><path class="a" d="M90.11,474.645l-8.368-6.813,1.888-2.317,6.48,5.278,6.48-5.278,1.888,2.317Z" transform="translate(-81.742 -465.516)"/></g><g transform="translate(49.187 498.194)"><path class="a" d="M51.074,476l-1.888-2.317,8.368-6.813,8.367,6.813L64.033,476l-6.479-5.278Z" transform="translate(-49.187 -466.871)"/></g></g></svg>