<svg xmlns="http://www.w3.org/2000/svg" width="131.826" height="120.621" viewBox="0 0 131.826 120.621"><defs><style>.a{fill:#9b9b9b;}.b{fill:#e9791a;}</style></defs><g transform="translate(-147.525 -449.406)"><g transform="translate(147.525 514.398)"><path class="a" d="M157.173,478.8l-9.648-7.855,2.176-2.671,7.471,6.085,7.471-6.085,2.176,2.671Z" transform="translate(-147.525 -468.273)"/></g><g transform="translate(260.058 492.505)"><path class="b" d="M197.312,472.444l-7.471-6.085-7.47,6.085-2.176-2.671,9.646-7.855,9.648,7.855Z" transform="translate(-180.194 -461.918)"/></g><g transform="translate(155.45 475.296)"><path class="a" d="M197.193,551.653v-3.445a43.921,43.921,0,1,0-43.923-43.919h-3.445a47.365,47.365,0,1,1,47.367,47.364Z" transform="translate(-149.826 -456.922)"/></g><g transform="translate(176.697 449.406)"><path class="b" d="M203.358,544.137a47.366,47.366,0,0,1,0-94.731v3.445a43.921,43.921,0,1,0,43.923,43.923h3.445A47.419,47.419,0,0,1,203.358,544.137Z" transform="translate(-155.994 -449.406)"/></g></g></svg>