<svg xmlns="http://www.w3.org/2000/svg" width="116.225" height="117.984" viewBox="0 0 116.225 117.984"><defs><style>.a{fill:#9b9b9b;}.b{fill:#e9791a;}</style></defs><g transform="translate(-197.272 -449.406)"><g transform="translate(197.272 449.406)"><path class="a" d="M234.725,524.316a37.455,37.455,0,1,1,37.453-37.457A37.5,37.5,0,0,1,234.725,524.316Zm0-71.541a34.086,34.086,0,1,0,34.084,34.084A34.123,34.123,0,0,0,234.725,452.775Z" transform="translate(-197.272 -449.406)"/></g><g transform="translate(238.59 492.483)"><path class="a" d="M246.988,537.1a37.481,37.481,0,0,1-36.537-45.718l3.285.745a34.047,34.047,0,1,0,27.332-26.052l-.579-3.319a37.456,37.456,0,1,1,6.5,74.344Z" transform="translate(-209.535 -462.191)"/></g><g transform="translate(218.708 481.839)"><path class="a" d="M228.9,479.918H210.406a6.778,6.778,0,0,1-6.772-6.769V459.032H207v14.117a3.406,3.406,0,0,0,3.4,3.4H228.9a3.408,3.408,0,0,0,3.4-3.4V459.032h3.369v14.117A6.778,6.778,0,0,1,228.9,479.918Z" transform="translate(-203.634 -459.032)"/></g><g transform="translate(225.874 467.183)"><path class="b" d="M214.693,472.539a8.929,8.929,0,1,1,8.929-8.929A8.938,8.938,0,0,1,214.693,472.539Zm0-14.488a5.559,5.559,0,1,0,5.559,5.559A5.566,5.566,0,0,0,214.693,458.051Z" transform="translate(-205.761 -454.682)"/></g><g transform="translate(260.026 528.754)"><path class="a" d="M241.16,493.839H222.669a6.778,6.778,0,0,1-6.772-6.769V472.956h3.369V487.07a3.406,3.406,0,0,0,3.4,3.4H241.16a3.4,3.4,0,0,0,3.4-3.4V472.956h3.369V487.07A6.776,6.776,0,0,1,241.16,493.839Z" transform="translate(-215.897 -472.956)"/></g><g transform="translate(267.192 514.094)"><path class="b" d="M226.956,486.466a8.93,8.93,0,1,1,8.929-8.929A8.938,8.938,0,0,1,226.956,486.466Zm0-14.492a5.561,5.561,0,1,0,5.559,5.563A5.571,5.571,0,0,0,226.956,471.974Z" transform="translate(-218.024 -468.605)"/></g></g></svg>