<svg xmlns="http://www.w3.org/2000/svg" width="105.913" height="92.514" viewBox="0 0 105.913 92.514"><defs><style>.a{fill:#9b9b9b;}.b{fill:#e9791a;}</style></defs><g transform="translate(-99.478 -456.832)"><g transform="translate(146.694 456.832)"><path class="a" d="M118.437,532.569h-2.949V472.846A16.03,16.03,0,0,1,131.5,456.832h34.154v33.325H162.7V459.781H131.5a13.078,13.078,0,0,0-13.062,13.065Z" transform="translate(-115.488 -456.832)"/></g><g transform="translate(99.479 513.181)"><path class="a" d="M149.643,496.8H99.478V475.939h38.085a12.1,12.1,0,0,1,12.08,12.083Zm-47.216-2.949h44.266v-5.83a9.144,9.144,0,0,0-9.131-9.133H102.427Z" transform="translate(-99.478 -475.939)"/></g><g transform="translate(146.694 513.181)"><path class="a" d="M129.838,496.8h-14.35v-7.547A13.33,13.33,0,0,1,128.8,475.939h2.162v2.949H128.8a10.378,10.378,0,0,0-10.363,10.366v4.6h11.4Z" transform="translate(-115.488 -475.939)"/></g><g transform="translate(99.478 456.832)"><path class="a" d="M148.168,534.042H99.478v-77.21h42.107v2.949H102.427v71.312h45.742Z" transform="translate(-99.478 -456.832)"/></g><g transform="translate(112.511 471.535)"><rect class="a" width="19.215" height="2.949"/></g><g transform="translate(112.511 480.797)"><rect class="a" width="19.215" height="2.949"/></g><g transform="translate(162.17 471.535)"><rect class="a" width="19.215" height="2.949"/></g><g transform="translate(162.17 480.797)"><rect class="a" width="19.215" height="2.949"/></g><g transform="translate(112.511 490.059)"><rect class="a" width="19.215" height="2.949"/></g><g transform="translate(112.511 499.321)"><rect class="a" width="19.215" height="2.949"/></g><g transform="translate(165.162 491.818)"><path class="b" d="M141.863,526.224a20.134,20.134,0,0,1-20.113-20.113V484.788H124.7v21.322a17.165,17.165,0,0,0,34.331,0v-22.16a12.305,12.305,0,1,0-24.611,0v22.885a7.712,7.712,0,1,0,15.424,0v-22.49a3.577,3.577,0,0,0-7.155,0v21.113H139.74V484.346a6.526,6.526,0,0,1,13.053,0v22.49a10.661,10.661,0,1,1-21.322,0V483.951a15.254,15.254,0,1,1,30.509,0v22.16A20.135,20.135,0,0,1,141.863,526.224Z" transform="translate(-121.75 -468.695)"/></g></g></svg>