<svg xmlns="http://www.w3.org/2000/svg" width="38.954" height="38.953" viewBox="0 0 38.954 38.953"><defs><style>.a{fill:#fff;}</style></defs><g transform="translate(-1056.39 -318.066)"><g transform="translate(1056.39 318.066)"><path class="a" d="M403.564,684.682H400.88a2.04,2.04,0,0,1-2.037-2.037V680.8a.646.646,0,0,0-.485-.626,15.355,15.355,0,0,1-3.982-1.653h0a.656.656,0,0,0-.785.1l-1.311,1.31a1.905,1.905,0,0,1-1.45.6,2.021,2.021,0,0,1-1.43-.6l-1.9-1.9a2.035,2.035,0,0,1,0-2.88l1.31-1.31a.647.647,0,0,0,.1-.787,15.34,15.34,0,0,1-1.653-3.982.646.646,0,0,0-.625-.485h-1.85a2.04,2.04,0,0,1-2.038-2.038v-2.682a2.041,2.041,0,0,1,2.038-2.038h1.85a.644.644,0,0,0,.625-.485,15.406,15.406,0,0,1,1.655-3.984.645.645,0,0,0-.1-.784l-1.31-1.31a2.04,2.04,0,0,1,0-2.881l1.9-1.9a2.02,2.02,0,0,1,1.44-.6h0a2.02,2.02,0,0,1,1.439.6l1.31,1.31a.642.642,0,0,0,.785.1,15.35,15.35,0,0,1,3.985-1.653.647.647,0,0,0,.484-.626v-1.85a2.039,2.039,0,0,1,2.037-2.036h2.683a2.039,2.039,0,0,1,2.037,2.036v1.85a.646.646,0,0,0,.485.626,15.349,15.349,0,0,1,3.983,1.653.649.649,0,0,0,.785-.1l1.31-1.31a2.019,2.019,0,0,1,1.438-.6h0a2.024,2.024,0,0,1,1.442.6l1.9,1.9a2.035,2.035,0,0,1,0,2.88l-1.31,1.31a.644.644,0,0,0-.1.784,15.362,15.362,0,0,1,1.654,3.984.645.645,0,0,0,.625.485h1.849a2.04,2.04,0,0,1,2.037,2.038v2.682a2.04,2.04,0,0,1-2.037,2.038h-1.849a.646.646,0,0,0-.625.485,15.352,15.352,0,0,1-1.654,3.984.644.644,0,0,0,.1.784l1.311,1.31a2.04,2.04,0,0,1,0,2.881l-1.9,1.9a2.02,2.02,0,0,1-1.441.6h0a2.019,2.019,0,0,1-1.438-.6l-1.31-1.31a.644.644,0,0,0-.785-.1,15.367,15.367,0,0,1-3.984,1.653.646.646,0,0,0-.484.626v1.849A2.039,2.039,0,0,1,403.564,684.682Zm-8.572-7.209a14.148,14.148,0,0,0,3.669,1.522,1.862,1.862,0,0,1,1.4,1.8v1.849a.825.825,0,0,0,.824.824h2.684a.825.825,0,0,0,.824-.824V680.8a1.862,1.862,0,0,1,1.394-1.8,14.148,14.148,0,0,0,3.67-1.522,1.859,1.859,0,0,1,2.261.285l1.31,1.31a.846.846,0,0,0,1.164,0l1.9-1.9a.826.826,0,0,0,0-1.166l-1.311-1.31a1.859,1.859,0,0,1-.285-2.26,14.172,14.172,0,0,0,1.524-3.669,1.858,1.858,0,0,1,1.8-1.395h1.849a.825.825,0,0,0,.824-.824v-2.682a.825.825,0,0,0-.824-.825h-1.849a1.859,1.859,0,0,1-1.8-1.395,14.145,14.145,0,0,0-1.523-3.669,1.859,1.859,0,0,1,.285-2.261l1.31-1.31a.823.823,0,0,0,0-1.165l-1.9-1.9a.821.821,0,0,0-.584-.242h0a.817.817,0,0,0-.58.242l-1.31,1.31a1.856,1.856,0,0,1-2.261.284,14.186,14.186,0,0,0-3.669-1.521,1.86,1.86,0,0,1-1.4-1.8v-1.85a.825.825,0,0,0-.824-.823h-2.683a.825.825,0,0,0-.824.823v1.85a1.861,1.861,0,0,1-1.394,1.8,14.115,14.115,0,0,0-3.671,1.523,1.857,1.857,0,0,1-2.261-.285l-1.31-1.31a.843.843,0,0,0-1.164,0l-1.9,1.9a.827.827,0,0,0,0,1.166l1.31,1.31a1.858,1.858,0,0,1,.286,2.261,14.169,14.169,0,0,0-1.524,3.669,1.858,1.858,0,0,1-1.8,1.395h-1.85a.826.826,0,0,0-.824.825v2.682a.825.825,0,0,0,.824.824h1.85a1.86,1.86,0,0,1,1.8,1.395,14.088,14.088,0,0,0,1.523,3.668,1.86,1.86,0,0,1-.286,2.262l-1.31,1.31a.823.823,0,0,0,0,1.164l1.9,1.9a.854.854,0,0,0,.584.24.815.815,0,0,0,.58-.24l1.31-1.31a1.86,1.86,0,0,1,2.261-.285Z" transform="translate(-382.745 -645.729)"/></g><g transform="translate(1065.536 327.212)"><path class="a" d="M407.852,681.166a10.331,10.331,0,1,1,10.332-10.331A10.343,10.343,0,0,1,407.852,681.166Zm0-19.449a9.118,9.118,0,1,0,9.119,9.117A9.128,9.128,0,0,0,407.852,661.717Z" transform="translate(-397.521 -660.504)"/></g><g transform="translate(1069.432 334.07)"><path class="a" d="M406.963,678.392l-3.147-3.4,3.147-3.4.891.825-2.386,2.579,2.386,2.579Z" transform="translate(-403.816 -671.584)"/></g><g transform="translate(1078.483 334.07)"><path class="a" d="M419.329,678.392l-.891-.825,2.385-2.579-2.385-2.579.891-.825,3.147,3.4Z" transform="translate(-418.438 -671.584)"/></g><g transform="translate(1073.963 331.607)"><rect class="a" width="11.866" height="1.213" transform="matrix(0.197, -0.98, 0.98, 0.197, 0, 11.633)"/></g></g></svg>