<svg xmlns="http://www.w3.org/2000/svg" width="48.61" height="40.419" viewBox="0 0 48.61 40.419"><defs><style>.a{fill:#fff;}</style></defs><g transform="translate(-715.71 -527.741)"><g transform="translate(734.916 548.192)"><path class="a" d="M744.7,568.265a9.984,9.984,0,1,1,9.983-9.984A10,10,0,0,1,744.7,568.265Zm0-18.851a8.868,8.868,0,1,0,8.867,8.867A8.876,8.876,0,0,0,744.7,549.414Z" transform="translate(-734.72 -548.298)"/></g><g transform="translate(744.821 534.376)"><path class="a" d="M750.806,544.246c-3.488,0-6.325-2.259-6.325-5.035s2.837-5.037,6.325-5.037,6.324,2.259,6.324,5.037S754.293,544.246,750.806,544.246Zm0-8.956c-2.872,0-5.209,1.759-5.209,3.921s2.337,3.919,5.209,3.919,5.208-1.758,5.208-3.919S753.679,535.29,750.806,535.29Z" transform="translate(-744.481 -534.174)"/></g><g transform="translate(744.354 548.192)"><path class="a" d="M754.045,568.265a9.984,9.984,0,1,1,9.983-9.984A10,10,0,0,1,754.045,568.265Zm0-18.851a8.868,8.868,0,1,0,8.867,8.867A8.876,8.876,0,0,0,754.045,549.414Z" transform="translate(-744.062 -548.298)"/></g><g transform="translate(727.084 527.741)"><path class="a" d="M736.554,546.965a9.612,9.612,0,1,1,9.611-9.611A9.623,9.623,0,0,1,736.554,546.965Zm0-18.108a8.5,8.5,0,1,0,8.5,8.5A8.5,8.5,0,0,0,736.554,528.857Z" transform="translate(-726.941 -527.741)"/></g><g transform="translate(715.71 532.494)"><path class="a" d="M727.569,555.718a11.859,11.859,0,1,1,11.858-11.859A11.874,11.874,0,0,1,727.569,555.718Zm0-22.6a10.743,10.743,0,1,0,10.742,10.743A10.754,10.754,0,0,0,727.569,533.115Z" transform="translate(-715.71 -531.999)"/></g><g transform="translate(751.201 534.376)"><path class="a" d="M756.521,544.246c-3.487,0-6.324-2.259-6.324-5.035s2.837-5.037,6.324-5.037,6.326,2.259,6.326,5.037S760.009,544.246,756.521,544.246Zm0-8.956c-2.872,0-5.208,1.759-5.208,3.921s2.336,3.919,5.208,3.919,5.209-1.758,5.209-3.919S759.394,535.29,756.521,535.29Z" transform="translate(-750.197 -534.174)"/></g></g></svg>