<svg xmlns="http://www.w3.org/2000/svg" width="102.737" height="105.595" viewBox="0 0 102.737 105.595"><defs><style>.a{fill:#9b9b9b;}.b{fill:#e9791a;}</style></defs><g transform="translate(-759.403 -447.265)"><g transform="translate(759.403 447.265)"><path class="a" d="M851.38,552.86H770.163A10.773,10.773,0,0,1,759.4,542.1V458.025a10.773,10.773,0,0,1,10.76-10.76H851.38a10.773,10.773,0,0,1,10.76,10.76V542.1A10.773,10.773,0,0,1,851.38,552.86Zm-81.217-102.9a8.073,8.073,0,0,0-8.066,8.066V542.1a8.074,8.074,0,0,0,8.066,8.066H851.38a8.075,8.075,0,0,0,8.066-8.066V458.025a8.073,8.073,0,0,0-8.066-8.066Z" transform="translate(-759.403 -447.265)"/></g><g transform="translate(759.403 447.265)"><path class="a" d="M862.14,470.471H759.4V458.025a10.773,10.773,0,0,1,10.76-10.76H851.38a10.773,10.773,0,0,1,10.76,10.76ZM762.1,467.777h97.349v-9.752a8.073,8.073,0,0,0-8.066-8.066H770.163a8.073,8.073,0,0,0-8.066,8.066Z" transform="translate(-759.403 -447.265)"/></g><g transform="translate(773.719 456.432)"><circle class="b" cx="2.799" cy="2.799" r="2.799"/></g><g transform="translate(781.696 456.432)"><circle class="a" cx="2.799" cy="2.799" r="2.799"/></g><g transform="translate(789.429 456.432)"><circle class="a" cx="2.799" cy="2.799" r="2.799"/></g><g transform="translate(787.9 488.175)"><path class="b" d="M810.66,505.422H775.046a5.059,5.059,0,0,1-4.448-7.468L788.4,465.1a5.057,5.057,0,0,1,8.9,0l17.807,32.853a5.059,5.059,0,0,1-4.448,7.468Zm-17.8-40.277a2.336,2.336,0,0,0-2.083,1.239l-17.807,32.853a2.365,2.365,0,0,0,2.08,3.491H810.66a2.365,2.365,0,0,0,2.082-3.491l-17.81-32.853A2.33,2.33,0,0,0,792.855,465.145Z" transform="translate(-769.981 -462.451)"/></g><g transform="translate(809.426 498.933)"><rect class="b" width="2.694" height="15.982"/></g><g transform="translate(809.426 517.73)"><rect class="b" width="2.694" height="4.922"/></g><g transform="translate(824.853 458.024)"><rect class="a" width="22.93" height="2.694"/></g></g></svg>