<svg xmlns="http://www.w3.org/2000/svg" width="96.799" height="106.683" viewBox="0 0 96.799 106.683"><defs><style>.a,.b{fill:#9b9b9b;}.b{stroke:#000;stroke-miterlimit:10;}.c{fill:#e9791a;}</style></defs><g transform="translate(-205.123 -535.607)"><g transform="translate(205.123 551.714)"><path class="a" d="M245.724,632.33a3.3,3.3,0,0,1-1.554-.393,3.263,3.263,0,0,1-1.6-1.963L238.3,615.6l-12.42.005a10.486,10.486,0,0,1-10.463-10.473l.026-11.432h-1.876a8.459,8.459,0,0,1-8.44-8.453,8.334,8.334,0,0,1,.731-3.451l.338-.684,2.919-5.746c1.661-3.283,3.582-7.088,5.041-10.038-.118-1.368-.178-2.62-.178-3.812a43.631,43.631,0,0,1,4.667-19.759l2.343,1.176a41.015,41.015,0,0,0-4.389,18.583c0,1.219.065,2.505.2,3.938l.034.37-.165.333c-1.48,3-3.488,6.978-5.175,10.306l-3.15,6.215a5.994,5.994,0,0,0-.6,2.57,5.838,5.838,0,0,0,5.82,5.833h4.5l-.031,14.173a7.864,7.864,0,0,0,7.845,7.732l14.369-.005,4.84,16.253a.649.649,0,0,0,.325.4.657.657,0,0,0,.511.052l48.438-14.734a.675.675,0,0,0,.448-.838l-7.216-23.766.519-.553a41.434,41.434,0,0,0,9.724-39.251l2.528-.689a44.056,44.056,0,0,1-9.826,41.172l6.779,22.327a3.305,3.305,0,0,1-2.193,4.108l-48.438,14.731A3.366,3.366,0,0,1,245.724,632.33Z" transform="translate(-205.123 -541.754)"/></g><g transform="translate(296.375 574.051)"><path class="b" d="M239.949,550.279" transform="translate(-239.949 -550.279)"/></g><g transform="translate(229.512 567.933)"><path class="c" d="M227.365,573.811A12.934,12.934,0,1,1,240.3,560.88,12.945,12.945,0,0,1,227.365,573.811Zm0-23.247a10.313,10.313,0,1,0,10.311,10.316A10.327,10.327,0,0,0,227.365,550.564Z" transform="translate(-214.431 -547.944)"/></g><g transform="translate(236.485 574.908)"><path class="a" d="M223.053,550.606a5.96,5.96,0,1,0,5.961,5.958h-5.961Z" transform="translate(-217.092 -550.606)"/></g><g transform="translate(261.841 567.933)"><path class="c" d="M239.7,573.811a12.934,12.934,0,1,1,12.933-12.931A12.943,12.943,0,0,1,239.7,573.811Zm0-23.247a10.313,10.313,0,1,0,10.313,10.316A10.324,10.324,0,0,0,239.7,550.564Z" transform="translate(-226.769 -547.944)"/></g><g transform="translate(229.512 535.607)"><path class="c" d="M227.365,561.474A12.933,12.933,0,1,1,240.3,548.541,12.947,12.947,0,0,1,227.365,561.474Zm0-23.247a10.313,10.313,0,1,0,10.311,10.313A10.326,10.326,0,0,0,227.365,538.227Z" transform="translate(-214.431 -535.607)"/></g><g transform="translate(261.841 535.607)"><path class="c" d="M239.7,561.474a12.933,12.933,0,1,1,12.933-12.933A12.945,12.945,0,0,1,239.7,561.474Zm0-23.247a10.313,10.313,0,1,0,10.313,10.313A10.324,10.324,0,0,0,239.7,538.227Z" transform="translate(-226.769 -535.607)"/></g><g transform="translate(241.135 560.163)"><rect class="c" width="2.62" height="9.081"/></g><g transform="translate(252.753 584.233)"><rect class="c" width="11.71" height="2.62"/></g><g transform="translate(273.462 560.163)"><rect class="c" width="2.62" height="9.081"/></g><g transform="translate(254.067 547.23)"><rect class="a" width="9.083" height="2.62"/></g><g transform="translate(243.646 573.184)"><path class="a" d="M219.825,549.948v6.558h6.538v-.018a6.539,6.539,0,0,0-6.538-6.54Z" transform="translate(-219.825 -549.948)"/></g><g transform="translate(236.76 547.977)"><rect class="a" width="2.62" height="4.903"/></g><g transform="translate(241.135 544.943)"><rect class="a" width="2.62" height="7.937"/></g><g transform="translate(245.648 549.705)"><rect class="a" width="2.62" height="3.175"/></g><g transform="translate(269.284 543.108)"><path class="a" d="M231.936,548.843l-2.326-1.2,3.026-5.847,3.385.934,2.193-4.258,2.329,1.2-3.168,6.146-3.388-.934Z" transform="translate(-229.61 -538.47)"/></g><g transform="translate(269.318 575.539)"><circle class="a" cx="1.966" cy="1.966" r="1.966"/></g><g transform="translate(276.001 574.205)"><circle class="a" cx="1.334" cy="1.334" r="1.334"/></g><g transform="translate(278.171 583.223)"><circle class="a" cx="1.334" cy="1.334" r="1.334"/></g><g transform="translate(272.437 579.472)"><circle class="a" cx="2.683" cy="2.683" r="2.683"/></g></g></svg>