<svg xmlns="http://www.w3.org/2000/svg" width="96.903" height="101.933" viewBox="0 0 96.903 101.933"><defs><style>.a{fill:#e9791a;}.b{fill:#9b9b9b;}</style></defs><g transform="translate(-716.21 -451.258)"><g transform="translate(733.131 468.055)"><path class="a" d="M754.872,518.127h-4.119a3.546,3.546,0,0,1-3.54-3.543v-2.836a.573.573,0,0,0-.433-.559,24.033,24.033,0,0,1-6.221-2.583h0a.589.589,0,0,0-.7.089l-2.014,2.011a3.514,3.514,0,0,1-2.5,1.038h0a3.523,3.523,0,0,1-2.506-1.04l-2.912-2.912a3.538,3.538,0,0,1,.005-5.006l2.008-2.008a.585.585,0,0,0,.086-.707,24.061,24.061,0,0,1-2.584-6.221.576.576,0,0,0-.559-.433h-2.839a3.545,3.545,0,0,1-3.538-3.541v-4.116a3.545,3.545,0,0,1,3.538-3.543h2.842a.575.575,0,0,0,.559-.436,23.947,23.947,0,0,1,2.581-6.216.586.586,0,0,0-.089-.71l-2.008-2.008a3.537,3.537,0,0,1,0-5.009l2.909-2.909a3.509,3.509,0,0,1,2.5-1.038h0a3.514,3.514,0,0,1,2.5,1.038l2.011,2.011a.57.57,0,0,0,.7.089,23.939,23.939,0,0,1,6.221-2.584.573.573,0,0,0,.433-.559v-2.839a3.545,3.545,0,0,1,3.54-3.541h4.119a3.543,3.543,0,0,1,3.538,3.541v2.839a.576.576,0,0,0,.433.559,24.1,24.1,0,0,1,6.226,2.584.578.578,0,0,0,.7-.086l2.016-2.014a3.514,3.514,0,0,1,2.5-1.038h0a3.524,3.524,0,0,1,2.508,1.04l2.909,2.912a3.534,3.534,0,0,1,0,5.006l-2.008,2.008a.584.584,0,0,0-.086.707,24.012,24.012,0,0,1,2.581,6.218.576.576,0,0,0,.559.433h2.839a3.546,3.546,0,0,1,3.541,3.543v4.116a3.545,3.545,0,0,1-3.541,3.541h-2.839a.578.578,0,0,0-.559.435,24.051,24.051,0,0,1-2.581,6.218.586.586,0,0,0,.089.71l2.008,2.008a3.537,3.537,0,0,1,0,5.009l-2.909,2.909a3.511,3.511,0,0,1-2.5,1.038h0a3.512,3.512,0,0,1-2.5-1.038l-2.011-2.011a.571.571,0,0,0-.7-.089,24.047,24.047,0,0,1-6.224,2.583.576.576,0,0,0-.433.559v2.836A3.544,3.544,0,0,1,754.872,518.127Zm-14.587-12.3a3.2,3.2,0,0,1,1.64.457h0a21.329,21.329,0,0,0,5.522,2.3,3.265,3.265,0,0,1,2.452,3.164v2.836a.855.855,0,0,0,.852.855h4.119a.852.852,0,0,0,.849-.855v-2.836a3.265,3.265,0,0,1,2.452-3.164,21.352,21.352,0,0,0,5.525-2.3,3.262,3.262,0,0,1,3.976.508l2.008,2.008a.85.85,0,0,0,.6.25h0a.86.86,0,0,0,.6-.247l2.914-2.914a.844.844,0,0,0,.25-.608.823.823,0,0,0-.247-.594l-2.014-2.014a3.275,3.275,0,0,1-.5-3.974,21.219,21.219,0,0,0,2.293-5.527,3.272,3.272,0,0,1,3.164-2.449h2.839a.853.853,0,0,0,.852-.852v-4.116a.855.855,0,0,0-.852-.855h-2.839a3.273,3.273,0,0,1-3.164-2.446,21.238,21.238,0,0,0-2.293-5.53,3.27,3.27,0,0,1,.5-3.968l2.014-2.014a.835.835,0,0,0,.25-.6.826.826,0,0,0-.247-.6l-2.914-2.917a.85.85,0,0,0-.6-.25h0a.829.829,0,0,0-.594.247l-2.016,2.014a3.27,3.27,0,0,1-3.971.5,21.262,21.262,0,0,0-5.527-2.293,3.265,3.265,0,0,1-2.452-3.164v-2.839a.85.85,0,0,0-.849-.852h-4.119a.852.852,0,0,0-.852.852v2.839a3.265,3.265,0,0,1-2.452,3.164,21.226,21.226,0,0,0-5.522,2.293,3.276,3.276,0,0,1-3.976-.505l-2.008-2.008a.849.849,0,0,0-.6-.25h0a.837.837,0,0,0-.6.247l-2.914,2.914a.85.85,0,0,0,0,1.2l2.013,2.014a3.274,3.274,0,0,1,.5,3.971,21.165,21.165,0,0,0-2.29,5.527,3.272,3.272,0,0,1-3.164,2.449h-2.842a.854.854,0,0,0-.85.855v4.116a.852.852,0,0,0,.85.852h2.839a3.265,3.265,0,0,1,3.164,2.452,21.369,21.369,0,0,0,2.293,5.525,3.277,3.277,0,0,1-.5,3.971l-2.014,2.014a.825.825,0,0,0-.25.6.847.847,0,0,0,.247.6l2.914,2.914a.85.85,0,0,0,.6.25h0a.851.851,0,0,0,.6-.247l2.016-2.014A3.361,3.361,0,0,1,740.285,505.83Z" transform="translate(-722.504 -457.506)"/></g><g transform="translate(747.169 482.094)"><path class="a" d="M743.993,495.271A16.272,16.272,0,1,1,760.266,479,16.287,16.287,0,0,1,743.993,495.271Zm0-29.855A13.583,13.583,0,1,0,757.578,479,13.6,13.6,0,0,0,743.993,465.416Z" transform="translate(-727.726 -462.728)"/></g><g transform="translate(716.21 451.258)"><g transform="translate(7.244 7.222)"><path class="b" d="M758.084,532.286a39.142,39.142,0,1,1,26.174-10.028A39.091,39.091,0,0,1,758.084,532.286Zm-.065-75.654a36.495,36.495,0,1,0,27.177,12.1h0A36.233,36.233,0,0,0,760,456.685Q759.005,456.633,758.019,456.632Z" transform="translate(-718.905 -453.945)"/></g><path class="b" d="M762.671,544.062c-.836,0-1.678-.019-2.519-.065a46.4,46.4,0,1,1,36.968-77.359h0a46.4,46.4,0,0,1-34.449,77.423Zm-.11-90.115a43.712,43.712,0,1,0,32.559,14.485h0a43.438,43.438,0,0,0-30.188-14.423C764.141,453.968,763.348,453.946,762.56,453.946Z" transform="translate(-716.21 -451.258)"/><g transform="translate(74.966 78.382)"><rect class="b" width="2.688" height="10.377" transform="matrix(0.744, -0.669, 0.669, 0.744, 0, 1.798)"/></g><g transform="translate(76.603 81.243)"><path class="b" d="M757.681,502.168q-.153,0-.307-.008a5.615,5.615,0,0,1-3.909-1.868l-8.762-9.745,10.081-9.068,8.767,9.748a5.652,5.652,0,0,1-.425,7.987l-1.67,1.5A5.625,5.625,0,0,1,757.681,502.168ZM748.5,490.745l6.965,7.751a2.974,2.974,0,0,0,4.2.22l1.67-1.5a2.97,2.97,0,0,0,.223-4.191l-6.968-7.748Z" transform="translate(-744.704 -481.478)"/></g></g></g></svg>