<svg xmlns="http://www.w3.org/2000/svg" width="101.566" height="84.446" viewBox="0 0 101.566 84.446"><defs><style>.a{fill:#e9791a;}</style></defs><g transform="translate(-715.71 -527.741)"><g transform="translate(757.465 572.894)"><path d="M754.365,587.591a19.647,19.647,0,1,1,19.645-19.648A19.669,19.669,0,0,1,754.365,587.591Zm0-37.1a17.45,17.45,0,1,0,17.449,17.449A17.467,17.467,0,0,0,754.365,550.494Z" transform="translate(-734.72 -548.298)"/></g><g transform="translate(778.905 541.871)"><path d="M756.928,554c-6.864,0-12.448-4.446-12.448-9.908s5.583-9.913,12.448-9.913,12.445,4.446,12.445,9.913S763.79,554,756.928,554Zm0-17.625c-5.651,0-10.251,3.462-10.251,7.716s4.6,7.712,10.251,7.712,10.249-3.459,10.249-7.712S762.582,536.37,756.928,536.37Z" transform="translate(-744.481 -534.174)"/></g><g transform="translate(777.985 572.894)"><path class="a" d="M763.707,587.591a19.647,19.647,0,1,1,19.646-19.648A19.669,19.669,0,0,1,763.707,587.591Zm0-37.1a17.45,17.45,0,1,0,17.449,17.449A17.467,17.467,0,0,0,763.707,550.494Z" transform="translate(-744.062 -548.298)"/></g><g transform="translate(740.379 527.741)"><path class="a" d="M745.857,565.571a18.915,18.915,0,1,1,18.914-18.914A18.938,18.938,0,0,1,745.857,565.571Zm0-35.634a16.719,16.719,0,1,0,16.717,16.72A16.737,16.737,0,0,0,745.857,529.938Z" transform="translate(-726.941 -527.741)"/></g><g transform="translate(715.71 537.094)"><path d="M739.048,578.674a23.338,23.338,0,1,1,23.335-23.338A23.366,23.366,0,0,1,739.048,578.674Zm0-44.479a21.141,21.141,0,1,0,21.139,21.141A21.163,21.163,0,0,0,739.048,534.2Z" transform="translate(-715.71 -531.999)"/></g><g transform="translate(791.46 541.871)"><path class="a" d="M762.642,554c-6.862,0-12.445-4.446-12.445-9.908s5.583-9.913,12.445-9.913,12.448,4.446,12.448,9.913S769.506,554,762.642,554Zm0-17.625c-5.652,0-10.249,3.462-10.249,7.716s4.6,7.712,10.249,7.712,10.251-3.459,10.251-7.712S768.3,536.37,762.642,536.37Z" transform="translate(-750.197 -534.174)"/></g></g></svg>