<svg xmlns="http://www.w3.org/2000/svg" width="214.546" height="134.778" viewBox="0 0 214.546 134.778"><defs><style>.a{opacity:0.317;}.b{fill:#eee;}</style></defs><g class="a"><path class="b" d="M370.069,315.3c-.3-1.346-.456-2.358-.745-3.332-1.535-5.175-3.107-10.339-4.658-15.509q-16.784-55.942-33.5-111.9c-.822-2.764-1.923-3.765-4.919-3.731-15.544.172-31.091.147-46.635.016-2.664-.023-3.794.693-4.584,3.349q-17.36,58.331-34.956,116.592c-1.4,4.677-2.763,9.367-4.259,14.447,1.326.123,2.242.282,3.158.283,11.49.017,22.981-.055,34.469.064,2.425.025,3.3-.913,3.923-3.123q11.2-39.65,22.566-79.249c.926-3.24,1.935-6.457,3.108-10.357.465,1.417.694,2.043.877,2.684,8.2,28.729,16.442,57.446,24.518,86.209.837,2.982,2.094,3.915,5.161,3.86,10.907-.2,21.82-.071,32.731-.085C367.444,315.514,368.566,315.391,370.069,315.3Z" transform="translate(-235.811 -180.825)"/><path class="b" d="M466.841,181.115c.362,1.348.63,2.452.955,3.538q19.206,64.1,38.386,128.2c.6,2,1.532,2.748,3.649,2.732,11.582-.09,23.166-.036,34.749-.056a28.94,28.94,0,0,0,2.959-.323c-.295-1.274-.457-2.2-.726-3.1q-5.431-18.135-10.888-36.263-13.843-46.093-27.652-92.2c-.574-1.919-1.332-2.8-3.54-2.776-11.678.122-23.359.053-35.038.064C468.85,180.932,468.006,181.037,466.841,181.115Z" transform="translate(-332.992 -180.843)"/></g></svg>