<svg xmlns="http://www.w3.org/2000/svg" width="61.61" height="61.61" viewBox="0 0 61.61 61.61"><defs><style>.a{fill:#fff;}</style></defs><path class="a" d="M0,61.61H47.159V0H0Zm3.61-58H43.549V58H3.61Z"/><path class="a" d="M421.952,60.048v42.489l5.418,5.418,5.418-5.418V60.048Zm7.225,3.61V74.5h-3.616V63.658ZM427.37,102.85l-1.808-1.808V78.11h3.616v22.932Z" transform="translate(-371.177 -52.823)"/><path class="a" d="M105.036,60.25h21.879v3.61H105.036Z" transform="translate(-92.396 -53)"/><path class="a" d="M60,120.5H92.717v3.61H60Z" transform="translate(-52.78 -106)"/><path class="a" d="M135.061,180.75h23.685v3.61H135.061Z" transform="translate(-118.808 -159)"/><path class="a" d="M135.061,241h23.685v3.61H135.061Z" transform="translate(-118.808 -212)"/><path class="a" d="M135.061,301.25h23.685v3.61H135.061Z" transform="translate(-118.808 -265)"/><path class="a" d="M135.061,361.5h23.685v3.61H135.061Z" transform="translate(-118.808 -318)"/><path class="a" d="M60,180.75h5.419v3.61H60Z" transform="translate(-52.78 -159)"/><path class="a" d="M60,241h5.419v3.61H60Z" transform="translate(-52.78 -212)"/><path class="a" d="M60,301.25h5.419v3.61H60Z" transform="translate(-52.78 -265)"/><path class="a" d="M60,361.5h5.419v3.61H60Z" transform="translate(-52.78 -318)"/></svg>