<svg xmlns="http://www.w3.org/2000/svg" width="127.177" height="109.576" viewBox="0 0 127.177 109.576"><defs><style>.a{fill:#9b9b9b;}.b{fill:#e9791a;}</style></defs><g transform="translate(-371.198 -445.78)"><g transform="translate(382.37 492.959)"><path class="a" d="M389.187,491.071a13.8,13.8,0,1,1,13.8-13.8A13.815,13.815,0,0,1,389.187,491.071Zm0-24.935a11.134,11.134,0,1,0,11.135,11.135A11.148,11.148,0,0,0,389.187,466.136Z" transform="translate(-375.387 -463.469)"/></g><g transform="translate(371.198 519.195)"><path class="a" d="M415.5,509.467h-38.66a5.676,5.676,0,0,1-4.2-1.864,5.57,5.57,0,0,1-1.419-4.268c1.7-17.12,12.423-30.029,24.946-30.029s23.249,12.909,24.948,30.029A5.568,5.568,0,0,1,419.7,507.6,5.686,5.686,0,0,1,415.5,509.467ZM396.17,475.973c-11.143,0-20.729,11.874-22.292,27.624a2.851,2.851,0,0,0,.741,2.214,3,3,0,0,0,2.222.99H415.5a3,3,0,0,0,2.222-.99,2.852,2.852,0,0,0,.742-2.214C416.9,487.847,407.316,475.973,396.17,475.973Z" transform="translate(-371.198 -473.306)"/></g><g transform="translate(375.934 486.963)"><path class="a" d="M413.448,481.459h-2.667a17.57,17.57,0,1,0-35.139,0h-2.667a20.237,20.237,0,1,1,40.474,0Z" transform="translate(-372.974 -461.221)"/></g><g transform="translate(409.719 503.067)"><path class="a" d="M388.988,482.387a3.351,3.351,0,0,1-3.347-3.345v-8.436a3.345,3.345,0,1,1,6.689,0v8.436A3.348,3.348,0,0,1,388.988,482.387Zm0-12.461a.68.68,0,0,0-.68.68v8.436c0,.744,1.355.744,1.355,0v-8.436A.677.677,0,0,0,388.988,469.926Z" transform="translate(-385.641 -467.259)"/></g><g transform="translate(375.934 504.1)"><path class="a" d="M376.319,482.774a3.347,3.347,0,0,1-3.345-3.347v-8.436a3.345,3.345,0,0,1,6.689,0v8.436A3.349,3.349,0,0,1,376.319,482.774Zm0-12.461a.678.678,0,0,0-.677.677v8.436c0,.752,1.355.752,1.355,0v-8.436A.68.68,0,0,0,376.319,470.313Z" transform="translate(-372.974 -467.646)"/></g><g transform="translate(459.6 492.959)"><path class="a" d="M418.145,491.071a13.8,13.8,0,1,1,13.8-13.8A13.818,13.818,0,0,1,418.145,491.071Zm0-24.935a11.134,11.134,0,1,0,11.133,11.135A11.148,11.148,0,0,0,418.145,466.136Z" transform="translate(-404.343 -463.469)"/></g><g transform="translate(448.43 519.195)"><path class="a" d="M444.459,509.467H405.8a5.68,5.68,0,0,1-4.2-1.864,5.557,5.557,0,0,1-1.416-4.268c1.7-17.12,12.421-30.029,24.946-30.029s23.247,12.909,24.946,30.029a5.558,5.558,0,0,1-1.416,4.268A5.685,5.685,0,0,1,444.459,509.467Zm-19.331-33.494c-11.146,0-20.729,11.874-22.292,27.624a2.839,2.839,0,0,0,.739,2.214,3,3,0,0,0,2.222.99h38.663a3,3,0,0,0,2.222-.99,2.849,2.849,0,0,0,.739-2.214C445.856,487.847,436.271,475.973,425.128,475.973Z" transform="translate(-400.155 -473.306)"/></g><g transform="translate(453.164 486.963)"><path class="a" d="M442.406,481.459h-2.667a17.571,17.571,0,0,0-35.142,0H401.93a20.238,20.238,0,0,1,40.476,0Z" transform="translate(-401.93 -461.221)"/></g><g transform="translate(486.951 503.067)"><path class="a" d="M417.943,482.387a3.348,3.348,0,0,1-3.345-3.345v-8.436a3.345,3.345,0,1,1,6.689,0v8.436A3.35,3.35,0,0,1,417.943,482.387Zm0-12.461a.677.677,0,0,0-.677.68v8.436c0,.744,1.355.744,1.355,0v-8.436A.679.679,0,0,0,417.943,469.926Z" transform="translate(-414.598 -467.259)"/></g><g transform="translate(453.164 503.067)"><path class="a" d="M405.274,482.387a3.348,3.348,0,0,1-3.345-3.345v-8.436a3.345,3.345,0,1,1,6.689,0v8.436A3.35,3.35,0,0,1,405.274,482.387Zm0-12.461a.679.679,0,0,0-.677.68v8.436c0,.744,1.355.744,1.355,0v-8.436A.679.679,0,0,0,405.274,469.926Z" transform="translate(-401.93 -467.259)"/></g><g transform="translate(410.471 445.78)"><path class="b" d="M422.148,474.5H390.326a4.41,4.41,0,0,1-4.4-4.406V445.78h40.628v24.314A4.409,4.409,0,0,1,422.148,474.5ZM388.59,448.447v21.646a1.739,1.739,0,0,0,1.736,1.739h31.821a1.739,1.739,0,0,0,1.736-1.739V448.447Z" transform="translate(-385.923 -445.78)"/></g><g transform="translate(410.591 445.78)"><path class="b" d="M405.932,461.161,385.968,445.78h40.474ZM393.8,448.447l12.149,9.364,12.49-9.364Z" transform="translate(-385.968 -445.78)"/></g><g transform="translate(385.559 459.487)"><g transform="translate(70.983)"><path class="a" d="M421.236,467.8a1.326,1.326,0,0,1-1.032-.488,60.1,60.1,0,0,0-16.344-13.9,1.335,1.335,0,0,1,1.339-2.31,62.821,62.821,0,0,1,17.067,14.52,1.332,1.332,0,0,1-1.03,2.179Z" transform="translate(-403.196 -450.919)"/></g><g transform="translate(0 3.666)"><path class="a" d="M377.915,469.818a1.312,1.312,0,0,1-.752-.235,1.329,1.329,0,0,1-.347-1.851,63,63,0,0,1,14.68-15.173,1.332,1.332,0,1,1,1.582,2.144,60.443,60.443,0,0,0-14.061,14.533A1.332,1.332,0,0,1,377.915,469.818Z" transform="translate(-376.582 -452.294)"/></g><g transform="translate(8.605 1.32)"><path class="a" d="M386.232,461.538l-.159-6.366-6.264-1.133.474-2.625,8.4,1.518.214,8.538Z" transform="translate(-379.809 -451.414)"/></g><g transform="translate(81.699 8.889)"><path class="a" d="M407.282,463.342l-.068-2.667,6.364-.159,1.133-6.264,2.625.474-1.521,8.4Z" transform="translate(-407.214 -454.252)"/></g></g></g></svg>