<svg xmlns="http://www.w3.org/2000/svg" width="126.686" height="122.267" viewBox="0 0 126.686 122.267"><defs><style>.a,.c{fill:#9b9b9b;}.b{fill:#e9791a;}.c{stroke:#000;stroke-linecap:round;stroke-miterlimit:10;}</style></defs><g transform="translate(-250.253 -445.444)"><g transform="translate(354.077 508.258)"><path class="a" d="M301.644,476.986l-4.781-3.892-4.781,3.892-1.629-2,6.41-5.218,6.41,5.218Z" transform="translate(-290.454 -469.766)"/></g><g transform="translate(254.824 508.258)"><path class="a" d="M263.214,476.986l-4.781-3.892-4.781,3.892-1.629-2,6.41-5.218,6.41,5.218Z" transform="translate(-252.023 -469.766)"/></g><g transform="translate(304.242 474.396)"><path class="a" d="M282.348,463.878l-4.779-3.894-4.779,3.894-1.632-2,6.411-5.221,6.411,5.221Z" transform="translate(-271.158 -456.654)"/></g><g transform="translate(297.828 445.444)"><path class="a" d="M294.325,455.966H268.674V445.444h25.651Zm-23.068-2.583h20.485v-5.356H271.257Z" transform="translate(-268.674 -445.444)"/></g><g transform="translate(297.828 453.383)"><path class="a" d="M294.325,459.037H268.674V448.518h25.651Zm-23.068-2.583h20.485V451.1H271.257Z" transform="translate(-268.674 -448.518)"/></g><g transform="translate(297.828 461.32)"><path class="a" d="M294.325,462.11H268.674V451.591h25.651Zm-23.068-2.583h20.485v-5.354H271.257Z" transform="translate(-268.674 -451.591)"/></g><g transform="translate(302.342 449.344)"><circle class="a" cx="1.398" cy="1.398" r="1.398"/></g><g transform="translate(312.932 449.344)"><rect class="a" width="1.218" height="2.797"/></g><g transform="translate(314.974 449.344)"><rect class="a" width="1.218" height="2.797"/></g><g transform="translate(316.86 449.344)"><rect class="a" width="1.218" height="2.797"/></g><g transform="translate(349.86 477.048)"><path class="a" d="M308.62,467.038h-19.8V460.85a3.173,3.173,0,0,1,3.169-3.169h13.461a3.171,3.171,0,0,1,3.169,3.169ZM291.4,464.455h14.633V460.85a.587.587,0,0,0-.586-.586H291.99a.587.587,0,0,0-.586.586Z" transform="translate(-288.821 -457.681)"/></g><g transform="translate(349.86 483.566)"><path class="a" d="M305.528,481.964H291.912a3.1,3.1,0,0,1-3.091-3.091V460.2h19.8v18.667A3.1,3.1,0,0,1,305.528,481.964ZM291.4,462.788v16.085a.51.51,0,0,0,.509.509h13.616a.511.511,0,0,0,.509-.509V462.788Z" transform="translate(-288.821 -460.205)"/></g><g transform="translate(353.556 480.565)"><ellipse class="a" cx="1.044" cy="1.193" rx="1.044" ry="1.193"/></g><g transform="translate(358.816 481.14)"><rect class="a" width="6.484" height="1.237"/></g><g transform="translate(302.342 457.243)"><circle class="a" cx="1.398" cy="1.398" r="1.398"/></g><g transform="translate(312.932 457.243)"><rect class="a" width="1.218" height="2.797"/></g><g transform="translate(314.974 457.243)"><rect class="a" width="1.218" height="2.797"/></g><g transform="translate(316.86 457.243)"><rect class="a" width="1.218" height="2.797"/></g><g transform="translate(302.342 465.18)"><circle class="a" cx="1.398" cy="1.398" r="1.398"/></g><g transform="translate(312.932 465.18)"><rect class="a" width="1.218" height="2.797"/></g><g transform="translate(314.974 465.18)"><rect class="a" width="1.218" height="2.797"/></g><g transform="translate(316.86 465.18)"><rect class="a" width="1.218" height="2.797"/></g><g transform="translate(344.341 464.958)"><path class="a" d="M314.432,475.477a1.292,1.292,0,0,1-.506-2.479,4.549,4.549,0,0,0-.777-8.626l-.865-.2-.127-.878a9,9,0,0,0-16.717-3.177l-.3.524-.591.108a6.5,6.5,0,0,0-2.967,11.356,1.291,1.291,0,1,1-1.661,1.978,9.08,9.08,0,0,1,3.572-15.744,11.583,11.583,0,0,1,21.072,3.763,7.128,7.128,0,0,1,.372,13.27A1.3,1.3,0,0,1,314.432,475.477Z" transform="translate(-286.684 -453)"/></g><g transform="translate(355.917 493.579)"><path class="a" d="M294.87,471.489a3.7,3.7,0,1,1,3.706-3.7A3.706,3.706,0,0,1,294.87,471.489Zm0-4.824a1.121,1.121,0,1,0,1.123,1.124A1.122,1.122,0,0,0,294.87,466.665Z" transform="translate(-291.166 -464.082)"/></g><g transform="translate(250.253 474.824)"><path class="a" d="M271.343,466.316H255a4.748,4.748,0,1,1,0-9.5h16.34a4.748,4.748,0,0,1,0,9.5ZM255,459.4a2.166,2.166,0,1,0,0,4.331h16.34a2.166,2.166,0,0,0,0-4.331Z" transform="translate(-250.253 -456.82)"/></g><g transform="translate(250.253 481.412)"><path class="a" d="M271.343,468.867H255a4.748,4.748,0,1,1,0-9.5h16.34a4.748,4.748,0,0,1,0,9.5ZM255,461.954a2.166,2.166,0,1,0,0,4.331h16.34a2.166,2.166,0,0,0,0-4.331Z" transform="translate(-250.253 -459.371)"/></g><g transform="translate(250.253 488.001)"><path class="a" d="M271.343,471.418H255a4.748,4.748,0,1,1,0-9.5h16.34a4.748,4.748,0,0,1,0,9.5ZM255,464.5a2.166,2.166,0,1,0,0,4.331h16.34a2.166,2.166,0,0,0,0-4.331Z" transform="translate(-250.253 -461.922)"/></g><g transform="translate(261.88 495.775)"><path class="a" d="M266.627,474.323H254.755v-8.1a1.291,1.291,0,0,1,2.583,0v5.517h9.29a1.291,1.291,0,1,1,0,2.583Z" transform="translate(-254.755 -464.932)"/></g><g transform="translate(251.302 502.582)"><path class="a" d="M262.529,470.151H251.95a1.291,1.291,0,1,1,0-2.583h10.579a1.291,1.291,0,1,1,0,2.583Z" transform="translate(-250.659 -467.568)"/></g><g transform="translate(275.609 488.001)"><path class="a" d="M288.366,541.633a2.654,2.654,0,0,1-2.539-1.9l-2.859-9.6-8.241,0a7.592,7.592,0,0,1-7.583-7.588l.016-7.466h-.9a6.206,6.206,0,0,1-5.656-8.732l2.278-4.5c1.095-2.162,2.389-4.726,3.386-6.741-.072-.834-.116-1.684-.116-2.544a30.615,30.615,0,1,1,53.45,20.382l4.595,15.134a2.658,2.658,0,0,1-1.767,3.308l-33.293,10.127A2.758,2.758,0,0,1,288.366,541.633ZM284.9,527.55,288.3,539l33.381-10.08-4.977-16.638.509-.545a28.039,28.039,0,1,0-48.476-19.171c0,.906.054,1.795.137,2.67l.034.367-.163.325c-1.018,2.066-2.4,4.8-3.559,7.089l-2.164,4.269a3.683,3.683,0,0,0-.369,1.591,3.619,3.619,0,0,0,3.61,3.618h3.484l-.021,10.049a5.009,5.009,0,0,0,5,5.005Z" transform="translate(-260.071 -461.922)"/></g><g transform="translate(301.051 504.155)"><path class="b" d="M284.746,488.774h-9.052A5.78,5.78,0,0,1,269.922,483v-9.055a5.778,5.778,0,0,1,5.772-5.77h9.052a5.776,5.776,0,0,1,5.772,5.77V483A5.779,5.779,0,0,1,284.746,488.774Zm-9.052-18.014a3.191,3.191,0,0,0-3.19,3.187V483a3.192,3.192,0,0,0,3.19,3.19h9.052a3.192,3.192,0,0,0,3.19-3.19v-9.055a3.191,3.191,0,0,0-3.19-3.187Z" transform="translate(-269.922 -468.177)"/></g><g transform="translate(319.065 510.909)"><path class="b" d="M283.217,473.375h-5.028a1.291,1.291,0,1,1,0-2.583h5.028a1.291,1.291,0,1,1,0,2.583Z" transform="translate(-276.897 -470.792)"/></g><g transform="translate(319.065 515.413)"><path class="b" d="M283.217,475.119h-5.028a1.291,1.291,0,1,1,0-2.583h5.028a1.291,1.291,0,1,1,0,2.583Z" transform="translate(-276.897 -472.536)"/></g><g transform="translate(296.023 510.909)"><path class="b" d="M274.295,473.375h-5.028a1.291,1.291,0,0,1,0-2.583h5.028a1.291,1.291,0,0,1,0,2.583Z" transform="translate(-267.975 -470.792)"/></g><g transform="translate(296.023 515.413)"><path class="b" d="M274.295,475.119h-5.028a1.291,1.291,0,0,1,0-2.583h5.028a1.291,1.291,0,0,1,0,2.583Z" transform="translate(-267.975 -472.536)"/></g><g transform="translate(307.807 499.124)"><path class="b" d="M273.829,473.843a1.29,1.29,0,0,1-1.291-1.291V467.52a1.291,1.291,0,1,1,2.583,0v5.031A1.292,1.292,0,0,1,273.829,473.843Z" transform="translate(-272.538 -466.229)"/></g><g transform="translate(312.311 499.124)"><path class="b" d="M275.573,473.843a1.29,1.29,0,0,1-1.291-1.291V467.52a1.291,1.291,0,1,1,2.583,0v5.031A1.292,1.292,0,0,1,275.573,473.843Z" transform="translate(-274.282 -466.229)"/></g><g transform="translate(307.807 522.169)"><path class="b" d="M273.829,482.763a1.29,1.29,0,0,1-1.291-1.291v-5.028a1.291,1.291,0,0,1,2.583,0v5.028A1.292,1.292,0,0,1,273.829,482.763Z" transform="translate(-272.538 -475.152)"/></g><g transform="translate(312.311 522.169)"><path class="b" d="M275.573,482.763a1.29,1.29,0,0,1-1.291-1.291v-5.028a1.291,1.291,0,0,1,2.583,0v5.028A1.292,1.292,0,0,1,275.573,482.763Z" transform="translate(-274.282 -475.152)"/></g><g transform="translate(259.943 510.909)"><path class="a" d="M267.814,480.443h-7.9a5.916,5.916,0,0,1-5.909-5.909v-2.451a1.291,1.291,0,1,1,2.583,0v2.451a3.331,3.331,0,0,0,3.326,3.326h7.9a1.291,1.291,0,0,1,0,2.583Z" transform="translate(-254.005 -470.792)"/></g><g transform="translate(346.764 510.909)"><path class="a" d="M296.808,480.443h-7.9a1.291,1.291,0,1,1,0-2.583h7.9a3.331,3.331,0,0,0,3.329-3.326v-2.451a1.291,1.291,0,0,1,2.583,0v2.451A5.917,5.917,0,0,1,296.808,480.443Z" transform="translate(-287.622 -470.792)"/></g><g transform="translate(309.266 483.029)"><path class="c" d="M273.1,460" transform="translate(-273.103 -459.997)"/></g><g transform="translate(309.362 476.954)"><rect class="a" width="2.583" height="7.904"/></g></g></svg>