<svg xmlns="http://www.w3.org/2000/svg" width="103.34" height="104.735" viewBox="0 0 103.34 104.735">
  <g id="Group_3228" data-name="Group 3228" transform="translate(-107.139 -514.571)">
    <g id="Group_3224" data-name="Group 3224" transform="translate(157.961 537.9)">
      <path id="Path_3937" data-name="Path 3937" d="M144.545,546.3h-20.6V522.285h3.024v20.99h17.577Z" transform="translate(-123.944 -522.285)" fill="#9b9b9b"/>
    </g>
    <g id="Group_3225" data-name="Group 3225" transform="translate(188.368 516.083)">
      <path id="Path_3938" data-name="Path 3938" d="M154.6,539.085H134V515.071h3.024v20.99H154.6Z" transform="translate(-133.998 -515.071)" fill="#e9791a"/>
    </g>
    <g id="Group_3226" data-name="Group 3226" transform="translate(137.382 514.571)">
      <path id="Path_3939" data-name="Path 3939" d="M190.237,596.808h-22.3v-3.024h19.275V539.14L168.937,517.6H120.163v12.366h-3.024v-15.39h53.2l19.9,23.459Z" transform="translate(-117.139 -514.571)" fill="#e9791a"/>
    </g>
    <g id="Group_3227" data-name="Group 3227" transform="translate(107.139 537.074)">
      <path id="Path_3940" data-name="Path 3940" d="M180.238,604.245h-73.1V522.012h53.015l20.084,22.754Zm-70.075-3.024h67.051V545.913L158.79,525.036H110.163Z" transform="translate(-107.139 -522.012)" fill="#9b9b9b"/>
    </g>
  </g>
</svg>
