<svg xmlns="http://www.w3.org/2000/svg" width="121.812" height="101.297" viewBox="0 0 121.812 101.297"><defs><style>.a{fill:#9b9b9b;}.b{fill:#e9791a;}</style></defs><g transform="translate(-442.899 -448.185)"><g transform="translate(442.899 448.185)"><path class="a" d="M552.189,539.809H455.421A12.537,12.537,0,0,1,442.9,527.287V459.211a11.038,11.038,0,0,1,11.026-11.026h99.76a11.038,11.038,0,0,1,11.026,11.026v68.076A12.535,12.535,0,0,1,552.189,539.809Zm-98.264-88.864a8.273,8.273,0,0,0-8.266,8.266v68.076a9.772,9.772,0,0,0,9.762,9.762h96.768a9.774,9.774,0,0,0,9.762-9.762V459.211a8.275,8.275,0,0,0-8.266-8.266Z" transform="translate(-442.899 -448.185)"/></g><g transform="translate(484.43 536.9)"><path class="a" d="M496.7,492.911H457.947V480.329H496.7Zm-35.989-2.76h33.229v-7.063H460.707Z" transform="translate(-457.947 -480.329)"/></g><g transform="translate(442.899 517.76)"><path class="a" d="M552.189,495.443H455.421A12.537,12.537,0,0,1,442.9,482.921v-9.527H564.711v9.527A12.535,12.535,0,0,1,552.189,495.443Zm-106.53-19.289v6.767a9.772,9.772,0,0,0,9.762,9.762h96.768a9.774,9.774,0,0,0,9.762-9.762v-6.767Z" transform="translate(-442.899 -473.394)"/></g><g transform="translate(471.879 546.721)"><rect class="a" width="63.853" height="2.76"/></g><g transform="translate(457.957 472.85)"><path class="b" d="M490.129,493.545H448.355V457.122h41.774Zm-39.014-2.76h36.254v-30.9H451.115Z" transform="translate(-448.355 -457.122)"/><path class="b" d="M490.129,471.672H448.355v-14.55h41.774Zm-39.014-2.76h36.254v-9.03H451.115Z" transform="translate(-448.355 -457.122)"/><g transform="translate(7.024 5.338)"><circle class="b" cx="1.936" cy="1.936" r="1.936"/></g></g><g transform="translate(507.878 467.331)"><path class="b" d="M508.217,491.545H466.443V455.122h41.774Zm-39.014-2.76h36.254v-30.9H469.2Z" transform="translate(-466.443 -455.122)"/><path class="b" d="M508.217,469.672H466.443v-14.55h41.774Zm-39.014-2.76h36.254v-9.03H469.2Z" transform="translate(-466.443 -455.122)"/><g transform="translate(7.025 5.338)"><circle class="b" cx="1.936" cy="1.936" r="1.936"/></g></g></g></svg>