<svg xmlns="http://www.w3.org/2000/svg" width="100.04" height="102.829" viewBox="0 0 100.04 102.829"><defs><style>.a{fill:#9b9b9b;}.b{fill:#e9791a;}</style></defs><g transform="translate(-314.097 -449.185)"><g transform="translate(314.097 449.185)"><path class="a" d="M403.66,552.014H324.575a10.491,10.491,0,0,1-10.478-10.48V459.665a10.491,10.491,0,0,1,10.478-10.48H403.66a10.491,10.491,0,0,1,10.478,10.48v81.868A10.491,10.491,0,0,1,403.66,552.014ZM324.575,451.808a7.863,7.863,0,0,0-7.854,7.857v81.868a7.865,7.865,0,0,0,7.854,7.857H403.66a7.865,7.865,0,0,0,7.854-7.857V459.665a7.863,7.863,0,0,0-7.854-7.857Z" transform="translate(-314.097 -449.185)"/></g><g transform="translate(314.097 449.185)"><path class="a" d="M414.137,471.782H314.1V459.665a10.491,10.491,0,0,1,10.478-10.48H403.66a10.491,10.491,0,0,1,10.478,10.48Zm-97.417-2.623h94.794v-9.494a7.863,7.863,0,0,0-7.854-7.857H324.575a7.863,7.863,0,0,0-7.854,7.857Z" transform="translate(-314.097 -449.185)"/></g><g transform="translate(326.726 516.99)"><g transform="translate(0 6.178)"><path class="a" d="M345.936,495.446H318.911V477.387h27.025Zm-24.4-2.623h21.779V480.01H321.534Z" transform="translate(-318.911 -477.387)"/></g><g transform="translate(24.402)"><path class="a" d="M355.238,499.269H328.213V475.032h27.025Zm-24.4-2.623h21.779v-18.99H330.836Z" transform="translate(-328.213 -475.032)"/></g><g transform="translate(48.804 6.178)"><path class="a" d="M364.54,495.446H337.515V477.387H364.54Zm-24.4-2.623h21.779V480.01H340.138Z" transform="translate(-337.515 -477.387)"/></g></g><g transform="translate(349.395 478.739)"><path class="b" d="M335.1,489.782a2.8,2.8,0,0,1-2.723-3.416L334,479.231l-5.491-4.816a2.795,2.795,0,0,1,1.587-4.885l7.267-.658,2.87-6.721a2.792,2.792,0,0,1,5.139,0l2.87,6.721,7.267.658a2.788,2.788,0,0,1,2.4,1.918h0a2.791,2.791,0,0,1-.813,2.964l-5.493,4.819,1.619,7.135a2.795,2.795,0,0,1-4.155,3.019l-6.264-3.743-6.264,3.741A2.8,2.8,0,0,1,335.1,489.782Zm-4.866-17.34,6.668,5.847-1.965,8.657.163.213,7.7-4.575,7.61,4.551,1.532-.48-1.28.291-1.967-8.657,6.718-6.031a.17.17,0,0,0-.144-.115l-8.825-.8-3.486-8.164h-.312l-3.489,8.164-8.825.8-.96,1.286Z" transform="translate(-327.553 -460.451)"/></g><g transform="translate(328.036 458.112)"><circle class="a" cx="2.726" cy="2.726" r="2.726"/></g><g transform="translate(335.804 458.112)"><circle class="a" cx="2.726" cy="2.726" r="2.726"/></g><g transform="translate(343.334 458.112)"><circle class="a" cx="2.726" cy="2.726" r="2.726"/></g></g></svg>