<svg xmlns="http://www.w3.org/2000/svg" width="357.1" height="352.903" viewBox="0 0 357.1 352.903"><defs><style>.a{opacity:0.265;}.b{fill:#e9791a;}</style></defs><g class="a" transform="translate(-310 -2002)"><g transform="translate(310 2178.634)"><g transform="translate(5.847 0)"><path class="b" d="M1843.826,516.755c3.571-.732,3.749,8.289,3.686,10.181-.065,1.962,2.984,1.959,3.048,0,.145-4.4-.894-14.483-7.544-13.12-1.92.394-1.108,3.332.81,2.939Z" transform="translate(-1841.919 -513.69)"/></g><g transform="translate(31.792 1.919)"><g transform="translate(0 0)"><path class="b" d="M1894.457,522.27a84.552,84.552,0,0,0,14.591-1.825c1.917-.411,1.106-3.35-.81-2.939a79.723,79.723,0,0,1-13.781,1.716c-1.956.073-1.965,3.121,0,3.048Z" transform="translate(-1892.987 -517.467)"/></g></g><g transform="translate(66.354 1.289)"><g transform="translate(0 0)"><path class="b" d="M1962.116,519.2a17.783,17.783,0,0,1,10.343,6.087c1.269,1.5,3.415-.666,2.156-2.156a20.4,20.4,0,0,0-11.688-6.871c-1.916-.378-2.736,2.56-.81,2.939Z" transform="translate(-1961.018 -516.227)"/></g></g><g transform="translate(95.233 1.234)"><path class="b" d="M2020.837,526.59a9.486,9.486,0,0,1,7.538-7.5c1.922-.383,1.109-3.321-.81-2.94a12.45,12.45,0,0,0-9.667,9.627c-.391,1.915,2.547,2.734,2.939.81Z" transform="translate(-2017.863 -516.119)"/></g><g transform="translate(127.768 0.867)"><g transform="translate(0 0)"><path class="b" d="M2083.8,520.021a50.332,50.332,0,0,1,17.894-1.289c1.949.2,1.935-2.845,0-3.048a52.761,52.761,0,0,0-18.7,1.4c-1.9.487-1.094,3.428.811,2.939Z" transform="translate(-2081.904 -515.397)"/></g></g><g transform="translate(156.14 2.03)"><g transform="translate(0)"><path class="b" d="M2146.163,519.555c1.673,5.243-3.821,8.416-7.66,10.508-1.723.939-.186,3.572,1.539,2.632,5.117-2.789,11.2-7.252,9.06-13.95-.594-1.862-3.538-1.066-2.939.81Z" transform="translate(-2137.749 -517.685)"/></g></g><g transform="translate(169.51 15.368)"><g transform="translate(0)"><path class="b" d="M2170.23,545a29.874,29.874,0,0,1-5.779,10.5c-1.265,1.486.882,3.652,2.155,2.155a33.694,33.694,0,0,0,6.563-11.847c.589-1.876-2.353-2.678-2.939-.81Z" transform="translate(-2164.066 -543.94)"/></g></g><g transform="translate(167.377 47.78)"><g transform="translate(0 0)"><path class="b" d="M2160.654,610.53a17.322,17.322,0,0,1,6.5,5.129c1.176,1.537,3.824.021,2.632-1.538a20.409,20.409,0,0,0-7.6-6.222c-1.766-.827-3.315,1.8-1.539,2.632Z" transform="translate(-2159.868 -607.739)"/></g></g><g transform="translate(168.284 70.238)"><path class="b" d="M2168.175,653.03a20.842,20.842,0,0,1-6.052,10.347c-1.431,1.348.727,3.5,2.156,2.156a23.792,23.792,0,0,0,6.835-11.692c.471-1.9-2.467-2.716-2.939-.81Z" transform="translate(-2161.653 -651.943)"/></g><g transform="translate(167.268 98.18)"><g transform="translate(0 0)"><path class="b" d="M2159.892,709.2a28.667,28.667,0,0,1,3.936,10.261c.345,1.928,3.284,1.111,2.939-.81a31.014,31.014,0,0,0-4.243-10.989c-1.036-1.661-3.674-.133-2.632,1.538Z" transform="translate(-2159.653 -706.943)"/></g></g><g transform="translate(162.936 126.375)"><g transform="translate(0 0)"><path class="b" d="M2165.47,770.458l-12.1-7.768c-1.656-1.063-3.186,1.574-1.538,2.632l12.1,7.767c1.655,1.063,3.186-1.574,1.538-2.632Z" transform="translate(-2151.126 -762.443)"/></g></g><g transform="translate(160.319 144.792)"><g transform="translate(0 0)"><path class="b" d="M2156.595,799.223a21.544,21.544,0,0,1-9.584,7.086c-1.826.672-1.037,3.619.81,2.939a24.357,24.357,0,0,0,10.93-7.87c1.195-1.528-.948-3.7-2.156-2.155Z" transform="translate(-2145.975 -798.693)"/></g></g><g transform="translate(171.651 166.566)"><g transform="translate(0)"><path class="b" d="M2168.448,843.869a15.106,15.106,0,0,1,1.472,5.422c.153,1.943,3.2,1.959,3.049,0a19.185,19.185,0,0,0-1.888-6.961c-.856-1.765-3.485-.221-2.632,1.538Z" transform="translate(-2168.28 -841.551)"/></g></g><g transform="translate(144.468 156.044)"><path class="b" d="M2128.4,835.737a161.386,161.386,0,0,0-11.079-14.4c-1.284-1.488-3.432.677-2.156,2.155a154.276,154.276,0,0,1,10.6,13.78c1.1,1.61,3.742.087,2.632-1.539Z" transform="translate(-2114.774 -820.841)"/></g><g transform="translate(124.735 166.761)"><g transform="translate(0 0)"><path class="b" d="M2088.245,842.029q-5.543,1.944-11.228,3.4c-1.9.488-1.094,3.429.81,2.939q5.689-1.462,11.228-3.405c1.839-.645,1.048-3.591-.811-2.939Z" transform="translate(-2075.934 -841.936)"/></g></g><g transform="translate(101.259 152.012)"><g transform="translate(0 0)"><path class="b" d="M2032.785,826.542q.78-6.093,1.561-12.188c.248-1.941-2.8-1.923-3.048,0q-.78,6.094-1.561,12.188c-.248,1.941,2.8,1.922,3.048,0Z" transform="translate(-2029.723 -812.905)"/></g></g><g transform="translate(84.366 162.836)"><path class="b" d="M1996.88,836.851a43.528,43.528,0,0,1,6.537,9.621c.88,1.753,3.511.212,2.632-1.538a46.523,46.523,0,0,0-7.014-10.239c-1.314-1.462-3.464.7-2.156,2.156Z" transform="translate(-1996.472 -834.209)"/></g><g transform="translate(61.815 166.685)"><path class="b" d="M1961.026,848.4a7.553,7.553,0,0,1-5.945-5.53,1.525,1.525,0,0,0-2.939.81,10.565,10.565,0,0,0,8.075,7.659c1.916.38,2.736-2.557.81-2.939Z" transform="translate(-1952.084 -841.786)"/></g><g transform="translate(36.856 161.125)"><path class="b" d="M1904.869,842.617a20.172,20.172,0,0,0,14.109-9.514c1.026-1.678-1.609-3.211-2.632-1.538a17.274,17.274,0,0,1-12.287,8.113c-1.932.3-1.112,3.241.81,2.939Z" transform="translate(-1902.956 -830.842)"/></g><g transform="translate(16.494 160.629)"><g transform="translate(0 0)"><path class="b" d="M1865.924,840.482v-9.145a1.525,1.525,0,0,0-3.048,0v9.145a1.525,1.525,0,0,0,3.048,0Z" transform="translate(-1862.876 -829.865)"/></g></g><g transform="translate(0 147.88)"><path class="b" d="M1833.289,820.652a129.237,129.237,0,0,1,9.693-13.215c1.251-1.5-.895-3.662-2.156-2.156a135.562,135.562,0,0,0-10.169,13.832c-1.062,1.656,1.575,3.186,2.632,1.538Z" transform="translate(-1830.409 -804.772)"/></g><g transform="translate(5.36 128.028)"><path class="b" d="M1841.672,768.57a37.484,37.484,0,0,0,9.488,4.29c1.886.556,2.691-2.385.811-2.939a34.422,34.422,0,0,1-8.76-3.983c-1.662-1.053-3.193,1.584-1.538,2.632Z" transform="translate(-1840.96 -765.695)"/></g><g transform="translate(25.657 148.851)"><g transform="translate(0 0)"><path class="b" d="M1881.668,809.536a14.015,14.015,0,0,1,3.981,4.574c.953,1.715,3.586.18,2.632-1.538a17.485,17.485,0,0,0-5.075-5.668,1.536,1.536,0,0,0-2.085.547,1.557,1.557,0,0,0,.547,2.085Z" transform="translate(-1880.911 -806.682)"/></g></g><g transform="translate(3.295 103.207)"><g transform="translate(0 0)"><path class="b" d="M1844.327,728.715a49.148,49.148,0,0,1-4.43-10.8,1.525,1.525,0,0,0-2.939.81,52.611,52.611,0,0,0,4.736,11.529c.954,1.715,3.588.179,2.632-1.538Z" transform="translate(-1836.895 -716.838)"/></g></g><g transform="translate(10.461 88.02)"><g transform="translate(0 0)"><path class="b" d="M1852.464,690.371a42.562,42.562,0,0,0,10.065-.464c1.931-.312,1.111-3.25-.811-2.94a39.188,39.188,0,0,1-9.255.355c-1.956-.148-1.947,2.9,0,3.048Z" transform="translate(-1851.001 -686.945)"/></g></g><g transform="translate(6.9 68.107)"><path class="b" d="M1853.877,658.17l-6.973-9.752c-1.131-1.582-3.776-.061-2.632,1.538l6.973,9.753c1.131,1.582,3.776.061,2.632-1.539Z" transform="translate(-1843.991 -647.75)"/></g><g transform="translate(1.976 43.414)"><g transform="translate(0 0)"><path class="b" d="M1837.231,607.569a23.251,23.251,0,0,1,6.086-5.548c1.652-1.048.124-3.687-1.538-2.632a27.359,27.359,0,0,0-7.18,6.642c-1.187,1.562,1.459,3.082,2.632,1.538Z" transform="translate(-1834.3 -599.145)"/></g></g><g transform="translate(5.758 25.563)"><g transform="translate(0 0)"><path class="b" d="M1842.542,566.778a26.514,26.514,0,0,1,7.393,4.725c1.449,1.317,3.611-.833,2.156-2.156a28.913,28.913,0,0,0-8.01-5.2c-1.782-.769-3.336,1.856-1.538,2.632Z" transform="translate(-1841.744 -564.006)"/></g></g><g transform="translate(27.085 18.709)"><path class="b" d="M1886.772,557.136a5.836,5.836,0,0,1,6.759-3.415c1.9.472,2.717-2.466.81-2.939a8.952,8.952,0,0,0-10.509,5.544c-.711,1.83,2.236,2.622,2.94.81Z" transform="translate(-1883.723 -550.516)"/></g><g transform="translate(58.256 20.391)"><g transform="translate(0 0)"><path class="b" d="M1948.631,554.923a16.7,16.7,0,0,1-3.2,6.948c-1.2,1.523.939,3.694,2.156,2.156a20.014,20.014,0,0,0,3.981-8.294c.41-1.913-2.528-2.73-2.939-.81Z" transform="translate(-1945.078 -553.828)"/></g></g><g transform="translate(81.095 26.426)"><path class="b" d="M1991.488,572.947a31.475,31.475,0,0,0,12.948-4.378c1.674-1.017.144-3.654-1.538-2.632a27.914,27.914,0,0,1-11.41,3.962c-1.926.22-1.949,3.271,0,3.048Z" transform="translate(-1990.035 -565.706)"/></g><g transform="translate(114.624 18.689)"><g transform="translate(0 0)"><path class="b" d="M2057.486,554.771l11.152-1.234c1.928-.213,1.95-3.264,0-3.048l-11.152,1.234c-1.929.213-1.951,3.264,0,3.048Z" transform="translate(-2056.031 -550.477)"/></g></g><g transform="translate(134.974 21.317)"><g transform="translate(0 0)"><path class="b" d="M2096.242,557.976a32.726,32.726,0,0,0,7.241,10.045c1.425,1.348,3.584-.8,2.156-2.156a30.468,30.468,0,0,1-6.764-9.428c-.824-1.778-3.452-.232-2.632,1.538Z" transform="translate(-2096.086 -555.65)"/></g></g><g transform="translate(151.54 37.693)"><g transform="translate(0)"><path class="b" d="M2132.833,589.346a19.079,19.079,0,0,1-3.844,9.9c-1.173,1.573,1.472,3.095,2.632,1.538a21.976,21.976,0,0,0,4.26-11.434c.168-1.954-2.881-1.943-3.048,0Z" transform="translate(-2128.695 -587.884)"/></g></g><g transform="translate(158.65 60.53)"><g transform="translate(0 0)"><path class="b" d="M2145.619,634.3a8.535,8.535,0,0,1-2.488,6.458c-1.376,1.4.777,3.557,2.156,2.156a11.626,11.626,0,0,0,3.38-8.613c-.068-1.956-3.116-1.966-3.048,0Z" transform="translate(-2142.689 -632.834)"/></g></g><g transform="translate(146.506 83.909)"><g transform="translate(0 0)"><path class="b" d="M2119.292,681.392a26.617,26.617,0,0,1,7.388,9.943c.75,1.78,3.7,1,2.939-.81a29.772,29.772,0,0,0-8.172-11.288c-1.486-1.264-3.653.882-2.156,2.155Z" transform="translate(-2118.787 -678.852)"/></g></g><g transform="translate(150.095 109.337)"><g transform="translate(0 0)"><path class="b" d="M2126.856,730.36a18.633,18.633,0,0,1-.916,8.237c-.64,1.859,2.3,2.657,2.939.81a20.717,20.717,0,0,0,1.025-9.047c-.209-1.93-3.26-1.951-3.048,0Z" transform="translate(-2125.85 -728.905)"/></g></g><g transform="translate(142.679 135.747)"><path class="b" d="M2112.3,787.069a12.2,12.2,0,0,0,13.195-3.524c1.277-1.478-.87-3.643-2.156-2.156a9.223,9.223,0,0,1-10.229,2.74c-1.856-.647-2.654,2.3-.81,2.94Z" transform="translate(-2111.253 -780.889)"/></g><g transform="translate(119.02 144.339)"><path class="b" d="M2076.608,798.883c-.4,1.52-3.9,2.383-5.166,2.936l-5.962,2.611c-1.792.785-.243,3.412,1.539,2.632,2.839-1.243,5.683-2.477,8.517-3.73,1.807-.8,3.477-1.6,4.011-3.64a1.525,1.525,0,0,0-2.939-.81Z" transform="translate(-2064.684 -797.801)"/></g><g transform="translate(133.526 118.479)"><path class="b" d="M2096.2,756.409a30.229,30.229,0,0,0,.362-8.05c-.18-1.937-3.229-1.956-3.048,0a27.254,27.254,0,0,1-.254,7.24c-.335,1.918,2.6,2.742,2.94.81Z" transform="translate(-2093.236 -746.899)"/></g><g transform="translate(129.436 90.62)"><g transform="translate(0 0)"><path class="b" d="M2089.012,693.9a9.285,9.285,0,0,1-3.154,11.037c-1.589,1.123-.068,3.767,1.539,2.632a12.329,12.329,0,0,0,4.553-14.479c-.7-1.81-3.649-1.024-2.939.81Z" transform="translate(-2085.186 -692.063)"/></g></g><g transform="translate(137.972 56.544)"><path class="b" d="M2103.368,626.854a12.388,12.388,0,0,1-1.154,10.508,1.525,1.525,0,0,0,2.632,1.539,15.407,15.407,0,0,0,1.461-12.857c-.607-1.856-3.552-1.061-2.939.81Z" transform="translate(-2101.988 -624.988)"/></g><g transform="translate(126.287 36.579)"><path class="b" d="M2083.508,595.38a19.651,19.651,0,0,0-1.743-8.9c-.791-1.791-3.418-.241-2.632,1.538a16.27,16.27,0,0,1,1.327,7.357c-.084,1.962,2.964,1.958,3.048,0Z" transform="translate(-2078.988 -585.69)"/></g><g transform="translate(99.366 34.263)"><g transform="translate(0 0)"><path class="b" d="M2035.02,581.841a6.852,6.852,0,0,1-7.115,3.052c-1.915-.388-2.735,2.549-.81,2.94a10.019,10.019,0,0,0,10.557-4.453c1.058-1.659-1.58-3.189-2.632-1.538Z" transform="translate(-2025.997 -581.132)"/></g></g><g transform="translate(60.677 40.693)"><g transform="translate(0 0)"><path class="b" d="M1950.365,596.309a13.324,13.324,0,0,0,8.132,3.06c1.962.059,1.96-2.989,0-3.048a9.889,9.889,0,0,1-5.977-2.168c-1.512-1.222-3.682.922-2.155,2.156Z" transform="translate(-1949.844 -593.789)"/></g></g><g transform="translate(30.286 37.84)"><path class="b" d="M1902.831,588.252a27.5,27.5,0,0,1-11.35,1.169c-1.949-.2-1.936,2.851,0,3.048a29.653,29.653,0,0,0,12.161-1.279c1.861-.595,1.066-3.539-.81-2.939Z" transform="translate(-1890.023 -588.172)"/></g><g transform="translate(20.518 51.826)"><path class="b" d="M1873.67,617.615a6.1,6.1,0,0,1-2.235,5.729c-1.535,1.178-.019,3.828,1.539,2.632a9.323,9.323,0,0,0,3.635-9.172c-.322-1.931-3.26-1.112-2.939.81Z" transform="translate(-1870.796 -615.702)"/></g><g transform="translate(35.8 71.214)"><g transform="translate(0 0)"><path class="b" d="M1900.876,655.338v11.685a1.525,1.525,0,0,0,3.048,0V655.338a1.525,1.525,0,0,0-3.048,0Z" transform="translate(-1900.876 -653.865)"/></g></g><g transform="translate(21.649 103.24)"><g transform="translate(0 0)"><path class="b" d="M1877.678,717.979l-1.35,4.851c-.225.809-.694,3.943-1.858,4.1-1.917.252-1.942,3.3,0,3.048a4.623,4.623,0,0,0,3.859-3.254,71.773,71.773,0,0,0,2.289-7.932,1.525,1.525,0,0,0-2.939-.81Z" transform="translate(-1873.022 -716.903)"/></g></g><g transform="translate(31.262 125.575)"><g transform="translate(0 0)"><path class="b" d="M1891.945,762.339a52.723,52.723,0,0,0,1.38,12.129c.444,1.91,3.384,1.1,2.94-.811a49.033,49.033,0,0,1-1.272-11.319,1.525,1.525,0,0,0-3.048,0Z" transform="translate(-1891.944 -760.866)"/></g></g><g transform="translate(48.767 142.789)"><path class="b" d="M1927.423,797.8a15.566,15.566,0,0,1,8.706,8.622c.723,1.8,3.672,1.013,2.939-.81a18.931,18.931,0,0,0-10.835-10.751c-1.826-.717-2.618,2.229-.81,2.939Z" transform="translate(-1926.401 -794.75)"/></g><g transform="translate(70.458 138.533)"><path class="b" d="M1970.921,794.155l11.623-4.725c1.793-.729,1.009-3.679-.811-2.939l-11.623,4.724c-1.793.729-1.009,3.679.81,2.94Z" transform="translate(-1969.097 -786.374)"/></g><g transform="translate(99.313 127.592)"><path class="b" d="M2033.257,765.032l-6.606,3.552c-1.728.93-.191,3.562,1.538,2.632l6.606-3.552c1.729-.929.191-3.562-1.538-2.632Z" transform="translate(-2025.893 -764.837)"/></g><g transform="translate(114.949 122.044)"><g transform="translate(0 0)"><path class="b" d="M2061.42,765.013a42.873,42.873,0,0,0-1.738-10.028c-.563-1.874-3.505-1.076-2.939.81a39.328,39.328,0,0,1,1.629,9.217c.107,1.951,3.156,1.963,3.048,0Z" transform="translate(-2056.67 -753.917)"/></g></g><g transform="translate(110.016 96.109)"><g transform="translate(0 0)"><path class="b" d="M2048.048,716.942c5.833,1.4,6.085-9.126,6.008-12.6-.044-1.958-3.092-1.966-3.048,0,.024,1.065-.28,10.112-2.149,9.664-1.907-.457-2.72,2.481-.811,2.94Z" transform="translate(-2046.96 -702.867)"/></g></g><g transform="translate(116.119 76.109)"><g transform="translate(0 0)"><path class="b" d="M2060.875,666.715a7.129,7.129,0,0,1,4.97.649c1.736.911,3.278-1.718,1.539-2.632a10.455,10.455,0,0,0-7.319-.957c-1.913.435-1.1,3.375.81,2.939Z" transform="translate(-2058.973 -663.5)"/></g></g><g transform="translate(113.074 51.395)"><g transform="translate(0 0)"><path class="b" d="M2064.281,627.321a24.938,24.938,0,0,1-8.266-11.426c-.655-1.835-3.6-1.044-2.939.81a28.576,28.576,0,0,0,9.667,13.247c1.553,1.2,3.073-1.45,1.538-2.632Z" transform="translate(-2052.979 -614.853)"/></g></g><g transform="translate(85.087 52.354)"><g transform="translate(0 0)"><path class="b" d="M2010.961,624a27.92,27.92,0,0,1-10.474-6.8c-1.374-1.405-3.528.751-2.156,2.155a31.381,31.381,0,0,0,11.82,7.588c1.846.673,2.641-2.271.81-2.939Z" transform="translate(-1997.891 -616.741)"/></g></g><g transform="translate(45.945 54.613)"><g transform="translate(0 0)"><path class="b" d="M1921.931,624.18a8.7,8.7,0,0,1,6.345,6.283,1.526,1.526,0,0,0,2.94-.81,11.774,11.774,0,0,0-8.474-8.411c-1.9-.482-2.714,2.457-.81,2.939Z" transform="translate(-1920.846 -621.188)"/></g></g><g transform="translate(44.997 82.375)"><g transform="translate(0 0)"><path class="b" d="M1920.452,691.027c2.431.027,3.608-1.917,4.479-3.932a39.4,39.4,0,0,0,2.713-9.348c.313-1.919-2.624-2.744-2.939-.81a39.771,39.771,0,0,1-1.272,5.5c-.363,1.159-1.409,5.559-2.98,5.541a1.525,1.525,0,0,0,0,3.048Z" transform="translate(-1918.98 -675.834)"/></g></g><g transform="translate(42.855 109.824)"><path class="b" d="M1915.174,732.5a14.207,14.207,0,0,1,3.711,10.01c-.037,1.963,3.011,1.963,3.048,0a17.4,17.4,0,0,0-4.6-12.166c-1.32-1.457-3.47.7-2.156,2.156Z" transform="translate(-1914.763 -729.864)"/></g><g transform="translate(57.723 128.462)"><path class="b" d="M1945.484,769.608a16.476,16.476,0,0,1,8.349,3.468c1.551,1.2,3.071-1.448,1.538-2.632a19.325,19.325,0,0,0-9.887-3.884c-1.948-.213-1.932,2.837,0,3.048Z" transform="translate(-1944.03 -766.549)"/></g><g transform="translate(80.71 107.576)"><path class="b" d="M1992.25,736.709a12.146,12.146,0,0,1,6.14-8.436c1.718-.948.182-3.581-1.539-2.632a15.084,15.084,0,0,0-7.541,10.258c-.382,1.916,2.555,2.736,2.939.81Z" transform="translate(-1989.276 -725.438)"/></g><g transform="translate(97.127 74.282)"><path class="b" d="M2027.946,673.543a34.786,34.786,0,0,0-3.55-12.863c-.872-1.757-3.5-.215-2.632,1.538a30.721,30.721,0,0,1,3.134,11.325c.153,1.943,3.2,1.959,3.048,0Z" transform="translate(-2021.591 -659.904)"/></g><g transform="translate(71.326 63.069)"><path class="b" d="M1981.285,643.555a50.467,50.467,0,0,1-7.814-5.344c-1.5-1.25-3.663.9-2.155,2.155a54.533,54.533,0,0,0,8.431,5.82c1.715.956,3.254-1.676,1.538-2.632Z" transform="translate(-1970.805 -637.833)"/></g><g transform="translate(64.714 73.235)"><g transform="translate(0 0)"><path class="b" d="M1957.839,659.743a13.519,13.519,0,0,0,6.331,8.534,1.525,1.525,0,0,0,1.538-2.632,10.46,10.46,0,0,1-4.93-6.712c-.456-1.907-3.4-1.1-2.939.81Z" transform="translate(-1957.791 -657.844)"/></g></g><g transform="translate(85.669 81.9)"><path class="b" d="M2000.992,676.776a12.029,12.029,0,0,1-1.686,10.6c-1.116,1.62,1.525,3.145,2.632,1.538a15,15,0,0,0,1.993-12.948c-.566-1.873-3.508-1.075-2.94.811Z" transform="translate(-1999.037 -674.899)"/></g><g transform="translate(57.192 94.529)"><path class="b" d="M1945.317,709.937a18.2,18.2,0,0,0,8.568-7.89c.948-1.719-1.683-3.258-2.632-1.538a15.551,15.551,0,0,1-7.475,6.8c-1.791.791-.241,3.418,1.538,2.632Z" transform="translate(-1942.984 -699.758)"/></g><g transform="translate(69.309 106.281)"><path class="b" d="M1970.247,724.358a8.588,8.588,0,0,1-2.928,6.046c-1.458,1.319.7,3.47,2.155,2.155a11.7,11.7,0,0,0,3.821-8.2c.1-1.961-2.951-1.955-3.048,0Z" transform="translate(-1966.835 -722.89)"/></g></g><g transform="translate(488.409 2178.634)"><g transform="translate(5.847 0)"><path class="b" d="M1843.826,516.755c3.571-.732,3.749,8.289,3.686,10.181-.065,1.962,2.984,1.959,3.048,0,.145-4.4-.894-14.483-7.544-13.12-1.92.394-1.108,3.332.81,2.939Z" transform="translate(-1841.919 -513.69)"/></g><g transform="translate(31.792 1.919)"><g transform="translate(0 0)"><path class="b" d="M1894.457,522.27a84.552,84.552,0,0,0,14.591-1.825c1.917-.411,1.106-3.35-.81-2.939a79.723,79.723,0,0,1-13.781,1.716c-1.956.073-1.965,3.121,0,3.048Z" transform="translate(-1892.987 -517.467)"/></g></g><g transform="translate(66.354 1.289)"><g transform="translate(0 0)"><path class="b" d="M1962.116,519.2a17.783,17.783,0,0,1,10.343,6.087c1.269,1.5,3.415-.666,2.156-2.156a20.4,20.4,0,0,0-11.688-6.871c-1.916-.378-2.736,2.56-.81,2.939Z" transform="translate(-1961.018 -516.227)"/></g></g><g transform="translate(95.233 1.234)"><path class="b" d="M2020.837,526.59a9.486,9.486,0,0,1,7.538-7.5c1.922-.383,1.109-3.321-.81-2.94a12.45,12.45,0,0,0-9.667,9.627c-.391,1.915,2.547,2.734,2.939.81Z" transform="translate(-2017.863 -516.119)"/></g><g transform="translate(127.768 0.867)"><g transform="translate(0 0)"><path class="b" d="M2083.8,520.021a50.332,50.332,0,0,1,17.894-1.289c1.949.2,1.935-2.845,0-3.048a52.761,52.761,0,0,0-18.7,1.4c-1.9.487-1.094,3.428.811,2.939Z" transform="translate(-2081.904 -515.397)"/></g></g><g transform="translate(156.14 2.03)"><g transform="translate(0)"><path class="b" d="M2146.163,519.555c1.673,5.243-3.821,8.416-7.66,10.508-1.723.939-.186,3.572,1.539,2.632,5.117-2.789,11.2-7.252,9.06-13.95-.594-1.862-3.538-1.066-2.939.81Z" transform="translate(-2137.749 -517.685)"/></g></g><g transform="translate(169.51 15.368)"><g transform="translate(0)"><path class="b" d="M2170.23,545a29.874,29.874,0,0,1-5.779,10.5c-1.265,1.486.882,3.652,2.155,2.155a33.694,33.694,0,0,0,6.563-11.847c.589-1.876-2.353-2.678-2.939-.81Z" transform="translate(-2164.066 -543.94)"/></g></g><g transform="translate(167.377 47.78)"><g transform="translate(0 0)"><path class="b" d="M2160.654,610.53a17.322,17.322,0,0,1,6.5,5.129c1.176,1.537,3.824.021,2.632-1.538a20.409,20.409,0,0,0-7.6-6.222c-1.766-.827-3.315,1.8-1.539,2.632Z" transform="translate(-2159.868 -607.739)"/></g></g><g transform="translate(168.284 70.238)"><path class="b" d="M2168.175,653.03a20.842,20.842,0,0,1-6.052,10.347c-1.431,1.348.727,3.5,2.156,2.156a23.792,23.792,0,0,0,6.835-11.692c.471-1.9-2.467-2.716-2.939-.81Z" transform="translate(-2161.653 -651.943)"/></g><g transform="translate(167.268 98.18)"><g transform="translate(0 0)"><path class="b" d="M2159.892,709.2a28.667,28.667,0,0,1,3.936,10.261c.345,1.928,3.284,1.111,2.939-.81a31.014,31.014,0,0,0-4.243-10.989c-1.036-1.661-3.674-.133-2.632,1.538Z" transform="translate(-2159.653 -706.943)"/></g></g><g transform="translate(162.936 126.375)"><g transform="translate(0 0)"><path class="b" d="M2165.47,770.458l-12.1-7.768c-1.656-1.063-3.186,1.574-1.538,2.632l12.1,7.767c1.655,1.063,3.186-1.574,1.538-2.632Z" transform="translate(-2151.126 -762.443)"/></g></g><g transform="translate(160.319 144.792)"><g transform="translate(0 0)"><path class="b" d="M2156.595,799.223a21.544,21.544,0,0,1-9.584,7.086c-1.826.672-1.037,3.619.81,2.939a24.357,24.357,0,0,0,10.93-7.87c1.195-1.528-.948-3.7-2.156-2.155Z" transform="translate(-2145.975 -798.693)"/></g></g><g transform="translate(171.651 166.566)"><g transform="translate(0)"><path class="b" d="M2168.448,843.869a15.106,15.106,0,0,1,1.472,5.422c.153,1.943,3.2,1.959,3.049,0a19.185,19.185,0,0,0-1.888-6.961c-.856-1.765-3.485-.221-2.632,1.538Z" transform="translate(-2168.28 -841.551)"/></g></g><g transform="translate(144.468 156.044)"><path class="b" d="M2128.4,835.737a161.386,161.386,0,0,0-11.079-14.4c-1.284-1.488-3.432.677-2.156,2.155a154.276,154.276,0,0,1,10.6,13.78c1.1,1.61,3.742.087,2.632-1.539Z" transform="translate(-2114.774 -820.841)"/></g><g transform="translate(124.735 166.761)"><g transform="translate(0 0)"><path class="b" d="M2088.245,842.029q-5.543,1.944-11.228,3.4c-1.9.488-1.094,3.429.81,2.939q5.689-1.462,11.228-3.405c1.839-.645,1.048-3.591-.811-2.939Z" transform="translate(-2075.934 -841.936)"/></g></g><g transform="translate(101.259 152.012)"><g transform="translate(0 0)"><path class="b" d="M2032.785,826.542q.78-6.093,1.561-12.188c.248-1.941-2.8-1.923-3.048,0q-.78,6.094-1.561,12.188c-.248,1.941,2.8,1.922,3.048,0Z" transform="translate(-2029.723 -812.905)"/></g></g><g transform="translate(84.366 162.836)"><path class="b" d="M1996.88,836.851a43.528,43.528,0,0,1,6.537,9.621c.88,1.753,3.511.212,2.632-1.538a46.523,46.523,0,0,0-7.014-10.239c-1.314-1.462-3.464.7-2.156,2.156Z" transform="translate(-1996.472 -834.209)"/></g><g transform="translate(61.815 166.685)"><path class="b" d="M1961.026,848.4a7.553,7.553,0,0,1-5.945-5.53,1.525,1.525,0,0,0-2.939.81,10.565,10.565,0,0,0,8.075,7.659c1.916.38,2.736-2.557.81-2.939Z" transform="translate(-1952.084 -841.786)"/></g><g transform="translate(36.856 161.125)"><path class="b" d="M1904.869,842.617a20.172,20.172,0,0,0,14.109-9.514c1.026-1.678-1.609-3.211-2.632-1.538a17.274,17.274,0,0,1-12.287,8.113c-1.932.3-1.112,3.241.81,2.939Z" transform="translate(-1902.956 -830.842)"/></g><g transform="translate(16.494 160.629)"><g transform="translate(0 0)"><path class="b" d="M1865.924,840.482v-9.145a1.525,1.525,0,0,0-3.048,0v9.145a1.525,1.525,0,0,0,3.048,0Z" transform="translate(-1862.876 -829.865)"/></g></g><g transform="translate(0 147.88)"><path class="b" d="M1833.289,820.652a129.237,129.237,0,0,1,9.693-13.215c1.251-1.5-.895-3.662-2.156-2.156a135.562,135.562,0,0,0-10.169,13.832c-1.062,1.656,1.575,3.186,2.632,1.538Z" transform="translate(-1830.409 -804.772)"/></g><g transform="translate(5.36 128.028)"><path class="b" d="M1841.672,768.57a37.484,37.484,0,0,0,9.488,4.29c1.886.556,2.691-2.385.811-2.939a34.422,34.422,0,0,1-8.76-3.983c-1.662-1.053-3.193,1.584-1.538,2.632Z" transform="translate(-1840.96 -765.695)"/></g><g transform="translate(25.657 148.851)"><g transform="translate(0 0)"><path class="b" d="M1881.668,809.536a14.015,14.015,0,0,1,3.981,4.574c.953,1.715,3.586.18,2.632-1.538a17.485,17.485,0,0,0-5.075-5.668,1.536,1.536,0,0,0-2.085.547,1.557,1.557,0,0,0,.547,2.085Z" transform="translate(-1880.911 -806.682)"/></g></g><g transform="translate(3.295 103.207)"><g transform="translate(0 0)"><path class="b" d="M1844.327,728.715a49.148,49.148,0,0,1-4.43-10.8,1.525,1.525,0,0,0-2.939.81,52.611,52.611,0,0,0,4.736,11.529c.954,1.715,3.588.179,2.632-1.538Z" transform="translate(-1836.895 -716.838)"/></g></g><g transform="translate(10.461 88.02)"><g transform="translate(0 0)"><path class="b" d="M1852.464,690.371a42.562,42.562,0,0,0,10.065-.464c1.931-.312,1.111-3.25-.811-2.94a39.188,39.188,0,0,1-9.255.355c-1.956-.148-1.947,2.9,0,3.048Z" transform="translate(-1851.001 -686.945)"/></g></g><g transform="translate(6.9 68.107)"><path class="b" d="M1853.877,658.17l-6.973-9.752c-1.131-1.582-3.776-.061-2.632,1.538l6.973,9.753c1.131,1.582,3.776.061,2.632-1.539Z" transform="translate(-1843.991 -647.75)"/></g><g transform="translate(1.976 43.414)"><g transform="translate(0 0)"><path class="b" d="M1837.231,607.569a23.251,23.251,0,0,1,6.086-5.548c1.652-1.048.124-3.687-1.538-2.632a27.359,27.359,0,0,0-7.18,6.642c-1.187,1.562,1.459,3.082,2.632,1.538Z" transform="translate(-1834.3 -599.145)"/></g></g><g transform="translate(5.758 25.563)"><g transform="translate(0 0)"><path class="b" d="M1842.542,566.778a26.514,26.514,0,0,1,7.393,4.725c1.449,1.317,3.611-.833,2.156-2.156a28.913,28.913,0,0,0-8.01-5.2c-1.782-.769-3.336,1.856-1.538,2.632Z" transform="translate(-1841.744 -564.006)"/></g></g><g transform="translate(27.085 18.709)"><path class="b" d="M1886.772,557.136a5.836,5.836,0,0,1,6.759-3.415c1.9.472,2.717-2.466.81-2.939a8.952,8.952,0,0,0-10.509,5.544c-.711,1.83,2.236,2.622,2.94.81Z" transform="translate(-1883.723 -550.516)"/></g><g transform="translate(58.256 20.391)"><g transform="translate(0 0)"><path class="b" d="M1948.631,554.923a16.7,16.7,0,0,1-3.2,6.948c-1.2,1.523.939,3.694,2.156,2.156a20.014,20.014,0,0,0,3.981-8.294c.41-1.913-2.528-2.73-2.939-.81Z" transform="translate(-1945.078 -553.828)"/></g></g><g transform="translate(81.095 26.426)"><path class="b" d="M1991.488,572.947a31.475,31.475,0,0,0,12.948-4.378c1.674-1.017.144-3.654-1.538-2.632a27.914,27.914,0,0,1-11.41,3.962c-1.926.22-1.949,3.271,0,3.048Z" transform="translate(-1990.035 -565.706)"/></g><g transform="translate(114.624 18.689)"><g transform="translate(0 0)"><path class="b" d="M2057.486,554.771l11.152-1.234c1.928-.213,1.95-3.264,0-3.048l-11.152,1.234c-1.929.213-1.951,3.264,0,3.048Z" transform="translate(-2056.031 -550.477)"/></g></g><g transform="translate(134.974 21.317)"><g transform="translate(0 0)"><path class="b" d="M2096.242,557.976a32.726,32.726,0,0,0,7.241,10.045c1.425,1.348,3.584-.8,2.156-2.156a30.468,30.468,0,0,1-6.764-9.428c-.824-1.778-3.452-.232-2.632,1.538Z" transform="translate(-2096.086 -555.65)"/></g></g><g transform="translate(151.54 37.693)"><g transform="translate(0)"><path class="b" d="M2132.833,589.346a19.079,19.079,0,0,1-3.844,9.9c-1.173,1.573,1.472,3.095,2.632,1.538a21.976,21.976,0,0,0,4.26-11.434c.168-1.954-2.881-1.943-3.048,0Z" transform="translate(-2128.695 -587.884)"/></g></g><g transform="translate(158.65 60.53)"><g transform="translate(0 0)"><path class="b" d="M2145.619,634.3a8.535,8.535,0,0,1-2.488,6.458c-1.376,1.4.777,3.557,2.156,2.156a11.626,11.626,0,0,0,3.38-8.613c-.068-1.956-3.116-1.966-3.048,0Z" transform="translate(-2142.689 -632.834)"/></g></g><g transform="translate(146.506 83.909)"><g transform="translate(0 0)"><path class="b" d="M2119.292,681.392a26.617,26.617,0,0,1,7.388,9.943c.75,1.78,3.7,1,2.939-.81a29.772,29.772,0,0,0-8.172-11.288c-1.486-1.264-3.653.882-2.156,2.155Z" transform="translate(-2118.787 -678.852)"/></g></g><g transform="translate(150.095 109.337)"><g transform="translate(0 0)"><path class="b" d="M2126.856,730.36a18.633,18.633,0,0,1-.916,8.237c-.64,1.859,2.3,2.657,2.939.81a20.717,20.717,0,0,0,1.025-9.047c-.209-1.93-3.26-1.951-3.048,0Z" transform="translate(-2125.85 -728.905)"/></g></g><g transform="translate(142.679 135.747)"><path class="b" d="M2112.3,787.069a12.2,12.2,0,0,0,13.195-3.524c1.277-1.478-.87-3.643-2.156-2.156a9.223,9.223,0,0,1-10.229,2.74c-1.856-.647-2.654,2.3-.81,2.94Z" transform="translate(-2111.253 -780.889)"/></g><g transform="translate(119.02 144.339)"><path class="b" d="M2076.608,798.883c-.4,1.52-3.9,2.383-5.166,2.936l-5.962,2.611c-1.792.785-.243,3.412,1.539,2.632,2.839-1.243,5.683-2.477,8.517-3.73,1.807-.8,3.477-1.6,4.011-3.64a1.525,1.525,0,0,0-2.939-.81Z" transform="translate(-2064.684 -797.801)"/></g><g transform="translate(133.526 118.479)"><path class="b" d="M2096.2,756.409a30.229,30.229,0,0,0,.362-8.05c-.18-1.937-3.229-1.956-3.048,0a27.254,27.254,0,0,1-.254,7.24c-.335,1.918,2.6,2.742,2.94.81Z" transform="translate(-2093.236 -746.899)"/></g><g transform="translate(129.436 90.62)"><g transform="translate(0 0)"><path class="b" d="M2089.012,693.9a9.285,9.285,0,0,1-3.154,11.037c-1.589,1.123-.068,3.767,1.539,2.632a12.329,12.329,0,0,0,4.553-14.479c-.7-1.81-3.649-1.024-2.939.81Z" transform="translate(-2085.186 -692.063)"/></g></g><g transform="translate(137.972 56.544)"><path class="b" d="M2103.368,626.854a12.388,12.388,0,0,1-1.154,10.508,1.525,1.525,0,0,0,2.632,1.539,15.407,15.407,0,0,0,1.461-12.857c-.607-1.856-3.552-1.061-2.939.81Z" transform="translate(-2101.988 -624.988)"/></g><g transform="translate(126.287 36.579)"><path class="b" d="M2083.508,595.38a19.651,19.651,0,0,0-1.743-8.9c-.791-1.791-3.418-.241-2.632,1.538a16.27,16.27,0,0,1,1.327,7.357c-.084,1.962,2.964,1.958,3.048,0Z" transform="translate(-2078.988 -585.69)"/></g><g transform="translate(99.366 34.263)"><g transform="translate(0 0)"><path class="b" d="M2035.02,581.841a6.852,6.852,0,0,1-7.115,3.052c-1.915-.388-2.735,2.549-.81,2.94a10.019,10.019,0,0,0,10.557-4.453c1.058-1.659-1.58-3.189-2.632-1.538Z" transform="translate(-2025.997 -581.132)"/></g></g><g transform="translate(60.677 40.693)"><g transform="translate(0 0)"><path class="b" d="M1950.365,596.309a13.324,13.324,0,0,0,8.132,3.06c1.962.059,1.96-2.989,0-3.048a9.889,9.889,0,0,1-5.977-2.168c-1.512-1.222-3.682.922-2.155,2.156Z" transform="translate(-1949.844 -593.789)"/></g></g><g transform="translate(30.286 37.84)"><path class="b" d="M1902.831,588.252a27.5,27.5,0,0,1-11.35,1.169c-1.949-.2-1.936,2.851,0,3.048a29.653,29.653,0,0,0,12.161-1.279c1.861-.595,1.066-3.539-.81-2.939Z" transform="translate(-1890.023 -588.172)"/></g><g transform="translate(20.518 51.826)"><path class="b" d="M1873.67,617.615a6.1,6.1,0,0,1-2.235,5.729c-1.535,1.178-.019,3.828,1.539,2.632a9.323,9.323,0,0,0,3.635-9.172c-.322-1.931-3.26-1.112-2.939.81Z" transform="translate(-1870.796 -615.702)"/></g><g transform="translate(35.8 71.214)"><g transform="translate(0 0)"><path class="b" d="M1900.876,655.338v11.685a1.525,1.525,0,0,0,3.048,0V655.338a1.525,1.525,0,0,0-3.048,0Z" transform="translate(-1900.876 -653.865)"/></g></g><g transform="translate(21.649 103.24)"><g transform="translate(0 0)"><path class="b" d="M1877.678,717.979l-1.35,4.851c-.225.809-.694,3.943-1.858,4.1-1.917.252-1.942,3.3,0,3.048a4.623,4.623,0,0,0,3.859-3.254,71.773,71.773,0,0,0,2.289-7.932,1.525,1.525,0,0,0-2.939-.81Z" transform="translate(-1873.022 -716.903)"/></g></g><g transform="translate(31.262 125.575)"><g transform="translate(0 0)"><path class="b" d="M1891.945,762.339a52.723,52.723,0,0,0,1.38,12.129c.444,1.91,3.384,1.1,2.94-.811a49.033,49.033,0,0,1-1.272-11.319,1.525,1.525,0,0,0-3.048,0Z" transform="translate(-1891.944 -760.866)"/></g></g><g transform="translate(48.767 142.789)"><path class="b" d="M1927.423,797.8a15.566,15.566,0,0,1,8.706,8.622c.723,1.8,3.672,1.013,2.939-.81a18.931,18.931,0,0,0-10.835-10.751c-1.826-.717-2.618,2.229-.81,2.939Z" transform="translate(-1926.401 -794.75)"/></g><g transform="translate(70.458 138.533)"><path class="b" d="M1970.921,794.155l11.623-4.725c1.793-.729,1.009-3.679-.811-2.939l-11.623,4.724c-1.793.729-1.009,3.679.81,2.94Z" transform="translate(-1969.097 -786.374)"/></g><g transform="translate(99.313 127.592)"><path class="b" d="M2033.257,765.032l-6.606,3.552c-1.728.93-.191,3.562,1.538,2.632l6.606-3.552c1.729-.929.191-3.562-1.538-2.632Z" transform="translate(-2025.893 -764.837)"/></g><g transform="translate(114.949 122.044)"><g transform="translate(0 0)"><path class="b" d="M2061.42,765.013a42.873,42.873,0,0,0-1.738-10.028c-.563-1.874-3.505-1.076-2.939.81a39.328,39.328,0,0,1,1.629,9.217c.107,1.951,3.156,1.963,3.048,0Z" transform="translate(-2056.67 -753.917)"/></g></g><g transform="translate(110.016 96.109)"><g transform="translate(0 0)"><path class="b" d="M2048.048,716.942c5.833,1.4,6.085-9.126,6.008-12.6-.044-1.958-3.092-1.966-3.048,0,.024,1.065-.28,10.112-2.149,9.664-1.907-.457-2.72,2.481-.811,2.94Z" transform="translate(-2046.96 -702.867)"/></g></g><g transform="translate(116.119 76.109)"><g transform="translate(0 0)"><path class="b" d="M2060.875,666.715a7.129,7.129,0,0,1,4.97.649c1.736.911,3.278-1.718,1.539-2.632a10.455,10.455,0,0,0-7.319-.957c-1.913.435-1.1,3.375.81,2.939Z" transform="translate(-2058.973 -663.5)"/></g></g><g transform="translate(113.074 51.395)"><g transform="translate(0 0)"><path class="b" d="M2064.281,627.321a24.938,24.938,0,0,1-8.266-11.426c-.655-1.835-3.6-1.044-2.939.81a28.576,28.576,0,0,0,9.667,13.247c1.553,1.2,3.073-1.45,1.538-2.632Z" transform="translate(-2052.979 -614.853)"/></g></g><g transform="translate(85.087 52.354)"><g transform="translate(0 0)"><path class="b" d="M2010.961,624a27.92,27.92,0,0,1-10.474-6.8c-1.374-1.405-3.528.751-2.156,2.155a31.381,31.381,0,0,0,11.82,7.588c1.846.673,2.641-2.271.81-2.939Z" transform="translate(-1997.891 -616.741)"/></g></g><g transform="translate(45.945 54.613)"><g transform="translate(0 0)"><path class="b" d="M1921.931,624.18a8.7,8.7,0,0,1,6.345,6.283,1.526,1.526,0,0,0,2.94-.81,11.774,11.774,0,0,0-8.474-8.411c-1.9-.482-2.714,2.457-.81,2.939Z" transform="translate(-1920.846 -621.188)"/></g></g><g transform="translate(44.997 82.375)"><g transform="translate(0 0)"><path class="b" d="M1920.452,691.027c2.431.027,3.608-1.917,4.479-3.932a39.4,39.4,0,0,0,2.713-9.348c.313-1.919-2.624-2.744-2.939-.81a39.771,39.771,0,0,1-1.272,5.5c-.363,1.159-1.409,5.559-2.98,5.541a1.525,1.525,0,0,0,0,3.048Z" transform="translate(-1918.98 -675.834)"/></g></g><g transform="translate(42.855 109.824)"><path class="b" d="M1915.174,732.5a14.207,14.207,0,0,1,3.711,10.01c-.037,1.963,3.011,1.963,3.048,0a17.4,17.4,0,0,0-4.6-12.166c-1.32-1.457-3.47.7-2.156,2.156Z" transform="translate(-1914.763 -729.864)"/></g><g transform="translate(57.723 128.462)"><path class="b" d="M1945.484,769.608a16.476,16.476,0,0,1,8.349,3.468c1.551,1.2,3.071-1.448,1.538-2.632a19.325,19.325,0,0,0-9.887-3.884c-1.948-.213-1.932,2.837,0,3.048Z" transform="translate(-1944.03 -766.549)"/></g><g transform="translate(80.71 107.576)"><path class="b" d="M1992.25,736.709a12.146,12.146,0,0,1,6.14-8.436c1.718-.948.182-3.581-1.539-2.632a15.084,15.084,0,0,0-7.541,10.258c-.382,1.916,2.555,2.736,2.939.81Z" transform="translate(-1989.276 -725.438)"/></g><g transform="translate(97.127 74.282)"><path class="b" d="M2027.946,673.543a34.786,34.786,0,0,0-3.55-12.863c-.872-1.757-3.5-.215-2.632,1.538a30.721,30.721,0,0,1,3.134,11.325c.153,1.943,3.2,1.959,3.048,0Z" transform="translate(-2021.591 -659.904)"/></g><g transform="translate(71.326 63.069)"><path class="b" d="M1981.285,643.555a50.467,50.467,0,0,1-7.814-5.344c-1.5-1.25-3.663.9-2.155,2.155a54.533,54.533,0,0,0,8.431,5.82c1.715.956,3.254-1.676,1.538-2.632Z" transform="translate(-1970.805 -637.833)"/></g><g transform="translate(64.714 73.235)"><g transform="translate(0 0)"><path class="b" d="M1957.839,659.743a13.519,13.519,0,0,0,6.331,8.534,1.525,1.525,0,0,0,1.538-2.632,10.46,10.46,0,0,1-4.93-6.712c-.456-1.907-3.4-1.1-2.939.81Z" transform="translate(-1957.791 -657.844)"/></g></g><g transform="translate(85.669 81.9)"><path class="b" d="M2000.992,676.776a12.029,12.029,0,0,1-1.686,10.6c-1.116,1.62,1.525,3.145,2.632,1.538a15,15,0,0,0,1.993-12.948c-.566-1.873-3.508-1.075-2.94.811Z" transform="translate(-1999.037 -674.899)"/></g><g transform="translate(57.192 94.529)"><path class="b" d="M1945.317,709.937a18.2,18.2,0,0,0,8.568-7.89c.948-1.719-1.683-3.258-2.632-1.538a15.551,15.551,0,0,1-7.475,6.8c-1.791.791-.241,3.418,1.538,2.632Z" transform="translate(-1942.984 -699.758)"/></g><g transform="translate(69.309 106.281)"><path class="b" d="M1970.247,724.358a8.588,8.588,0,0,1-2.928,6.046c-1.458,1.319.7,3.47,2.155,2.155a11.7,11.7,0,0,0,3.821-8.2c.1-1.961-2.951-1.955-3.048,0Z" transform="translate(-1966.835 -722.89)"/></g></g><g transform="translate(310 2002)"><g transform="translate(5.847 0)"><path class="b" d="M1843.826,516.755c3.571-.732,3.749,8.289,3.686,10.181-.065,1.962,2.984,1.959,3.048,0,.145-4.4-.894-14.483-7.544-13.12-1.92.394-1.108,3.332.81,2.939Z" transform="translate(-1841.919 -513.69)"/></g><g transform="translate(31.792 1.919)"><g transform="translate(0 0)"><path class="b" d="M1894.457,522.27a84.552,84.552,0,0,0,14.591-1.825c1.917-.411,1.106-3.35-.81-2.939a79.723,79.723,0,0,1-13.781,1.716c-1.956.073-1.965,3.121,0,3.048Z" transform="translate(-1892.987 -517.467)"/></g></g><g transform="translate(66.354 1.289)"><g transform="translate(0 0)"><path class="b" d="M1962.116,519.2a17.783,17.783,0,0,1,10.343,6.087c1.269,1.5,3.415-.666,2.156-2.156a20.4,20.4,0,0,0-11.688-6.871c-1.916-.378-2.736,2.56-.81,2.939Z" transform="translate(-1961.018 -516.227)"/></g></g><g transform="translate(95.233 1.234)"><path class="b" d="M2020.837,526.59a9.486,9.486,0,0,1,7.538-7.5c1.922-.383,1.109-3.321-.81-2.94a12.45,12.45,0,0,0-9.667,9.627c-.391,1.915,2.547,2.734,2.939.81Z" transform="translate(-2017.863 -516.119)"/></g><g transform="translate(127.768 0.867)"><g transform="translate(0 0)"><path class="b" d="M2083.8,520.021a50.332,50.332,0,0,1,17.894-1.289c1.949.2,1.935-2.845,0-3.048a52.761,52.761,0,0,0-18.7,1.4c-1.9.487-1.094,3.428.811,2.939Z" transform="translate(-2081.904 -515.397)"/></g></g><g transform="translate(156.14 2.03)"><g transform="translate(0)"><path class="b" d="M2146.163,519.555c1.673,5.243-3.821,8.416-7.66,10.508-1.723.939-.186,3.572,1.539,2.632,5.117-2.789,11.2-7.252,9.06-13.95-.594-1.862-3.538-1.066-2.939.81Z" transform="translate(-2137.749 -517.685)"/></g></g><g transform="translate(169.51 15.368)"><g transform="translate(0)"><path class="b" d="M2170.23,545a29.874,29.874,0,0,1-5.779,10.5c-1.265,1.486.882,3.652,2.155,2.155a33.694,33.694,0,0,0,6.563-11.847c.589-1.876-2.353-2.678-2.939-.81Z" transform="translate(-2164.066 -543.94)"/></g></g><g transform="translate(167.377 47.78)"><g transform="translate(0 0)"><path class="b" d="M2160.654,610.53a17.322,17.322,0,0,1,6.5,5.129c1.176,1.537,3.824.021,2.632-1.538a20.409,20.409,0,0,0-7.6-6.222c-1.766-.827-3.315,1.8-1.539,2.632Z" transform="translate(-2159.868 -607.739)"/></g></g><g transform="translate(168.284 70.238)"><path class="b" d="M2168.175,653.03a20.842,20.842,0,0,1-6.052,10.347c-1.431,1.348.727,3.5,2.156,2.156a23.792,23.792,0,0,0,6.835-11.692c.471-1.9-2.467-2.716-2.939-.81Z" transform="translate(-2161.653 -651.943)"/></g><g transform="translate(167.268 98.18)"><g transform="translate(0 0)"><path class="b" d="M2159.892,709.2a28.667,28.667,0,0,1,3.936,10.261c.345,1.928,3.284,1.111,2.939-.81a31.014,31.014,0,0,0-4.243-10.989c-1.036-1.661-3.674-.133-2.632,1.538Z" transform="translate(-2159.653 -706.943)"/></g></g><g transform="translate(162.936 126.375)"><g transform="translate(0 0)"><path class="b" d="M2165.47,770.458l-12.1-7.768c-1.656-1.063-3.186,1.574-1.538,2.632l12.1,7.767c1.655,1.063,3.186-1.574,1.538-2.632Z" transform="translate(-2151.126 -762.443)"/></g></g><g transform="translate(160.319 144.792)"><g transform="translate(0 0)"><path class="b" d="M2156.595,799.223a21.544,21.544,0,0,1-9.584,7.086c-1.826.672-1.037,3.619.81,2.939a24.357,24.357,0,0,0,10.93-7.87c1.195-1.528-.948-3.7-2.156-2.155Z" transform="translate(-2145.975 -798.693)"/></g></g><g transform="translate(171.651 166.566)"><g transform="translate(0)"><path class="b" d="M2168.448,843.869a15.106,15.106,0,0,1,1.472,5.422c.153,1.943,3.2,1.959,3.049,0a19.185,19.185,0,0,0-1.888-6.961c-.856-1.765-3.485-.221-2.632,1.538Z" transform="translate(-2168.28 -841.551)"/></g></g><g transform="translate(144.468 156.044)"><path class="b" d="M2128.4,835.737a161.386,161.386,0,0,0-11.079-14.4c-1.284-1.488-3.432.677-2.156,2.155a154.276,154.276,0,0,1,10.6,13.78c1.1,1.61,3.742.087,2.632-1.539Z" transform="translate(-2114.774 -820.841)"/></g><g transform="translate(124.735 166.761)"><g transform="translate(0 0)"><path class="b" d="M2088.245,842.029q-5.543,1.944-11.228,3.4c-1.9.488-1.094,3.429.81,2.939q5.689-1.462,11.228-3.405c1.839-.645,1.048-3.591-.811-2.939Z" transform="translate(-2075.934 -841.936)"/></g></g><g transform="translate(101.259 152.012)"><g transform="translate(0 0)"><path class="b" d="M2032.785,826.542q.78-6.093,1.561-12.188c.248-1.941-2.8-1.923-3.048,0q-.78,6.094-1.561,12.188c-.248,1.941,2.8,1.922,3.048,0Z" transform="translate(-2029.723 -812.905)"/></g></g><g transform="translate(84.366 162.836)"><path class="b" d="M1996.88,836.851a43.528,43.528,0,0,1,6.537,9.621c.88,1.753,3.511.212,2.632-1.538a46.523,46.523,0,0,0-7.014-10.239c-1.314-1.462-3.464.7-2.156,2.156Z" transform="translate(-1996.472 -834.209)"/></g><g transform="translate(61.815 166.685)"><path class="b" d="M1961.026,848.4a7.553,7.553,0,0,1-5.945-5.53,1.525,1.525,0,0,0-2.939.81,10.565,10.565,0,0,0,8.075,7.659c1.916.38,2.736-2.557.81-2.939Z" transform="translate(-1952.084 -841.786)"/></g><g transform="translate(36.856 161.125)"><path class="b" d="M1904.869,842.617a20.172,20.172,0,0,0,14.109-9.514c1.026-1.678-1.609-3.211-2.632-1.538a17.274,17.274,0,0,1-12.287,8.113c-1.932.3-1.112,3.241.81,2.939Z" transform="translate(-1902.956 -830.842)"/></g><g transform="translate(16.494 160.629)"><g transform="translate(0 0)"><path class="b" d="M1865.924,840.482v-9.145a1.525,1.525,0,0,0-3.048,0v9.145a1.525,1.525,0,0,0,3.048,0Z" transform="translate(-1862.876 -829.865)"/></g></g><g transform="translate(0 147.88)"><path class="b" d="M1833.289,820.652a129.237,129.237,0,0,1,9.693-13.215c1.251-1.5-.895-3.662-2.156-2.156a135.562,135.562,0,0,0-10.169,13.832c-1.062,1.656,1.575,3.186,2.632,1.538Z" transform="translate(-1830.409 -804.772)"/></g><g transform="translate(5.36 128.028)"><path class="b" d="M1841.672,768.57a37.484,37.484,0,0,0,9.488,4.29c1.886.556,2.691-2.385.811-2.939a34.422,34.422,0,0,1-8.76-3.983c-1.662-1.053-3.193,1.584-1.538,2.632Z" transform="translate(-1840.96 -765.695)"/></g><g transform="translate(25.657 148.851)"><g transform="translate(0 0)"><path class="b" d="M1881.668,809.536a14.015,14.015,0,0,1,3.981,4.574c.953,1.715,3.586.18,2.632-1.538a17.485,17.485,0,0,0-5.075-5.668,1.536,1.536,0,0,0-2.085.547,1.557,1.557,0,0,0,.547,2.085Z" transform="translate(-1880.911 -806.682)"/></g></g><g transform="translate(3.295 103.207)"><g transform="translate(0 0)"><path class="b" d="M1844.327,728.715a49.148,49.148,0,0,1-4.43-10.8,1.525,1.525,0,0,0-2.939.81,52.611,52.611,0,0,0,4.736,11.529c.954,1.715,3.588.179,2.632-1.538Z" transform="translate(-1836.895 -716.838)"/></g></g><g transform="translate(10.461 88.02)"><g transform="translate(0 0)"><path class="b" d="M1852.464,690.371a42.562,42.562,0,0,0,10.065-.464c1.931-.312,1.111-3.25-.811-2.94a39.188,39.188,0,0,1-9.255.355c-1.956-.148-1.947,2.9,0,3.048Z" transform="translate(-1851.001 -686.945)"/></g></g><g transform="translate(6.9 68.107)"><path class="b" d="M1853.877,658.17l-6.973-9.752c-1.131-1.582-3.776-.061-2.632,1.538l6.973,9.753c1.131,1.582,3.776.061,2.632-1.539Z" transform="translate(-1843.991 -647.75)"/></g><g transform="translate(1.976 43.414)"><g transform="translate(0 0)"><path class="b" d="M1837.231,607.569a23.251,23.251,0,0,1,6.086-5.548c1.652-1.048.124-3.687-1.538-2.632a27.359,27.359,0,0,0-7.18,6.642c-1.187,1.562,1.459,3.082,2.632,1.538Z" transform="translate(-1834.3 -599.145)"/></g></g><g transform="translate(5.758 25.563)"><g transform="translate(0 0)"><path class="b" d="M1842.542,566.778a26.514,26.514,0,0,1,7.393,4.725c1.449,1.317,3.611-.833,2.156-2.156a28.913,28.913,0,0,0-8.01-5.2c-1.782-.769-3.336,1.856-1.538,2.632Z" transform="translate(-1841.744 -564.006)"/></g></g><g transform="translate(27.085 18.709)"><path class="b" d="M1886.772,557.136a5.836,5.836,0,0,1,6.759-3.415c1.9.472,2.717-2.466.81-2.939a8.952,8.952,0,0,0-10.509,5.544c-.711,1.83,2.236,2.622,2.94.81Z" transform="translate(-1883.723 -550.516)"/></g><g transform="translate(58.256 20.391)"><g transform="translate(0 0)"><path class="b" d="M1948.631,554.923a16.7,16.7,0,0,1-3.2,6.948c-1.2,1.523.939,3.694,2.156,2.156a20.014,20.014,0,0,0,3.981-8.294c.41-1.913-2.528-2.73-2.939-.81Z" transform="translate(-1945.078 -553.828)"/></g></g><g transform="translate(81.095 26.426)"><path class="b" d="M1991.488,572.947a31.475,31.475,0,0,0,12.948-4.378c1.674-1.017.144-3.654-1.538-2.632a27.914,27.914,0,0,1-11.41,3.962c-1.926.22-1.949,3.271,0,3.048Z" transform="translate(-1990.035 -565.706)"/></g><g transform="translate(114.624 18.689)"><g transform="translate(0 0)"><path class="b" d="M2057.486,554.771l11.152-1.234c1.928-.213,1.95-3.264,0-3.048l-11.152,1.234c-1.929.213-1.951,3.264,0,3.048Z" transform="translate(-2056.031 -550.477)"/></g></g><g transform="translate(134.974 21.317)"><g transform="translate(0 0)"><path class="b" d="M2096.242,557.976a32.726,32.726,0,0,0,7.241,10.045c1.425,1.348,3.584-.8,2.156-2.156a30.468,30.468,0,0,1-6.764-9.428c-.824-1.778-3.452-.232-2.632,1.538Z" transform="translate(-2096.086 -555.65)"/></g></g><g transform="translate(151.54 37.693)"><g transform="translate(0)"><path class="b" d="M2132.833,589.346a19.079,19.079,0,0,1-3.844,9.9c-1.173,1.573,1.472,3.095,2.632,1.538a21.976,21.976,0,0,0,4.26-11.434c.168-1.954-2.881-1.943-3.048,0Z" transform="translate(-2128.695 -587.884)"/></g></g><g transform="translate(158.65 60.53)"><g transform="translate(0 0)"><path class="b" d="M2145.619,634.3a8.535,8.535,0,0,1-2.488,6.458c-1.376,1.4.777,3.557,2.156,2.156a11.626,11.626,0,0,0,3.38-8.613c-.068-1.956-3.116-1.966-3.048,0Z" transform="translate(-2142.689 -632.834)"/></g></g><g transform="translate(146.506 83.909)"><g transform="translate(0 0)"><path class="b" d="M2119.292,681.392a26.617,26.617,0,0,1,7.388,9.943c.75,1.78,3.7,1,2.939-.81a29.772,29.772,0,0,0-8.172-11.288c-1.486-1.264-3.653.882-2.156,2.155Z" transform="translate(-2118.787 -678.852)"/></g></g><g transform="translate(150.095 109.337)"><g transform="translate(0 0)"><path class="b" d="M2126.856,730.36a18.633,18.633,0,0,1-.916,8.237c-.64,1.859,2.3,2.657,2.939.81a20.717,20.717,0,0,0,1.025-9.047c-.209-1.93-3.26-1.951-3.048,0Z" transform="translate(-2125.85 -728.905)"/></g></g><g transform="translate(142.679 135.747)"><path class="b" d="M2112.3,787.069a12.2,12.2,0,0,0,13.195-3.524c1.277-1.478-.87-3.643-2.156-2.156a9.223,9.223,0,0,1-10.229,2.74c-1.856-.647-2.654,2.3-.81,2.94Z" transform="translate(-2111.253 -780.889)"/></g><g transform="translate(119.02 144.339)"><path class="b" d="M2076.608,798.883c-.4,1.52-3.9,2.383-5.166,2.936l-5.962,2.611c-1.792.785-.243,3.412,1.539,2.632,2.839-1.243,5.683-2.477,8.517-3.73,1.807-.8,3.477-1.6,4.011-3.64a1.525,1.525,0,0,0-2.939-.81Z" transform="translate(-2064.684 -797.801)"/></g><g transform="translate(133.526 118.479)"><path class="b" d="M2096.2,756.409a30.229,30.229,0,0,0,.362-8.05c-.18-1.937-3.229-1.956-3.048,0a27.254,27.254,0,0,1-.254,7.24c-.335,1.918,2.6,2.742,2.94.81Z" transform="translate(-2093.236 -746.899)"/></g><g transform="translate(129.436 90.62)"><g transform="translate(0 0)"><path class="b" d="M2089.012,693.9a9.285,9.285,0,0,1-3.154,11.037c-1.589,1.123-.068,3.767,1.539,2.632a12.329,12.329,0,0,0,4.553-14.479c-.7-1.81-3.649-1.024-2.939.81Z" transform="translate(-2085.186 -692.063)"/></g></g><g transform="translate(137.972 56.544)"><path class="b" d="M2103.368,626.854a12.388,12.388,0,0,1-1.154,10.508,1.525,1.525,0,0,0,2.632,1.539,15.407,15.407,0,0,0,1.461-12.857c-.607-1.856-3.552-1.061-2.939.81Z" transform="translate(-2101.988 -624.988)"/></g><g transform="translate(126.287 36.579)"><path class="b" d="M2083.508,595.38a19.651,19.651,0,0,0-1.743-8.9c-.791-1.791-3.418-.241-2.632,1.538a16.27,16.27,0,0,1,1.327,7.357c-.084,1.962,2.964,1.958,3.048,0Z" transform="translate(-2078.988 -585.69)"/></g><g transform="translate(99.366 34.263)"><g transform="translate(0 0)"><path class="b" d="M2035.02,581.841a6.852,6.852,0,0,1-7.115,3.052c-1.915-.388-2.735,2.549-.81,2.94a10.019,10.019,0,0,0,10.557-4.453c1.058-1.659-1.58-3.189-2.632-1.538Z" transform="translate(-2025.997 -581.132)"/></g></g><g transform="translate(60.677 40.693)"><g transform="translate(0 0)"><path class="b" d="M1950.365,596.309a13.324,13.324,0,0,0,8.132,3.06c1.962.059,1.96-2.989,0-3.048a9.889,9.889,0,0,1-5.977-2.168c-1.512-1.222-3.682.922-2.155,2.156Z" transform="translate(-1949.844 -593.789)"/></g></g><g transform="translate(30.286 37.84)"><path class="b" d="M1902.831,588.252a27.5,27.5,0,0,1-11.35,1.169c-1.949-.2-1.936,2.851,0,3.048a29.653,29.653,0,0,0,12.161-1.279c1.861-.595,1.066-3.539-.81-2.939Z" transform="translate(-1890.023 -588.172)"/></g><g transform="translate(20.518 51.826)"><path class="b" d="M1873.67,617.615a6.1,6.1,0,0,1-2.235,5.729c-1.535,1.178-.019,3.828,1.539,2.632a9.323,9.323,0,0,0,3.635-9.172c-.322-1.931-3.26-1.112-2.939.81Z" transform="translate(-1870.796 -615.702)"/></g><g transform="translate(35.8 71.214)"><g transform="translate(0 0)"><path class="b" d="M1900.876,655.338v11.685a1.525,1.525,0,0,0,3.048,0V655.338a1.525,1.525,0,0,0-3.048,0Z" transform="translate(-1900.876 -653.865)"/></g></g><g transform="translate(21.649 103.24)"><g transform="translate(0 0)"><path class="b" d="M1877.678,717.979l-1.35,4.851c-.225.809-.694,3.943-1.858,4.1-1.917.252-1.942,3.3,0,3.048a4.623,4.623,0,0,0,3.859-3.254,71.773,71.773,0,0,0,2.289-7.932,1.525,1.525,0,0,0-2.939-.81Z" transform="translate(-1873.022 -716.903)"/></g></g><g transform="translate(31.262 125.575)"><g transform="translate(0 0)"><path class="b" d="M1891.945,762.339a52.723,52.723,0,0,0,1.38,12.129c.444,1.91,3.384,1.1,2.94-.811a49.033,49.033,0,0,1-1.272-11.319,1.525,1.525,0,0,0-3.048,0Z" transform="translate(-1891.944 -760.866)"/></g></g><g transform="translate(48.767 142.789)"><path class="b" d="M1927.423,797.8a15.566,15.566,0,0,1,8.706,8.622c.723,1.8,3.672,1.013,2.939-.81a18.931,18.931,0,0,0-10.835-10.751c-1.826-.717-2.618,2.229-.81,2.939Z" transform="translate(-1926.401 -794.75)"/></g><g transform="translate(70.458 138.533)"><path class="b" d="M1970.921,794.155l11.623-4.725c1.793-.729,1.009-3.679-.811-2.939l-11.623,4.724c-1.793.729-1.009,3.679.81,2.94Z" transform="translate(-1969.097 -786.374)"/></g><g transform="translate(99.313 127.592)"><path class="b" d="M2033.257,765.032l-6.606,3.552c-1.728.93-.191,3.562,1.538,2.632l6.606-3.552c1.729-.929.191-3.562-1.538-2.632Z" transform="translate(-2025.893 -764.837)"/></g><g transform="translate(114.949 122.044)"><g transform="translate(0 0)"><path class="b" d="M2061.42,765.013a42.873,42.873,0,0,0-1.738-10.028c-.563-1.874-3.505-1.076-2.939.81a39.328,39.328,0,0,1,1.629,9.217c.107,1.951,3.156,1.963,3.048,0Z" transform="translate(-2056.67 -753.917)"/></g></g><g transform="translate(110.016 96.109)"><g transform="translate(0 0)"><path class="b" d="M2048.048,716.942c5.833,1.4,6.085-9.126,6.008-12.6-.044-1.958-3.092-1.966-3.048,0,.024,1.065-.28,10.112-2.149,9.664-1.907-.457-2.72,2.481-.811,2.94Z" transform="translate(-2046.96 -702.867)"/></g></g><g transform="translate(116.119 76.109)"><g transform="translate(0 0)"><path class="b" d="M2060.875,666.715a7.129,7.129,0,0,1,4.97.649c1.736.911,3.278-1.718,1.539-2.632a10.455,10.455,0,0,0-7.319-.957c-1.913.435-1.1,3.375.81,2.939Z" transform="translate(-2058.973 -663.5)"/></g></g><g transform="translate(113.074 51.395)"><g transform="translate(0 0)"><path class="b" d="M2064.281,627.321a24.938,24.938,0,0,1-8.266-11.426c-.655-1.835-3.6-1.044-2.939.81a28.576,28.576,0,0,0,9.667,13.247c1.553,1.2,3.073-1.45,1.538-2.632Z" transform="translate(-2052.979 -614.853)"/></g></g><g transform="translate(85.087 52.354)"><g transform="translate(0 0)"><path class="b" d="M2010.961,624a27.92,27.92,0,0,1-10.474-6.8c-1.374-1.405-3.528.751-2.156,2.155a31.381,31.381,0,0,0,11.82,7.588c1.846.673,2.641-2.271.81-2.939Z" transform="translate(-1997.891 -616.741)"/></g></g><g transform="translate(45.945 54.613)"><g transform="translate(0 0)"><path class="b" d="M1921.931,624.18a8.7,8.7,0,0,1,6.345,6.283,1.526,1.526,0,0,0,2.94-.81,11.774,11.774,0,0,0-8.474-8.411c-1.9-.482-2.714,2.457-.81,2.939Z" transform="translate(-1920.846 -621.188)"/></g></g><g transform="translate(44.997 82.375)"><g transform="translate(0 0)"><path class="b" d="M1920.452,691.027c2.431.027,3.608-1.917,4.479-3.932a39.4,39.4,0,0,0,2.713-9.348c.313-1.919-2.624-2.744-2.939-.81a39.771,39.771,0,0,1-1.272,5.5c-.363,1.159-1.409,5.559-2.98,5.541a1.525,1.525,0,0,0,0,3.048Z" transform="translate(-1918.98 -675.834)"/></g></g><g transform="translate(42.855 109.824)"><path class="b" d="M1915.174,732.5a14.207,14.207,0,0,1,3.711,10.01c-.037,1.963,3.011,1.963,3.048,0a17.4,17.4,0,0,0-4.6-12.166c-1.32-1.457-3.47.7-2.156,2.156Z" transform="translate(-1914.763 -729.864)"/></g><g transform="translate(57.723 128.462)"><path class="b" d="M1945.484,769.608a16.476,16.476,0,0,1,8.349,3.468c1.551,1.2,3.071-1.448,1.538-2.632a19.325,19.325,0,0,0-9.887-3.884c-1.948-.213-1.932,2.837,0,3.048Z" transform="translate(-1944.03 -766.549)"/></g><g transform="translate(80.71 107.576)"><path class="b" d="M1992.25,736.709a12.146,12.146,0,0,1,6.14-8.436c1.718-.948.182-3.581-1.539-2.632a15.084,15.084,0,0,0-7.541,10.258c-.382,1.916,2.555,2.736,2.939.81Z" transform="translate(-1989.276 -725.438)"/></g><g transform="translate(97.127 74.282)"><path class="b" d="M2027.946,673.543a34.786,34.786,0,0,0-3.55-12.863c-.872-1.757-3.5-.215-2.632,1.538a30.721,30.721,0,0,1,3.134,11.325c.153,1.943,3.2,1.959,3.048,0Z" transform="translate(-2021.591 -659.904)"/></g><g transform="translate(71.326 63.069)"><path class="b" d="M1981.285,643.555a50.467,50.467,0,0,1-7.814-5.344c-1.5-1.25-3.663.9-2.155,2.155a54.533,54.533,0,0,0,8.431,5.82c1.715.956,3.254-1.676,1.538-2.632Z" transform="translate(-1970.805 -637.833)"/></g><g transform="translate(64.714 73.235)"><g transform="translate(0 0)"><path class="b" d="M1957.839,659.743a13.519,13.519,0,0,0,6.331,8.534,1.525,1.525,0,0,0,1.538-2.632,10.46,10.46,0,0,1-4.93-6.712c-.456-1.907-3.4-1.1-2.939.81Z" transform="translate(-1957.791 -657.844)"/></g></g><g transform="translate(85.669 81.9)"><path class="b" d="M2000.992,676.776a12.029,12.029,0,0,1-1.686,10.6c-1.116,1.62,1.525,3.145,2.632,1.538a15,15,0,0,0,1.993-12.948c-.566-1.873-3.508-1.075-2.94.811Z" transform="translate(-1999.037 -674.899)"/></g><g transform="translate(57.192 94.529)"><path class="b" d="M1945.317,709.937a18.2,18.2,0,0,0,8.568-7.89c.948-1.719-1.683-3.258-2.632-1.538a15.551,15.551,0,0,1-7.475,6.8c-1.791.791-.241,3.418,1.538,2.632Z" transform="translate(-1942.984 -699.758)"/></g><g transform="translate(69.309 106.281)"><path class="b" d="M1970.247,724.358a8.588,8.588,0,0,1-2.928,6.046c-1.458,1.319.7,3.47,2.155,2.155a11.7,11.7,0,0,0,3.821-8.2c.1-1.961-2.951-1.955-3.048,0Z" transform="translate(-1966.835 -722.89)"/></g></g><g transform="translate(488.409 2002)"><g transform="translate(5.847 0)"><path class="b" d="M1843.826,516.755c3.571-.732,3.749,8.289,3.686,10.181-.065,1.962,2.984,1.959,3.048,0,.145-4.4-.894-14.483-7.544-13.12-1.92.394-1.108,3.332.81,2.939Z" transform="translate(-1841.919 -513.69)"/></g><g transform="translate(31.792 1.919)"><g transform="translate(0 0)"><path class="b" d="M1894.457,522.27a84.552,84.552,0,0,0,14.591-1.825c1.917-.411,1.106-3.35-.81-2.939a79.723,79.723,0,0,1-13.781,1.716c-1.956.073-1.965,3.121,0,3.048Z" transform="translate(-1892.987 -517.467)"/></g></g><g transform="translate(66.354 1.289)"><g transform="translate(0 0)"><path class="b" d="M1962.116,519.2a17.783,17.783,0,0,1,10.343,6.087c1.269,1.5,3.415-.666,2.156-2.156a20.4,20.4,0,0,0-11.688-6.871c-1.916-.378-2.736,2.56-.81,2.939Z" transform="translate(-1961.018 -516.227)"/></g></g><g transform="translate(95.233 1.234)"><path class="b" d="M2020.837,526.59a9.486,9.486,0,0,1,7.538-7.5c1.922-.383,1.109-3.321-.81-2.94a12.45,12.45,0,0,0-9.667,9.627c-.391,1.915,2.547,2.734,2.939.81Z" transform="translate(-2017.863 -516.119)"/></g><g transform="translate(127.768 0.867)"><g transform="translate(0 0)"><path class="b" d="M2083.8,520.021a50.332,50.332,0,0,1,17.894-1.289c1.949.2,1.935-2.845,0-3.048a52.761,52.761,0,0,0-18.7,1.4c-1.9.487-1.094,3.428.811,2.939Z" transform="translate(-2081.904 -515.397)"/></g></g><g transform="translate(156.14 2.03)"><g transform="translate(0)"><path class="b" d="M2146.163,519.555c1.673,5.243-3.821,8.416-7.66,10.508-1.723.939-.186,3.572,1.539,2.632,5.117-2.789,11.2-7.252,9.06-13.95-.594-1.862-3.538-1.066-2.939.81Z" transform="translate(-2137.749 -517.685)"/></g></g><g transform="translate(169.51 15.368)"><g transform="translate(0)"><path class="b" d="M2170.23,545a29.874,29.874,0,0,1-5.779,10.5c-1.265,1.486.882,3.652,2.155,2.155a33.694,33.694,0,0,0,6.563-11.847c.589-1.876-2.353-2.678-2.939-.81Z" transform="translate(-2164.066 -543.94)"/></g></g><g transform="translate(167.377 47.78)"><g transform="translate(0 0)"><path class="b" d="M2160.654,610.53a17.322,17.322,0,0,1,6.5,5.129c1.176,1.537,3.824.021,2.632-1.538a20.409,20.409,0,0,0-7.6-6.222c-1.766-.827-3.315,1.8-1.539,2.632Z" transform="translate(-2159.868 -607.739)"/></g></g><g transform="translate(168.284 70.238)"><path class="b" d="M2168.175,653.03a20.842,20.842,0,0,1-6.052,10.347c-1.431,1.348.727,3.5,2.156,2.156a23.792,23.792,0,0,0,6.835-11.692c.471-1.9-2.467-2.716-2.939-.81Z" transform="translate(-2161.653 -651.943)"/></g><g transform="translate(167.268 98.18)"><g transform="translate(0 0)"><path class="b" d="M2159.892,709.2a28.667,28.667,0,0,1,3.936,10.261c.345,1.928,3.284,1.111,2.939-.81a31.014,31.014,0,0,0-4.243-10.989c-1.036-1.661-3.674-.133-2.632,1.538Z" transform="translate(-2159.653 -706.943)"/></g></g><g transform="translate(162.936 126.375)"><g transform="translate(0 0)"><path class="b" d="M2165.47,770.458l-12.1-7.768c-1.656-1.063-3.186,1.574-1.538,2.632l12.1,7.767c1.655,1.063,3.186-1.574,1.538-2.632Z" transform="translate(-2151.126 -762.443)"/></g></g><g transform="translate(160.319 144.792)"><g transform="translate(0 0)"><path class="b" d="M2156.595,799.223a21.544,21.544,0,0,1-9.584,7.086c-1.826.672-1.037,3.619.81,2.939a24.357,24.357,0,0,0,10.93-7.87c1.195-1.528-.948-3.7-2.156-2.155Z" transform="translate(-2145.975 -798.693)"/></g></g><g transform="translate(171.651 166.566)"><g transform="translate(0)"><path class="b" d="M2168.448,843.869a15.106,15.106,0,0,1,1.472,5.422c.153,1.943,3.2,1.959,3.049,0a19.185,19.185,0,0,0-1.888-6.961c-.856-1.765-3.485-.221-2.632,1.538Z" transform="translate(-2168.28 -841.551)"/></g></g><g transform="translate(144.468 156.044)"><path class="b" d="M2128.4,835.737a161.386,161.386,0,0,0-11.079-14.4c-1.284-1.488-3.432.677-2.156,2.155a154.276,154.276,0,0,1,10.6,13.78c1.1,1.61,3.742.087,2.632-1.539Z" transform="translate(-2114.774 -820.841)"/></g><g transform="translate(124.735 166.761)"><g transform="translate(0 0)"><path class="b" d="M2088.245,842.029q-5.543,1.944-11.228,3.4c-1.9.488-1.094,3.429.81,2.939q5.689-1.462,11.228-3.405c1.839-.645,1.048-3.591-.811-2.939Z" transform="translate(-2075.934 -841.936)"/></g></g><g transform="translate(101.259 152.012)"><g transform="translate(0 0)"><path class="b" d="M2032.785,826.542q.78-6.093,1.561-12.188c.248-1.941-2.8-1.923-3.048,0q-.78,6.094-1.561,12.188c-.248,1.941,2.8,1.922,3.048,0Z" transform="translate(-2029.723 -812.905)"/></g></g><g transform="translate(84.366 162.836)"><path class="b" d="M1996.88,836.851a43.528,43.528,0,0,1,6.537,9.621c.88,1.753,3.511.212,2.632-1.538a46.523,46.523,0,0,0-7.014-10.239c-1.314-1.462-3.464.7-2.156,2.156Z" transform="translate(-1996.472 -834.209)"/></g><g transform="translate(61.815 166.685)"><path class="b" d="M1961.026,848.4a7.553,7.553,0,0,1-5.945-5.53,1.525,1.525,0,0,0-2.939.81,10.565,10.565,0,0,0,8.075,7.659c1.916.38,2.736-2.557.81-2.939Z" transform="translate(-1952.084 -841.786)"/></g><g transform="translate(36.856 161.125)"><path class="b" d="M1904.869,842.617a20.172,20.172,0,0,0,14.109-9.514c1.026-1.678-1.609-3.211-2.632-1.538a17.274,17.274,0,0,1-12.287,8.113c-1.932.3-1.112,3.241.81,2.939Z" transform="translate(-1902.956 -830.842)"/></g><g transform="translate(16.494 160.629)"><g transform="translate(0 0)"><path class="b" d="M1865.924,840.482v-9.145a1.525,1.525,0,0,0-3.048,0v9.145a1.525,1.525,0,0,0,3.048,0Z" transform="translate(-1862.876 -829.865)"/></g></g><g transform="translate(0 147.88)"><path class="b" d="M1833.289,820.652a129.237,129.237,0,0,1,9.693-13.215c1.251-1.5-.895-3.662-2.156-2.156a135.562,135.562,0,0,0-10.169,13.832c-1.062,1.656,1.575,3.186,2.632,1.538Z" transform="translate(-1830.409 -804.772)"/></g><g transform="translate(5.36 128.028)"><path class="b" d="M1841.672,768.57a37.484,37.484,0,0,0,9.488,4.29c1.886.556,2.691-2.385.811-2.939a34.422,34.422,0,0,1-8.76-3.983c-1.662-1.053-3.193,1.584-1.538,2.632Z" transform="translate(-1840.96 -765.695)"/></g><g transform="translate(25.657 148.851)"><g transform="translate(0 0)"><path class="b" d="M1881.668,809.536a14.015,14.015,0,0,1,3.981,4.574c.953,1.715,3.586.18,2.632-1.538a17.485,17.485,0,0,0-5.075-5.668,1.536,1.536,0,0,0-2.085.547,1.557,1.557,0,0,0,.547,2.085Z" transform="translate(-1880.911 -806.682)"/></g></g><g transform="translate(3.295 103.207)"><g transform="translate(0 0)"><path class="b" d="M1844.327,728.715a49.148,49.148,0,0,1-4.43-10.8,1.525,1.525,0,0,0-2.939.81,52.611,52.611,0,0,0,4.736,11.529c.954,1.715,3.588.179,2.632-1.538Z" transform="translate(-1836.895 -716.838)"/></g></g><g transform="translate(10.461 88.02)"><g transform="translate(0 0)"><path class="b" d="M1852.464,690.371a42.562,42.562,0,0,0,10.065-.464c1.931-.312,1.111-3.25-.811-2.94a39.188,39.188,0,0,1-9.255.355c-1.956-.148-1.947,2.9,0,3.048Z" transform="translate(-1851.001 -686.945)"/></g></g><g transform="translate(6.9 68.107)"><path class="b" d="M1853.877,658.17l-6.973-9.752c-1.131-1.582-3.776-.061-2.632,1.538l6.973,9.753c1.131,1.582,3.776.061,2.632-1.539Z" transform="translate(-1843.991 -647.75)"/></g><g transform="translate(1.976 43.414)"><g transform="translate(0 0)"><path class="b" d="M1837.231,607.569a23.251,23.251,0,0,1,6.086-5.548c1.652-1.048.124-3.687-1.538-2.632a27.359,27.359,0,0,0-7.18,6.642c-1.187,1.562,1.459,3.082,2.632,1.538Z" transform="translate(-1834.3 -599.145)"/></g></g><g transform="translate(5.758 25.563)"><g transform="translate(0 0)"><path class="b" d="M1842.542,566.778a26.514,26.514,0,0,1,7.393,4.725c1.449,1.317,3.611-.833,2.156-2.156a28.913,28.913,0,0,0-8.01-5.2c-1.782-.769-3.336,1.856-1.538,2.632Z" transform="translate(-1841.744 -564.006)"/></g></g><g transform="translate(27.085 18.709)"><path class="b" d="M1886.772,557.136a5.836,5.836,0,0,1,6.759-3.415c1.9.472,2.717-2.466.81-2.939a8.952,8.952,0,0,0-10.509,5.544c-.711,1.83,2.236,2.622,2.94.81Z" transform="translate(-1883.723 -550.516)"/></g><g transform="translate(58.256 20.391)"><g transform="translate(0 0)"><path class="b" d="M1948.631,554.923a16.7,16.7,0,0,1-3.2,6.948c-1.2,1.523.939,3.694,2.156,2.156a20.014,20.014,0,0,0,3.981-8.294c.41-1.913-2.528-2.73-2.939-.81Z" transform="translate(-1945.078 -553.828)"/></g></g><g transform="translate(81.095 26.426)"><path class="b" d="M1991.488,572.947a31.475,31.475,0,0,0,12.948-4.378c1.674-1.017.144-3.654-1.538-2.632a27.914,27.914,0,0,1-11.41,3.962c-1.926.22-1.949,3.271,0,3.048Z" transform="translate(-1990.035 -565.706)"/></g><g transform="translate(114.624 18.689)"><g transform="translate(0 0)"><path class="b" d="M2057.486,554.771l11.152-1.234c1.928-.213,1.95-3.264,0-3.048l-11.152,1.234c-1.929.213-1.951,3.264,0,3.048Z" transform="translate(-2056.031 -550.477)"/></g></g><g transform="translate(134.974 21.317)"><g transform="translate(0 0)"><path class="b" d="M2096.242,557.976a32.726,32.726,0,0,0,7.241,10.045c1.425,1.348,3.584-.8,2.156-2.156a30.468,30.468,0,0,1-6.764-9.428c-.824-1.778-3.452-.232-2.632,1.538Z" transform="translate(-2096.086 -555.65)"/></g></g><g transform="translate(151.54 37.693)"><g transform="translate(0)"><path class="b" d="M2132.833,589.346a19.079,19.079,0,0,1-3.844,9.9c-1.173,1.573,1.472,3.095,2.632,1.538a21.976,21.976,0,0,0,4.26-11.434c.168-1.954-2.881-1.943-3.048,0Z" transform="translate(-2128.695 -587.884)"/></g></g><g transform="translate(158.65 60.53)"><g transform="translate(0 0)"><path class="b" d="M2145.619,634.3a8.535,8.535,0,0,1-2.488,6.458c-1.376,1.4.777,3.557,2.156,2.156a11.626,11.626,0,0,0,3.38-8.613c-.068-1.956-3.116-1.966-3.048,0Z" transform="translate(-2142.689 -632.834)"/></g></g><g transform="translate(146.506 83.909)"><g transform="translate(0 0)"><path class="b" d="M2119.292,681.392a26.617,26.617,0,0,1,7.388,9.943c.75,1.78,3.7,1,2.939-.81a29.772,29.772,0,0,0-8.172-11.288c-1.486-1.264-3.653.882-2.156,2.155Z" transform="translate(-2118.787 -678.852)"/></g></g><g transform="translate(150.095 109.337)"><g transform="translate(0 0)"><path class="b" d="M2126.856,730.36a18.633,18.633,0,0,1-.916,8.237c-.64,1.859,2.3,2.657,2.939.81a20.717,20.717,0,0,0,1.025-9.047c-.209-1.93-3.26-1.951-3.048,0Z" transform="translate(-2125.85 -728.905)"/></g></g><g transform="translate(142.679 135.747)"><path class="b" d="M2112.3,787.069a12.2,12.2,0,0,0,13.195-3.524c1.277-1.478-.87-3.643-2.156-2.156a9.223,9.223,0,0,1-10.229,2.74c-1.856-.647-2.654,2.3-.81,2.94Z" transform="translate(-2111.253 -780.889)"/></g><g transform="translate(119.02 144.339)"><path class="b" d="M2076.608,798.883c-.4,1.52-3.9,2.383-5.166,2.936l-5.962,2.611c-1.792.785-.243,3.412,1.539,2.632,2.839-1.243,5.683-2.477,8.517-3.73,1.807-.8,3.477-1.6,4.011-3.64a1.525,1.525,0,0,0-2.939-.81Z" transform="translate(-2064.684 -797.801)"/></g><g transform="translate(133.526 118.479)"><path class="b" d="M2096.2,756.409a30.229,30.229,0,0,0,.362-8.05c-.18-1.937-3.229-1.956-3.048,0a27.254,27.254,0,0,1-.254,7.24c-.335,1.918,2.6,2.742,2.94.81Z" transform="translate(-2093.236 -746.899)"/></g><g transform="translate(129.436 90.62)"><g transform="translate(0 0)"><path class="b" d="M2089.012,693.9a9.285,9.285,0,0,1-3.154,11.037c-1.589,1.123-.068,3.767,1.539,2.632a12.329,12.329,0,0,0,4.553-14.479c-.7-1.81-3.649-1.024-2.939.81Z" transform="translate(-2085.186 -692.063)"/></g></g><g transform="translate(137.972 56.544)"><path class="b" d="M2103.368,626.854a12.388,12.388,0,0,1-1.154,10.508,1.525,1.525,0,0,0,2.632,1.539,15.407,15.407,0,0,0,1.461-12.857c-.607-1.856-3.552-1.061-2.939.81Z" transform="translate(-2101.988 -624.988)"/></g><g transform="translate(126.287 36.579)"><path class="b" d="M2083.508,595.38a19.651,19.651,0,0,0-1.743-8.9c-.791-1.791-3.418-.241-2.632,1.538a16.27,16.27,0,0,1,1.327,7.357c-.084,1.962,2.964,1.958,3.048,0Z" transform="translate(-2078.988 -585.69)"/></g><g transform="translate(99.366 34.263)"><g transform="translate(0 0)"><path class="b" d="M2035.02,581.841a6.852,6.852,0,0,1-7.115,3.052c-1.915-.388-2.735,2.549-.81,2.94a10.019,10.019,0,0,0,10.557-4.453c1.058-1.659-1.58-3.189-2.632-1.538Z" transform="translate(-2025.997 -581.132)"/></g></g><g transform="translate(60.677 40.693)"><g transform="translate(0 0)"><path class="b" d="M1950.365,596.309a13.324,13.324,0,0,0,8.132,3.06c1.962.059,1.96-2.989,0-3.048a9.889,9.889,0,0,1-5.977-2.168c-1.512-1.222-3.682.922-2.155,2.156Z" transform="translate(-1949.844 -593.789)"/></g></g><g transform="translate(30.286 37.84)"><path class="b" d="M1902.831,588.252a27.5,27.5,0,0,1-11.35,1.169c-1.949-.2-1.936,2.851,0,3.048a29.653,29.653,0,0,0,12.161-1.279c1.861-.595,1.066-3.539-.81-2.939Z" transform="translate(-1890.023 -588.172)"/></g><g transform="translate(20.518 51.826)"><path class="b" d="M1873.67,617.615a6.1,6.1,0,0,1-2.235,5.729c-1.535,1.178-.019,3.828,1.539,2.632a9.323,9.323,0,0,0,3.635-9.172c-.322-1.931-3.26-1.112-2.939.81Z" transform="translate(-1870.796 -615.702)"/></g><g transform="translate(35.8 71.214)"><g transform="translate(0 0)"><path class="b" d="M1900.876,655.338v11.685a1.525,1.525,0,0,0,3.048,0V655.338a1.525,1.525,0,0,0-3.048,0Z" transform="translate(-1900.876 -653.865)"/></g></g><g transform="translate(21.649 103.24)"><g transform="translate(0 0)"><path class="b" d="M1877.678,717.979l-1.35,4.851c-.225.809-.694,3.943-1.858,4.1-1.917.252-1.942,3.3,0,3.048a4.623,4.623,0,0,0,3.859-3.254,71.773,71.773,0,0,0,2.289-7.932,1.525,1.525,0,0,0-2.939-.81Z" transform="translate(-1873.022 -716.903)"/></g></g><g transform="translate(31.262 125.575)"><g transform="translate(0 0)"><path class="b" d="M1891.945,762.339a52.723,52.723,0,0,0,1.38,12.129c.444,1.91,3.384,1.1,2.94-.811a49.033,49.033,0,0,1-1.272-11.319,1.525,1.525,0,0,0-3.048,0Z" transform="translate(-1891.944 -760.866)"/></g></g><g transform="translate(48.767 142.789)"><path class="b" d="M1927.423,797.8a15.566,15.566,0,0,1,8.706,8.622c.723,1.8,3.672,1.013,2.939-.81a18.931,18.931,0,0,0-10.835-10.751c-1.826-.717-2.618,2.229-.81,2.939Z" transform="translate(-1926.401 -794.75)"/></g><g transform="translate(70.458 138.533)"><path class="b" d="M1970.921,794.155l11.623-4.725c1.793-.729,1.009-3.679-.811-2.939l-11.623,4.724c-1.793.729-1.009,3.679.81,2.94Z" transform="translate(-1969.097 -786.374)"/></g><g transform="translate(99.313 127.592)"><path class="b" d="M2033.257,765.032l-6.606,3.552c-1.728.93-.191,3.562,1.538,2.632l6.606-3.552c1.729-.929.191-3.562-1.538-2.632Z" transform="translate(-2025.893 -764.837)"/></g><g transform="translate(114.949 122.044)"><g transform="translate(0 0)"><path class="b" d="M2061.42,765.013a42.873,42.873,0,0,0-1.738-10.028c-.563-1.874-3.505-1.076-2.939.81a39.328,39.328,0,0,1,1.629,9.217c.107,1.951,3.156,1.963,3.048,0Z" transform="translate(-2056.67 -753.917)"/></g></g><g transform="translate(110.016 96.109)"><g transform="translate(0 0)"><path class="b" d="M2048.048,716.942c5.833,1.4,6.085-9.126,6.008-12.6-.044-1.958-3.092-1.966-3.048,0,.024,1.065-.28,10.112-2.149,9.664-1.907-.457-2.72,2.481-.811,2.94Z" transform="translate(-2046.96 -702.867)"/></g></g><g transform="translate(116.119 76.109)"><g transform="translate(0 0)"><path class="b" d="M2060.875,666.715a7.129,7.129,0,0,1,4.97.649c1.736.911,3.278-1.718,1.539-2.632a10.455,10.455,0,0,0-7.319-.957c-1.913.435-1.1,3.375.81,2.939Z" transform="translate(-2058.973 -663.5)"/></g></g><g transform="translate(113.074 51.395)"><g transform="translate(0 0)"><path class="b" d="M2064.281,627.321a24.938,24.938,0,0,1-8.266-11.426c-.655-1.835-3.6-1.044-2.939.81a28.576,28.576,0,0,0,9.667,13.247c1.553,1.2,3.073-1.45,1.538-2.632Z" transform="translate(-2052.979 -614.853)"/></g></g><g transform="translate(85.087 52.354)"><g transform="translate(0 0)"><path class="b" d="M2010.961,624a27.92,27.92,0,0,1-10.474-6.8c-1.374-1.405-3.528.751-2.156,2.155a31.381,31.381,0,0,0,11.82,7.588c1.846.673,2.641-2.271.81-2.939Z" transform="translate(-1997.891 -616.741)"/></g></g><g transform="translate(45.945 54.613)"><g transform="translate(0 0)"><path class="b" d="M1921.931,624.18a8.7,8.7,0,0,1,6.345,6.283,1.526,1.526,0,0,0,2.94-.81,11.774,11.774,0,0,0-8.474-8.411c-1.9-.482-2.714,2.457-.81,2.939Z" transform="translate(-1920.846 -621.188)"/></g></g><g transform="translate(44.997 82.375)"><g transform="translate(0 0)"><path class="b" d="M1920.452,691.027c2.431.027,3.608-1.917,4.479-3.932a39.4,39.4,0,0,0,2.713-9.348c.313-1.919-2.624-2.744-2.939-.81a39.771,39.771,0,0,1-1.272,5.5c-.363,1.159-1.409,5.559-2.98,5.541a1.525,1.525,0,0,0,0,3.048Z" transform="translate(-1918.98 -675.834)"/></g></g><g transform="translate(42.855 109.824)"><path class="b" d="M1915.174,732.5a14.207,14.207,0,0,1,3.711,10.01c-.037,1.963,3.011,1.963,3.048,0a17.4,17.4,0,0,0-4.6-12.166c-1.32-1.457-3.47.7-2.156,2.156Z" transform="translate(-1914.763 -729.864)"/></g><g transform="translate(57.723 128.462)"><path class="b" d="M1945.484,769.608a16.476,16.476,0,0,1,8.349,3.468c1.551,1.2,3.071-1.448,1.538-2.632a19.325,19.325,0,0,0-9.887-3.884c-1.948-.213-1.932,2.837,0,3.048Z" transform="translate(-1944.03 -766.549)"/></g><g transform="translate(80.71 107.576)"><path class="b" d="M1992.25,736.709a12.146,12.146,0,0,1,6.14-8.436c1.718-.948.182-3.581-1.539-2.632a15.084,15.084,0,0,0-7.541,10.258c-.382,1.916,2.555,2.736,2.939.81Z" transform="translate(-1989.276 -725.438)"/></g><g transform="translate(97.127 74.282)"><path class="b" d="M2027.946,673.543a34.786,34.786,0,0,0-3.55-12.863c-.872-1.757-3.5-.215-2.632,1.538a30.721,30.721,0,0,1,3.134,11.325c.153,1.943,3.2,1.959,3.048,0Z" transform="translate(-2021.591 -659.904)"/></g><g transform="translate(71.326 63.069)"><path class="b" d="M1981.285,643.555a50.467,50.467,0,0,1-7.814-5.344c-1.5-1.25-3.663.9-2.155,2.155a54.533,54.533,0,0,0,8.431,5.82c1.715.956,3.254-1.676,1.538-2.632Z" transform="translate(-1970.805 -637.833)"/></g><g transform="translate(64.714 73.235)"><g transform="translate(0 0)"><path class="b" d="M1957.839,659.743a13.519,13.519,0,0,0,6.331,8.534,1.525,1.525,0,0,0,1.538-2.632,10.46,10.46,0,0,1-4.93-6.712c-.456-1.907-3.4-1.1-2.939.81Z" transform="translate(-1957.791 -657.844)"/></g></g><g transform="translate(85.669 81.9)"><path class="b" d="M2000.992,676.776a12.029,12.029,0,0,1-1.686,10.6c-1.116,1.62,1.525,3.145,2.632,1.538a15,15,0,0,0,1.993-12.948c-.566-1.873-3.508-1.075-2.94.811Z" transform="translate(-1999.037 -674.899)"/></g><g transform="translate(57.192 94.529)"><path class="b" d="M1945.317,709.937a18.2,18.2,0,0,0,8.568-7.89c.948-1.719-1.683-3.258-2.632-1.538a15.551,15.551,0,0,1-7.475,6.8c-1.791.791-.241,3.418,1.538,2.632Z" transform="translate(-1942.984 -699.758)"/></g><g transform="translate(69.309 106.281)"><path class="b" d="M1970.247,724.358a8.588,8.588,0,0,1-2.928,6.046c-1.458,1.319.7,3.47,2.155,2.155a11.7,11.7,0,0,0,3.821-8.2c.1-1.961-2.951-1.955-3.048,0Z" transform="translate(-1966.835 -722.89)"/></g></g></g></svg>