<svg xmlns="http://www.w3.org/2000/svg" width="167" height="173.638" viewBox="0 0 167 173.638">
  <g id="Group_3348" data-name="Group 3348" transform="translate(-118 -58)">
    <circle id="Ellipse_2564" data-name="Ellipse 2564" cx="83.5" cy="83.5" r="83.5" transform="translate(118 58)" fill="#f4f0ed"/>
    <g id="Group_3347" data-name="Group 3347" transform="translate(-2357.268 -346.23)">
      <rect id="Rectangle_605" data-name="Rectangle 605" width="7.247" height="15.179" transform="translate(2565.465 483.075)" fill="#fcc39b"/>
      <rect id="Rectangle_606" data-name="Rectangle 606" width="7.247" height="7.842" transform="translate(2565.465 470.814)" fill="#fcc39b"/>
      <path id="Path_4382" data-name="Path 4382" d="M2571.651,466.395h-6.186V462.75h6.186Z" fill="#fcc39b"/>
      <path id="Path_4383" data-name="Path 4383" d="M2545.634,462.75h6.186v3.645h-6.186Z" fill="#fcc39b"/>
      <rect id="Rectangle_607" data-name="Rectangle 607" width="7.247" height="7.842" transform="translate(2544.574 470.814)" fill="#fcc39b"/>
      <rect id="Rectangle_608" data-name="Rectangle 608" width="7.247" height="15.179" transform="translate(2544.574 483.075)" fill="#fcc39b"/>
      <rect id="Rectangle_609" data-name="Rectangle 609" width="12.239" height="73.191" transform="translate(2539.581 502.672)" fill="#fcc39b"/>
      <rect id="Rectangle_610" data-name="Rectangle 610" width="12.239" height="73.191" transform="translate(2565.465 502.672)" fill="#fcc39b"/>
      <path id="Path_4385" data-name="Path 4385" d="M2596.913,570.364a3.856,3.856,0,0,0-1.938-3.161,3.076,3.076,0,0,0-5.958,1.074c0,.05,0,.1,0,.151a3.076,3.076,0,0,0,.948,6l.629,0,.512,0v2.2a.8.8,0,1,0,1.591,0v-2.2c.217,0,.405-.007.539-.014a3.872,3.872,0,0,0,3.673-4.06Zm-2.175,1.724a2.27,2.27,0,0,1-1.578.748c-.491.025-1.737.014-2.549.007l-.642,0a1.485,1.485,0,0,1-.006-2.97.8.8,0,0,0,.741-1.075,1.451,1.451,0,0,1-.1-.517,1.484,1.484,0,0,1,2.929-.34.8.8,0,0,0,.447.544,2.279,2.279,0,0,1,.754,3.607Z" fill="#540326"/>
      <path id="Path_4386" data-name="Path 4386" d="M2543.6,504.549a.8.8,0,0,0-.8.795v68a.8.8,0,1,0,1.59,0v-68A.8.8,0,0,0,2543.6,504.549Z" fill="#540326"/>
      <path id="Path_4387" data-name="Path 4387" d="M2548.065,504.549a.8.8,0,0,0-.795.795v68a.8.8,0,1,0,1.59,0v-68A.8.8,0,0,0,2548.065,504.549Z" fill="#540326"/>
      <path id="Path_4388" data-name="Path 4388" d="M2558.625,415.737l.018,0,.018,0a.8.8,0,0,0,.8-.8v-2.916a.8.8,0,0,0-.8-.8l-.018,0-.018,0a.8.8,0,0,0-.8.8v2.916A.8.8,0,0,0,2558.625,415.737Z" fill="#540326"/>
      <path id="Path_4389" data-name="Path 4389" d="M2580.223,498.254h-5.92V483.075h1.5a.8.8,0,0,0,.8-.8v-2.828a.8.8,0,0,0-.8-.8h-1.5v-7.842h1.5a.8.8,0,0,0,.8-.8V467.19a.8.8,0,0,0-.8-.8h-2.563V462.75h.265a.8.8,0,0,0,.8-.8v-2.828a.8.8,0,0,0-.8-.8h-8.042v-5.921c0-.016,0-.031,0-.047a.664.664,0,0,0-.01-.09c0-.024-.011-.048-.017-.072a.7.7,0,0,0-.059-.153c-.008-.015-.013-.031-.022-.046-1.345-2.253-1.3-8.409-1.171-10.591a.795.795,0,1,0-1.587-.1c-.019.3-.382,6.685.855,10.3h-1.52v-21.3a.795.795,0,1,0-1.59,0v21.3h-.884v-32.7a.8.8,0,0,0-.8-.8l-.018,0-.018,0a.8.8,0,0,0-.8.8v32.7h-.883v-21.3a.8.8,0,0,0-1.591,0v21.3h-1.519c1.237-3.614.874-10,.855-10.3a.795.795,0,1,0-1.587.1c.131,2.181.176,8.335-1.171,10.591-.009.015-.014.031-.022.046s-.025.051-.036.077-.016.05-.023.076-.013.048-.018.072-.007.06-.009.09,0,.031,0,.047v5.921h-8.041a.8.8,0,0,0-.8.8v2.828a.8.8,0,0,0,.8.8h.265v3.645h-2.563a.8.8,0,0,0-.795.8v2.828a.8.8,0,0,0,.795.8h1.5v7.842h-1.5a.8.8,0,0,0-.795.8v2.828a.8.8,0,0,0,.795.8h1.5v15.179h-5.92a.8.8,0,0,0-.795.8v2.828a.8.8,0,0,0,.795.795h.928v73.987a.8.8,0,0,0,.795.795H2578.5a.8.8,0,0,0,.795-.795V502.672h.928a.8.8,0,0,0,.8-.795v-2.828A.8.8,0,0,0,2580.223,498.254Zm-7.511,0h-7.247V483.075h7.247Zm-19.3,3.623V465.931h10.464V575.863h-10.464Zm21.6-20.393h-9.544v-1.237h9.544Zm-2.3-2.828h-7.247v-7.842h7.247Zm2.3-9.433h-9.544v-1.237h9.544Zm-3.358-2.828h-6.186V462.75h6.186Zm1.061-6.473v1.237h-7.247v-1.237Zm-14.087-6.716h5.25v11.135h-10.464V453.206Zm-14.051,6.716h7.246v1.237h-7.246Zm1.06,2.828h6.186v3.645h-6.186Zm-3.357,5.236h9.543v1.237h-9.543Zm2.3,2.828h7.246v7.842h-7.246Zm-2.3,9.433h9.543v1.237h-9.543Zm2.3,2.828h7.246v15.179h-7.246Zm-6.716,16.769h13.962v1.238h-13.962Zm1.723,2.828h12.239v73.191h-12.239Zm38.123,73.191h-12.239V502.672H2577.7Zm1.724-74.781h-13.963v-1.238h13.963Z" fill="#540326"/>
      <path id="Path_4390" data-name="Path 4390" d="M2573.684,574.14a.8.8,0,0,0,.795-.8v-68a.8.8,0,0,0-1.591,0v68A.8.8,0,0,0,2573.684,574.14Z" fill="#540326"/>
      <path id="Path_4391" data-name="Path 4391" d="M2569.221,574.14a.8.8,0,0,0,.8-.8v-68a.8.8,0,0,0-1.59,0v68A.8.8,0,0,0,2569.221,574.14Z" fill="#540326"/>
      <path id="Path_4392" data-name="Path 4392" d="M2594.738,572.088a2.27,2.27,0,0,1-1.578.748c-.491.025-1.737.014-2.549.007l-.642,0a1.485,1.485,0,0,1-.006-2.97.8.8,0,0,0,.741-1.075,1.451,1.451,0,0,1-.1-.517,1.484,1.484,0,0,1,2.929-.34.8.8,0,0,0,.447.544,2.279,2.279,0,0,1,.754,3.607Z" fill="#ffc299"/>
      <path id="Path_4393" data-name="Path 4393" d="M2558.625,453.206h5.25v11.135h-10.464V453.206Z" fill="#fcc39b"/>
      <path id="Path_4394" data-name="Path 4394" d="M0,.125l90.85.75" transform="translate(2513.357 575.985)" fill="none" stroke="#511228" stroke-linecap="round" stroke-width="2"/>
    </g>
  </g>
</svg>
