<svg xmlns="http://www.w3.org/2000/svg" width="167" height="168.846" viewBox="0 0 167 168.846"><defs><style>.a{fill:#f4f0ed;}.b{fill:#ffc299;}.c{fill:#540326;}.d{fill:#b72840;}</style></defs><g transform="translate(-118 -59)"><circle class="a" cx="83.5" cy="83.5" r="83.5" transform="translate(118 59)"/><g transform="translate(-3438.497 -691.226)"><path class="b" d="M3681.778,934.65l5.715,5.975a1,1,0,0,1-.723,1.691h-7.39v5.916a1,1,0,0,1-1,1H3673.3a1,1,0,0,1-1-1v-5.916h-3.942v5.916a1,1,0,0,1-1,1h-5.083a1,1,0,0,1-1-1v-5.916h-3.942v5.916a1,1,0,0,1-1,1h-5.083a1,1,0,0,1-1-1v-5.916H3644.3v5.916a1,1,0,0,1-1,1h-5.083a1,1,0,0,1-1-1v-5.916h-3.942v5.916a1,1,0,0,1-1,1h-5.083a1,1,0,0,1-1-1v-5.916h-3.942v5.916a1,1,0,0,1-1,1h-5.083a1,1,0,0,1-1-1v-5.916h-7.39a1,1,0,0,1-.722-1.691l5.714-5.975h-18.49v43.911h20.888v-5.916a1,1,0,0,1,1-1h5.083a1,1,0,0,1,1,1v5.916h3.942v-5.916a1,1,0,0,1,1-1h5.083a1,1,0,0,1,1,1v5.916h3.942v-5.916a1,1,0,0,1,1-1h5.083a1,1,0,0,1,1,1v5.916h5.947v-5.916a1,1,0,0,1,1-1h5.083a1,1,0,0,1,1,1v5.916h3.942v-5.916a1,1,0,0,1,1-1h5.083a1,1,0,0,1,1,1v5.916h3.942v-5.916a1,1,0,0,1,1-1h5.083a1,1,0,0,1,1,1v5.916h20.888V934.65Zm-76.456,11a1.111,1.111,0,1,1-1.112,1.111A1.112,1.112,0,0,1,3605.323,945.645Zm1,28.556h-2v-2.666h2Zm1.125-12.345h-4.25v-6.751h4.25Zm1-8.75h-7.723l.6-.625h7.985l.6.625Zm80.782-7.46a1.111,1.111,0,1,1-1.112,1.111A1.112,1.112,0,0,1,3689.229,945.645Zm1,28.556h-2v-2.666h2Zm1.125-12.345h-4.25v-6.751h4.25Zm1-8.75h-7.722l.6-.625h7.985l.605.625Z" transform="translate(-12.598 -61.49)"/><path class="b" d="M3610.26,903.936a4.59,4.59,0,0,1,1.168,2.517,5.892,5.892,0,0,1-1.025,2.916h-.284a5.924,5.924,0,0,1-1.025-2.916A4.553,4.553,0,0,1,3610.26,903.936Z" transform="translate(-17.537 -51.249)"/><path class="b" d="M3605.99,919.025h6.782l2.467,2.946v2.886h-17.581v-2.886l2.466-2.946Z" transform="translate(-13.724 -56.28)"/><path class="b" d="M3726,919.025h12.648l2.467,2.946v2.886h-17.581v-2.886Z" transform="translate(-55.692 -56.28)"/><path class="b" d="M3736.135,903.936a4.59,4.59,0,0,1,1.168,2.517,5.894,5.894,0,0,1-1.024,2.916h-.284a5.924,5.924,0,0,1-1.025-2.916A4.553,4.553,0,0,1,3736.135,903.936Z" transform="translate(-59.505 -51.249)"/><circle class="b" cx="0.875" cy="0.875" r="0.875" transform="translate(3675.756 842.581)"/><path class="b" d="M3698.51,928.649v-3.778a1,1,0,1,0-2,0v3.778H3695.2v-3.778a1,1,0,0,0-2,0v3.778h-1.3v-3.778a1,1,0,1,0-2,0v3.778h-1.306v-3.778a1,1,0,0,0-2,0v3.778h-1.66c.008-1.3.017-3.518-.007-4.47a5.823,5.823,0,0,0-.207-1.529h15.093v6Z" transform="translate(-42.752 -57.489)"/><path class="b" d="M3641.7,912.106l1.194-1.15a1,1,0,0,0,.306-.72v-2.61a1,1,0,0,0-.292-.707l-1.207-1.206v-.968h42.772v.968l-1.207,1.206a1,1,0,0,0-.293.707v2.61a1,1,0,0,0,.307.72l1.193,1.15v2.574h-15.907a4.428,4.428,0,0,0-1.648-.3h-.011a5.69,5.69,0,0,0-1.547-3.258,2.878,2.878,0,0,0-4.545,0,5.7,5.7,0,0,0-1.546,3.258,4.487,4.487,0,0,0-1.655.3H3641.7Z" transform="translate(-28.407 -51.519)"/><path class="b" d="M3640.2,922.65h15.095a5.774,5.774,0,0,0-.208,1.53c-.024.952-.015,3.165-.008,4.469h-1.66v-3.778a1,1,0,1,0-2,0v3.778h-1.3v-3.778a1,1,0,1,0-2,0v3.778h-1.306v-3.778a1,1,0,1,0-2,0v3.778h-1.3v-3.778a1,1,0,1,0-2,0v3.778H3640.2Z" transform="translate(-27.907 -57.489)"/><circle class="b" cx="0.875" cy="0.875" r="0.875" transform="translate(3591.85 842.581)"/><g transform="translate(3556.497 750.226)"><path class="c" d="M3781.7,947.549a1.082,1.082,0,1,0-1.082-1.082A1.083,1.083,0,0,0,3781.7,947.549Z" transform="translate(-3631.222 -815.295)"/><path class="c" d="M3607.143,756.267h4.359a7.154,7.154,0,0,0-.965,8.026h-3.394a1,1,0,1,0,0,2h3.678a1,1,0,0,0,.82-.43,7.307,7.307,0,0,0,5.394,2.375h13.813a10.227,10.227,0,1,0-14.281-14.485,7.308,7.308,0,0,0-2.253.514h-7.171a1,1,0,1,0,0,2Zm9.918-.527h0l.119.007a1.025,1.025,0,0,0,.958-.633,4.592,4.592,0,0,1,8.857,1.694l-.006.1a1,1,0,0,0,1.509.9,4.551,4.551,0,1,1,2.348,8.426h-13.813a5.25,5.25,0,1,1,.026-10.5Z" transform="translate(-3573.05 -750.226)"/><path class="c" d="M3605.333,763.237a1,1,0,0,0-1-1h-7.357a1,1,0,1,0,0,2h7.357A1,1,0,0,0,3605.333,763.237Z" transform="translate(-3569.66 -754.231)"/><path class="c" d="M3602.154,772.33a1,1,0,0,0-1-1h-.772a1,1,0,0,0,0,2h.772A1,1,0,0,0,3602.154,772.33Z" transform="translate(-3570.796 -757.262)"/><path class="c" d="M3617.6,752.226h.774a1,1,0,1,0,0-2h-.774a1,1,0,1,0,0,2Z" transform="translate(-3576.536 -750.226)"/><path class="c" d="M3749.364,767.217h.948v.949a1,1,0,1,0,2,0v-.949h.949a1,1,0,1,0,0-2h-.949v-.949a1,1,0,1,0-2,0v.949h-.948a1,1,0,1,0,0,2Z" transform="translate(-3620.468 -754.575)"/><path class="c" d="M3603.807,842.186a1,1,0,0,0,1-1v-.949h.948a1,1,0,1,0,0-2h-.948v-.948a1,1,0,1,0-2,0v.948h-.949a1,1,0,1,0,0,2h.949v.949A1,1,0,0,0,3603.807,842.186Z" transform="translate(-3571.288 -778.921)"/><path class="c" d="M3572.6,926.363v-.2h.2a1,1,0,1,0,0-2h-.2v-.2a1,1,0,1,0-2,0v.2h-.2a1,1,0,1,0,0,2h.2v.2a1,1,0,1,0,2,0Z" transform="translate(-3560.799 -807.818)"/><path class="c" d="M3769.275,875.485h-.2v-.2a1,1,0,1,0-2,0v.2h-.2a1,1,0,1,0,0,2h.2v.2a1,1,0,1,0,2,0v-.2h.2a1,1,0,1,0,0-2Z" transform="translate(-3626.306 -791.589)"/><path class="c" d="M3778.894,976.655a6.606,6.606,0,0,0,.261-1.845,6.709,6.709,0,1,0-13.419,0c0,.115,0,.23.011.349a5.838,5.838,0,0,0,3.73,10.327h2.173v4.374a1,1,0,1,0,2,0v-4.374h3.4a4.607,4.607,0,0,0,1.843-8.831Zm-1.843,6.831h-7.574a3.838,3.838,0,0,1-2.123-7.035,1,1,0,0,0,.435-.974,4.708,4.708,0,1,1,8.886,1.391,1,1,0,0,0,.754,1.428,2.608,2.608,0,0,1-.378,5.189Z" transform="translate(-3625.562 -822.868)"/><path class="c" d="M3612,958.7a1,1,0,0,0-.718-.3h-8.833a1,1,0,0,0-.719.3l-2.541,2.624a1,1,0,0,0,.719,1.7h2.833v7.75a1,1,0,0,0,1,1h6.249a1,1,0,0,0,1-1v-7.75h2.833a1,1,0,0,0,.718-1.7Zm-3.01,11.07h-4.25v-6.751h4.25Zm1-8.75h-7.722l.6-.625h7.985l.605.625Z" transform="translate(-3570.637 -819.634)"/><path class="c" d="M3610.345,882.4a1,1,0,0,0,1-1v-3.75a1,1,0,1,0-2,0v3.75A1,1,0,0,0,3610.345,882.4Z" transform="translate(-3574.118 -792.378)"/><path class="c" d="M3612.524,979.4H3603.8a1,1,0,0,0,0,2h8.722a1,1,0,0,0,0-2Z" transform="translate(-3571.936 -826.636)"/><path class="c" d="M3609.289,954.367a3.111,3.111,0,1,0-3.112-3.111A3.115,3.115,0,0,0,3609.289,954.367Zm0-4.222a1.111,1.111,0,1,1-1.112,1.111A1.112,1.112,0,0,1,3609.289,950.145Z" transform="translate(-3573.061 -816.215)"/><path class="c" d="M3611.345,986.984h-4a1,1,0,0,0-1,1v4.666a1,1,0,0,0,1,1h4a1,1,0,0,0,1-1v-4.666A1,1,0,0,0,3611.345,986.984Zm-1,4.666h-2v-2.666h2Z" transform="translate(-3573.117 -829.165)"/><path class="c" d="M3631.7,957.65h-5.083a1,1,0,0,0,0,2h5.083a1,1,0,0,0,0-2Z" transform="translate(-3579.543 -819.384)"/><path class="c" d="M3648.24,957.65h-5.083a1,1,0,0,0,0,2h5.083a1,1,0,1,0,0-2Z" transform="translate(-3585.058 -819.384)"/><path class="c" d="M3664.779,957.65H3659.7a1,1,0,0,0,0,2h5.083a1,1,0,1,0,0-2Z" transform="translate(-3590.572 -819.384)"/><path class="c" d="M3663.509,961.65a1,1,0,0,0-1,1v16.415a1,1,0,1,0,2,0V962.65A1,1,0,0,0,3663.509,961.65Z" transform="translate(-3591.843 -820.718)"/><path class="c" d="M3646.97,961.65a1,1,0,0,0-1,1v16.415a1,1,0,0,0,2,0V962.65A1,1,0,0,0,3646.97,961.65Z" transform="translate(-3586.329 -820.718)"/><path class="c" d="M3630.431,961.65a1,1,0,0,0-1,1v16.415a1,1,0,1,0,2,0V962.65A1,1,0,0,0,3630.431,961.65Z" transform="translate(-3580.814 -820.718)"/><path class="c" d="M3642.67,869.03v2.742H3638.2a1,1,0,0,0-1,1v1.916a1,1,0,1,0,2,0v-.917h1.639v.917a1,1,0,1,0,2,0v-.917h1.638v.917a1,1,0,1,0,2,0v-.917h1.639v.917a1,1,0,1,0,2,0v-.917h1.638v.917a1,1,0,1,0,2,0v-.917h1.639v.917a1,1,0,1,0,2,0v-.917h1.638v.917a1,1,0,1,0,2,0v-.917h1.113v.917a1,1,0,1,0,2,0v-.917h1.639v.917a1,1,0,1,0,2,0v-.917h1.638v.917a1,1,0,1,0,2,0v-.917h1.639v.917a1,1,0,1,0,2,0v-.917h1.638v.917a1,1,0,1,0,2,0v-.917h1.639v.917a1,1,0,1,0,2,0v-.917h1.638v.917a1,1,0,1,0,2,0v-1.916a1,1,0,0,0-1-1H3680.5V869.03c1.244-1.628,3.526-5.041.8-10.145-2.469-4.621-10.812-10.357-12.88-11.733v-3.71a1,1,0,0,0-1-1h-1.1v-2.083a1,1,0,0,0-1-1h-.818c0-.054,0-.1.005-.158.1-.1.186-.191.291-.3,1.722-1.729,4.325-4.341,3.6-7.544a2.57,2.57,0,0,0-2.157-1.908,4.363,4.363,0,0,0-2.695.411c-.583-1.461-1.267-1.9-1.607-2.023-.019-.007-.037-.009-.054-.015-.034-.011-.067-.019-.1-.027a.786.786,0,0,0-.1-.013.873.873,0,0,0-.094-.005.908.908,0,0,0-.1.006.681.681,0,0,0-.089.012.931.931,0,0,0-.105.028c-.018.005-.036.007-.052.014-.341.127-1.025.561-1.607,2.022a4.358,4.358,0,0,0-2.694-.41,2.568,2.568,0,0,0-2.158,1.908c-.727,3.2,1.876,5.815,3.6,7.544.1.1.193.2.29.3,0,.053,0,.1.005.158h-.818a1,1,0,0,0-1,1v2.083h-1.1a1,1,0,0,0-1,1v3.71c-2.069,1.376-10.411,7.112-12.881,11.733C3639.144,863.988,3641.424,867.4,3642.67,869.03Zm18.915,2.742H3644.67v-2.083H3678.5v2.083Zm-5.135-6.151a1.194,1.194,0,0,1,1.192-.683,1,1,0,0,0,.937-1.247c-.279-1.086,1.481-2.825,3.005-3.888,1.525,1.061,3.283,2.8,3,3.888a1,1,0,0,0,.936,1.247,1.2,1.2,0,0,1,1.193.683,2.32,2.32,0,0,1-.324,2.068h-9.619A2.316,2.316,0,0,1,3656.45,865.621Zm4.222-26.262c-.224-5.49.43-7.945.913-8.988.483,1.043,1.136,3.5.912,8.988h-1.824Zm5.192-7.94c.191.035.521.134.578.385.365,1.609-.716,3.176-1.913,4.494a26.189,26.189,0,0,0-.42-4.425A2.275,2.275,0,0,1,3665.864,831.418Zm-9.137.385c.057-.251.386-.35.577-.385a2.269,2.269,0,0,1,1.756.455,26.384,26.384,0,0,0-.421,4.425C3657.443,834.98,3656.362,833.412,3656.727,831.8Zm2.126,9.555h5.463v1.083h-5.463Zm-2.1,3.083h9.666v2.25h-9.666Zm-13.117,15.386c2.3-4.306,10.859-10.1,12.416-11.137h11.067c1.557,1.032,10.115,6.83,12.416,11.137,2.092,3.914.623,6.337-.528,7.861h-10.4a4.009,4.009,0,0,0-.046-2.858,3.029,3.029,0,0,0-1.958-1.73c-.31-2.7-4.016-5.055-4.49-5.345a.606.606,0,0,0-.056-.027c-.029-.015-.058-.03-.088-.043s-.066-.024-.1-.034-.055-.015-.083-.021a.823.823,0,0,0-.108-.015l-.083,0c-.037,0-.071,0-.107.006a.747.747,0,0,0-.085.012c-.036.007-.071.017-.105.027s-.052.017-.079.027-.072.033-.107.051c-.015.009-.031.013-.045.023-.474.291-4.18,2.647-4.49,5.345a3.029,3.029,0,0,0-1.958,1.73,4.015,4.015,0,0,0-.044,2.858h-10.406C3643.011,866.164,3641.543,863.742,3643.635,859.827Z" transform="translate(-3583.404 -776.084)"/><path class="c" d="M3649.511,909.4h-2.541a1,1,0,1,0,0,2h2.541a1,1,0,1,0,0-2Z" transform="translate(-3586.329 -803.297)"/><path class="c" d="M3658.915,909.4h-2.541a1,1,0,1,0,0,2h2.541a1,1,0,1,0,0-2Z" transform="translate(-3589.464 -803.297)"/><path class="c" d="M3665.778,911.4h2.542a1,1,0,1,0,0-2h-2.542a1,1,0,0,0,0,2Z" transform="translate(-3592.6 -803.297)"/><path class="c" d="M3701.252,917.191a.913.913,0,0,0-.02-.091,1,1,0,0,0-.03-.1c-.011-.029-.025-.059-.039-.087s-.029-.057-.047-.085-.039-.057-.059-.084-.021-.033-.035-.049l-2-2.3v-3.874a1,1,0,0,0-.233-.642l-1.75-2.09a.991.991,0,0,0,.2-1.546l-1.939-2a7.068,7.068,0,0,0,1.347-3.884c0-1.979-1.2-3.178-2.852-4.838-.611-.613-1.3-1.307-2.07-2.162-.569-.633-1.314-1.592-1.876-2.334a2.874,2.874,0,1,0-3.236,0c-.562.741-1.308,1.7-1.876,2.334-.767.855-1.459,1.549-2.069,2.162-1.656,1.66-2.851,2.859-2.851,4.838a7.079,7.079,0,0,0,1.345,3.884l-1.939,2a.99.99,0,0,0,.2,1.546l-.694.83a3.064,3.064,0,0,0,.044-.443,3,3,0,0,0-6,0,2.969,2.969,0,0,0,.333,1.345,1,1,0,0,0-1,1v5.833h-1.445v-7a1,1,0,0,0-1-1v-3a1,1,0,0,0-.306-.72l-1.194-1.15v-1.771l1.208-1.207a1,1,0,0,0,.292-.707V897.42a1,1,0,0,0-1-1h-44.772a1,1,0,0,0-1,1V899.8a1,1,0,0,0,.293.707l1.207,1.207v1.771l-1.193,1.15a1,1,0,0,0-.306.72v3a1,1,0,0,0-1,1v7h-1.444v-5.833a1,1,0,0,0-1-1,2.963,2.963,0,0,0,.333-1.345,3,3,0,0,0-6,0,2.871,2.871,0,0,0,.045.443l-.7-.83a.99.99,0,0,0,.2-1.546l-1.939-2a7.068,7.068,0,0,0,1.347-3.884c0-1.979-1.2-3.178-2.852-4.838-.611-.613-1.3-1.307-2.07-2.162-.568-.633-1.314-1.592-1.876-2.334a2.874,2.874,0,1,0-3.235,0c-.562.741-1.308,1.7-1.876,2.334-.767.855-1.459,1.549-2.07,2.162-1.656,1.66-2.851,2.859-2.851,4.838a7.079,7.079,0,0,0,1.345,3.884l-1.939,2a.991.991,0,0,0,.2,1.546l-1.75,2.09a.994.994,0,0,0-.233.642V914.4l-2,2.3c-.013.016-.022.033-.034.049a.825.825,0,0,0-.06.084c-.018.028-.032.057-.046.085s-.027.058-.039.087-.021.065-.03.1a.629.629,0,0,0-.02.091.965.965,0,0,0-.011.107c0,.019-.005.037-.005.056v45.911a1,1,0,0,0,1,1h107.987a1,1,0,0,0,1-1V917.355c0-.019-.005-.037-.006-.056A.861.861,0,0,0,3701.252,917.191ZM3673.3,926.02h3.083v4.916H3673.3Zm4.083-2H3609.12l5.42-5.666h63.471l5.419,5.666Zm-15.107,2h3.083v4.916h-3.083Zm-11.025,0h3.083v4.916h-3.083Zm-13.029,0h3.083v4.916h-3.083Zm-11.025,0h3.083v4.916h-3.083Zm-11.024,0h3.083v4.916h-3.083Zm-11.849-28.139a4.592,4.592,0,0,1,1.168,2.517,5.892,5.892,0,0,1-1.025,2.916h-.284a5.921,5.921,0,0,1-1.025-2.916A4.553,4.553,0,0,1,3604.321,897.881Zm-.666,7.433h5.992l.6.625h-11.861l.6-.625Zm.208,2.625h6.782l2.467,2.946v2.886h-17.581v-2.886l2.465-2.946Zm-8.877,7.832h18.126v.583h-18.634Zm45.789-3.835a2.121,2.121,0,0,1,.454-1.563,2.682,2.682,0,0,1,2.014-.251,1,1,0,0,0,1.143-1,3.958,3.958,0,0,1,1.037-2.915.958.958,0,0,1,1.705,0,3.955,3.955,0,0,1,1.035,2.915,1,1,0,0,0,1.144,1,2.68,2.68,0,0,1,2.013.251,2.116,2.116,0,0,1,.455,1.563c.023.917.015,3.124.006,4.419h-11.013C3640.761,915.06,3640.753,912.852,3640.775,911.937Zm41.128-4h12.648l2.467,2.946v2.886h-17.581v-2.886Zm6.324-10.058a4.588,4.588,0,0,1,1.168,2.517,5.9,5.9,0,0,1-1.024,2.916h-.284a5.926,5.926,0,0,1-1.024-2.916A4.553,4.553,0,0,1,3688.228,897.881Zm-.665,7.433h5.991l.6.625H3682.3l.6-.625Zm-8.125,10.457h18.126l.508.583h-18.634Zm8.791-28a.875.875,0,1,1-.875.875A.877.877,0,0,1,3688.229,887.775Zm-4.149,9.156c.628-.63,1.341-1.344,2.144-2.24.624-.7,1.419-1.717,2.006-2.492.586.775,1.38,1.8,2,2.492.8.9,1.515,1.61,2.143,2.24,1.613,1.617,2.269,2.317,2.269,3.426a5.273,5.273,0,0,1-1.144,2.958h-2.848a6.925,6.925,0,0,0,.741-2.916c0-2.368-2.234-4.5-2.488-4.734a.942.942,0,0,0-.135-.082,1.065,1.065,0,0,0-.17-.1.959.959,0,0,0-.184-.043,1.24,1.24,0,0,0-.561.043,1.031,1.031,0,0,0-.17.1.875.875,0,0,0-.136.083c-.255.235-2.488,2.366-2.488,4.734a6.918,6.918,0,0,0,.741,2.916h-2.848a5.27,5.27,0,0,1-1.142-2.958C3681.813,899.248,3682.467,898.548,3684.08,896.931Zm-8.308,10.246a1,1,0,1,1-1,1A1,1,0,0,1,3675.772,907.177Zm-1.667,4.345h3.333v4.833h-3.333Zm-6.75,4.833v-3.778a1,1,0,1,0-2,0v3.778h-1.306v-3.778a1,1,0,0,0-2,0v3.778h-1.3v-3.778a1,1,0,1,0-2,0v3.778h-1.306v-3.778a1,1,0,0,0-2,0v3.778h-1.66c.008-1.3.017-3.518-.007-4.47a5.823,5.823,0,0,0-.207-1.529h15.093v6Zm-42.467-10.573,1.194-1.15a1,1,0,0,0,.306-.72V901.3a1,1,0,0,0-.293-.707l-1.207-1.206v-.968h42.772v.968l-1.207,1.206a1,1,0,0,0-.293.707v2.61a1,1,0,0,0,.307.72l1.193,1.15v2.574h-15.907a4.426,4.426,0,0,0-1.648-.3h-.011a5.69,5.69,0,0,0-1.546-3.258,2.878,2.878,0,0,0-4.545,0,5.693,5.693,0,0,0-1.546,3.258,4.492,4.492,0,0,0-1.655.3h-15.912Zm-1,4.574h15.1a5.773,5.773,0,0,0-.208,1.53c-.024.952-.015,3.165-.008,4.469h-1.66v-3.778a1,1,0,1,0-2,0v3.778h-1.3v-3.778a1,1,0,1,0-2,0v3.778H3630.5v-3.778a1,1,0,1,0-2,0v3.778h-1.3v-3.778a1,1,0,1,0-2,0v3.778h-1.306Zm-8.776,6v-4.833h3.333v4.833Zm1.667-9.178a1,1,0,1,1-1,1A1,1,0,0,1,3616.779,907.177Zm-12.457-19.4a.875.875,0,1,1-.875.875A.877.877,0,0,1,3604.322,887.775Zm-4.149,9.156c.628-.63,1.341-1.344,2.144-2.24.624-.7,1.419-1.717,2.005-2.492.586.775,1.381,1.8,2,2.492.8.9,1.515,1.61,2.143,2.24,1.613,1.617,2.269,2.317,2.269,3.426a5.273,5.273,0,0,1-1.143,2.958h-2.848a6.932,6.932,0,0,0,.741-2.916c0-2.368-2.234-4.5-2.488-4.734a.857.857,0,0,0-.137-.083,1.187,1.187,0,0,0-.542-.175,1.02,1.02,0,0,0-.189.029,1.034,1.034,0,0,0-.184.043,1,1,0,0,0-.169.1.857.857,0,0,0-.137.083c-.255.235-2.488,2.366-2.488,4.734a6.918,6.918,0,0,0,.741,2.916h-2.849a5.274,5.274,0,0,1-1.142-2.958C3597.907,899.248,3598.561,898.548,3600.173,896.931Zm16,65.335V957.35h3.083v4.916Zm11.024,0V957.35h3.083v4.916Zm11.025,0V957.35h3.083v4.916Zm13.029,0V957.35h3.083v4.916Zm11.025,0V957.35h3.083v4.916Zm11.025,0V957.35h3.083v4.916Zm25.971,0h-20.888V956.35a1,1,0,0,0-1-1H3672.3a1,1,0,0,0-1,1v5.916h-3.942V956.35a1,1,0,0,0-1-1h-5.083a1,1,0,0,0-1,1v5.916h-3.942V956.35a1,1,0,0,0-1-1h-5.083a1,1,0,0,0-1,1v5.916H3643.3V956.35a1,1,0,0,0-1-1h-5.083a1,1,0,0,0-1,1v5.916h-3.942V956.35a1,1,0,0,0-1-1h-5.083a1,1,0,0,0-1,1v5.916h-3.942V956.35a1,1,0,0,0-1-1h-5.083a1,1,0,0,0-1,1v5.916h-20.888V918.354h18.49l-5.714,5.975a1,1,0,0,0,.723,1.691h7.39v5.916a1,1,0,0,0,1,1h5.083a1,1,0,0,0,1-1V926.02h3.942v5.916a1,1,0,0,0,1,1h5.083a1,1,0,0,0,1-1V926.02h3.942v5.916a1,1,0,0,0,1,1h5.083a1,1,0,0,0,1-1V926.02h5.947v5.916a1,1,0,0,0,1,1h5.083a1,1,0,0,0,1-1V926.02h3.942v5.916a1,1,0,0,0,1,1h5.083a1,1,0,0,0,1-1V926.02h3.942v5.916a1,1,0,0,0,1,1h5.083a1,1,0,0,0,1-1V926.02h7.39a1,1,0,0,0,.723-1.691l-5.715-5.975h18.491Z" transform="translate(-3568.095 -795.42)"/><path class="c" d="M3730.74,958.4h-2.417a1,1,0,0,0-.719.3l-2.541,2.624a1,1,0,0,0,.719,1.7h2.833v7.75a1,1,0,0,0,1,1h6.249a1,1,0,0,0,1-1v-7.75h2.833a1,1,0,0,0,.718-1.7l-2.541-2.624a1,1,0,0,0-.718-.3h-6.416Zm4.124,11.375h-4.25v-6.751h4.25Zm2.473-8.75h-9.195l.6-.625h7.985Z" transform="translate(-3612.605 -819.634)"/><path class="c" d="M3735.22,877.65v3.75a1,1,0,1,0,2,0v-3.75a1,1,0,1,0-2,0Z" transform="translate(-3616.086 -792.378)"/><path class="c" d="M3738.4,979.4h-8.721a1,1,0,0,0,0,2h8.721a1,1,0,0,0,0-2Z" transform="translate(-3613.905 -826.636)"/><path class="c" d="M3732.052,951.256a3.111,3.111,0,1,0,3.112-3.111A3.115,3.115,0,0,0,3732.052,951.256Zm3.112-1.111a1.111,1.111,0,1,1-1.112,1.111A1.112,1.112,0,0,1,3735.164,950.145Z" transform="translate(-3615.03 -816.215)"/><path class="c" d="M3737.219,986.984h-4a1,1,0,0,0-1,1v4.666a1,1,0,0,0,1,1h4a1,1,0,0,0,1-1v-4.666A1,1,0,0,0,3737.219,986.984Zm-1,4.666h-2v-2.666h2Z" transform="translate(-3615.086 -829.165)"/><path class="c" d="M3717.4,957.65h-5.083a1,1,0,0,0,0,2h5.083a1,1,0,1,0,0-2Z" transform="translate(-3608.118 -819.384)"/><path class="c" d="M3700.865,957.65h-5.083a1,1,0,0,0,0,2h5.083a1,1,0,0,0,0-2Z" transform="translate(-3602.604 -819.384)"/><path class="c" d="M3684.326,957.65h-5.083a1,1,0,1,0,0,2h5.083a1,1,0,0,0,0-2Z" transform="translate(-3597.089 -819.384)"/><path class="c" d="M3683.056,961.65a1,1,0,0,0-1,1v16.415a1,1,0,1,0,2,0V962.65A1,1,0,0,0,3683.056,961.65Z" transform="translate(-3598.36 -820.718)"/><path class="c" d="M3699.595,961.65a1,1,0,0,0-1,1v16.415a1,1,0,1,0,2,0V962.65A1,1,0,0,0,3699.595,961.65Z" transform="translate(-3603.875 -820.718)"/><path class="c" d="M3716.134,961.65a1,1,0,0,0-1,1v16.415a1,1,0,1,0,2,0V962.65A1,1,0,0,0,3716.134,961.65Z" transform="translate(-3609.389 -820.718)"/><path class="c" d="M3695.782,911.4h2.542a1,1,0,0,0,0-2h-2.542a1,1,0,0,0,0,2Z" transform="translate(-3602.604 -803.297)"/><path class="c" d="M3686.378,911.4h2.541a1,1,0,0,0,0-2h-2.541a1,1,0,1,0,0,2Z" transform="translate(-3599.468 -803.297)"/><path class="c" d="M3676.974,911.4h2.541a1,1,0,0,0,0-2h-2.541a1,1,0,1,0,0,2Z" transform="translate(-3596.333 -803.297)"/><path class="c" d="M3570.576,969.517a5.345,5.345,0,0,1-8.72,0,5.364,5.364,0,0,0-5.358,5.359,1,1,0,0,0,1,1h7.719V990.97a1,1,0,1,0,2,0V975.876h7.719a1,1,0,0,0,1-1A5.364,5.364,0,0,0,3570.576,969.517Zm-11.928,4.359a3.361,3.361,0,0,1,6.417,0Zm8.72,0a3.361,3.361,0,0,1,6.416,0Z" transform="translate(-3556.497 -823.341)"/></g><path class="b" d="M3619.854,756.741h0l.119.007a1.025,1.025,0,0,0,.957-.633,4.592,4.592,0,0,1,8.857,1.694l-.006.1a1,1,0,0,0,1.509.9,4.551,4.551,0,1,1,2.348,8.426h-13.814a5.25,5.25,0,1,1,.026-10.5Z" transform="translate(-19.345 -1)"/><path class="d" d="M3559.724,974.877a3.361,3.361,0,0,1,6.417,0Z" transform="translate(-1.076 -74.115)"/><path class="d" d="M3572.806,974.877a3.361,3.361,0,0,1,6.416,0Z" transform="translate(-5.438 -74.115)"/><path class="b" d="M3778.051,984.486h-7.574a3.838,3.838,0,0,1-2.123-7.035,1,1,0,0,0,.435-.974,4.668,4.668,0,0,1-.053-.667,4.71,4.71,0,1,1,9.419,0,4.649,4.649,0,0,1-.48,2.058,1,1,0,0,0,.754,1.428,2.608,2.608,0,0,1-.378,5.189Z" transform="translate(-70.065 -73.643)"/><path class="b" d="M3672.391,840.654c-.224-5.49.43-7.945.913-8.988.482,1.043,1.136,3.5.912,8.988h-1.824Z" transform="translate(-38.626 -27.153)"/><path class="b" d="M3679.324,833.223c.191.035.521.134.578.385.364,1.609-.716,3.176-1.913,4.494a26.214,26.214,0,0,0-.42-4.425A2.276,2.276,0,0,1,3679.324,833.223Z" transform="translate(-40.367 -27.662)"/><path class="b" d="M3666.459,833.608c.057-.251.386-.35.577-.385a2.27,2.27,0,0,1,1.756.455,26.354,26.354,0,0,0-.421,4.425C3667.175,836.784,3666.094,835.217,3666.459,833.608Z" transform="translate(-36.639 -27.662)"/><path class="b" d="M3646.326,870.287c2.3-4.306,10.859-10.1,12.416-11.137h11.067c1.557,1.032,10.115,6.83,12.416,11.137,2.092,3.914.624,6.337-.528,7.861h-10.4a4.009,4.009,0,0,0-.046-2.858,3.028,3.028,0,0,0-1.958-1.73c-.31-2.7-4.016-5.055-4.49-5.345-.018-.011-.038-.018-.056-.027s-.058-.03-.088-.043-.066-.024-.1-.034-.055-.015-.083-.021a.829.829,0,0,0-.108-.015l-.083,0c-.037,0-.071,0-.107.006a.734.734,0,0,0-.085.012,1.075,1.075,0,0,0-.105.027l-.079.027c-.037.015-.072.033-.106.051-.015.009-.031.013-.045.023-.474.291-4.18,2.647-4.49,5.345a3.03,3.03,0,0,0-1.958,1.73,4.015,4.015,0,0,0-.044,2.858h-10.405C3645.7,876.623,3644.234,874.2,3646.326,870.287Z" transform="translate(-29.598 -36.317)"/></g></g></svg>