<svg xmlns="http://www.w3.org/2000/svg" xmlns:xlink="http://www.w3.org/1999/xlink" width="1463.064" height="1420.836" viewBox="0 0 1463.064 1420.836"><defs><style>.a{opacity:0.3;}.b{fill:url(#a);}</style><linearGradient id="a" x1="0.116" y1="0.636" x2="0.766" y2="0.914" gradientUnits="objectBoundingBox"><stop offset="0" stop-color="#eee"/><stop offset="1" stop-color="#f5f5f5"/></linearGradient></defs><g class="a" transform="translate(1463.064 433.28) rotate(137)"><g transform="translate(0 156.411)"><path class="b" d="M1438.073,0C1317,0,1255.531,26.67,1196.088,52.466c-60.227,26.132-117.111,50.817-234.059,50.817S788.2,78.6,727.973,52.466C668.53,26.67,607.064,0,485.984,0S303.446,26.67,244.008,52.466C183.785,78.6,126.9,103.283,9.96,103.283a9.96,9.96,0,0,0,0,19.92c121.072,0,182.538-26.669,241.976-52.462C312.16,44.606,369.048,19.921,485.984,19.921s173.833,24.685,234.06,50.821C779.487,96.535,840.953,123.2,962.029,123.2s182.546-26.669,241.988-52.462c60.227-26.136,117.116-50.821,234.056-50.821a9.96,9.96,0,0,0,0-19.92Z" transform="translate(0 0)"/></g><g transform="translate(0 234.614)"><path class="b" d="M1438.073,0C1317,0,1255.531,26.674,1196.088,52.471c-60.227,26.131-117.111,50.817-234.059,50.817S788.2,78.6,727.973,52.471C668.53,26.674,607.064,0,485.984,0S303.446,26.674,244.008,52.471C183.785,78.6,126.9,103.287,9.96,103.287a9.96,9.96,0,0,0,0,19.921c121.072,0,182.538-26.674,241.976-52.467C312.163,44.606,369.048,19.92,485.984,19.92s173.833,24.686,234.06,50.821c59.443,25.793,120.908,52.467,241.984,52.467s182.546-26.674,241.988-52.467c60.227-26.135,117.116-50.821,234.056-50.821a9.96,9.96,0,0,0,0-19.92Z"/></g><g transform="translate(0 0)"><path class="b" d="M1438.073,0C1317,0,1255.531,26.67,1196.088,52.466c-60.227,26.131-117.111,50.821-234.059,50.821S788.2,78.6,727.973,52.466C668.53,26.67,607.064,0,485.984,0S303.446,26.67,244.008,52.466C183.785,78.6,126.9,103.287,9.96,103.287a9.96,9.96,0,1,0,0,19.92c121.072,0,182.538-26.673,241.976-52.466C312.16,44.606,369.048,19.921,485.984,19.921s173.833,24.685,234.06,50.821c59.443,25.793,120.908,52.466,241.984,52.466s182.546-26.673,241.988-52.466c60.227-26.135,117.116-50.821,234.056-50.821a9.96,9.96,0,0,0,0-19.92Z" transform="translate(0 0)"/></g><g transform="translate(0 78.203)"><path class="b" d="M1438.073,0C1317,0,1255.531,26.674,1196.088,52.471c-60.227,26.132-117.111,50.821-234.059,50.821S788.2,78.6,727.973,52.471C668.53,26.674,607.064,0,485.984,0S303.446,26.674,244.008,52.471C183.785,78.6,126.9,103.292,9.96,103.292a9.96,9.96,0,1,0,0,19.92c121.072,0,182.538-26.677,241.976-52.47,60.227-26.135,117.112-50.821,234.048-50.821s173.833,24.685,234.06,50.821c59.443,25.793,120.908,52.47,241.984,52.47s182.546-26.677,241.988-52.47c60.227-26.135,117.116-50.821,234.056-50.821a9.96,9.96,0,0,0,0-19.921Z"/></g><g transform="translate(0 312.813)"><path class="b" d="M1438.073,0C1317,0,1255.531,26.677,1196.088,52.47c-60.227,26.135-117.111,50.821-234.059,50.821S788.2,78.606,727.973,52.47C668.53,26.677,607.064,0,485.984,0S303.446,26.677,244.008,52.47C183.785,78.606,126.9,103.291,9.96,103.291a9.96,9.96,0,0,0,0,19.921c121.072,0,182.538-26.674,241.976-52.47,60.227-26.132,117.112-50.821,234.048-50.821s173.833,24.689,234.06,50.821c59.443,25.8,120.908,52.47,241.984,52.47s182.546-26.674,241.988-52.47c60.227-26.132,117.116-50.821,234.056-50.821a9.96,9.96,0,0,0,0-19.92Z" transform="translate(0 0)"/></g><g transform="translate(0 391.021)"><path class="b" d="M1438.073,0C1317,0,1255.531,26.677,1196.088,52.47c-60.227,26.135-117.111,50.821-234.059,50.821S788.2,78.606,727.973,52.47C668.53,26.677,607.064,0,485.984,0S303.446,26.677,244.008,52.47C183.785,78.606,126.9,103.291,9.96,103.291a9.96,9.96,0,1,0,0,19.92c121.072,0,182.538-26.673,241.976-52.47C312.163,44.609,369.048,19.92,485.984,19.92s173.833,24.689,234.06,50.821c59.443,25.8,120.908,52.47,241.984,52.47s182.546-26.673,241.988-52.47c60.227-26.132,117.116-50.821,234.056-50.821a9.96,9.96,0,0,0,0-19.92Z" transform="translate(0 0)"/></g><g transform="translate(0 469.224)"><path class="b" d="M1438.073,0C1317,0,1255.531,26.678,1196.088,52.471c-60.227,26.136-117.111,50.821-234.059,50.821S788.2,78.607,727.973,52.471C668.53,26.678,607.064,0,485.984,0S303.446,26.678,244.008,52.471C183.785,78.607,126.9,103.291,9.96,103.291a9.96,9.96,0,1,0,0,19.92c121.072,0,182.538-26.673,241.976-52.47C312.163,44.61,369.048,19.92,485.984,19.92s173.833,24.69,234.06,50.821c59.443,25.8,120.908,52.47,241.984,52.47s182.546-26.673,241.988-52.47c60.227-26.132,117.116-50.821,234.056-50.821a9.96,9.96,0,0,0,0-19.92Z"/></g></g></svg>