<svg xmlns="http://www.w3.org/2000/svg" width="167" height="169.169" viewBox="0 0 167 169.169"><defs><style>.a{fill:#f4f0ed;}.b{fill:#ffc299;}.c{fill:#540326;}.d{fill:#b72840;}</style></defs><g transform="translate(-118 -59)"><circle class="a" cx="83.5" cy="83.5" r="83.5" transform="translate(118 59)"/><g transform="translate(-4108.015 -678.034)"><g transform="translate(4261.475 737.034)"><path class="b" d="M4269.162,779.033c.007-3.542,4.948-5.809,6.259-6.348,1.31.539,6.25,2.807,6.258,6.348a3.934,3.934,0,0,1-2.789,3.91h-6.938A3.933,3.933,0,0,1,4269.162,779.033Z" transform="translate(-4266.019 -750.372)"/><rect class="b" width="5.321" height="5.711" transform="translate(6.741 34.449)"/><path class="b" d="M4269.161,804.2h12.518v5.164h-12.518Z" transform="translate(-4266.019 -762.161)"/><path class="b" d="M4400.869,779.033c.007-3.542,4.948-5.809,6.258-6.348,1.31.539,6.251,2.807,6.258,6.348a3.935,3.935,0,0,1-2.789,3.91h-6.938A3.932,3.932,0,0,1,4400.869,779.033Z" transform="translate(-4315.292 -750.372)"/><rect class="b" width="5.321" height="5.711" transform="translate(89.174 34.449)"/><path class="b" d="M4400.867,804.2h12.519v5.164h-12.519Z" transform="translate(-4315.291 -762.161)"/><rect class="b" width="7.485" height="13.3" transform="translate(5.659 53.226)"/><path class="b" d="M4282.943,854.3h-18.8v-7.98h18.8Z" transform="translate(-4264.14 -777.921)"/><rect class="b" width="7.485" height="13.3" transform="translate(88.092 53.226)"/><path class="b" d="M4414.65,854.3h-18.8v-7.98h18.8Z" transform="translate(-4313.414 -777.921)"/><path class="b" d="M4357.059,913.453h-1.01v-6.81c0-1.906-2.565-3.15-3.079-3.38a.945.945,0,0,0-.767,0c-.514.23-3.078,1.474-3.078,3.38v6.81h-1.565v-6.81c0-1.906-2.565-3.15-3.079-3.38a.945.945,0,0,0-.767,0c-.514.23-3.079,1.474-3.079,3.38v6.81h-1.564v-6.81c0-1.906-2.564-3.15-3.079-3.38a.942.942,0,0,0-.766,0c-.514.23-3.079,1.474-3.079,3.38v6.81h-1.564v-6.81c0-1.906-2.564-3.15-3.079-3.38a.946.946,0,0,0-.767,0c-.514.23-3.078,1.474-3.078,3.38v6.81h-1.565v-6.81c0-1.906-2.564-3.15-3.078-3.38a.945.945,0,0,0-.767,0c-.514.23-3.079,1.474-3.079,3.38v6.81h-1.564v-6.81c0-1.906-2.565-3.15-3.079-3.38a.944.944,0,0,0-.766,0c-.514.23-3.079,1.474-3.079,3.38v6.81h-1.564v-6.81c0-1.906-2.565-3.15-3.079-3.38a.944.944,0,0,0-.766,0c-.515.23-3.079,1.474-3.079,3.38v6.81h-1.011V897.076h59.876Z" transform="translate(-4276.501 -796.908)"/><rect class="b" width="18.803" height="7.25" transform="translate(82.434 109.295)"/><path class="b" d="M4401.984,871.469v-2.895h11.123v15.961h-11.123Z" transform="translate(-4315.709 -786.245)"/><path class="b" d="M4398.75,897.076h15.9v7.25h-18.8v-7.25Z" transform="translate(-4313.414 -796.908)"/><path class="b" d="M4291.046,874.7H4358.6v12.127h-67.557Z" transform="translate(-4274.206 -788.536)"/><path class="b" d="M4270.275,868.575H4281.4v15.961h-11.123Z" transform="translate(-4266.435 -786.245)"/><rect class="b" width="18.803" height="7.25" transform="translate(0 109.295)"/><path class="b" d="M4282.943,904.325h-18.8v-7.25h18.8Z" transform="translate(-4264.14 -796.908)"/><path class="b" d="M4310.848,932.742v44.8h2.452v-22.4c0-7.477,6.555-9.883,11.822-11.815,3.313-1.216,6.172-2.265,6.172-4.118a.939.939,0,1,1,1.877,0c0,1.853,2.86,2.9,6.172,4.118,5.267,1.933,11.822,4.338,11.822,11.815v22.4h2.452v-44.8Zm6.207,8.345a1.878,1.878,0,1,1,1.877-1.878A1.88,1.88,0,0,1,4317.055,941.087Zm30.355,0a1.878,1.878,0,1,1,1.878-1.878A1.88,1.88,0,0,1,4347.41,941.087Z" transform="translate(-4281.614 -810.251)"/><rect class="b" width="3.651" height="44.8" transform="translate(3.364 122.491)"/><rect class="b" width="3.651" height="44.8" transform="translate(15.152 122.491)"/><rect class="b" width="3.651" height="44.8" transform="translate(82.434 122.491)"/><rect class="b" width="3.651" height="44.8" transform="translate(94.222 122.491)"/><g transform="translate(121.59 167.291)"><path class="c" d="M4458.408,1004.321a.939.939,0,1,1,0,1.878" transform="translate(-4458.408 -1004.321)"/></g><g transform="translate(1.266)"><path class="c" d="M4311.03,753.931h6.909a.939.939,0,1,0,0-1.878h-6.909a.939.939,0,1,0,0,1.878Z" transform="translate(-4282.596 -742.653)"/><path class="c" d="M4320.943,759.524a.939.939,0,0,0-.939-.939h-3.454a.939.939,0,1,0,0,1.878H4320A.939.939,0,0,0,4320.943,759.524Z" transform="translate(-4284.662 -745.096)"/><path class="c" d="M4330.6,741.931h1.3a.939.939,0,1,0,0-1.878h-1.3a.939.939,0,1,0,0,1.878Z" transform="translate(-4289.917 -738.163)"/><path class="c" d="M4323.43,744.418h2.043a5.171,5.171,0,0,0,4.079,8.36h13.164a5.178,5.178,0,0,0,.941-10.271,6.853,6.853,0,0,0-13.417-.042,5.105,5.105,0,0,0-1.792.075h-5.018a.939.939,0,1,0,0,1.878Zm6.122-.121a3.271,3.271,0,0,1,1.157.213.94.94,0,0,0,1.268-.839,4.973,4.973,0,0,1,9.923-.224.939.939,0,0,0,.909.856,3.3,3.3,0,0,1-.092,6.6h-13.164a3.3,3.3,0,0,1,0-6.6Z" transform="translate(-4287.235 -737.034)"/><path class="c" d="M4334.249,827.052a.939.939,0,0,0,.939-.939v-.188h.189a.939.939,0,1,0,0-1.878h-.189v-.188a.939.939,0,0,0-1.878,0v.188h-.188a.939.939,0,0,0,0,1.878h.188v.188A.939.939,0,0,0,4334.249,827.052Z" transform="translate(-4290.862 -769.165)"/><path class="c" d="M4441.173,979.929a6.178,6.178,0,0,0,.246-1.733,6.3,6.3,0,0,0-12.6,0c0,.106,0,.215.01.327a5.481,5.481,0,0,0,3.5,9.7h2.041v4.106a.939.939,0,0,0,1.878,0V988.22h3.192a4.325,4.325,0,0,0,1.73-8.291Zm-1.73,6.413h-7.111a3.6,3.6,0,0,1-1.994-6.6.939.939,0,0,0,.409-.916,4.175,4.175,0,0,1-.051-.625,4.422,4.422,0,1,1,8.844,0,4.359,4.359,0,0,1-.451,1.932.939.939,0,0,0,.709,1.342,2.449,2.449,0,0,1-.356,4.873Z" transform="translate(-4326.277 -824.899)"/><path class="c" d="M4318.52,944.586a3.755,3.755,0,1,0-3.755-3.755A3.76,3.76,0,0,0,4318.52,944.586Zm0-5.633a1.878,1.878,0,1,1-1.877,1.878A1.88,1.88,0,0,1,4318.52,938.953Z" transform="translate(-4284.345 -811.872)"/><path class="c" d="M4367.02,944.586a3.755,3.755,0,1,0-3.755-3.755A3.759,3.759,0,0,0,4367.02,944.586Zm0-5.633a1.878,1.878,0,1,1-1.877,1.878A1.879,1.879,0,0,1,4367.02,938.953Z" transform="translate(-4302.489 -811.872)"/><path class="c" d="M4299.773,943.922h2.73a.938.938,0,0,0,.938-.943l-.015-4.134a2.289,2.289,0,0,0-4.578,0l-.014,4.138a.94.94,0,0,0,.938.942Zm.954-5.077a.411.411,0,1,1,.823,0l.011,3.2h-.845Z" transform="translate(-4278.385 -811.678)"/><path class="c" d="M4299.773,960.588h2.73a.938.938,0,0,0,.938-.943l-.015-4.134a2.289,2.289,0,0,0-4.578,0l-.014,4.138a.94.94,0,0,0,.938.942Zm.954-5.077a.411.411,0,1,1,.823,0l.011,3.2h-.845Z" transform="translate(-4278.385 -817.913)"/><path class="c" d="M4299.773,977.254h2.73a.938.938,0,0,0,.938-.943l-.015-4.134a2.289,2.289,0,0,0-4.578,0l-.014,4.138a.94.94,0,0,0,.938.942Zm.954-5.077a.411.411,0,1,1,.823,0l.011,3.2h-.845Z" transform="translate(-4278.385 -824.148)"/><path class="c" d="M4299.773,993.92h2.73a.938.938,0,0,0,.938-.943l-.015-4.134a2.289,2.289,0,0,0-4.578,0l-.014,4.138a.94.94,0,0,0,.938.942Zm.954-5.077a.411.411,0,1,1,.823,0l.011,3.2h-.845Z" transform="translate(-4278.385 -830.383)"/><path class="c" d="M4267.1,899.2a.939.939,0,0,0-.939.939v2.817a.939.939,0,0,0,1.878,0v-2.817A.939.939,0,0,0,4267.1,899.2Z" transform="translate(-4266.162 -797.702)"/><path class="c" d="M4272.851,899.2a.939.939,0,0,0-.939.939v2.817a.939.939,0,1,0,1.877,0v-2.817A.939.939,0,0,0,4272.851,899.2Z" transform="translate(-4268.313 -797.702)"/><path class="c" d="M4278.6,899.2a.939.939,0,0,0-.939.939v2.817a.939.939,0,1,0,1.877,0v-2.817A.939.939,0,0,0,4278.6,899.2Z" transform="translate(-4270.464 -797.702)"/><path class="c" d="M4284.351,899.2a.939.939,0,0,0-.939.939v2.817a.939.939,0,0,0,1.878,0v-2.817A.939.939,0,0,0,4284.351,899.2Z" transform="translate(-4272.615 -797.702)"/><path class="c" d="M4289.162,902.955a.939.939,0,1,0,1.877,0v-2.817a.939.939,0,1,0-1.877,0Z" transform="translate(-4274.767 -797.702)"/><path class="c" d="M4267.1,848.95a.939.939,0,0,0-.939.939v2.816a.939.939,0,0,0,1.878,0v-2.816A.939.939,0,0,0,4267.1,848.95Z" transform="translate(-4266.162 -778.903)"/><path class="c" d="M4272.851,848.95a.939.939,0,0,0-.939.939v2.816a.939.939,0,1,0,1.877,0v-2.816A.939.939,0,0,0,4272.851,848.95Z" transform="translate(-4268.313 -778.903)"/><path class="c" d="M4278.6,848.95a.939.939,0,0,0-.939.939v2.816a.939.939,0,1,0,1.877,0v-2.816A.939.939,0,0,0,4278.6,848.95Z" transform="translate(-4270.464 -778.903)"/><path class="c" d="M4284.351,848.95a.939.939,0,0,0-.939.939v2.816a.939.939,0,0,0,1.878,0v-2.816A.939.939,0,0,0,4284.351,848.95Z" transform="translate(-4272.615 -778.903)"/><path class="c" d="M4272.849,804.575a.939.939,0,0,0-.938.939v2.816a.939.939,0,1,0,1.877,0v-2.816A.939.939,0,0,0,4272.849,804.575Z" transform="translate(-4268.313 -762.302)"/><path class="c" d="M4278.6,804.575a.939.939,0,0,0-.938.939v2.816a.939.939,0,0,0,1.878,0v-2.816A.94.94,0,0,0,4278.6,804.575Z" transform="translate(-4270.463 -762.302)"/><path class="c" d="M4284.349,804.575a.939.939,0,0,0-.939.939v2.816a.939.939,0,1,0,1.877,0v-2.816A.939.939,0,0,0,4284.349,804.575Z" transform="translate(-4272.615 -762.302)"/><path class="c" d="M4290.1,853.644a.939.939,0,0,0,.938-.939v-2.816a.939.939,0,1,0-1.877,0v2.816A.939.939,0,0,0,4290.1,853.644Z" transform="translate(-4274.767 -778.903)"/><path class="c" d="M4267.1,918.776a.939.939,0,0,0,.939-.939v-2.816a.939.939,0,0,0-1.878,0v2.816A.939.939,0,0,0,4267.1,918.776Z" transform="translate(-4266.162 -803.27)"/><path class="c" d="M4272.851,918.776a.939.939,0,0,0,.938-.939v-2.816a.939.939,0,1,0-1.877,0v2.816A.939.939,0,0,0,4272.851,918.776Z" transform="translate(-4268.313 -803.27)"/><path class="c" d="M4278.6,918.776a.939.939,0,0,0,.938-.939v-2.816a.939.939,0,1,0-1.877,0v2.816A.939.939,0,0,0,4278.6,918.776Z" transform="translate(-4270.464 -803.27)"/><path class="c" d="M4284.351,918.776a.939.939,0,0,0,.939-.939v-2.816a.939.939,0,0,0-1.878,0v2.816A.939.939,0,0,0,4284.351,918.776Z" transform="translate(-4272.615 -803.27)"/><path class="c" d="M4290.1,918.776a.939.939,0,0,0,.938-.939v-2.816a.939.939,0,1,0-1.877,0v2.816A.939.939,0,0,0,4290.1,918.776Z" transform="translate(-4274.767 -803.27)"/><path class="c" d="M4278.6,761.507a.94.94,0,0,0,.939-.939v-4.929a.939.939,0,0,0-1.878,0v4.929A.939.939,0,0,0,4278.6,761.507Z" transform="translate(-4270.463 -743.643)"/><path class="c" d="M4299.982,883.826a.939.939,0,0,0-.939-.939H4294.7a.939.939,0,1,0,0,1.878h4.348A.939.939,0,0,0,4299.982,883.826Z" transform="translate(-4276.486 -791.6)"/><path class="c" d="M4306.267,884.765h4.348a.939.939,0,1,0,0-1.878h-4.348a.939.939,0,1,0,0,1.878Z" transform="translate(-4280.814 -791.6)"/><path class="c" d="M4317.837,884.765h4.349a.939.939,0,0,0,0-1.878h-4.349a.939.939,0,0,0,0,1.878Z" transform="translate(-4285.144 -791.6)"/><path class="c" d="M4329.409,884.765h4.349a.939.939,0,1,0,0-1.878h-4.349a.939.939,0,0,0,0,1.878Z" transform="translate(-4289.472 -791.6)"/><path class="c" d="M4340.98,884.765h4.348a.939.939,0,0,0,0-1.878h-4.348a.939.939,0,1,0,0,1.878Z" transform="translate(-4293.801 -791.6)"/><path class="c" d="M4352.551,884.765h4.348a.939.939,0,1,0,0-1.878h-4.348a.939.939,0,0,0,0,1.878Z" transform="translate(-4298.13 -791.6)"/><path class="c" d="M4364.123,884.765h4.348a.939.939,0,1,0,0-1.878h-4.348a.939.939,0,1,0,0,1.878Z" transform="translate(-4302.459 -791.6)"/><path class="c" d="M4375.695,884.765h4.348a.939.939,0,0,0,0-1.878h-4.348a.939.939,0,1,0,0,1.878Z" transform="translate(-4306.789 -791.6)"/><path class="c" d="M4387.266,884.765h4.348a.939.939,0,1,0,0-1.878h-4.348a.939.939,0,1,0,0,1.878Z" transform="translate(-4311.117 -791.6)"/><path class="c" d="M4363.84,929.742h-96.387a.939.939,0,0,0-.938.939v46.678a.939.939,0,0,0,.938.939h96.387a.939.939,0,0,0,.939-.939V930.681A.939.939,0,0,0,4363.84,929.742Zm-91.8,46.678h-3.651v-44.8h3.651Zm6.259,0h-4.381v-44.8h4.381Zm5.528,0h-3.651v-44.8h3.651Zm8.554,0h-6.676v-44.8h6.676Zm40.317,0h-34.111v-22.4c0-6.166,5.627-8.232,10.591-10.053,2.626-.964,5.15-1.89,6.464-3.411,1.314,1.521,3.838,2.447,6.464,3.411,4.964,1.821,10.591,3.887,10.591,10.053Zm4.329,0h-2.451v-22.4c0-7.477-6.555-9.883-11.822-11.815-3.312-1.216-6.172-2.265-6.172-4.118a.939.939,0,1,0-1.877,0c0,1.853-2.86,2.9-6.172,4.118-5.267,1.933-11.822,4.338-11.822,11.815v22.4h-2.452v-44.8h42.769Zm8.554,0h-6.675v-44.8h6.675Zm5.528,0h-3.651v-44.8h3.651Zm6.259,0h-4.381v-44.8h4.381Zm5.529,0h-3.651v-44.8h3.651Z" transform="translate(-4266.294 -809.129)"/><path class="c" d="M4384.774,943.922h2.742a.939.939,0,0,0,.939-.939.986.986,0,0,0-.013-.157l-.014-3.981a2.289,2.289,0,0,0-4.578,0l-.015,4.138a.939.939,0,0,0,.939.943Zm.954-5.077a.411.411,0,1,1,.823,0l.011,3.2h-.845Z" transform="translate(-4310.185 -811.678)"/><path class="c" d="M4384.774,960.588h2.742a.939.939,0,0,0,.939-.939.986.986,0,0,0-.013-.157l-.014-3.98a2.289,2.289,0,0,0-4.578,0l-.015,4.138a.939.939,0,0,0,.939.943Zm.954-5.077a.411.411,0,1,1,.823,0l.011,3.2h-.845Z" transform="translate(-4310.185 -817.913)"/><path class="c" d="M4384.774,977.254h2.742a.939.939,0,0,0,.939-.939.985.985,0,0,0-.013-.157l-.014-3.981a2.289,2.289,0,0,0-4.578,0l-.015,4.138a.939.939,0,0,0,.939.943Zm.954-5.077a.411.411,0,1,1,.823,0l.011,3.2h-.845Z" transform="translate(-4310.185 -824.148)"/><path class="c" d="M4384.774,993.92h2.742a.939.939,0,0,0,.939-.939.984.984,0,0,0-.013-.157l-.014-3.981a2.289,2.289,0,0,0-4.578,0l-.015,4.138a.939.939,0,0,0,.939.943Zm.954-5.077a.411.411,0,1,1,.823,0l.011,3.2h-.845Z" transform="translate(-4310.185 -830.383)"/><path class="c" d="M4421.808,903.894a.939.939,0,0,0,.938-.939v-2.817a.939.939,0,0,0-1.878,0v2.817A.939.939,0,0,0,4421.808,903.894Z" transform="translate(-4324.04 -797.702)"/><path class="c" d="M4416.058,903.894a.939.939,0,0,0,.938-.939v-2.817a.939.939,0,1,0-1.877,0v2.817A.939.939,0,0,0,4416.058,903.894Z" transform="translate(-4321.889 -797.702)"/><path class="c" d="M4410.308,903.894a.939.939,0,0,0,.938-.939v-2.817a.939.939,0,1,0-1.877,0v2.817A.939.939,0,0,0,4410.308,903.894Z" transform="translate(-4319.738 -797.702)"/><path class="c" d="M4404.558,903.894a.939.939,0,0,0,.938-.939v-2.817a.939.939,0,0,0-1.878,0v2.817A.939.939,0,0,0,4404.558,903.894Z" transform="translate(-4317.586 -797.702)"/><path class="c" d="M4398.808,903.894a.939.939,0,0,0,.938-.939v-2.817a.939.939,0,1,0-1.877,0v2.817A.939.939,0,0,0,4398.808,903.894Z" transform="translate(-4315.436 -797.702)"/><path class="c" d="M4421.808,848.95a.939.939,0,0,0-.939.939v2.816a.939.939,0,0,0,1.878,0v-2.816A.939.939,0,0,0,4421.808,848.95Z" transform="translate(-4324.04 -778.903)"/><path class="c" d="M4416.058,848.95a.939.939,0,0,0-.939.939v2.816a.939.939,0,1,0,1.877,0v-2.816A.939.939,0,0,0,4416.058,848.95Z" transform="translate(-4321.889 -778.903)"/><path class="c" d="M4410.308,848.95a.939.939,0,0,0-.939.939v2.816a.939.939,0,1,0,1.877,0v-2.816A.939.939,0,0,0,4410.308,848.95Z" transform="translate(-4319.738 -778.903)"/><path class="c" d="M4404.558,848.95a.939.939,0,0,0-.939.939v2.816a.939.939,0,0,0,1.878,0v-2.816A.939.939,0,0,0,4404.558,848.95Z" transform="translate(-4317.586 -778.903)"/><path class="c" d="M4415.121,805.514v2.816a.938.938,0,1,0,1.877,0v-2.816a.938.938,0,1,0-1.877,0Z" transform="translate(-4321.89 -762.302)"/><path class="c" d="M4410.31,804.575a.939.939,0,0,0-.939.939v2.816a.939.939,0,0,0,1.878,0v-2.816A.939.939,0,0,0,4410.31,804.575Z" transform="translate(-4319.738 -762.302)"/><path class="c" d="M4404.56,804.575a.939.939,0,0,0-.938.939v2.816a.939.939,0,1,0,1.877,0v-2.816A.939.939,0,0,0,4404.56,804.575Z" transform="translate(-4317.587 -762.302)"/><path class="c" d="M4398.808,848.95a.939.939,0,0,0-.939.939v2.816a.939.939,0,1,0,1.877,0v-2.816A.939.939,0,0,0,4398.808,848.95Z" transform="translate(-4315.436 -778.903)"/><path class="c" d="M4421.808,918.776a.939.939,0,0,0,.938-.939v-2.816a.939.939,0,0,0-1.878,0v2.816A.939.939,0,0,0,4421.808,918.776Z" transform="translate(-4324.04 -803.27)"/><path class="c" d="M4416.058,918.776a.939.939,0,0,0,.938-.939v-2.816a.939.939,0,1,0-1.877,0v2.816A.939.939,0,0,0,4416.058,918.776Z" transform="translate(-4321.889 -803.27)"/><path class="c" d="M4410.308,918.776a.939.939,0,0,0,.938-.939v-2.816a.939.939,0,1,0-1.877,0v2.816A.939.939,0,0,0,4410.308,918.776Z" transform="translate(-4319.738 -803.27)"/><path class="c" d="M4404.558,918.776a.939.939,0,0,0,.938-.939v-2.816a.939.939,0,0,0-1.878,0v2.816A.939.939,0,0,0,4404.558,918.776Z" transform="translate(-4317.586 -803.27)"/><path class="c" d="M4398.808,918.776a.939.939,0,0,0,.938-.939v-2.816a.939.939,0,1,0-1.877,0v2.816A.939.939,0,0,0,4398.808,918.776Z" transform="translate(-4315.436 -803.27)"/><path class="c" d="M4410.31,761.507a.939.939,0,0,0,.939-.939v-4.929a.939.939,0,0,0-1.878,0v4.929A.939.939,0,0,0,4410.31,761.507Z" transform="translate(-4319.738 -743.643)"/></g><path class="b" d="M4331.8,745.418a3.271,3.271,0,0,1,1.157.213.939.939,0,0,0,1.267-.839,4.974,4.974,0,0,1,9.924-.224.938.938,0,0,0,.909.856,3.3,3.3,0,0,1-.093,6.6H4331.8a3.3,3.3,0,0,1,0-6.6Z" transform="translate(-4288.217 -738.156)"/><path class="d" d="M4440.565,987.465h-7.111a3.6,3.6,0,0,1-1.994-6.6.938.938,0,0,0,.409-.916,4.244,4.244,0,0,1-.051-.625,4.422,4.422,0,1,1,8.845,0,4.366,4.366,0,0,1-.451,1.932.938.938,0,0,0,.708,1.342,2.449,2.449,0,0,1-.355,4.872Z" transform="translate(-4326.134 -826.021)"/></g><path class="c" d="M4263.458,796.412a.939.939,0,0,0,0,1.878h18.954a.939.939,0,0,0,0-1.878h-1.34v-5.164h1.34a.939.939,0,0,0,0-1.878h-4.939v-5.979a5.792,5.792,0,0,0,3.6-5.524c-.013-5.379-7.5-8.122-7.819-8.235-.016-.006-.031-.007-.046-.012s-.059-.016-.089-.023-.062-.011-.092-.014-.059,0-.089,0-.063,0-.095,0-.057.008-.085.014a.875.875,0,0,0-.1.024c-.014,0-.028.006-.042.011-.318.113-7.807,2.856-7.818,8.235a5.792,5.792,0,0,0,3.6,5.524v5.979h-4.938a.939.939,0,0,0,0,1.878h1.341v5.164Zm3.219-18.54c.007-3.542,4.948-5.809,6.259-6.348,1.31.54,6.25,2.807,6.258,6.348a3.934,3.934,0,0,1-2.789,3.91h-6.938A3.933,3.933,0,0,1,4266.677,777.872Zm8.919,5.788v5.711h-5.321v-5.711Zm-8.919,7.589h12.518v5.164h-12.518Z" transform="translate(-2.059 -12.176)"/><path class="c" d="M4400.1,783.391v5.979h-4.939a.939.939,0,0,0,0,1.878h1.341v5.164h-1.341a.939.939,0,0,0,0,1.878h18.954a.939.939,0,1,0,0-1.878h-1.339v-5.164h1.339a.939.939,0,1,0,0-1.878h-4.937v-5.979a5.793,5.793,0,0,0,3.6-5.524c-.012-5.379-7.5-8.122-7.819-8.235-.015-.005-.029-.007-.044-.011a.781.781,0,0,0-.093-.023.881.881,0,0,0-.09-.014c-.03,0-.06,0-.09,0s-.063,0-.095,0-.056.008-.083.014a.856.856,0,0,0-.1.024c-.014,0-.028.006-.042.011-.318.113-7.807,2.856-7.818,8.235A5.791,5.791,0,0,0,4400.1,783.391Zm10.8,7.857v5.164h-12.519v-5.164H4410.9Zm-8.92-1.878v-5.711h5.321v5.711Zm2.66-17.847c1.311.54,6.251,2.807,6.259,6.348a3.935,3.935,0,0,1-2.789,3.91h-6.938a3.932,3.932,0,0,1-2.79-3.91C4398.392,774.33,4403.333,772.063,4404.643,771.523Z" transform="translate(-51.333 -12.176)"/><path class="c" d="M4276.747,834.253V820.014a.939.939,0,0,0-.938-.939h-9.363a.939.939,0,0,0-.939.939v14.239h-6.881a.939.939,0,0,0,0,1.878h1.223v7.98h-1.223a.939.939,0,0,0,0,1.878h25a.939.939,0,1,0,0-1.878h-1.223v-7.98h1.223a.939.939,0,1,0,0-1.878h-6.882Zm-9.362-13.3h7.485v13.3h-7.485Zm13.144,23.158h-18.8v-7.98h18.8Z" transform="translate(-0.251 -30.693)"/><path class="c" d="M4390.333,844.11a.939.939,0,0,0,0,1.878h25a.939.939,0,1,0,0-1.878h-1.222v-7.98h1.222a.939.939,0,1,0,0-1.878h-6.88V820.014a.939.939,0,0,0-.939-.939h-9.363a.939.939,0,0,0-.939.939v14.239h-6.882a.939.939,0,0,0,0,1.878h1.223v7.98Zm8.76-23.158h7.485v13.3h-7.485Zm-5.659,15.178h18.8v7.98h-18.8Z" transform="translate(-49.525 -30.693)"/><path class="c" d="M4284.1,903.546h82.128a.939.939,0,0,0,0-1.878h-1.643v-7.25h1.643a.939.939,0,0,0,0-1.878h-1.643v-7.25h1.643a.939.939,0,0,0,0-1.878h-5.482v-16.9a.939.939,0,0,0-.938-.939h-13a.94.94,0,0,0-.939.939v2.895h-67.557v-2.895a.939.939,0,0,0-.938-.939h-13a.939.939,0,0,0-.938.939v16.9h-5.483a.939.939,0,0,0,0,1.878h1.644v7.25h-1.644a.939.939,0,0,0,0,1.878h1.644v7.25h-1.644a.939.939,0,0,0,0,1.878H4284.1Zm4.106-1.878h-3.168v-6.81c0-.384.775-1.035,1.584-1.475.811.44,1.584,1.091,1.584,1.475Zm8.489,0h-3.169v-6.81c0-.384.775-1.035,1.585-1.475.81.44,1.584,1.091,1.584,1.475Zm8.488,0h-3.168v-6.81c0-.384.775-1.035,1.584-1.475.811.44,1.584,1.091,1.584,1.475Zm8.489,0h-3.169v-6.81c0-.384.775-1.035,1.584-1.475.811.44,1.585,1.091,1.585,1.475Zm8.488,0H4319v-6.81c0-.384.774-1.035,1.584-1.475.81.44,1.584,1.091,1.584,1.475Zm8.489,0h-3.17v-6.81c0-.384.776-1.035,1.585-1.475.81.44,1.585,1.091,1.585,1.475Zm8.487,0h-3.168v-6.81c0-.384.774-1.035,1.584-1.475.811.44,1.584,1.091,1.584,1.475Zm2.889,0h-1.011v-6.81c0-1.906-2.564-3.15-3.078-3.38a.945.945,0,0,0-.767,0c-.515.23-3.078,1.474-3.078,3.38v6.81h-1.565v-6.81c0-1.906-2.564-3.15-3.078-3.38a.947.947,0,0,0-.768,0c-.514.23-3.078,1.474-3.078,3.38v6.81h-1.565v-6.81c0-1.906-2.564-3.15-3.078-3.38a.945.945,0,0,0-.767,0c-.514.23-3.078,1.474-3.078,3.38v6.81h-1.565v-6.81c0-1.906-2.564-3.15-3.078-3.38a.945.945,0,0,0-.767,0c-.514.23-3.079,1.474-3.079,3.38v6.81h-1.564v-6.81c0-1.906-2.564-3.15-3.079-3.38a.945.945,0,0,0-.767,0c-.514.23-3.078,1.474-3.078,3.38v6.81h-1.564v-6.81c0-1.906-2.565-3.15-3.079-3.38a.942.942,0,0,0-.766,0c-.515.23-3.08,1.474-3.08,3.38v6.81h-1.563v-6.81c0-1.906-2.565-3.15-3.08-3.38a.942.942,0,0,0-.766,0c-.515.23-3.079,1.474-3.079,3.38v6.81h-1.01V885.291h59.876Zm20.681,0h-18.8v-7.25h18.8Zm-14.963-31.321v-2.895h11.123v15.961h-11.123Zm-.938,14.944h15.9v7.25h-18.8v-7.25Zm-68.5-14h67.557v12.127h-67.557Zm-13-3.834h11.124v15.961h-11.124Zm14.964,34.215h-18.8v-7.25h18.8Zm0-9.127h-18.8v-7.25h18.8Z" transform="translate(0 -48.089)"/></g></g></svg>