<svg xmlns="http://www.w3.org/2000/svg" viewBox="0 0 119.14 122.24"><defs><style>.cls-1{fill:#fff;}.cls-2{fill:#e67a32;}.cls-3{fill:#2a2a2a;}</style></defs><g id="Layer_2" data-name="Layer 2"><g id="Layer_1-2" data-name="Layer 1"><ellipse class="cls-1" cx="59.57" cy="70.42" rx="48.4" ry="37.66"/><path class="cls-1" d="M109,53c4.89,5.08,7,11.8,6.08,20-1.76,15.29-23,33.39-48.79,34,32.14-5.69,39.17-31.46,39-39.41-.15-7.38-8.31-12.09-15-11.93a15.88,15.88,0,0,1-9.43,2.7c-5.74,0-11.47-2.12-13.64-4-4.47-3.9-5-7.33-4.66-9.51,0-.16.07-.3.1-.45H59.2c0,.15.07.29.1.45.34,2.18-.19,5.61-4.66,9.51-2.18,1.89-7.91,4-13.65,4a15.54,15.54,0,0,1-9.86-3c-3.93-3.17-5.57-7.75-6.26-11a25,25,0,0,0,5.37,13.32C23,53,14.59,60.52,15.71,76s18.41,27.33,28.68,30.1C18.19,104,6.67,84.84,4.44,71.45a29.69,29.69,0,0,1,4.7-20.94c-2.56-.52-5.81-2.22-8-7.1a12.39,12.39,0,0,1,.67-11.75C3.76,28.51,7,26.27,9.91,26.1a10.68,10.68,0,0,1,7.83,2.77,13.78,13.78,0,0,1,3.67,5.69A51.68,51.68,0,0,1,31.92,15.91C43.13,3.61,60,.22,64.6,0S67,3.65,63.94,5.17c2.71-1.06,8.54-1.81,12.22-.73s1.28,3.48-.81,4.69c4.19-1.09,6.57-1.08,7,.38.18.68-.46,2.22-2.87,3.14,11.66,1,18.83,11.16,21.49,21,2.76-4.94,5.86-6.37,8.13-6.62a8.39,8.39,0,0,1,7.54,3.51c2.75,3.92,4.14,12.49-.4,18.38A10.36,10.36,0,0,1,109,53Z"/><rect class="cls-2" x="55.43" y="110.14" width="9.37" height="9.37" rx="2.26"/><path class="cls-2" d="M81,120.5c-.71,1.46-2.46,1.92-5.84,1.24s-8.93-1.34-8.89-9.25c0-.84.55-1.72,2.22-2.35s9.38-2.93,11-3.18,4.73,0,4.89,2.77S81.47,119.61,81,120.5Z"/><path class="cls-2" d="M53.35,112.49c0,7.91-4.63,8.83-8,9.52s-7-.12-8.37-2.8a23.36,23.36,0,0,1-1.78-9.48c.16-2.77,3.22-3,4.89-2.77s9.37,2.56,11.05,3.18S53.39,111.65,53.35,112.49Z"/><path class="cls-3" d="M72.82,29.66A11.83,11.83,0,0,1,79,26.77a9.63,9.63,0,0,1,6.43,1.46,11.64,11.64,0,0,1,4.43,5.7,9.22,9.22,0,0,0-3.07-7.45A10.24,10.24,0,0,0,78.61,24a11.67,11.67,0,0,0-7.36,4.13A14.74,14.74,0,0,0,68,35.43c.77-1.08,1.46-2.16,2.28-3.12A21.4,21.4,0,0,1,72.82,29.66Z"/><path class="cls-3" d="M69,60.43a4.1,4.1,0,0,1-1.62,3.1,4.31,4.31,0,0,0,.73-3.05,3.92,3.92,0,0,0-1.51-2.43,7.06,7.06,0,0,0-2.75-1.21,14,14,0,0,0-3.13-.38A9.09,9.09,0,0,0,54.9,58a4.59,4.59,0,0,0-1.62,2.45,3.78,3.78,0,0,0,.48,3.07,3.73,3.73,0,0,1-1.36-3.2A5.27,5.27,0,0,1,53.94,57a7.54,7.54,0,0,1,3.22-1.86c.29-.09.59-.16.89-.23l.9-.13c.6-.1,1.2-.06,1.8-.1a14.87,14.87,0,0,1,3.55.53A7.8,7.8,0,0,1,67.54,57,4.73,4.73,0,0,1,69,60.43Z"/><path class="cls-3" d="M64.86,62.08a4.13,4.13,0,0,0-1.55.92,8,8,0,0,0-1.17,1.41A2.39,2.39,0,0,1,63,62.59a2.55,2.55,0,0,1,.89-.51A1.62,1.62,0,0,1,64.86,62.08Z"/><path class="cls-3" d="M58.26,64.27A9.84,9.84,0,0,0,57,63.2l-.63-.49a7.63,7.63,0,0,0-.69-.49,1.68,1.68,0,0,1,.89.11,2.69,2.69,0,0,1,.77.44A2.12,2.12,0,0,1,58.26,64.27Z"/><path class="cls-3" d="M91.17,61.85A39.72,39.72,0,0,1,78,70.45a45,45,0,0,1-7.62,2.32,52.8,52.8,0,0,1-7.91,1,60.38,60.38,0,0,1-8-.21,59,59,0,0,1-7.83-1.31A53.07,53.07,0,0,1,32,66.54a82.79,82.79,0,0,0,15,4,76.55,76.55,0,0,0,7.66.92,61.53,61.53,0,0,0,7.68.08A54,54,0,0,0,70,70.73a53.18,53.18,0,0,0,7.43-1.88A54.26,54.26,0,0,0,91.17,61.85Z"/><path class="cls-3" d="M69.72,80.49a11.5,11.5,0,0,0-4.16-.86c-1.41-.1-2.83-.11-4.25-.08s-2.83.12-4.25.27a38.16,38.16,0,0,0-4.27.67,11.8,11.8,0,0,1,4.07-1.79,20,20,0,0,1,4.42-.6,18.53,18.53,0,0,1,4.45.4c.37.08.73.19,1.09.29s.71.26,1.06.39A5.07,5.07,0,0,1,69.72,80.49Z"/><path class="cls-3" d="M116.19,48.92c4.54-5.89,3.15-14.46.4-18.38A8.39,8.39,0,0,0,109.05,27c-2.27.25-5.37,1.68-8.13,6.62-2.66-9.84-9.83-20-21.49-21,2.41-.92,3-2.46,2.87-3.14-.38-1.46-2.76-1.47-7-.38,2.09-1.21,4.49-3.6.81-4.69s-9.51-.33-12.22.73C67,3.65,69.24-.2,64.6,0s-21.47,3.6-32.68,15.9A51.68,51.68,0,0,0,21.41,34.56a13.78,13.78,0,0,0-3.67-5.69A10.68,10.68,0,0,0,9.91,26.1c-2.91.17-6.15,2.41-8.07,5.56a12.39,12.39,0,0,0-.67,11.75c2.16,4.88,5.41,6.58,8,7.1a29.69,29.69,0,0,0-4.7,20.94c2.23,13.39,13.75,32.59,40,34.68C34.12,103.36,16.83,91.54,15.71,76S23,53,30.24,57.59a25,25,0,0,1-5.37-13.32c.69,3.29,2.33,7.87,6.26,11a15.54,15.54,0,0,0,9.86,3c5.74,0,11.47-2.12,13.65-4,4.47-3.9,5-7.33,4.66-9.51,0-.16-.07-.3-.1-.45h3.51c0,.15-.08.29-.1.45-.34,2.18.19,5.61,4.66,9.51,2.17,1.89,7.9,4,13.64,4a15.88,15.88,0,0,0,9.43-2.7c6.66-.16,14.82,4.55,15,11.93.17,8-6.86,33.72-39,39.41,25.78-.58,47-18.68,48.79-34,1-8.19-1.19-14.91-6.08-20A10.36,10.36,0,0,0,116.19,48.92ZM19,44.87c-2.86-.6-5.81.9-8.32,3.68-2.05-.12-5.37-1.14-7.54-6a10.23,10.23,0,0,1,.54-9.72c1.54-2.53,4.14-4.38,6.33-4.52a8.39,8.39,0,0,1,6.23,2.22,13.2,13.2,0,0,1,3.92,8.3A46.54,46.54,0,0,0,19,44.87ZM53.2,52.66c-2.7,2.35-14.5,5.93-20.69,1-3.44-2.77-4.89-6.86-5.5-9.8a3.43,3.43,0,0,1,.54-2.67,3.37,3.37,0,0,1,2.27-1.44c.54-.09,1.05-.15,1.57-.22,0,.15-.05.3-.06.45.12-.17.24-.33.35-.5a67,67,0,0,1,8.64-.61c6.07,0,10.67,1,13.25,2.07a5.73,5.73,0,0,1,3.56,4.24C57.5,47.49,56.14,50.09,53.2,52.66Zm41.7-8.85c-.62,2.94-2.07,7-5.5,9.8-6.19,5-18,1.4-20.69-1-2.94-2.57-4.3-5.17-3.94-7.53a5.75,5.75,0,0,1,3.57-4.24c2.57-1.11,7.17-2.07,13.24-2.07a66.08,66.08,0,0,1,10.5.88,3.41,3.41,0,0,1,2.28,1.44A3.47,3.47,0,0,1,94.9,43.81Zm1.53-3.48a5.08,5.08,0,0,0-.27-.43,5.53,5.53,0,0,0-3.73-2.36c-11.73-1.9-20.59-.55-25,1.34a8.68,8.68,0,0,0-2.86,2H57.3a8.78,8.78,0,0,0-2.86-2C50.61,37.23,43.36,36,33.75,37a13.28,13.28,0,0,1,1.59-1.34,11.91,11.91,0,0,1,5.06-2,12.3,12.3,0,0,1,5.45.37,12.48,12.48,0,0,1,5,3,8.52,8.52,0,0,0-4.24-4.82,10.82,10.82,0,0,0-6.6-1,10.63,10.63,0,0,0-6,3,9.75,9.75,0,0,0-2,3.05c-.83.11-1.68.23-2.54.37a5.55,5.55,0,0,0-3.74,2.36,5.72,5.72,0,0,0-.95,2.51c0-6.57,3-12.6,8.47-16,9.7-5.94,23.26-.66,25.35,8.37C62.13,25,77.44,17.58,88.16,23,94.27,26.13,97.11,33.07,96.43,40.33Zm12,10.52a8.59,8.59,0,0,1-1.85-.06,31.17,31.17,0,0,0-5.23-3.33,23.88,23.88,0,0,0,.28-10.36c2.08-4.84,4.72-7.57,7.64-7.89a6.15,6.15,0,0,1,5.5,2.59c1.9,2.71,3.83,10.37-.34,15.79A8.18,8.18,0,0,1,108.46,50.85Z"/><path class="cls-3" d="M111.47,36a3.52,3.52,0,0,0-1.56.33,6.66,6.66,0,0,0-2.38,1.85,7.18,7.18,0,0,0-1.41,2.64,5.17,5.17,0,0,0-.05,2.94,15.57,15.57,0,0,1,1.12-2.5,15.14,15.14,0,0,1,1.48-2.12,11.83,11.83,0,0,1,1.82-1.79,4.08,4.08,0,0,1,1.05-.62.79.79,0,0,1,1,.29.89.89,0,0,0-.3-.73A1.54,1.54,0,0,0,111.47,36Z"/><path class="cls-3" d="M13.48,34.48a5.21,5.21,0,0,0-2.75-1.63,3.3,3.3,0,0,0-1.65,0,2.23,2.23,0,0,0-1.28.9,3.28,3.28,0,0,1,2.53.26,7.26,7.26,0,0,1,2,1.54,9.62,9.62,0,0,1,1.46,2.1,10.91,10.91,0,0,1,.91,2.62,4.56,4.56,0,0,0,.29-3A6.09,6.09,0,0,0,13.48,34.48Z"/><path class="cls-3" d="M79.52,43a5.83,5.83,0,0,0-4.46-.5A7.14,7.14,0,0,0,71.36,45a5.29,5.29,0,0,0-1.2,4.09,7,7,0,0,1,2-3.33,7.85,7.85,0,0,1,3.24-1.81,5.79,5.79,0,0,1,3.59.11,7.78,7.78,0,0,1,3.06,2.41A5.59,5.59,0,0,0,79.52,43Z"/><path class="cls-3" d="M43.44,42.53A5.83,5.83,0,0,0,39,43a5.59,5.59,0,0,0-2.57,3.43,7.78,7.78,0,0,1,3.06-2.41,5.79,5.79,0,0,1,3.59-.11,7.85,7.85,0,0,1,3.24,1.81,7,7,0,0,1,2,3.33A5.25,5.25,0,0,0,47.14,45,7.14,7.14,0,0,0,43.44,42.53Z"/><path class="cls-2" d="M53.2,52.66c-2.7,2.35-14.5,5.93-20.69,1-3.44-2.77-4.89-6.86-5.5-9.8a3.43,3.43,0,0,1,.54-2.67,3.37,3.37,0,0,1,2.27-1.44c.54-.09,1.81-.26,1.86-.27a67,67,0,0,1,8.64-.61c6.07,0,10.67,1,13.25,2.07a5.73,5.73,0,0,1,3.56,4.24C57.5,47.49,56.14,50.09,53.2,52.66Zm41.7-8.85c-.62,2.94-2.07,7-5.5,9.8-6.19,5-18,1.4-20.69-1-2.94-2.57-4.3-5.17-3.94-7.53a5.75,5.75,0,0,1,3.57-4.24c2.57-1.11,7.17-2.07,13.24-2.07a66.08,66.08,0,0,1,10.5.88,3.41,3.41,0,0,1,2.28,1.44A3.47,3.47,0,0,1,94.9,43.81Zm-70,.46a17.18,17.18,0,0,0,6.26,11,15.54,15.54,0,0,0,9.86,3c5.74,0,11.47-2.12,13.65-4,4.47-3.9,5-7.33,4.66-9.51,0-.16-.07-.3-.1-.45h3.51c0,.15-.08.29-.1.45-.34,2.18.19,5.61,4.66,9.51,2.17,1.89,7.9,4,13.64,4a15.88,15.88,0,0,0,9.43-2.7c3.79-3.34,6.7-8.15,6.28-14a7.35,7.35,0,0,0-.46-1.67,5.5,5.5,0,0,0-3.73-2.36c-11.73-1.9-20.59-.55-25,1.34a8.68,8.68,0,0,0-2.86,2H57.3a8.78,8.78,0,0,0-2.86-2C50.61,37.23,43.36,36,33.75,37c-.27,0-3.41.43-4.27.57a5.55,5.55,0,0,0-3.74,2.36,6.92,6.92,0,0,0-.87,3A10,10,0,0,0,24.87,44.27Z"/></g></g></svg>