<svg xmlns="http://www.w3.org/2000/svg" width="363.159" height="228.136" viewBox="0 0 363.159 228.136"><defs><style>.a{fill:#eb9348;}</style></defs><path class="a" d="M463.068,408.453c-.5-2.278-.772-3.991-1.261-5.64-2.6-8.76-5.258-17.5-7.885-26.253q-28.409-94.693-56.708-189.418c-1.391-4.678-3.255-6.372-8.326-6.316-26.31.291-52.627.248-78.938.026-4.51-.038-6.421,1.173-7.76,5.668q-29.385,98.737-59.17,197.354c-2.377,7.916-4.677,15.855-7.21,24.454,2.244.209,3.794.477,5.345.48,19.449.028,38.9-.093,58.346.109,4.105.042,5.584-1.546,6.64-5.286q18.951-67.115,38.2-134.144c1.567-5.485,3.275-10.93,5.261-17.531.786,2.4,1.175,3.459,1.485,4.542,13.878,48.629,27.831,97.237,41.5,145.925,1.417,5.048,3.544,6.626,8.736,6.534,18.462-.33,36.934-.12,55.4-.144C458.624,408.811,460.523,408.6,463.068,408.453Z" transform="translate(-235.811 -180.825)"/><path class="a" d="M466.841,181.288c.613,2.282,1.066,4.15,1.617,5.989q32.509,108.494,64.975,217c1.01,3.385,2.594,4.651,6.176,4.624,19.606-.153,39.212-.061,58.819-.1a48.994,48.994,0,0,0,5.008-.546c-.5-2.156-.774-3.73-1.229-5.251q-9.194-30.7-18.431-61.382Q560.346,263.6,536.971,185.566c-.971-3.248-2.255-4.738-5.993-4.7-19.767.206-39.539.09-59.308.109C470.241,180.978,468.812,181.155,466.841,181.288Z" transform="translate(-240.277 -180.826)"/></svg>