<svg xmlns="http://www.w3.org/2000/svg" width="167" height="168.662" viewBox="0 0 167 168.662"><defs><style>.a{fill:#f4f0ed;}.b{fill:#ffc299;}.c{fill:#540326;}.d{fill:#b72840;}</style></defs><g transform="translate(-118 -59)"><circle class="a" cx="83.5" cy="83.5" r="83.5" transform="translate(118 59)"/><g transform="translate(-3758.092 -667.468)"><path class="b" d="M4068.658,851.6c1.031.429,4.989,2.63,5.244,11.216h-10.488C4063.668,854.23,4067.625,852.029,4068.658,851.6Z" transform="translate(-72.674 -46.066)"/><path class="b" d="M3967.929,856.128c4.567-2.8,11.919-5.722,22.715-5.722,10.779,0,18.139,2.935,22.715,5.738V872.7q-2.611-.71-5.459-1.275V859.417a.879.879,0,0,0-.4-.734c-3.119-2.044-8.575-4.48-16.859-4.48s-13.74,2.436-16.859,4.48a.879.879,0,0,0-.4.734v12.006q-2.844.565-5.459,1.276Z" transform="translate(-33.094 -45.571)"/><path class="b" d="M3937.369,851.6c1.031.429,4.989,2.63,5.244,11.216h-10.488C3932.379,854.23,3936.336,852.029,3937.369,851.6Z" transform="translate(-18.252 -46.066)"/><path class="b" d="M3963.31,890.511c-16.535,2.062-27.665,8.316-33.958,13.045v-2.648a65.054,65.054,0,0,1,13.306-7.652c.032-.012.063-.026.093-.041,1.469-.631,3.018-1.238,4.65-1.808a.811.811,0,0,0,.127-.047,78.415,78.415,0,0,1,15.781-3.65Z" transform="translate(-17.103 -61.035)"/><path class="b" d="M3992.254,887.613c-.638.053-1.279.1-1.9.167v-6.15h1.9Z" transform="translate(-42.388 -58.514)"/><path class="b" d="M4021.754,887.782c-.623-.065-1.263-.117-1.9-.169V881.63h1.9Z" transform="translate(-54.617 -58.514)"/><path class="b" d="M4060.059,903.5a59.079,59.079,0,0,0-6.074-4.008,73.944,73.944,0,0,0-27.883-8.979v-2.8a78.407,78.407,0,0,1,15.781,3.65.849.849,0,0,0,.127.047c1.633.57,3.182,1.177,4.651,1.808.03.015.061.029.093.041a65.062,65.062,0,0,1,13.305,7.652Z" transform="translate(-57.207 -61.035)"/><path class="b" d="M3929.04,970.129h-2.146v-42.5c.568-.573,1.282-1.248,2.146-1.994Z" transform="translate(-16.084 -76.756)"/><path class="b" d="M3958.851,975.823h-.369a.878.878,0,1,0,0,1.756h.369v11.563h-7.172V977.579h.271a.878.878,0,1,0,0-1.756h-.271v-.732a3.586,3.586,0,1,1,7.172,0Z" transform="translate(-26.358 -95.769)"/><path class="b" d="M3983.351,975.823h-.464a.878.878,0,0,0,0,1.756h.464v11.563h-7.172V977.579h.369a.878.878,0,1,0,0-1.756h-.369v-.732a3.586,3.586,0,1,1,7.172,0Z" transform="translate(-36.514 -95.769)"/><path class="b" d="M4007.773,975.823h-.464a.878.878,0,1,0,0,1.756h.464v11.563H4000.6V977.579h.464a.878.878,0,0,0,0-1.756h-.464v-.732a3.586,3.586,0,0,1,7.172,0Z" transform="translate(-46.637 -95.769)"/><path class="b" d="M4032.2,975.823h-.369a.878.878,0,0,0,0,1.756h.369v11.563h-7.172V977.579h.464a.878.878,0,0,0,0-1.756h-.464v-.732a3.586,3.586,0,1,1,7.172,0Z" transform="translate(-56.761 -95.769)"/><path class="b" d="M4056.7,975.823h-.271a.878.878,0,1,0,0,1.756h.271v11.563h-7.172V977.579h.369a.878.878,0,0,0,0-1.756h-.369v-.732a3.586,3.586,0,0,1,7.172,0Z" transform="translate(-66.916 -95.769)"/><path class="b" d="M4019.235,960.031h-3.525V948.468h.556a.878.878,0,0,0,0-1.756h-.556v-14.3a.88.88,0,0,0-.424-.752c-7.319-4.43-20.007-9.71-38.888-9.71s-31.568,5.28-38.888,9.71a.88.88,0,0,0-.423.752v14.3h-.556a.878.878,0,0,0,0,1.756h.556v11.563h-3.526V914.1c6.9-5.364,20.507-12.827,42.838-12.827,22.305,0,35.928,7.475,42.838,12.841Z" transform="translate(-18.847 -66.657)"/><path class="b" d="M4085.04,970.137h-2.146V925.656c.864.744,1.579,1.417,2.146,1.988Z" transform="translate(-80.749 -76.764)"/><g transform="translate(4030.55 893.374)"><path class="c" d="M4131.41,1001.63a.878.878,0,0,1,0,1.756" transform="translate(-4131.41 -1001.63)"/></g><g transform="translate(3888.092 740.468)"><path class="c" d="M3901.787,941.875a.95.95,0,1,0,.95-.95A.951.951,0,0,0,3901.787,941.875Z" transform="translate(-3893.769 -823.561)"/><path class="c" d="M4047.712,757.244h6.462a.878.878,0,1,0,0-1.756h-6.462a.878.878,0,1,0,0,1.756Z" transform="translate(-3953.894 -746.694)"/><path class="c" d="M4056.462,762.02h-3.231a.879.879,0,0,0,0,1.757h3.231a.879.879,0,0,0,0-1.757Z" transform="translate(-3956.181 -749.402)"/><path class="c" d="M4067.278,743.488a.878.878,0,1,0,0,1.756h1.212a.878.878,0,1,0,0-1.756Z" transform="translate(-3962.004 -741.72)"/><path class="c" d="M4060.11,747.375h1.912a4.838,4.838,0,0,0,3.815,7.821h12.314a4.845,4.845,0,0,0,.881-9.608,6.411,6.411,0,0,0-12.55-.039,4.741,4.741,0,0,0-.645-.043,4.843,4.843,0,0,0-1.033.113h-4.695a.878.878,0,0,0,0,1.756Zm5.727-.113a3.061,3.061,0,0,1,1.082.2.88.88,0,0,0,1.186-.784,4.653,4.653,0,0,1,9.283-.21.878.878,0,0,0,.85.8,3.087,3.087,0,0,1-.086,6.172h-12.314a3.089,3.089,0,0,1,0-6.177Z" transform="translate(-3959.033 -740.468)"/><path class="c" d="M4088.893,809.514a.879.879,0,0,0,.878-.878V807.8h.833a.878.878,0,0,0,0-1.756h-.833v-.833a.878.878,0,0,0-1.757,0v.833h-.833a.878.878,0,0,0,0,1.756h.833v.834A.878.878,0,0,0,4088.893,809.514Z" transform="translate(-3970.254 -766.942)"/><path class="c" d="M3889.146,835.34a.878.878,0,1,0,1.756,0v-.176h.176a.878.878,0,1,0,0-1.756h-.176v-.176a.878.878,0,1,0-1.756,0v.176h-.176a.878.878,0,0,0,0,1.756h.176Z" transform="translate(-3888.092 -778.556)"/><path class="c" d="M3903.292,976.721a5.81,5.81,0,0,0,.229-1.621,5.894,5.894,0,0,0-11.788,0c0,.1,0,.2.009.305a5.128,5.128,0,0,0,3.278,9.072h1.909v3.841a.878.878,0,1,0,1.756,0v-3.841h2.987a4.047,4.047,0,0,0,1.619-7.756Zm-1.619,6h-6.652a3.37,3.37,0,0,1-1.865-6.179.879.879,0,0,0,.382-.858,3.989,3.989,0,0,1-.047-.584,4.137,4.137,0,0,1,8.275,0,4.085,4.085,0,0,1-.422,1.808.877.877,0,0,0,.663,1.254,2.291,2.291,0,0,1-.333,4.558Z" transform="translate(-3888.838 -835.285)"/><path class="c" d="M3953.792,823.6a.879.879,0,0,0,.671-.311,27.558,27.558,0,0,1,7.176-5.4,41.294,41.294,0,0,1,9.09-3.636.832.832,0,0,0,.143-.037,51.852,51.852,0,0,1,13.549-1.723c20.569,0,29.866,10.686,29.958,10.794a.878.878,0,0,0,1.342-1.133,24.138,24.138,0,0,0-4.317-3.741V799.192c0-11.877-6.5-13.8-6.782-13.874-.021-.006-.043-.006-.065-.01s-.052-.01-.078-.013a.738.738,0,0,0-.087,0c-.03,0-.06,0-.089,0l-.07.013c-.024,0-.049.005-.074.011-.277.077-6.782,2-6.782,13.874v13.036q-.546-.133-1.109-.256V791.655c0-20.7-11.138-24-11.612-24.128-.021-.005-.042-.006-.062-.01a.632.632,0,0,0-.081-.014.887.887,0,0,0-.1,0c-.025,0-.05,0-.075,0a.893.893,0,0,0-.1.016c-.018,0-.036,0-.054.009-.475.131-11.612,3.424-11.612,24.128v20.317q-.564.124-1.109.256V799.192c0-11.877-6.5-13.8-6.782-13.874-.021,0-.042-.006-.063-.01s-.053-.01-.08-.014-.058,0-.088,0-.059,0-.088,0l-.072.013c-.025,0-.049.005-.073.011-.277.077-6.783,2-6.783,13.874v19.222a24.144,24.144,0,0,0-4.317,3.741.879.879,0,0,0,.671,1.444Zm50.6-36.5c1.032.429,4.989,2.63,5.244,11.215h-10.488C3999.4,789.728,4003.356,787.528,4004.388,787.1Zm-5.258,12.972h10.516v17.185a41.543,41.543,0,0,0-10.516-4.564Zm-13.612,10.686c-.365-.006-.726-.018-1.1-.018s-.732.012-1.1.018V800.094a1.1,1.1,0,1,1,2.2,0Zm-1.1-41.457c1.539.557,9.8,4.353,10.074,21.477h-20.147C3974.624,773.654,3982.88,769.856,3984.42,769.3Zm-10.088,23.234h20.176v19.088a54.8,54.8,0,0,0-7.234-.809V800.094a2.854,2.854,0,1,0-5.708,0v10.718a54.8,54.8,0,0,0-7.233.809Zm-9.88-5.435c1.031.429,4.989,2.63,5.244,11.215h-10.488C3959.462,789.728,3963.42,787.528,3964.452,787.1Zm-5.258,12.972h10.516v12.621a41.555,41.555,0,0,0-10.516,4.564Z" transform="translate(-3914.962 -751.673)"/><path class="c" d="M3967.1,946.832a.878.878,0,0,0-.878.878v12.505a.878.878,0,1,0,1.756,0V947.71A.878.878,0,0,0,3967.1,946.832Z" transform="translate(-3920.478 -826.01)"/><path class="c" d="M3971.766,946.832a.878.878,0,0,0-.878.878v12.505a.878.878,0,1,0,1.756,0V947.71A.878.878,0,0,0,3971.766,946.832Z" transform="translate(-3922.413 -826.01)"/><path class="c" d="M3991.56,942a.879.879,0,0,0-.878.878v15.335a.878.878,0,1,0,1.756,0V942.877A.879.879,0,0,0,3991.56,942Z" transform="translate(-3930.618 -824.006)"/><path class="c" d="M3996.228,942a.879.879,0,0,0-.878.878v15.335a.878.878,0,1,0,1.756,0V942.877A.879.879,0,0,0,3996.228,942Z" transform="translate(-3932.552 -824.006)"/><path class="c" d="M3956.041,959.042a2.491,2.491,0,1,0,2.491,2.491A2.494,2.494,0,0,0,3956.041,959.042Zm0,3.226a.735.735,0,1,1,.734-.735A.735.735,0,0,1,3956.041,962.268Z" transform="translate(-3915.225 -831.071)"/><path class="c" d="M3980.541,959.042a2.491,2.491,0,1,0,2.491,2.491A2.494,2.494,0,0,0,3980.541,959.042Zm0,3.226a.735.735,0,1,1,.735-.735A.735.735,0,0,1,3980.541,962.268Z" transform="translate(-3925.381 -831.071)"/><path class="c" d="M4002.471,961.533a2.491,2.491,0,1,0,2.491-2.491A2.5,2.5,0,0,0,4002.471,961.533Zm3.226,0a.735.735,0,1,1-.735-.734A.735.735,0,0,1,4005.7,961.533Z" transform="translate(-3935.504 -831.071)"/><path class="c" d="M4005.247,863.3a2.09,2.09,0,1,0,2.09,2.091A2.093,2.093,0,0,0,4005.247,863.3Zm0,2.424a.334.334,0,1,1,.334-.334A.334.334,0,0,1,4005.247,865.727Z" transform="translate(-3935.789 -791.385)"/><path class="c" d="M3998.917,910.249a.879.879,0,0,0,.878-.878v-4.1a.878.878,0,0,0-1.756,0v4.1A.878.878,0,0,0,3998.917,910.249Z" transform="translate(-3933.667 -808.418)"/><path class="c" d="M3991.729,910.718a.879.879,0,0,0,.878-.878v-4.1a.878.878,0,1,0-1.756,0v4.1A.879.879,0,0,0,3991.729,910.718Z" transform="translate(-3930.688 -808.613)"/><path class="c" d="M3984.542,911.562a.879.879,0,0,0,.878-.878v-4.1a.878.878,0,1,0-1.756,0v4.1A.878.878,0,0,0,3984.542,911.562Z" transform="translate(-3927.709 -808.963)"/><path class="c" d="M3977.354,912.749a.879.879,0,0,0,.878-.878v-4.1a.878.878,0,1,0-1.756,0v4.1A.879.879,0,0,0,3977.354,912.749Z" transform="translate(-3924.729 -809.455)"/><path class="c" d="M3970.167,914.374a.879.879,0,0,0,.878-.878v-4.1a.878.878,0,0,0-1.757,0v4.1A.879.879,0,0,0,3970.167,914.374Z" transform="translate(-3921.75 -810.128)"/><path class="c" d="M3962.979,916.249a.879.879,0,0,0,.878-.878v-4.1a.878.878,0,0,0-1.756,0v4.1A.878.878,0,0,0,3962.979,916.249Z" transform="translate(-3918.771 -810.906)"/><path class="c" d="M3955.792,918.9a.879.879,0,0,0,.878-.878v-4.1a.878.878,0,0,0-1.757,0v4.1A.879.879,0,0,0,3955.792,918.9Z" transform="translate(-3915.791 -812.006)"/><path class="c" d="M3948.6,922a.879.879,0,0,0,.878-.878v-4.1a.878.878,0,0,0-1.757,0v4.1A.879.879,0,0,0,3948.6,922Z" transform="translate(-3912.812 -813.289)"/><path class="c" d="M3941.417,925.9a.878.878,0,0,0,.878-.878v-4.1a.878.878,0,1,0-1.756,0v4.1A.879.879,0,0,0,3941.417,925.9Z" transform="translate(-3909.832 -814.908)"/><path class="c" d="M3938.251,844.38a.878.878,0,1,0,0,1.756h2.635a.878.878,0,0,0,0-1.756Z" transform="translate(-3908.52 -783.541)"/><path class="c" d="M3939.5,840.63a.878.878,0,1,0,0,1.756h1.121a.878.878,0,0,0,0-1.756Z" transform="translate(-3909.039 -781.987)"/><path class="c" d="M3939.582,837.508a.9.9,0,0,0,.9.878.878.878,0,1,0,0-1.756h-.048A.859.859,0,0,0,3939.582,837.508Z" transform="translate(-3909.436 -780.329)"/><path class="c" d="M3940.5,876.974a.879.879,0,0,0-.878.878v7.459a.878.878,0,0,0,1.757,0v-7.459A.879.879,0,0,0,3940.5,876.974Z" transform="translate(-3909.453 -797.052)"/><path class="c" d="M3969.791,795.511h2.635a.878.878,0,0,0,0-1.756h-2.635a.878.878,0,1,0,0,1.756Z" transform="translate(-3921.594 -762.556)"/><path class="c" d="M3971.042,791.761h1.12a.878.878,0,1,0,0-1.756h-1.12a.878.878,0,1,0,0,1.756Z" transform="translate(-3922.112 -761.002)"/><path class="c" d="M3972.023,787.761a.878.878,0,1,0,0-1.756h-.048a.859.859,0,0,0-.854.878A.9.9,0,0,0,3972.023,787.761Z" transform="translate(-3922.509 -759.344)"/><path class="c" d="M4003.854,764.761h2.635a.878.878,0,0,0,0-1.756h-2.635a.878.878,0,0,0,0,1.756Z" transform="translate(-3935.714 -749.81)"/><path class="c" d="M4005.106,761.011h1.121a.878.878,0,0,0,0-1.756h-1.121a.878.878,0,0,0,0,1.756Z" transform="translate(-3936.233 -748.256)"/><path class="c" d="M4006.087,757.011a.878.878,0,0,0,0-1.756h-.048a.859.859,0,0,0-.854.878A.9.9,0,0,0,4006.087,757.011Z" transform="translate(-3936.629 -746.597)"/><path class="c" d="M3972.041,826.349a.879.879,0,0,0-.878.878v7.459a.878.878,0,0,0,1.757,0v-7.459A.879.879,0,0,0,3972.041,826.349Z" transform="translate(-3922.526 -776.067)"/><path class="c" d="M3971.285,898.275c-35.554,0-49.318,18.125-49.888,18.9a.877.877,0,0,0,1.391,1.068v41.426a.879.879,0,0,0,.878.878H4018.9a.879.879,0,0,0,.878-.878V918.239a.876.876,0,0,0,1.39-1.067C4020.6,916.4,4006.839,898.275,3971.285,898.275Zm-44.594,60.512h-2.146v-42.5c.568-.573,1.282-1.248,2.146-1.994Zm10.609,0h-3.57V947.224h3.57Zm8.929-13.32h-.369a.878.878,0,1,0,0,1.756h.369v11.563h-7.172V947.224h.271a.878.878,0,0,0,0-1.756h-.271v-.732a3.586,3.586,0,0,1,7.172,0Zm5.416,13.32h-3.659V947.224h3.659Zm8.929-13.32h-.464a.878.878,0,0,0,0,1.756h.464v11.563H3953.4V947.224h.369a.878.878,0,1,0,0-1.756h-.369v-.732a3.586,3.586,0,0,1,7.172,0Zm5.37,13.32h-3.614V947.224h3.614Zm8.929-13.32h-.464a.878.878,0,1,0,0,1.756h.464v11.563H3967.7V947.224h.464a.878.878,0,0,0,0-1.756h-.464v-.732a3.586,3.586,0,0,1,7.172,0Zm5.37,13.32h-3.613V947.224h3.613Zm8.929-13.32h-.369a.878.878,0,1,0,0,1.756h.369v11.563H3982V947.224h.463a.878.878,0,1,0,0-1.756H3982v-.732a3.586,3.586,0,1,1,7.172,0Zm5.416,13.32h-3.659V947.224h3.659Zm8.929-13.32h-.271a.878.878,0,0,0,0,1.756h.271v11.563h-7.172V947.224h.369a.878.878,0,1,0,0-1.756h-.369v-.732a3.586,3.586,0,1,1,7.172,0Zm5.327,13.32h-3.571V947.224h3.571Zm0-13.32h-3.571v-.732a5.343,5.343,0,0,0-10.685,0v.732h-3.659v-.732a5.343,5.343,0,0,0-10.685,0v.732h-3.613v-.732a5.343,5.343,0,0,0-10.685,0v.732h-3.614v-.732a5.343,5.343,0,0,0-10.685,0v.732h-3.659v-.732a5.343,5.343,0,0,0-10.685,0v.732h-3.57v-13.8c7.19-4.259,19.441-9.2,37.555-9.2s30.366,4.944,37.556,9.2Zm5.282,13.32H4010.6V947.224h.556a.878.878,0,0,0,0-1.756h-.556v-14.3a.88.88,0,0,0-.424-.752c-7.319-4.43-20.007-9.71-38.888-9.71s-31.568,5.28-38.888,9.71a.88.88,0,0,0-.423.752v14.3h-.556a.878.878,0,0,0,0,1.756h.556v11.563h-3.526V912.858c6.9-5.364,20.507-12.827,42.838-12.827,22.305,0,35.928,7.475,42.838,12.841Zm3.9,0h-2.146V914.306c.864.744,1.579,1.417,2.146,1.988Z" transform="translate(-3901.827 -805.882)"/><path class="c" d="M3940.005,926.98a.878.878,0,1,0,.909,1.5c7.129-4.314,19.5-9.457,37.979-9.457s30.851,5.142,37.979,9.457a.878.878,0,1,0,.909-1.5c-7.32-4.43-20.008-9.711-38.888-9.711S3947.325,922.55,3940.005,926.98Z" transform="translate(-3909.436 -813.755)"/><path class="c" d="M4017.782,939.651c-7.32-4.43-20.008-9.71-38.888-9.71s-31.569,5.279-38.888,9.71a.878.878,0,0,0,.455,1.629.862.862,0,0,0,.454-.127c7.129-4.313,19.5-9.456,37.979-9.456s30.851,5.142,37.979,9.456a.864.864,0,0,0,.454.127.878.878,0,0,0,.455-1.629Z" transform="translate(-3909.436 -819.008)"/><path class="c" d="M4045.109,961.094a.878.878,0,0,0,.878-.878V947.71a.878.878,0,1,0-1.756,0v12.505A.879.879,0,0,0,4045.109,961.094Z" transform="translate(-3952.814 -826.01)"/><path class="c" d="M4040.442,961.094a.878.878,0,0,0,.878-.878V947.71a.878.878,0,1,0-1.756,0v12.505A.879.879,0,0,0,4040.442,961.094Z" transform="translate(-3950.88 -826.01)"/><path class="c" d="M4020.648,959.09a.879.879,0,0,0,.878-.878V942.877a.878.878,0,1,0-1.757,0v15.335A.879.879,0,0,0,4020.648,959.09Z" transform="translate(-3942.675 -824.006)"/><path class="c" d="M4015.981,959.09a.879.879,0,0,0,.878-.878V942.877a.878.878,0,1,0-1.757,0v15.335A.879.879,0,0,0,4015.981,959.09Z" transform="translate(-3940.74 -824.006)"/><path class="c" d="M4053.884,964.024a2.491,2.491,0,1,0-2.491-2.492A2.495,2.495,0,0,0,4053.884,964.024Zm0-3.226a.735.735,0,1,1-.735.734A.735.735,0,0,1,4053.884,960.8Z" transform="translate(-3955.783 -831.071)"/><path class="c" d="M4029.384,964.024a2.491,2.491,0,1,0-2.491-2.492A2.495,2.495,0,0,0,4029.384,964.024Zm0-3.226a.735.735,0,1,1-.735.734A.735.735,0,0,1,4029.384,960.8Z" transform="translate(-3945.628 -831.071)"/><path class="c" d="M4005.226,905.022v4.1a.878.878,0,1,0,1.756,0v-4.1a.878.878,0,1,0-1.756,0Z" transform="translate(-3936.646 -808.315)"/><path class="c" d="M4013.292,910.249a.879.879,0,0,0,.878-.878v-4.1a.878.878,0,1,0-1.756,0v4.1A.879.879,0,0,0,4013.292,910.249Z" transform="translate(-3939.626 -808.418)"/><path class="c" d="M4020.479,910.718a.879.879,0,0,0,.878-.878v-4.1a.878.878,0,0,0-1.757,0v4.1A.878.878,0,0,0,4020.479,910.718Z" transform="translate(-3942.605 -808.613)"/><path class="c" d="M4027.667,911.562a.878.878,0,0,0,.878-.878v-4.1a.878.878,0,1,0-1.756,0v4.1A.879.879,0,0,0,4027.667,911.562Z" transform="translate(-3945.584 -808.963)"/><path class="c" d="M4034.854,912.749a.879.879,0,0,0,.878-.878v-4.1a.878.878,0,0,0-1.757,0v4.1A.879.879,0,0,0,4034.854,912.749Z" transform="translate(-3948.564 -809.455)"/><path class="c" d="M4042.042,914.374a.879.879,0,0,0,.878-.878v-4.1a.878.878,0,0,0-1.757,0v4.1A.879.879,0,0,0,4042.042,914.374Z" transform="translate(-3951.543 -810.128)"/><path class="c" d="M4049.229,916.249a.879.879,0,0,0,.878-.878v-4.1a.878.878,0,0,0-1.756,0v4.1A.878.878,0,0,0,4049.229,916.249Z" transform="translate(-3954.523 -810.906)"/><path class="c" d="M4056.417,918.9a.879.879,0,0,0,.878-.878v-4.1a.878.878,0,0,0-1.757,0v4.1A.879.879,0,0,0,4056.417,918.9Z" transform="translate(-3957.502 -812.006)"/><path class="c" d="M4063.6,922a.879.879,0,0,0,.878-.878v-4.1a.878.878,0,1,0-1.756,0v4.1A.879.879,0,0,0,4063.6,922Z" transform="translate(-3960.481 -813.289)"/><path class="c" d="M4070.792,925.9a.879.879,0,0,0,.878-.878v-4.1a.878.878,0,0,0-1.757,0v4.1A.879.879,0,0,0,4070.792,925.9Z" transform="translate(-3963.461 -814.908)"/><path class="c" d="M4068.58,845.258a.879.879,0,0,0,.878.878h2.635a.878.878,0,0,0,0-1.756h-2.635A.879.879,0,0,0,4068.58,845.258Z" transform="translate(-3962.908 -783.541)"/><path class="c" d="M4069.914,841.508a.879.879,0,0,0,.878.878h1.12a.878.878,0,0,0,0-1.756h-1.12A.879.879,0,0,0,4069.914,841.508Z" transform="translate(-3963.461 -781.987)"/><path class="c" d="M4071.756,838.386a.859.859,0,0,0,.854-.878.9.9,0,0,0-.9-.878.878.878,0,1,0,0,1.756Z" transform="translate(-3963.84 -780.329)"/><path class="c" d="M4071.708,876.974a.879.879,0,0,0-.878.878v7.459a.878.878,0,0,0,1.757,0v-7.459A.879.879,0,0,0,4071.708,876.974Z" transform="translate(-3963.84 -797.052)"/><path class="c" d="M4037.919,795.511h2.635a.878.878,0,1,0,0-1.756h-2.635a.878.878,0,0,0,0,1.756Z" transform="translate(-3949.834 -762.556)"/><path class="c" d="M4039.253,791.761h1.121a.878.878,0,0,0,0-1.756h-1.121a.878.878,0,0,0,0,1.756Z" transform="translate(-3950.387 -761.002)"/><path class="c" d="M4040.169,787.761h.048a.858.858,0,0,0,.854-.878.9.9,0,0,0-.9-.878.878.878,0,1,0,0,1.756Z" transform="translate(-3950.767 -759.344)"/><path class="c" d="M4040.169,826.349a.879.879,0,0,0-.878.878v7.459a.878.878,0,0,0,1.757,0v-7.459A.879.879,0,0,0,4040.169,826.349Z" transform="translate(-3950.767 -776.067)"/><path class="c" d="M4106.092,973.623a4.7,4.7,0,0,1-7.659,0,4.713,4.713,0,0,0-4.707,4.708.879.879,0,0,0,.878.878h6.78v11.5a.878.878,0,1,0,1.756,0v-11.5h6.78a.878.878,0,0,0,.878-.878A4.712,4.712,0,0,0,4106.092,973.623Zm-10.477,3.83a2.952,2.952,0,0,1,5.636,0Zm7.659,0a2.951,2.951,0,0,1,5.635,0Z" transform="translate(-3973.331 -837.115)"/></g><path class="b" d="M4068.328,748.505a3.06,3.06,0,0,1,1.082.2.88.88,0,0,0,1.186-.785,4.653,4.653,0,0,1,9.283-.21.878.878,0,0,0,.85.8,3.087,3.087,0,0,1-.086,6.172h-12.314a3.089,3.089,0,0,1,0-6.177Z" transform="translate(-73.431 -1.244)"/><path class="b" d="M3902.916,983.965h-6.652a3.37,3.37,0,0,1-1.865-6.179.88.88,0,0,0,.382-.858,3.989,3.989,0,0,1-.047-.584,4.137,4.137,0,0,1,8.275,0,4.088,4.088,0,0,1-.422,1.808.877.877,0,0,0,.663,1.254,2.291,2.291,0,0,1-.333,4.558Z" transform="translate(-1.99 -96.06)"/><path class="d" d="M4096.953,978.7a2.952,2.952,0,0,1,5.636,0Z" transform="translate(-86.577 -97.891)"/><path class="d" d="M4110.035,978.7a2.951,2.951,0,0,1,5.635,0Z" transform="translate(-92 -97.891)"/><path class="b" d="M4037.119,800.974c1.032.429,4.989,2.63,5.244,11.215h-10.488C4032.13,803.6,4036.087,801.4,4037.119,800.974Z" transform="translate(-59.601 -25.081)"/><path class="b" d="M4007.047,833.056c-.366-.006-.726-.018-1.1-.018s-.732.012-1.1.018V822.394a1.1,1.1,0,0,1,2.2,0Z" transform="translate(-48.399 -33.505)"/><path class="b" d="M3999.594,770.574c1.54.557,9.8,4.353,10.074,21.477H3989.52C3989.8,774.928,3998.054,771.131,3999.594,770.574Z" transform="translate(-42.044 -12.479)"/><path class="b" d="M3968.908,800.974c1.032.429,4.989,2.63,5.244,11.215h-10.488C3963.919,803.6,3967.876,801.4,3968.908,800.974Z" transform="translate(-31.326 -25.081)"/><path class="c" d="M4021.53,893.79a.877.877,0,0,0,.132-1.234,34.282,34.282,0,0,0-4.563-4.383v-4.409a.878.878,0,0,0-.346-.7c-.4-.307-.827-.621-1.264-.937V861.955c0-11.47-6.066-13.653-6.73-13.858l-.006,0-.046-.013a.253.253,0,0,0-.042-.007.759.759,0,0,0-.109-.019c-.023,0-.045,0-.068,0a.992.992,0,0,0-.1,0l-.073.013a.542.542,0,0,0-.069.012c-.277.076-6.783,2-6.783,13.873v12.453c-.982-.4-1.995-.794-3.045-1.17V859.463c.24.271.367.435.377.448a.878.878,0,0,0,1.414-1.043c-.346-.469-8.693-11.463-30.165-11.463s-29.819,10.994-30.164,11.463a.878.878,0,0,0,1.415,1.042c.009-.012.135-.177.375-.449v13.777c-1.05.376-2.062.767-3.045,1.17V861.955c0-11.48-6.076-13.657-6.733-13.86h0l-.047-.013c-.015,0-.029,0-.044-.008a.954.954,0,0,0-.107-.018l-.069,0a.988.988,0,0,0-.1,0l-.073.013a.581.581,0,0,0-.07.012c-.277.076-6.782,2-6.782,13.873V882.13c-.437.316-.86.629-1.264.937a.879.879,0,0,0-.345.7v4.46a35.313,35.313,0,0,0-4.563,4.332.878.878,0,0,0,1.367,1.1c.152-.188,15.614-18.8,50.254-18.8s50.1,18.611,50.253,18.8a.88.88,0,0,0,1.235.131Zm-13.055-43.929c1.031.429,4.989,2.63,5.244,11.215h-10.488C4003.485,852.492,4007.442,850.291,4008.476,849.861Zm-5.258,12.972h10.516v18.076a67.9,67.9,0,0,0-10.516-5.759Zm-8.7-6.775a27.226,27.226,0,0,1,2.146,1.687v14.894c-.7-.232-1.416-.457-2.146-.674Zm-47.186-1.173c4.567-2.8,11.919-5.722,22.715-5.722,10.779,0,18.139,2.935,22.715,5.738v16.553q-2.612-.71-5.459-1.275V858.173a.879.879,0,0,0-.4-.734c-3.119-2.044-8.575-4.48-16.859-4.48s-13.74,2.436-16.859,4.48a.879.879,0,0,0-.4.734v12.006q-2.844.565-5.459,1.276Zm-3.9,2.848a26.988,26.988,0,0,1,2.146-1.69v15.921c-.73.217-1.444.443-2.146.674Zm-11.816-7.872c1.031.429,4.989,2.63,5.244,11.215h-10.488C3926.618,852.492,3930.575,850.291,3931.608,849.861Zm-5.258,12.972h10.516V875.15a67.928,67.928,0,0,0-10.516,5.759ZM3958.7,873.8c-16.535,2.061-27.665,8.316-33.958,13.045V884.2a65.057,65.057,0,0,1,13.306-7.652c.032-.012.063-.026.093-.041,1.469-.631,3.018-1.238,4.65-1.808a.824.824,0,0,0,.127-.047A78.415,78.415,0,0,1,3958.7,871Zm3.659-.378c-.638.053-1.279.1-1.9.167v-6.15h1.9Zm10.161-.323h-4.952v-6.826a2.476,2.476,0,0,1,4.952,0Zm7.111.492c-.623-.065-1.264-.117-1.9-.169v-5.983h1.9Zm.878-7.909h-3.659a.879.879,0,0,0-.878.878V873.3q-.839-.051-1.7-.089v-6.93a4.232,4.232,0,0,0-8.464,0v6.93c-.57.025-1.138.052-1.7.086v-6.729a.879.879,0,0,0-.878-.878h-3.659a.879.879,0,0,0-.878.878v2.666q-2.136.268-4.155.628v-11.2c2.977-1.855,7.994-3.94,15.5-3.94s12.522,2.085,15.5,3.94v11.2c-1.349-.238-2.731-.449-4.156-.628v-2.666A.879.879,0,0,0,3980.507,865.687Zm34.835,21.1a58.962,58.962,0,0,0-6.074-4.008,73.94,73.94,0,0,0-27.883-8.979V871a78.394,78.394,0,0,1,15.781,3.65.869.869,0,0,0,.127.047c1.633.57,3.182,1.177,4.651,1.808.03.015.061.029.093.041a65.06,65.06,0,0,1,13.3,7.652Z" transform="translate(-12.491 -44.328)"/></g></g></svg>