<svg xmlns="http://www.w3.org/2000/svg" width="841.124" height="528.393" viewBox="0 0 841.124 528.393"><defs><style>.a{opacity:0.5;}.b{fill:#eee;}</style></defs><g class="a"><path class="b" d="M762.168,708.04c-1.163-5.276-1.788-9.244-2.921-13.063-6.017-20.29-12.179-40.535-18.262-60.8q-65.8-219.321-131.343-438.717c-3.221-10.834-7.539-14.759-19.284-14.628-60.938.675-121.89.575-182.83.061-10.446-.089-14.873,2.717-17.973,13.128Q321.5,422.705,252.51,651.115c-5.506,18.334-10.832,36.723-16.7,56.639,5.2.484,8.788,1.1,12.379,1.111,45.045.066,90.1-.216,135.137.252,9.508.1,12.933-3.58,15.379-12.243Q442.6,541.428,487.175,386.18c3.63-12.7,7.586-25.314,12.186-40.605,1.822,5.553,2.721,8.011,3.439,10.521,32.144,112.632,64.461,225.214,96.121,337.98,3.282,11.691,8.209,15.348,20.233,15.134,42.761-.765,85.544-.277,128.32-.334C751.874,708.869,756.274,708.387,762.168,708.04Z" transform="translate(-235.811 -180.825)"/><path class="b" d="M466.841,181.842c1.42,5.285,2.469,9.612,3.745,13.871q75.3,251.286,150.491,502.6c2.34,7.841,6.008,10.773,14.305,10.709,45.409-.354,90.82-.141,136.231-.22,3.559-.007,7.116-.756,11.6-1.265-1.156-4.995-1.792-8.64-2.846-12.163q-21.294-71.1-42.688-142.169Q683.409,372.5,629.27,191.752c-2.249-7.523-5.222-10.973-13.88-10.884-45.784.477-91.577.209-137.365.252C474.716,181.125,471.406,181.536,466.841,181.842Z" transform="translate(57.91 -180.774)"/></g></svg>