<svg xmlns="http://www.w3.org/2000/svg" xmlns:xlink="http://www.w3.org/1999/xlink" width="786.036" height="763.349" viewBox="0 0 786.036 763.349">
  <defs>
    <linearGradient id="linear-gradient" x1="0.116" y1="0.636" x2="0.766" y2="0.914" gradientUnits="objectBoundingBox">
      <stop offset="0" stop-color="#eee"/>
      <stop offset="1" stop-color="#f5f5f5"/>
    </linearGradient>
  </defs>
  <g id="Pattern" transform="translate(786.036 232.781) rotate(137)" opacity="0.3">
    <g id="Group_33" data-name="Group 33" transform="translate(0 84.032)">
      <path id="Path_20" data-name="Path 20" d="M772.61,0C707.562,0,674.539,14.328,642.6,28.188c-32.357,14.039-62.918,27.3-125.749,27.3s-93.39-13.262-125.747-27.3C359.17,14.328,326.147,0,261.1,0s-98.069,14.328-130,28.188c-32.355,14.039-62.919,27.3-125.743,27.3a5.351,5.351,0,1,0,0,10.7c65.046,0,98.069-14.328,130-28.185C167.709,23.965,198.272,10.7,261.1,10.7s93.392,13.262,125.75,27.3C418.782,51.864,451.8,66.192,516.854,66.192s98.073-14.328,130.009-28.185C679.22,23.965,709.783,10.7,772.61,10.7a5.351,5.351,0,0,0,0-10.7Z" transform="translate(0 0)" fill="url(#linear-gradient)"/>
    </g>
    <g id="Group_34" data-name="Group 34" transform="translate(0 126.047)">
      <path id="Path_21" data-name="Path 21" d="M772.61,0C707.562,0,674.539,14.331,642.6,28.19c-32.357,14.039-62.918,27.3-125.749,27.3s-93.39-13.262-125.747-27.3C359.17,14.331,326.147,0,261.1,0s-98.069,14.331-130,28.19c-32.355,14.039-62.919,27.3-125.743,27.3a5.351,5.351,0,0,0,0,10.7c65.046,0,98.069-14.331,130-28.188C167.711,23.965,198.272,10.7,261.1,10.7s93.392,13.262,125.75,27.3C418.782,51.863,451.8,66.194,516.854,66.194s98.073-14.331,130.009-28.188C679.22,23.965,709.783,10.7,772.61,10.7a5.351,5.351,0,0,0,0-10.7Z" transform="translate(0 0)" fill="url(#linear-gradient)"/>
    </g>
    <g id="Group_35" data-name="Group 35" transform="translate(0 0)">
      <path id="Path_22" data-name="Path 22" d="M772.61,0C707.562,0,674.539,14.328,642.6,28.188c-32.357,14.039-62.918,27.3-125.749,27.3s-93.39-13.265-125.747-27.3C359.17,14.328,326.147,0,261.1,0s-98.069,14.328-130,28.188c-32.355,14.039-62.919,27.3-125.743,27.3a5.351,5.351,0,1,0,0,10.7c65.046,0,98.069-14.33,130-28.188C167.709,23.965,198.272,10.7,261.1,10.7s93.392,13.262,125.75,27.3C418.782,51.863,451.8,66.194,516.854,66.194s98.073-14.33,130.009-28.188C679.22,23.965,709.783,10.7,772.61,10.7a5.351,5.351,0,0,0,0-10.7Z" transform="translate(0 0)" fill="url(#linear-gradient)"/>
    </g>
    <g id="Group_36" data-name="Group 36" transform="translate(0 42.015)">
      <path id="Path_23" data-name="Path 23" d="M772.61,0C707.562,0,674.539,14.331,642.6,28.19c-32.357,14.039-62.918,27.3-125.749,27.3s-93.39-13.264-125.747-27.3C359.17,14.331,326.147,0,261.1,0s-98.069,14.331-130,28.19c-32.355,14.039-62.919,27.3-125.743,27.3a5.351,5.351,0,1,0,0,10.7c65.046,0,98.069-14.332,130-28.19C167.711,23.965,198.272,10.7,261.1,10.7s93.392,13.262,125.75,27.3C418.782,51.864,451.8,66.2,516.854,66.2s98.073-14.332,130.009-28.19C679.22,23.965,709.783,10.7,772.61,10.7a5.351,5.351,0,0,0,0-10.7Z" transform="translate(0 0)" fill="url(#linear-gradient)"/>
    </g>
    <g id="Group_37" data-name="Group 37" transform="translate(0 168.06)">
      <path id="Path_24" data-name="Path 24" d="M772.61,0C707.562,0,674.539,14.332,642.6,28.19c-32.357,14.041-62.918,27.3-125.749,27.3s-93.39-13.262-125.747-27.3C359.17,14.332,326.147,0,261.1,0s-98.069,14.332-130,28.19c-32.355,14.041-62.919,27.3-125.743,27.3a5.351,5.351,0,0,0,0,10.7c65.046,0,98.069-14.331,130-28.19C167.711,23.967,198.272,10.7,261.1,10.7s93.392,13.264,125.75,27.3C418.782,51.865,451.8,66.2,516.854,66.2s98.073-14.331,130.009-28.19C679.22,23.967,709.783,10.7,772.61,10.7a5.351,5.351,0,0,0,0-10.7Z" transform="translate(0 0)" fill="url(#linear-gradient)"/>
    </g>
    <g id="Group_38" data-name="Group 38" transform="translate(0 210.077)">
      <path id="Path_25" data-name="Path 25" d="M772.61,0C707.562,0,674.539,14.333,642.6,28.19c-32.357,14.041-62.918,27.3-125.749,27.3s-93.39-13.262-125.747-27.3C359.17,14.333,326.147,0,261.1,0s-98.069,14.332-130,28.19c-32.355,14.041-62.919,27.3-125.743,27.3a5.351,5.351,0,1,0,0,10.7c65.046,0,98.069-14.33,130-28.189C167.711,23.967,198.272,10.7,261.1,10.7s93.392,13.264,125.75,27.3C418.782,51.865,451.8,66.2,516.854,66.2s98.073-14.33,130.009-28.189C679.22,23.967,709.783,10.7,772.61,10.7a5.351,5.351,0,0,0,0-10.7Z" transform="translate(0 0)" fill="url(#linear-gradient)"/>
    </g>
    <g id="Group_39" data-name="Group 39" transform="translate(0 252.092)">
      <path id="Path_26" data-name="Path 26" d="M772.61,0C707.562,0,674.539,14.333,642.6,28.19c-32.357,14.042-62.918,27.3-125.749,27.3s-93.39-13.262-125.747-27.3C359.17,14.333,326.147,0,261.1,0s-98.069,14.333-130,28.19c-32.355,14.042-62.919,27.3-125.743,27.3a5.351,5.351,0,1,0,0,10.7c65.046,0,98.069-14.33,130-28.19C167.711,23.967,198.272,10.7,261.1,10.7s93.392,13.265,125.75,27.3C418.782,51.866,451.8,66.2,516.854,66.2s98.073-14.33,130.009-28.19C679.22,23.967,709.783,10.7,772.61,10.7a5.351,5.351,0,0,0,0-10.7Z" transform="translate(0 0)" fill="url(#linear-gradient)"/>
    </g>
  </g>
</svg>
