<svg xmlns="http://www.w3.org/2000/svg" width="71.389" height="101.355" viewBox="0 0 71.389 101.355"><defs><style>.a{fill:#9b9b9b;}.b{fill:#e9791a;}</style></defs><g transform="translate(0 1.966)"><path class="a" d="M851.176,720.93l-11.929-11.305a9.879,9.879,0,0,1-1.552-12.414l32.861-52.026,2.637,1.662-32.863,52.026a6.756,6.756,0,0,0,1.059,8.487l10.042,9.514,19.52-14.329,1.845,2.515Z" transform="translate(-836.179 -645.185)"/></g><g transform="translate(34.137 0)"><path class="a" d="M879.893,721.66l-22.254-16.338V676.9h3.118v26.845l18.88,13.86,10.042-9.514a6.755,6.755,0,0,0,1.059-8.487l-32.86-52.026,1.258-.791-1.322-.771,1.319-2.066,1.382,1.966,32.859,52.026a9.881,9.881,0,0,1-1.554,12.414Z" transform="translate(-857.639 -643.949)"/></g><g transform="translate(23.17 85.879)"><rect class="b" width="3.118" height="7.791"/></g><g transform="translate(41.877 79.644)"><rect class="b" width="3.118" height="7.791"/></g><g transform="translate(32.523 76.526)"><rect class="b" width="3.118" height="14.027"/></g><g transform="translate(32.523 96.685)"><rect class="b" width="3.118" height="4.671"/></g></svg>