<svg xmlns="http://www.w3.org/2000/svg" width="221.618" height="154.146" viewBox="0 0 221.618 154.146">
  <g id="Always_On" data-name="Always On" transform="translate(-571.453 -267.747)">
    <g id="Group_2144" data-name="Group 2144" opacity="0.26">
      <rect id="Rectangle_412" data-name="Rectangle 412" width="221.618" height="154.145" transform="translate(571.453 267.747)" fill="#f4d35e"/>
    </g>
    <g id="Group_2145" data-name="Group 2145">
      <rect id="Rectangle_413" data-name="Rectangle 413" width="124.288" height="153.964" transform="translate(572.016 267.747)" fill="#e9791a"/>
    </g>
    <g id="Group_2156" data-name="Group 2156">
      <g id="Group_2146" data-name="Group 2146">
        <circle id="Ellipse_2580" data-name="Ellipse 2580" cx="54.545" cy="54.545" r="54.545" transform="translate(579.615 289.864)" fill="#fff"/>
      </g>
      <g id="Group_2155" data-name="Group 2155">
        <g id="Group_2147" data-name="Group 2147">
          <path id="Path_3010" data-name="Path 3010" d="M619.143,374.913l-3.022,5.253c-12.76-6.731-23.425-23.923-18.811-43.293a39.316,39.316,0,0,1,38.4-30.369v6.039c-17.033,1.488-28.209,10.007-32.5,26.884C600.755,354.7,606.394,366.342,619.143,374.913Z" fill="#28afb0"/>
        </g>
        <g id="Group_2148" data-name="Group 2148">
          <path id="Path_3011" data-name="Path 3011" d="M638.94,334.749c0,3.971-.012,7.942.008,11.912a6,6,0,0,1-.879,3.228q-4.468,7.391-8.89,14.809a3.2,3.2,0,0,1-3.227,1.813,3.129,3.129,0,0,1-2.362-4.771c1.308-2.276,2.69-4.509,4.04-6.76,1.488-2.482,3-4.95,4.443-7.458a3.88,3.88,0,0,0,.5-1.833c.033-7.673.019-15.346.024-23.019,0-2,1.1-3.37,2.807-3.557a3.174,3.174,0,0,1,3.53,3.365C638.955,326.568,638.94,330.658,638.94,334.749Z" fill="#28afb0"/>
        </g>
        <g id="Group_2149" data-name="Group 2149">
          <path id="Path_3012" data-name="Path 3012" d="M649.679,326.616l-4.1-2.375L651.9,313.29l4.108,2.366Z" fill="#28afb0"/>
        </g>
        <g id="Group_2150" data-name="Group 2150">
          <path id="Path_3013" data-name="Path 3013" d="M645.576,367.712l4.1-2.372,6.325,10.952-4.1,2.373Z" fill="#28afb0"/>
        </g>
        <g id="Group_2151" data-name="Group 2151">
          <path id="Path_3014" data-name="Path 3014" d="M657.5,336.166l-2.373-4.1,10.948-6.323,2.373,4.1Z" fill="#28afb0"/>
        </g>
        <g id="Group_2152" data-name="Group 2152">
          <path id="Path_3015" data-name="Path 3015" d="M668.448,362.111l-2.373,4.1-10.948-6.325,2.372-4.1Z" fill="#28afb0"/>
        </g>
        <g id="Group_2153" data-name="Group 2153">
          <path id="Path_3016" data-name="Path 3016" d="M672.1,343.684v4.586H659.542v-4.586Z" fill="#28afb0"/>
        </g>
        <g id="Group_2154" data-name="Group 2154">
          <path id="Path_3017" data-name="Path 3017" d="M638.061,382.321h-4.589V369.752h4.589Z" fill="#28afb0"/>
        </g>
      </g>
    </g>
    <g id="Group_1127" data-name="Group 1127">
      <g id="Group_1116" data-name="Group 1116">
        <g id="Path_1219" data-name="Path 1219">
          <path id="Path_3018" data-name="Path 3018" d="M744.694,407.825l-6.37-11.033h12.739Z" fill="#28afb0"/>
        </g>
      </g>
      <g id="Group_1117" data-name="Group 1117">
        <g id="Path_1220" data-name="Path 1220">
          <path id="Path_3019" data-name="Path 3019" d="M744.694,390.763l-6.37-11.032h12.739Z" fill="#28afb0"/>
        </g>
      </g>
      <g id="Group_1118" data-name="Group 1118">
        <g id="Path_1221" data-name="Path 1221">
          <path id="Path_3020" data-name="Path 3020" d="M744.694,373.7l-6.37-11.032h12.739Z" fill="#28afb0"/>
        </g>
      </g>
    </g>
    <g id="Group_2157" data-name="Group 2157">
      <path id="Rectangle_414" data-name="Rectangle 414" d="M0,0H96.756a0,0,0,0,1,0,0V94.677a0,0,0,0,1,0,0H38.883A38.883,38.883,0,0,1,0,55.794V0A0,0,0,0,1,0,0Z" transform="translate(696.315 267.992)" fill="#f4d35e"/>
    </g>
    <g id="Group_2158" data-name="Group 2158">
      <path id="Path_3021" data-name="Path 3021" d="M743.87,353.569a38.055,38.055,0,1,1,38.055-38.054A38.1,38.1,0,0,1,743.87,353.569Zm0-59.109a21.055,21.055,0,1,0,21.055,21.055A21.079,21.079,0,0,0,743.87,294.46Z" fill="#fff"/>
    </g>
  </g>
</svg>
