<svg xmlns="http://www.w3.org/2000/svg" width="221.618" height="154.146" viewBox="0 0 221.618 154.146">
  <g id="Anytime_learning" data-name="Anytime learning" transform="translate(-47.361 -42.259)">
    <g id="Group_2083" data-name="Group 2083" opacity="0.26">
      <rect id="Rectangle_373" data-name="Rectangle 373" width="221.618" height="154.145" transform="translate(47.361 42.259)" fill="#f4d35e"/>
    </g>
    <g id="Group_2084" data-name="Group 2084">
      <path id="Rectangle_374" data-name="Rectangle 374" d="M0,0H58.417A16.986,16.986,0,0,1,75.4,16.986V96.5a0,0,0,0,1,0,0H0a0,0,0,0,1,0,0V0A0,0,0,0,1,0,0Z" transform="translate(118.738 99.904)" fill="#e9791a"/>
    </g>
    <g id="Group_2085" data-name="Group 2085">
      <path id="Rectangle_375" data-name="Rectangle 375" d="M16.986,0H75.4a0,0,0,0,1,0,0V96.5a0,0,0,0,1,0,0H0a0,0,0,0,1,0,0V16.986A16.986,16.986,0,0,1,16.986,0Z" transform="translate(193.577 99.904)" fill="#e9791a"/>
    </g>
    <g id="Group_2086" data-name="Group 2086">
      <rect id="Rectangle_376" data-name="Rectangle 376" width="42.419" height="6.817" transform="translate(135.231 123.217)" fill="#f4d35e"/>
    </g>
    <g id="Group_2087" data-name="Group 2087">
      <rect id="Rectangle_377" data-name="Rectangle 377" width="42.419" height="6.817" transform="translate(135.231 139.376)" fill="#f4d35e"/>
    </g>
    <g id="Group_2088" data-name="Group 2088">
      <rect id="Rectangle_378" data-name="Rectangle 378" width="42.419" height="6.817" transform="translate(135.231 155.534)" fill="#f4d35e"/>
    </g>
    <g id="Group_2089" data-name="Group 2089">
      <rect id="Rectangle_379" data-name="Rectangle 379" width="42.419" height="6.817" transform="translate(135.231 171.693)" fill="#f4d35e"/>
    </g>
    <g id="Group_2090" data-name="Group 2090">
      <rect id="Rectangle_380" data-name="Rectangle 380" width="42.419" height="6.817" transform="translate(210.069 123.217)" fill="#f4d35e"/>
    </g>
    <g id="Group_2091" data-name="Group 2091">
      <rect id="Rectangle_381" data-name="Rectangle 381" width="42.419" height="6.817" transform="translate(210.069 139.376)" fill="#f4d35e"/>
    </g>
    <g id="Group_2092" data-name="Group 2092">
      <rect id="Rectangle_382" data-name="Rectangle 382" width="42.419" height="6.817" transform="translate(210.069 155.534)" fill="#f4d35e"/>
    </g>
    <g id="Group_2093" data-name="Group 2093">
      <rect id="Rectangle_383" data-name="Rectangle 383" width="42.419" height="6.817" transform="translate(210.069 171.693)" fill="#f4d35e"/>
    </g>
    <g id="Group_2094" data-name="Group 2094">
      <circle id="Ellipse_2572" data-name="Ellipse 2572" cx="49.927" cy="49.927" r="49.927" transform="translate(47.859 42.93)" fill="#f4d35e"/>
    </g>
    <g id="Group_2095" data-name="Group 2095">
      <path id="Path_2985" data-name="Path 2985" d="M119.995,95.857H94.144V66.05h6V89.857h19.851Z" fill="#fff"/>
    </g>
    <g id="Group_2096" data-name="Group 2096">
      <circle id="Ellipse_2573" data-name="Ellipse 2573" cx="7.474" cy="7.474" r="7.474" transform="translate(90.313 85.384)" fill="#28afb0"/>
    </g>
    <g id="Group_1119" data-name="Group 1119">
      <g id="Group_1116" data-name="Group 1116">
        <g id="Path_1219" data-name="Path 1219">
          <path id="Path_2986" data-name="Path 2986" d="M186.128,72.542l15.617,9.016V63.526Z" fill="#28afb0"/>
        </g>
      </g>
      <g id="Group_1117" data-name="Group 1117">
        <g id="Path_1220" data-name="Path 1220">
          <path id="Path_2987" data-name="Path 2987" d="M210.279,72.542,225.9,81.558V63.526Z" fill="#28afb0"/>
        </g>
      </g>
      <g id="Group_1118" data-name="Group 1118">
        <g id="Path_1221" data-name="Path 1221">
          <path id="Path_2988" data-name="Path 2988" d="M234.43,72.542l15.617,9.016V63.526Z" fill="#28afb0"/>
        </g>
      </g>
    </g>
    <g id="Group_2109" data-name="Group 2109">
      <g id="Group_2099" data-name="Group 2099">
        <g id="Group_2097" data-name="Group 2097">
          <line id="Line_53" data-name="Line 53" y2="11.19" transform="translate(97.144 49.351)" fill="#f4d35e"/>
          <rect id="Rectangle_384" data-name="Rectangle 384" width="6" height="11.19" transform="translate(94.144 49.351)" fill="#e9791a"/>
        </g>
        <g id="Group_2098" data-name="Group 2098">
          <line id="Line_54" data-name="Line 54" y2="11.19" transform="translate(97.144 125.173)" fill="#f4d35e"/>
          <rect id="Rectangle_385" data-name="Rectangle 385" width="6" height="11.19" transform="translate(94.144 125.173)" fill="#e9791a"/>
        </g>
      </g>
      <g id="Group_2102" data-name="Group 2102">
        <g id="Group_2100" data-name="Group 2100">
          <line id="Line_55" data-name="Line 55" x1="11.19" transform="translate(129.459 92.857)" fill="#f4d35e"/>
          <rect id="Rectangle_386" data-name="Rectangle 386" width="11.19" height="6" transform="translate(129.459 89.857)" fill="#e9791a"/>
        </g>
        <g id="Group_2101" data-name="Group 2101">
          <line id="Line_56" data-name="Line 56" x1="11.19" transform="translate(53.638 92.857)" fill="#f4d35e"/>
          <rect id="Rectangle_387" data-name="Rectangle 387" width="11.19" height="6" transform="translate(53.638 89.857)" fill="#e9791a"/>
        </g>
      </g>
      <g id="Group_2105" data-name="Group 2105">
        <g id="Group_2103" data-name="Group 2103">
          <line id="Line_57" data-name="Line 57" x1="7.913" y2="7.913" transform="translate(119.994 62.094)" fill="#f4d35e"/>
          <rect id="Rectangle_388" data-name="Rectangle 388" width="11.19" height="6" transform="translate(117.873 67.886) rotate(-45.007)" fill="#e9791a"/>
        </g>
        <g id="Group_2104" data-name="Group 2104">
          <line id="Line_58" data-name="Line 58" x1="7.913" y2="7.913" transform="translate(66.38 115.708)" fill="#f4d35e"/>
          <rect id="Rectangle_389" data-name="Rectangle 389" width="11.19" height="5.999" transform="translate(64.259 121.5) rotate(-45)" fill="#e9791a"/>
        </g>
      </g>
      <g id="Group_2108" data-name="Group 2108">
        <g id="Group_2106" data-name="Group 2106">
          <line id="Line_59" data-name="Line 59" x1="7.913" y1="7.913" transform="translate(119.994 115.708)" fill="#f4d35e"/>
          <rect id="Rectangle_390" data-name="Rectangle 390" width="5.999" height="11.19" transform="translate(117.874 117.829) rotate(-45)" fill="#e9791a"/>
        </g>
        <g id="Group_2107" data-name="Group 2107">
          <line id="Line_60" data-name="Line 60" x1="7.913" y1="7.913" transform="translate(66.38 62.094)" fill="#f4d35e"/>
          <rect id="Rectangle_391" data-name="Rectangle 391" width="6" height="11.19" transform="matrix(0.707, -0.707, 0.707, 0.707, 64.259, 64.215)" fill="#e9791a"/>
        </g>
      </g>
    </g>
  </g>
</svg>
