<svg xmlns="http://www.w3.org/2000/svg" width="97.985" height="100.981" viewBox="0 0 97.985 100.981"><defs><style>.a{fill:#9b9b9b;}.b{fill:#e9791a;}</style></defs><g transform="translate(3.83 0)"><path class="a" d="M1015.81,739.7a1.557,1.557,0,0,1-1.229-.6l-16.168-20.722a1.562,1.562,0,0,1-.323-.829l-1.376-16.3-10.34-7.219a1.557,1.557,0,0,1-.633-.966l-3.907-18.947-24.352-4.366a1.588,1.588,0,0,1-.566-.223l-32.984-21.115a1.559,1.559,0,0,1,.84-2.871h91.038a1.557,1.557,0,0,1,1.559,1.559v91.038a1.558,1.558,0,0,1-1.05,1.473A1.527,1.527,0,0,1,1015.81,739.7Zm-14.654-22.876,13.095,16.784V648.665H930.1l28.237,18.077,25.086,4.5a1.558,1.558,0,0,1,1.252,1.22l3.994,19.375,10.432,7.282a1.561,1.561,0,0,1,.66,1.148Z" transform="translate(-923.214 -645.547)"/></g><g transform="translate(0 16.612)"><path class="b" d="M931.419,677.218A10.614,10.614,0,1,1,942.033,666.6,10.626,10.626,0,0,1,931.419,677.218Zm0-18.11a7.5,7.5,0,1,0,7.5,7.5A7.5,7.5,0,0,0,931.419,659.108Z" transform="translate(-920.806 -655.99)"/></g><g transform="translate(1.489 16.614)"><path class="b" d="M940.2,740.359a6.443,6.443,0,0,1-6.438-6.436V722.2l-9.158-14.21a10.474,10.474,0,0,1-2.86-7.473l.525-15.917a10.521,10.521,0,0,1,8.046-9.872l12.947-3.118.686-9.687A6.476,6.476,0,0,1,950.862,656a6.432,6.432,0,0,1,5.919,6.923l-.862,10.938a11.156,11.156,0,0,1-8.531,10l-12.311,2.962-.377,11.534h13.294a10.02,10.02,0,0,1,8.074,4.112l12.556,17.264a6.445,6.445,0,0,1-1.416,8.989,6.616,6.616,0,0,1-8.994-1.422l-11.692-16.071H942l3.162,4.893a9.185,9.185,0,0,1,1.474,4.993v12.807A6.442,6.442,0,0,1,940.2,740.359Zm10.19-81.252a3.348,3.348,0,0,0-3.334,3.054l-.846,11.951-15.166,3.654a7.389,7.389,0,0,0-5.657,6.939l-.525,15.918A7.29,7.29,0,0,0,926.9,705.9l.367.442,9.613,14.937v12.64a3.319,3.319,0,0,0,6.638,0V721.116a6.116,6.116,0,0,0-.975-3.3l-6.276-9.7h11.841l12.624,17.355a3.4,3.4,0,0,0,4.637.735,3.325,3.325,0,0,0,.732-4.634L953.547,704.3a6.891,6.891,0,0,0-5.553-2.828H931.479l.56-17.124,14.617-3.523a8.052,8.052,0,0,0,6.158-7.206l.86-10.941a3.315,3.315,0,0,0-3.048-3.568C950.548,659.11,950.469,659.107,950.392,659.107Z" transform="translate(-921.742 -655.992)"/></g><g transform="translate(37.204 13.935)"><rect class="a" width="10.273" height="3.115" transform="matrix(0.661, -0.751, 0.751, 0.661, 0, 7.711)"/></g><g transform="translate(62.996 19.461)"><rect class="a" width="13.026" height="3.119" transform="matrix(0.871, -0.492, 0.492, 0.871, 0, 6.408)"/></g><g transform="translate(67.06 32.687)"><path class="a" d="M964.608,681.941l-1.645-2.649,11.022-6.854V666.1H977.1v7.211a1.558,1.558,0,0,1-.737,1.325Z" transform="translate(-962.963 -666.096)"/></g><g transform="translate(79.21 64.668)"><rect class="a" width="8.985" height="3.116" transform="matrix(0.739, -0.674, 0.674, 0.739, 0, 6.057)"/></g></svg>