<svg xmlns="http://www.w3.org/2000/svg" width="176.917" height="172.411" viewBox="0 0 176.917 172.411">
  <g id="Group_9963" data-name="Group 9963" transform="translate(-404 -29)">
    <path id="Path_6975" data-name="Path 6975" d="M430.033,97.187,411,97.106V38.146h21.712C437.872,33.6,446.248,29,455.158,29H481.7c5.57,0,9.17,1.779,11,5.435l-4.4,2.2c-.634-1.268-1.958-2.723-6.605-2.723H455.158c-10.217,0-18.306,7.067-19.822,8.485l-.708.661H415.914V92.214l14.139.059Z" transform="translate(10.2 0)" fill="#9b9b9b"/>
    <path id="Path_6976" data-name="Path 6976" d="M448.329,114.474c-.263,0-.523-.01-.789-.027a9.7,9.7,0,0,1-6.708-2.946l3.691-3.244a5.072,5.072,0,0,0,3.329,1.285,6.064,6.064,0,0,0,4.273-1.243,5.96,5.96,0,0,0,2.106-3.929,3.007,3.007,0,0,0-.668-2.219l-.931-1.027,3.622-3.32,6.482,7c1.356,1.538,4.231,1.246,6.322-.6s2.745-4.659,1.435-6.153l-23.12-26.7,3.715-3.219L473.338,93.8c1.3,1.482,4.18,1.182,6.271-.659s2.747-4.659,1.433-6.15L455.582,58.271l3.676-3.261,24.869,28.049a3.191,3.191,0,0,0,2.587.958,6.5,6.5,0,0,0,5.75-5.062,3.251,3.251,0,0,0-.614-2.686L464.9,45.894l3.676-3.261,26.96,30.383a8.091,8.091,0,0,1,1.772,6.77,11.4,11.4,0,0,1-10.379,9.141c-.1,0-.2.007-.307.007a10.7,10.7,0,0,1-3.762,7.9,11,11,0,0,1-6.794,2.8,10.655,10.655,0,0,1-3.757,8.264c-4.17,3.661-10.1,3.745-13.217.2l-.565-.609a11.392,11.392,0,0,1-3.15,4.5A10.658,10.658,0,0,1,448.329,114.474Z" transform="translate(53.671 19.866)" fill="#9b9b9b"/>
    <g id="Group_9961" data-name="Group 9961" transform="translate(436.139 80.931)">
      <g id="Group_9960" data-name="Group 9960">
        <path id="Path_6977" data-name="Path 6977" d="M428.01,79.693a10.956,10.956,0,0,1-6.32-2.037c-4.72-3.342-6.032-9.635-2.924-14.026l6.752-9.541a9.357,9.357,0,0,1,6.612-3.877,10.864,10.864,0,0,1,7.593,1.968c4.723,3.349,6.032,9.644,2.924,14.033l-6.757,9.539A9.547,9.547,0,0,1,428.01,79.693ZM433.4,55.048a5.587,5.587,0,0,0-.671.042,4.509,4.509,0,0,0-3.2,1.838l-6.752,9.541c-1.543,2.18-.754,5.4,1.754,7.175s5.8,1.445,7.347-.735l6.757-9.539h0c1.546-2.177.757-5.4-1.752-7.18A6.048,6.048,0,0,0,433.4,55.048Z" transform="translate(-417.08 -50.134)" fill="#ea791a"/>
        <path id="Path_6978" data-name="Path 6978" d="M433.807,87.917a11.222,11.222,0,0,1-9.133-17.709L434.8,55.9a11.241,11.241,0,0,1,15.642-2.676,11.215,11.215,0,0,1,2.676,15.642L442.992,83.174a11.277,11.277,0,0,1-9.185,4.742ZM443.97,56.081a6.3,6.3,0,0,0-5.158,2.661L428.686,73.048h0a6.306,6.306,0,1,0,10.293,7.288l10.129-14.308a6.3,6.3,0,0,0-5.138-9.947Z" transform="translate(-409.026 -48.625)" fill="#ea791a"/>
        <path id="Path_6979" data-name="Path 6979" d="M439.631,92.746a11.216,11.216,0,0,1-9.141-17.7v0l10.974-15.5A11.222,11.222,0,1,1,459.78,72.514l-10.969,15.5A11.225,11.225,0,0,1,439.631,92.746ZM434.5,77.88a6.308,6.308,0,0,0,10.3,7.293l10.971-15.5a6.307,6.307,0,1,0-10.293-7.29Z" transform="translate(-400.537 -43.331)" fill="#ea791a"/>
      </g>
      <path id="Path_6980" data-name="Path 6980" d="M443.183,91.88a9.346,9.346,0,0,1-5.4-1.735,8.8,8.8,0,0,1-2.442-12.18h0l9.362-13.222a8.249,8.249,0,0,1,5.74-3.411A9.279,9.279,0,0,1,457,63a8.8,8.8,0,0,1,2.445,12.185L450.09,88.4A8.382,8.382,0,0,1,443.183,91.88ZM439.357,80.8a4.151,4.151,0,0,0,6.72,4.757l9.362-13.217a3.9,3.9,0,0,0-1.273-5.335,4.339,4.339,0,0,0-3.081-.8,3.39,3.39,0,0,0-2.369,1.378Z" transform="translate(-392.64 -33.926)" fill="#ea791a"/>
    </g>
    <path id="Path_6981" data-name="Path 6981" d="M423.657,99.453H404V94.539h17.2V35.684H404V30.77h19.657a2.455,2.455,0,0,1,2.457,2.457V97A2.456,2.456,0,0,1,423.657,99.453Z" transform="translate(0 2.579)" fill="#9b9b9b"/>
    <path id="Path_6982" data-name="Path 6982" d="M489.115,105.4H469.457A2.455,2.455,0,0,1,467,102.946V39.179a2.455,2.455,0,0,1,2.457-2.457h19.657v4.914h-17.2v58.852h17.2Z" transform="translate(91.803 11.252)" fill="#ea791a"/>
    <g id="Group_9962" data-name="Group 9962" transform="translate(411.576 118.744)">
      <path id="Path_6983" data-name="Path 6983" d="M487.954,132.536h-.007l-26.265-.071a2.459,2.459,0,0,1-2.45-2.528l.017-.661a2.47,2.47,0,0,1,.622-1.565c1.779-2,2.678-3.936,2.673-5.762-.007-2.705-2.59-4.932-5.88-5.067l-.27,0h-.017a6.05,6.05,0,0,0-4.276,1.72,4.636,4.636,0,0,0-1.43,3.285c.007,2.288,1.482,4.413,2.715,5.794a2.455,2.455,0,0,1,.624,1.531l.027.656a2.453,2.453,0,0,1-2.455,2.565h-.007l-26.179-.071a2.458,2.458,0,0,1-2.45-2.45l-.059-22.056a11.825,11.825,0,0,1-5.77,1.607h-.032c-5.327,0-9.716-4.622-10-10.534l0-.455c.172-6.03,4.506-10.7,9.866-10.718a12.337,12.337,0,0,1,5.878,1.609l-.13-23.6,4.914-.025.152,27.776a2.464,2.464,0,0,1-.74,1.769,2.489,2.489,0,0,1-1.782.7l-.9-.025a2.445,2.445,0,0,1-1.558-.612c-2.022-1.779-3.971-2.681-5.8-2.681h-.02c-2.691.01-4.875,2.582-4.968,5.858l0,.265c.152,3.185,2.388,5.755,5.086,5.755h.015c1.826-.007,3.762-.919,5.75-2.713a2.454,2.454,0,0,1,1.551-.631l.835-.032a2.365,2.365,0,0,1,1.8.681,2.472,2.472,0,0,1,.757,1.767l.064,23.835,19.407.052a11.768,11.768,0,0,1-1.5-5.6,9.514,9.514,0,0,1,2.867-6.777,11.01,11.01,0,0,1,7.752-3.16h.4c6.018.246,10.669,4.622,10.686,9.964a11.733,11.733,0,0,1-1.487,5.629l19.517.052-.064-23.9a2.456,2.456,0,0,1,2.614-2.46l.609.039a2.447,2.447,0,0,1,1.536.673c1.344,1.28,3.428,2.821,5.706,2.9,2.747.14,4.978-2.388,5.194-5.659l.01-.273c-.037-3.185-2.18-5.838-4.885-5.937a9.05,9.05,0,0,0-5.851,2.494,2.459,2.459,0,0,1-1.573.57h-.007l-.934,0a2.457,2.457,0,0,1-2.45-2.43l-.071-6.408,4.914-.057.025,2.462a12.031,12.031,0,0,1,6.121-1.541c5.339.192,9.561,4.981,9.622,10.9l-.015.464c-.4,6.013-4.978,10.5-10.271,10.323a11.669,11.669,0,0,1-5.369-1.575l.059,21.869a2.458,2.458,0,0,1-2.457,2.465Z" transform="translate(-407.083 -65.199)" fill="#9b9b9b"/>
      <path id="Path_6984" data-name="Path 6984" d="M466.033,148.19c-6.04-.229-10.7-4.592-10.733-9.934a11.821,11.821,0,0,1,1.546-5.772l-13.3,0v-4.914l17.522,0a2.456,2.456,0,0,1,2.455,2.553l-.032.8a2.475,2.475,0,0,1-.614,1.533c-1.221,1.376-2.671,3.5-2.659,5.774.015,2.705,2.6,4.922,5.9,5.05l.241,0c3.2-.12,5.747-2.325,5.733-5.018-.012-2.293-1.489-4.411-2.727-5.787a2.451,2.451,0,0,1-.629-1.555l-.039-1.079a2.46,2.46,0,0,1,2.455-2.546h.007l24.5.066-.017-19.033a12.067,12.067,0,0,1-6,1.745c-5.357.086-9.745-4.612-10.028-10.534L479.6,99.1c.182-6.052,4.519-10.721,9.873-10.738a12.646,12.646,0,0,1,6.077,1.73l-.123-24.545,4.914-.025.145,28.614a2.459,2.459,0,0,1-.742,1.772,2.349,2.349,0,0,1-1.789.7l-1.1-.032a2.454,2.454,0,0,1-1.553-.614c-1.388-1.224-3.519-2.683-5.8-2.683h-.015c-2.691.01-4.875,2.585-4.973,5.863l0,.243c.152,3.2,2.386,5.769,5.089,5.769h.01c2.285-.007,4.386-1.477,5.747-2.708a2.46,2.46,0,0,1,1.568-.632l1.076-.037a2.42,2.42,0,0,1,1.786.69,2.449,2.449,0,0,1,.749,1.764l.022,25.587a2.458,2.458,0,0,1-.722,1.74,2.241,2.241,0,0,1-1.742.72l-22.864-.061A12.137,12.137,0,0,1,477,138.229c.03,5.362-4.6,9.735-10.539,9.959Z" transform="translate(-353.955 -65.523)" fill="#ea791a"/>
    </g>
    <path id="Path_6985" data-name="Path 6985" d="M529.492,109.413H515.946V104.5h11.089V55.355H507.862a2.457,2.457,0,0,1-2.415-2.01c-1.971-10.775-11.782-16.974-27.651-17.6-6.325-.155-13.532-.226-14.586-.076a17.252,17.252,0,0,0-8.03,3.841L431.934,62.736c3.563,2.619,11.126,7.131,16.736,3.194l16.4-16.311a3.705,3.705,0,0,0,.261-.28,2.551,2.551,0,0,1,2.371-.831,2.461,2.461,0,0,1,1.88,1.6c.45,1.361,4.777,13.153,18.343,9.165.263-.079.538-.162.813-.256a18.191,18.191,0,0,0,4.091-1.882l2.673,4.123a23.1,23.1,0,0,1-5.207,2.42c-.332.111-.654.209-.975.3-10.957,3.224-19.014-1.877-22.862-8.814L452,69.555a2.377,2.377,0,0,1-.28.241c-10.8,7.907-24.545-4.519-25.122-5.052a2.458,2.458,0,0,1-.074-3.548l25.206-25.181a22.259,22.259,0,0,1,10.782-5.2c1.99-.283,13.21-.025,15.441.029,22.918.894,29.847,11.922,31.884,19.6h19.658a2.455,2.455,0,0,1,2.457,2.457v54.058A2.456,2.456,0,0,1,529.492,109.413Z" transform="translate(31.768 2.448)" fill="#ea791a"/>
  </g>
</svg>
