<svg xmlns="http://www.w3.org/2000/svg" width="85.041" height="98.378" viewBox="0 0 85.041 98.378"><defs><style>.a{fill:#9b9b9b;}.b{fill:#e9791a;}</style></defs><g transform="translate(0.244 56.211)"><path class="a" d="M1044.776,714.566h-25.648V684.848a4.79,4.79,0,0,1,4.786-4.783h16.076a4.79,4.79,0,0,1,4.786,4.783Zm-22.531-3.118h19.413v-26.6a1.669,1.669,0,0,0-1.669-1.666h-16.076a1.669,1.669,0,0,0-1.669,1.666Z" transform="translate(-1019.128 -680.065)"/></g><g transform="translate(29.48 40.062)"><path class="a" d="M1063.156,720.563h-25.649V674.7a4.791,4.791,0,0,1,4.786-4.786h16.076a4.792,4.792,0,0,1,4.787,4.786Zm-22.531-3.118h19.413V674.7a1.671,1.671,0,0,0-1.669-1.669h-16.076a1.671,1.671,0,0,0-1.669,1.669Z" transform="translate(-1037.507 -669.913)"/></g><g transform="translate(58.827 30.375)"><path class="a" d="M1081.606,724.16h-25.65V668.608a4.791,4.791,0,0,1,4.786-4.785h16.078a4.791,4.791,0,0,1,4.786,4.785Zm-22.533-3.118h19.415V668.608a1.67,1.67,0,0,0-1.669-1.667h-16.078a1.67,1.67,0,0,0-1.669,1.667Z" transform="translate(-1055.956 -663.823)"/></g><g transform="translate(0 95.26)"><rect class="a" width="84.422" height="3.118"/></g><g transform="translate(9.317 18.268)"><g transform="translate(35.044)"><path class="a" d="M1053.99,669.247l-2.959-.98,2.162-6.519-6.33-2.661,1.206-2.874,8.991,3.782Z" transform="translate(-1046.863 -656.212)"/></g><g transform="translate(0 3.747)"><path class="a" d="M1027.127,679.681l-2.3-2.108a57.045,57.045,0,0,1,33.526-17.791l8.162-1.215.457,3.081-8.162,1.215A53.945,53.945,0,0,0,1027.127,679.681Z" transform="translate(-1024.832 -658.568)"/></g></g><g transform="translate(58.263 0)"><path class="b" d="M1062.457,670.52a2.822,2.822,0,0,1-2.749-3.437l1.317-5.8-4.464-3.916a2.82,2.82,0,0,1,1.6-4.927l5.908-.533,2.332-5.466a2.817,2.817,0,0,1,5.181,0l2.337,5.466,5.9.533a2.818,2.818,0,0,1,2.424,1.938v0a2.811,2.811,0,0,1-.829,2.991l-4.457,3.913,1.316,5.8a2.816,2.816,0,0,1-4.193,3.038l-5.087-3.042-5.089,3.042A2.823,2.823,0,0,1,1062.457,670.52Zm6.535-7.074,6.086,3.636-1.575-6.924,5.335-4.68-7.058-.64-2.788-6.527-2.787,6.527-7.061.64,5.335,4.68-1.575,6.924Z" transform="translate(-1055.601 -644.728)"/></g></svg>