<svg xmlns="http://www.w3.org/2000/svg" width="221.618" height="154.146" viewBox="0 0 221.618 154.146">
  <g id="Extensible" transform="translate(-47.064 -507.453)">
    <g id="Group_2160" data-name="Group 2160" opacity="0.26">
      <rect id="Rectangle_415" data-name="Rectangle 415" width="221.618" height="154.145" transform="translate(47.064 507.453)" fill="#f4d35e"/>
    </g>
    <g id="Group_2161" data-name="Group 2161">
      <path id="Rectangle_416" data-name="Rectangle 416" d="M0,0H94.578a41.3,41.3,0,0,1,41.3,41.3v70.353a0,0,0,0,1,0,0H0a0,0,0,0,1,0,0V0A0,0,0,0,1,0,0Z" transform="translate(132.802 548.352)" fill="#e9791a"/>
    </g>
    <g id="Group_1127" data-name="Group 1127">
      <g id="Group_1116" data-name="Group 1116">
        <g id="Path_1219" data-name="Path 1219">
          <path id="Path_3022" data-name="Path 3022" d="M236.858,526.139l-10.544,6.088V520.052Z" fill="#28afb0"/>
        </g>
      </g>
      <g id="Group_1117" data-name="Group 1117">
        <g id="Path_1220" data-name="Path 1220">
          <path id="Path_3023" data-name="Path 3023" d="M220.552,526.139l-10.544,6.088V520.052Z" fill="#28afb0"/>
        </g>
      </g>
      <g id="Group_1118" data-name="Group 1118">
        <g id="Path_1221" data-name="Path 1221">
          <path id="Path_3024" data-name="Path 3024" d="M204.246,526.139,193.7,532.227V520.052Z" fill="#28afb0"/>
        </g>
      </g>
    </g>
    <g id="Group_2162" data-name="Group 2162">
      <g id="Group_1116-2" data-name="Group 1116">
        <g id="Path_1219-2" data-name="Path 1219">
          <path id="Path_3025" data-name="Path 3025" d="M169.436,554.3,91.981,599.023V509.587Z" fill="#28afb0"/>
        </g>
      </g>
      <g id="Group_1116-3" data-name="Group 1116">
        <g id="Path_1219-3" data-name="Path 1219">
          <path id="Path_3026" data-name="Path 3026" d="M125.157,554.3,47.7,599.023V509.587Z" fill="#f4d35e"/>
        </g>
      </g>
    </g>
    <g id="Group_2163" data-name="Group 2163">
      <rect id="Rectangle_417" data-name="Rectangle 417" width="89.674" height="6.817" transform="translate(154.449 581.204)" fill="#f4d35e"/>
    </g>
    <g id="Group_2164" data-name="Group 2164">
      <rect id="Rectangle_418" data-name="Rectangle 418" width="89.674" height="6.817" transform="translate(154.449 597.362)" fill="#f4d35e"/>
    </g>
    <g id="Group_2165" data-name="Group 2165">
      <rect id="Rectangle_419" data-name="Rectangle 419" width="89.674" height="6.817" transform="translate(154.449 613.521)" fill="#f4d35e"/>
    </g>
    <g id="Group_2166" data-name="Group 2166">
      <rect id="Rectangle_420" data-name="Rectangle 420" width="89.674" height="6.817" transform="translate(154.449 629.68)" fill="#f4d35e"/>
    </g>
    <g id="Group_2167" data-name="Group 2167">
      <circle id="Ellipse_2581" data-name="Ellipse 2581" cx="9.068" cy="9.068" r="9.068" transform="translate(69.842 622.964)" fill="#e9791a"/>
    </g>
  </g>
</svg>
