<svg xmlns="http://www.w3.org/2000/svg" width="100.024" height="100.026" viewBox="0 0 100.024 100.026"><defs><style>.a{fill:#9b9b9b;}.b{fill:#e9791a;}.c{fill:none;stroke:#9b9b9b;stroke-width:4px;}</style></defs><g transform="translate(-348.494 -324.041)"><g transform="translate(348.494 324.041)"><path class="a" d="M393.454,749.845h-95.81a4.218,4.218,0,0,1-4.214-4.214V649.819h3.518v95.812a.7.7,0,0,0,.7.7h95.81Z" transform="translate(-293.43 -649.819)"/></g><g transform="translate(364.136 353.014)"><path class="b" d="M309.147,679.969a7,7,0,1,1,7-7A7.008,7.008,0,0,1,309.147,679.969Zm0-10.489a3.486,3.486,0,1,0,3.486,3.487A3.489,3.489,0,0,0,309.147,669.48Z" transform="translate(-302.145 -665.962)"/></g><g transform="translate(369.379 331.715)"><path class="b" d="M312.069,668.1a7,7,0,1,1,7.005-7.005A7.013,7.013,0,0,1,312.069,668.1Zm0-10.489a3.486,3.486,0,1,0,3.487,3.484A3.489,3.489,0,0,0,312.069,657.613Z" transform="translate(-305.066 -654.095)"/></g><g transform="translate(389.696 329.558)"><path class="b" d="M323.389,666.9a7.005,7.005,0,1,1,7.005-7.005A7.014,7.014,0,0,1,323.389,666.9Zm0-10.493a3.487,3.487,0,1,0,3.487,3.487A3.489,3.489,0,0,0,323.389,656.411Z" transform="translate(-316.386 -652.893)"/></g><g transform="translate(416.752 383.129)"><path class="a" d="M344.687,705.294,334.8,695.41l9.884-9.884,9.886,9.884Zm-4.911-9.884,4.911,4.909,4.912-4.909-4.912-4.909Z" transform="translate(-334.803 -685.526)"/></g><g transform="translate(423.689 359.422)"><path class="a" d="M345.211,689.3l-9.886-9.888,9.886-9.884,9.886,9.884Zm-4.911-9.888,4.911,4.912,4.911-4.912-4.911-4.909Z" transform="translate(-335.325 -669.532)"/></g><g transform="translate(394.984 388.129)"><path class="a" d="M329.218,705.294l-9.886-9.884,9.886-9.884,9.886,9.884Zm-4.911-9.884,4.911,4.909,4.911-4.909-4.911-4.909Z" transform="translate(-319.332 -685.526)"/></g><path class="c" d="M13.7,87.165S12.231,68.1,34.656,55.671s42.879-22.2,51.452-44.526" transform="translate(348.494 324.041)"/></g></svg>