<svg xmlns="http://www.w3.org/2000/svg" width="113.024" height="121.49" viewBox="0 0 113.024 121.49">
  <g id="Group_3191" data-name="Group 3191" transform="translate(-269.861 -127.408)">
    <g id="Group_3185" data-name="Group 3185" transform="translate(269.861 153.801)">
      <path id="Path_3923" data-name="Path 3923" d="M306.541,204.2h-4.652a4.12,4.12,0,0,1-4.114-4.114v-3.207a.54.54,0,0,0-.408-.522,27.244,27.244,0,0,1-7.053-2.93h0a.557.557,0,0,0-.653.082l-2.277,2.274a4.061,4.061,0,0,1-2.9,1.2h0a4.08,4.08,0,0,1-2.913-1.207l-3.289-3.289a4.107,4.107,0,0,1,0-5.814l2.271-2.271a.538.538,0,0,0,.082-.656,27.3,27.3,0,0,1-2.93-7.06.542.542,0,0,0-.525-.4h-3.2a4.118,4.118,0,0,1-4.114-4.114v-4.652a4.119,4.119,0,0,1,4.114-4.111h3.2a.542.542,0,0,0,.525-.4,27.19,27.19,0,0,1,2.93-7.057.542.542,0,0,0-.082-.659l-2.274-2.274a4.117,4.117,0,0,1,0-5.814l3.292-3.289a4.073,4.073,0,0,1,2.907-1.207h0a4.074,4.074,0,0,1,2.907,1.21l2.271,2.267a.546.546,0,0,0,.659.085,27.228,27.228,0,0,1,7.057-2.933.535.535,0,0,0,.4-.522v-3.207a4.117,4.117,0,0,1,4.114-4.111h4.652a4.114,4.114,0,0,1,4.111,4.111v3.207a.538.538,0,0,0,.4.522,27.138,27.138,0,0,1,7.06,2.933.533.533,0,0,0,.659-.085l2.271-2.271a4.083,4.083,0,0,1,2.9-1.207h0a4.1,4.1,0,0,1,2.913,1.21l3.289,3.285a4.118,4.118,0,0,1,0,5.817l-2.271,2.271a.542.542,0,0,0-.082.659,27.3,27.3,0,0,1,2.93,7.057.541.541,0,0,0,.522.4h3.207a4.117,4.117,0,0,1,4.111,4.111v4.652a4.115,4.115,0,0,1-4.111,4.114h-3.207a.541.541,0,0,0-.522.4,27.324,27.324,0,0,1-2.93,7.06.539.539,0,0,0,.085.659l2.271,2.271a4.114,4.114,0,0,1,0,5.814l-3.289,3.289a4.084,4.084,0,0,1-2.89,1.2,3.624,3.624,0,0,1-2.923-1.2l-2.271-2.271a.544.544,0,0,0-.659-.085,27.22,27.22,0,0,1-7.057,2.93.543.543,0,0,0-.408.522v3.207A4.117,4.117,0,0,1,306.541,204.2Zm-14.567-13.578a24.026,24.026,0,0,0,6.212,2.577,3.8,3.8,0,0,1,2.851,3.68v3.207a.852.852,0,0,0,.852.852h4.652a.849.849,0,0,0,.848-.852v-3.207a3.8,3.8,0,0,1,2.851-3.68,24.046,24.046,0,0,0,6.215-2.577,3.8,3.8,0,0,1,4.626.584l2.271,2.271a.71.71,0,0,0,.6.248.852.852,0,0,0,.6-.245l3.289-3.292a.85.85,0,0,0,0-1.2l-2.274-2.274a3.806,3.806,0,0,1-.584-4.626,24.119,24.119,0,0,0,2.581-6.212,3.8,3.8,0,0,1,3.68-2.851h3.207a.849.849,0,0,0,.848-.851v-4.652a.849.849,0,0,0-.848-.848h-3.207a3.807,3.807,0,0,1-3.683-2.855,24.027,24.027,0,0,0-2.577-6.212,3.8,3.8,0,0,1,.584-4.623l2.271-2.271a.854.854,0,0,0,0-1.2l-3.292-3.289a.866.866,0,0,0-.6-.251h0a.829.829,0,0,0-.594.248l-2.274,2.274a3.8,3.8,0,0,1-4.626.584,23.957,23.957,0,0,0-6.212-2.577,3.8,3.8,0,0,1-2.855-3.683v-3.207a.849.849,0,0,0-.848-.848h-4.652a.851.851,0,0,0-.852.848v3.207a3.8,3.8,0,0,1-2.855,3.683,23.937,23.937,0,0,0-6.208,2.577,3.8,3.8,0,0,1-4.626-.584l-2.271-2.271c-.6-.6-.949-.254-1.2,0l-3.3,3.292a.852.852,0,0,0,0,1.2l2.274,2.274a3.8,3.8,0,0,1,.581,4.623,24.113,24.113,0,0,0-2.577,6.215,3.8,3.8,0,0,1-3.683,2.851h-3.2a.851.851,0,0,0-.852.848v4.652a.852.852,0,0,0,.852.851h3.2a3.8,3.8,0,0,1,3.683,2.851,24.009,24.009,0,0,0,2.581,6.215,3.8,3.8,0,0,1-.584,4.623l-2.274,2.271a.85.85,0,0,0,0,1.2l3.292,3.292a.759.759,0,0,0,1.2,0l2.274-2.274a3.794,3.794,0,0,1,4.626-.584Z" transform="translate(-269.861 -135.498)" fill="#e9791a"/>
    </g>
    <g id="Group_3186" data-name="Group 3186" transform="translate(285.72 169.66)">
      <path id="Path_3924" data-name="Path 3924" d="M293.217,177.345a18.493,18.493,0,1,1,18.495-18.495A18.515,18.515,0,0,1,293.217,177.345Zm0-33.724a15.231,15.231,0,1,0,15.232,15.229A15.247,15.247,0,0,0,293.217,143.621Z" transform="translate(-274.722 -140.359)" fill="#e9791a"/>
    </g>
    <g id="Group_3187" data-name="Group 3187" transform="translate(326.837 127.408)">
      <path id="Path_3925" data-name="Path 3925" d="M317.229,183.457h-3.755a3.638,3.638,0,0,1-3.631-3.631v-2.587a26.416,26.416,0,0,1-5.866-2.515h0a.137.137,0,0,0-.153.023L302,176.576a3.6,3.6,0,0,1-2.564,1.064h0a3.6,3.6,0,0,1-2.571-1.067l-2.652-2.652a3.623,3.623,0,0,1,0-5.135l1.83-1.833a26.28,26.28,0,0,1-2.378-5.921l-2.7-.088a3.639,3.639,0,0,1-3.631-3.634v-3.752a3.636,3.636,0,0,1,3.631-3.631h2.587a26.5,26.5,0,0,1,2.515-5.869l-1.85-1.977a3.629,3.629,0,0,1,0-5.135l2.652-2.656a3.613,3.613,0,0,1,2.571-1.064h0A3.606,3.606,0,0,1,302,134.292l1.83,1.83a26.4,26.4,0,0,1,5.921-2.378l.091-2.7a3.636,3.636,0,0,1,3.631-3.631h3.755a3.636,3.636,0,0,1,3.631,3.631v2.587a26.651,26.651,0,0,1,5.866,2.512l1.98-1.85a3.6,3.6,0,0,1,2.561-1.064h0a3.6,3.6,0,0,1,2.571,1.067l2.652,2.652a3.632,3.632,0,0,1,0,5.135l-1.833,1.833a26.3,26.3,0,0,1,2.378,5.921l2.7.091a3.634,3.634,0,0,1,3.631,3.631v3.752a3.637,3.637,0,0,1-3.631,3.634h-2.587a26.361,26.361,0,0,1-2.512,5.863l1.85,1.98a3.635,3.635,0,0,1,0,5.138l-2.652,2.652a3.613,3.613,0,0,1-2.571,1.064h0a3.606,3.606,0,0,1-2.564-1.067l-1.83-1.83a26.582,26.582,0,0,1-5.921,2.378l-.091,2.7A3.638,3.638,0,0,1,317.229,183.457Zm-11.591-11.539a19.02,19.02,0,0,0,4.93,2.046,3.379,3.379,0,0,1,2.538,3.276v2.587a.37.37,0,0,0,.369.369h3.755a.37.37,0,0,0,.369-.369v-2.587a3.379,3.379,0,0,1,2.538-3.276,19.115,19.115,0,0,0,4.93-2.046,3.381,3.381,0,0,1,4.114.519l1.83,1.83.522,0,2.656-2.656v-.522l-1.833-1.834a3.381,3.381,0,0,1-.519-4.114,19.141,19.141,0,0,0,2.049-4.93,3.373,3.373,0,0,1,3.272-2.535h2.587a.369.369,0,0,0,.369-.372v-3.752a.366.366,0,0,0-.369-.369h-2.587a3.381,3.381,0,0,1-3.275-2.541,18.95,18.95,0,0,0-2.046-4.926,3.381,3.381,0,0,1,.519-4.114l1.833-1.833a.37.37,0,0,0,0-.522l-2.652-2.652-.522,0-1.833,1.833a3.38,3.38,0,0,1-4.114.522,19.106,19.106,0,0,0-4.93-2.049,3.379,3.379,0,0,1-2.538-3.275v-2.587a.373.373,0,0,0-.369-.369h-3.755a.368.368,0,0,0-.369.369v2.587a3.382,3.382,0,0,1-2.538,3.275,19.118,19.118,0,0,0-4.93,2.046,3.375,3.375,0,0,1-4.114-.519l-1.833-1.83-.522,0-2.652,2.656a.367.367,0,0,0,0,.522l1.834,1.833a3.385,3.385,0,0,1,.519,4.114,18.818,18.818,0,0,0-2.046,4.93,3.389,3.389,0,0,1-3.279,2.538h-2.587a.368.368,0,0,0-.369.369v3.752a.375.375,0,0,0,.369.372h2.587a3.379,3.379,0,0,1,3.275,2.535,19.036,19.036,0,0,0,2.049,4.933,3.378,3.378,0,0,1-.522,4.111l-1.83,1.834v.522l2.652,2.652h.522l1.833-1.83a3.384,3.384,0,0,1,4.114-.519Z" transform="translate(-287.325 -127.408)" fill="#9b9b9b"/>
    </g>
    <g id="Group_3188" data-name="Group 3188" transform="translate(339.629 140.2)">
      <path id="Path_3926" data-name="Path 3926" d="M306.482,161.794a15.232,15.232,0,1,1,15.229-15.232A15.25,15.25,0,0,1,306.482,161.794Zm0-27.2a11.97,11.97,0,1,0,11.967,11.97A11.985,11.985,0,0,0,306.482,134.591Z" transform="translate(-291.246 -131.329)" fill="#9b9b9b"/>
    </g>
    <g id="Group_3189" data-name="Group 3189" transform="translate(326.837 192.85)">
      <path id="Path_3927" data-name="Path 3927" d="M317.229,203.516h-3.755a3.638,3.638,0,0,1-3.631-3.631V197.3a26.549,26.549,0,0,1-5.866-2.515h0a.132.132,0,0,0-.156.026L302,196.635a3.638,3.638,0,0,1-5.135,0l-2.652-2.656a3.627,3.627,0,0,1,0-5.138l1.83-1.83a26.517,26.517,0,0,1-2.378-5.921l-2.7-.091a3.636,3.636,0,0,1-3.631-3.631v-3.752a3.639,3.639,0,0,1,3.631-3.634h2.587a26.609,26.609,0,0,1,2.515-5.866l-1.85-1.977a3.629,3.629,0,0,1,0-5.135l2.652-2.656a3.719,3.719,0,0,1,5.138,0l1.83,1.83a26.273,26.273,0,0,1,5.921-2.378l.091-2.7a3.636,3.636,0,0,1,3.631-3.631h3.755a3.636,3.636,0,0,1,3.631,3.631v2.587a26.517,26.517,0,0,1,5.866,2.512l1.98-1.85a3.6,3.6,0,0,1,2.561-1.064h0a3.613,3.613,0,0,1,2.571,1.064L336.493,157a3.631,3.631,0,0,1,0,5.135l-1.833,1.83a26.386,26.386,0,0,1,2.378,5.925l2.7.091a3.634,3.634,0,0,1,3.631,3.631v3.752A3.634,3.634,0,0,1,339.743,181h-2.587a26.407,26.407,0,0,1-2.512,5.866l1.85,1.98a3.635,3.635,0,0,1,0,5.138l-2.652,2.652a3.613,3.613,0,0,1-2.571,1.064h0a3.616,3.616,0,0,1-2.568-1.064l-1.83-1.834a26.488,26.488,0,0,1-5.921,2.378l-.091,2.7A3.638,3.638,0,0,1,317.229,203.516Zm-11.591-11.539a18.9,18.9,0,0,0,4.93,2.042A3.388,3.388,0,0,1,313.1,197.3v2.587a.37.37,0,0,0,.369.369h3.755a.375.375,0,0,0,.369-.369V197.3a3.383,3.383,0,0,1,2.535-3.276,19.089,19.089,0,0,0,4.933-2.046,3.368,3.368,0,0,1,4.114.522l1.83,1.83h.522l2.656-2.656L335.342,190l-1.155,1.155-1.833-1.834a3.381,3.381,0,0,1-.519-4.114,19.092,19.092,0,0,0,2.049-4.93,3.376,3.376,0,0,1,3.272-2.538h2.587a.368.368,0,0,0,.369-.369v-3.752a.366.366,0,0,0-.369-.369h-2.587a3.382,3.382,0,0,1-3.275-2.538,18.97,18.97,0,0,0-2.046-4.93,3.386,3.386,0,0,1,.519-4.117l1.833-1.83v-.522l-2.652-2.656h-.522l-1.833,1.833a3.377,3.377,0,0,1-4.114.519,19.118,19.118,0,0,0-4.93-2.046,3.385,3.385,0,0,1-2.538-3.275V151.1a.375.375,0,0,0-.369-.369h-3.755a.371.371,0,0,0-.369.369v2.587a3.385,3.385,0,0,1-2.535,3.275,19,19,0,0,0-4.933,2.046,3.372,3.372,0,0,1-4.114-.522l-1.833-1.83h-.522l-2.652,2.656a.367.367,0,0,0,0,.522l1.834,1.83a3.39,3.39,0,0,1,.519,4.117,18.935,18.935,0,0,0-2.046,4.926,3.385,3.385,0,0,1-3.279,2.538h-2.587a.375.375,0,0,0-.369.372v3.752a.37.37,0,0,0,.369.369h2.587a3.379,3.379,0,0,1,3.275,2.535,19.11,19.11,0,0,0,2.046,4.933,3.372,3.372,0,0,1-.519,4.114l-1.83,1.834v.522l2.652,2.656a.372.372,0,0,0,.522,0l1.833-1.833a3.38,3.38,0,0,1,4.114-.519Z" transform="translate(-287.325 -147.467)" fill="#9b9b9b"/>
    </g>
    <g id="Group_3190" data-name="Group 3190" transform="translate(339.629 205.642)">
      <path id="Path_3928" data-name="Path 3928" d="M306.482,181.853a15.232,15.232,0,1,1,15.229-15.232A15.252,15.252,0,0,1,306.482,181.853Zm0-27.2a11.97,11.97,0,1,0,11.967,11.97A11.985,11.985,0,0,0,306.482,154.65Z" transform="translate(-291.246 -151.388)" fill="#9b9b9b"/>
    </g>
  </g>
</svg>
