<svg xmlns="http://www.w3.org/2000/svg" width="109.793" height="109.79" viewBox="0 0 109.793 109.79"><defs><style>.a{fill:#9b9b9b;}.b{fill:#e9791a;}</style></defs><g transform="translate(-349.52 -638.314)"><g transform="translate(349.52 638.314)"><path class="a" d="M586.406,755.519H535.893v-9.764H503.919l-.454-15.019-26.852-.113v-30a54.9,54.9,0,0,1,109.793,0Zm-47-3.518h43.478V700.624a51.379,51.379,0,0,0-102.758,0v26.493l26.75.113.452,15.007h32.077Z" transform="translate(-476.613 -645.729)"/></g><g transform="translate(382.606 701.282)"><path class="b" d="M538.613,693.444H495.047V680.812h43.566Zm-40.048-3.518h36.53v-5.6h-36.53Z" transform="translate(-495.047 -680.812)"/></g><g transform="translate(383.171 659.108)"><g transform="translate(0 18.012)"><path class="a" d="M505.78,679.567l-10.418-9.633,2.388-2.583,8.03,7.427,8.029-7.427,2.388,2.583Z" transform="translate(-495.362 -667.35)"/></g><g transform="translate(8.659 2.394)"><rect class="a" width="3.518" height="23.131"/></g><g transform="translate(24.416)"><path class="a" d="M527.414,669.531l-8.03-7.427-8.03,7.427-2.388-2.583,10.418-9.633,10.418,9.633Z" transform="translate(-508.965 -657.315)"/></g><g transform="translate(33.075 4.703)"><rect class="a" width="3.518" height="23.131"/></g></g></g></svg>