<svg xmlns="http://www.w3.org/2000/svg" width="221.618" height="154.604" viewBox="0 0 221.618 154.604">
  <g id="Instantaneous" transform="translate(-47.064 -267.747)">
    <g id="Group_2123" data-name="Group 2123" opacity="0.26">
      <rect id="Rectangle_398" data-name="Rectangle 398" width="221.618" height="154.145" transform="translate(47.064 267.747)" fill="#f4d35e"/>
    </g>
    <g id="Group_2124" data-name="Group 2124">
      <path id="Rectangle_399" data-name="Rectangle 399" d="M0,0H58.417A16.986,16.986,0,0,1,75.4,16.986V96.5a0,0,0,0,1,0,0H0a0,0,0,0,1,0,0V0A0,0,0,0,1,0,0Z" transform="translate(118.159 267.747)" fill="#e9791a"/>
    </g>
    <g id="Group_2125" data-name="Group 2125">
      <path id="Rectangle_400" data-name="Rectangle 400" d="M16.986,0H75.4a0,0,0,0,1,0,0V96.5a0,0,0,0,1,0,0H0a0,0,0,0,1,0,0V16.986A16.986,16.986,0,0,1,16.986,0Z" transform="translate(192.998 267.747)" fill="#e9791a"/>
    </g>
    <g id="Group_2126" data-name="Group 2126">
      <rect id="Rectangle_401" data-name="Rectangle 401" width="42.419" height="6.817" transform="translate(134.651 291.059)" fill="#f4d35e"/>
    </g>
    <g id="Group_2127" data-name="Group 2127">
      <rect id="Rectangle_402" data-name="Rectangle 402" width="42.419" height="6.817" transform="translate(134.651 307.218)" fill="#f4d35e"/>
    </g>
    <g id="Group_2128" data-name="Group 2128">
      <rect id="Rectangle_403" data-name="Rectangle 403" width="42.419" height="6.817" transform="translate(134.651 323.377)" fill="#f4d35e"/>
    </g>
    <g id="Group_2129" data-name="Group 2129">
      <rect id="Rectangle_404" data-name="Rectangle 404" width="42.419" height="6.817" transform="translate(134.651 339.536)" fill="#f4d35e"/>
    </g>
    <g id="Group_2130" data-name="Group 2130">
      <rect id="Rectangle_405" data-name="Rectangle 405" width="42.419" height="6.817" transform="translate(209.49 291.059)" fill="#f4d35e"/>
    </g>
    <g id="Group_2131" data-name="Group 2131">
      <rect id="Rectangle_406" data-name="Rectangle 406" width="42.419" height="6.817" transform="translate(209.49 307.218)" fill="#f4d35e"/>
    </g>
    <g id="Group_2132" data-name="Group 2132">
      <rect id="Rectangle_407" data-name="Rectangle 407" width="42.419" height="6.817" transform="translate(209.49 323.377)" fill="#f4d35e"/>
    </g>
    <g id="Group_2133" data-name="Group 2133">
      <rect id="Rectangle_408" data-name="Rectangle 408" width="42.419" height="6.817" transform="translate(209.49 339.536)" fill="#f4d35e"/>
    </g>
    <g id="Group_2134" data-name="Group 2134">
      <path id="Path_3000" data-name="Path 3000" d="M67.908,421.854a92,92,0,1,1,184,0" fill="#28afb0"/>
    </g>
    <g id="Group_2135" data-name="Group 2135">
      <path id="Path_3001" data-name="Path 3001" d="M158.152,402.691l49.94-33.078-33.078,49.94" fill="#f4d35e"/>
    </g>
    <g id="Group_2136" data-name="Group 2136">
      <path id="Path_3002" data-name="Path 3002" d="M136.694,422.351a23.214,23.214,0,1,1,46.428,0" fill="#fff"/>
    </g>
    <g id="Group_1127" data-name="Group 1127">
      <g id="Group_1116" data-name="Group 1116">
        <g id="Path_1219" data-name="Path 1219">
          <path id="Path_3003" data-name="Path 3003" d="M81.892,332.2,75.8,321.661H87.979Z" fill="#28afb0"/>
        </g>
      </g>
      <g id="Group_1117" data-name="Group 1117">
        <g id="Path_1220" data-name="Path 1220">
          <path id="Path_3004" data-name="Path 3004" d="M81.892,315.9,75.8,305.355H87.979Z" fill="#28afb0"/>
        </g>
      </g>
      <g id="Group_1118" data-name="Group 1118">
        <g id="Path_1221" data-name="Path 1221">
          <path id="Path_3005" data-name="Path 3005" d="M81.892,299.593,75.8,289.049H87.979Z" fill="#28afb0"/>
        </g>
      </g>
    </g>
  </g>
</svg>
