<svg xmlns="http://www.w3.org/2000/svg" width="221.915" height="154.146" viewBox="0 0 221.915 154.146">
  <g id="Omni-format" transform="translate(-550 -5806)">
    <g id="Omni-format-2" data-name="Omni-format" transform="translate(240.979 5763.741)" opacity="0.26">
      <rect id="Rectangle_392" data-name="Rectangle 392" width="221.618" height="154.145" transform="translate(309.022 42.259)" fill="#f4d35e"/>
    </g>
    <g id="Group_2112" data-name="Group 2112" transform="translate(240.979 5763.741)">
      <path id="Path_2989" data-name="Path 2989" d="M386.1,60.259a59.073,59.073,0,1,1-59.073,59.072A59.139,59.139,0,0,1,386.1,60.259m0-18a77.073,77.073,0,1,0,77.072,77.072A77.072,77.072,0,0,0,386.1,42.259Z" fill="#e9791a"/>
    </g>
    <g id="Group_2113" data-name="Group 2113" transform="translate(240.979 5763.741)">
      <rect id="Rectangle_393" data-name="Rectangle 393" width="67.77" height="67.77" transform="translate(463.167 42.259)" fill="#f4d35e"/>
    </g>
    <g id="Subtraction_1" data-name="Subtraction 1" transform="translate(240.979 5763.741)">
      <path id="Path_2990" data-name="Path 2990" d="M530.64,196.4h-17.6V164.088H480.77V196.4h-17.6V110.276H530.64Zm-49.87-68.516v19.567h32.269V127.888Z" fill="#28afb0"/>
    </g>
    <g id="Group_1113" data-name="Group 1113" transform="translate(240.979 5763.741)">
      <g id="Path_1217" data-name="Path 1217">
        <path id="Path_2991" data-name="Path 2991" d="M511.881,60.807l.8.3a4.885,4.885,0,1,1-3.35,0l.8-.3Z" fill="#fdf8e8"/>
      </g>
      <g id="Path_1218" data-name="Path 1218">
        <path id="Path_2992" data-name="Path 2992" d="M474.777,91.48l16-23.806L501.94,81.692l5.588-6.215,11.8,16Z" fill="#fdf8e8"/>
      </g>
    </g>
    <g id="Group_1120" data-name="Group 1120" transform="translate(240.979 5763.741)">
      <g id="Path_1219" data-name="Path 1219">
        <path id="Path_2993" data-name="Path 2993" d="M346.244,119.331l-37.222-21.49v42.98Z" fill="#28afb0"/>
      </g>
    </g>
    <g id="Ellipse_2569" data-name="Ellipse 2569" transform="translate(240.979 5763.741)">
      <circle id="Ellipse_2574" data-name="Ellipse 2574" cx="7" cy="7" r="7" transform="translate(379.095 112.331)" fill="#28afb0"/>
    </g>
    <g id="Ellipse_2571" data-name="Ellipse 2571" transform="translate(240.979 5763.741)">
      <circle id="Ellipse_2575" data-name="Ellipse 2575" cx="7" cy="7" r="7" transform="translate(361.095 112.331)" fill="#28afb0"/>
    </g>
    <g id="Ellipse_2570" data-name="Ellipse 2570" transform="translate(240.979 5763.741)">
      <circle id="Ellipse_2576" data-name="Ellipse 2576" cx="7" cy="7" r="7" transform="translate(397.095 112.331)" fill="#28afb0"/>
    </g>
  </g>
</svg>
