<svg xmlns="http://www.w3.org/2000/svg" width="222.261" height="154.146" viewBox="0 0 222.261 154.146">
  <g id="Omni-lingual" transform="translate(-573.365 -42.259)">
    <g id="Group_2115" data-name="Group 2115" opacity="0.26">
      <rect id="Rectangle_394" data-name="Rectangle 394" width="221.618" height="154.145" transform="translate(574.008 42.259)" fill="#f4d35e"/>
    </g>
    <g id="Group_1119" data-name="Group 1119">
      <g id="Group_1116" data-name="Group 1116">
        <g id="Path_1219" data-name="Path 1219">
          <path id="Path_2994" data-name="Path 2994" d="M619.808,166.086l15.617,9.015V157.07Z" fill="#28afb0"/>
        </g>
      </g>
      <g id="Group_1117" data-name="Group 1117">
        <g id="Path_1220" data-name="Path 1220">
          <path id="Path_2995" data-name="Path 2995" d="M643.959,166.086l15.617,9.015V157.07Z" fill="#28afb0"/>
        </g>
      </g>
      <g id="Group_1118" data-name="Group 1118">
        <g id="Path_1221" data-name="Path 1221">
          <path id="Path_2996" data-name="Path 2996" d="M668.11,166.086l15.617,9.015V157.07Z" fill="#28afb0"/>
        </g>
      </g>
    </g>
    <g id="Path_1224" data-name="Path 1224">
      <path id="Path_2997" data-name="Path 2997" d="M573.365,42.376H687.5v81.736H617.547v19.226L596.2,124.112H573.365Z" fill="#f4d35e"/>
    </g>
    <g id="Subtraction_2" data-name="Subtraction 2">
      <path id="Path_2998" data-name="Path 2998" d="M622.2,106.685h-9.652V88.795h-17.7v17.89H585.2v-46h37Zm-27.348-36.8V80.106h17.7V69.885Z" fill="#e9791a"/>
    </g>
    <g id="Path_1225" data-name="Path 1225">
      <path id="Path_2999" data-name="Path 2999" d="M645.938,59.943v5.826H628.46V77.421h25.856a47.974,47.974,0,0,1-3.461,5.278c-.437.571-.99,1.084-1.456,1.637-2.837-2.6-4.917-4.911-4.917-4.911l-8.739,7.644s1.9,2.033,4.736,4.736A24.747,24.747,0,0,1,628.46,94.9v11.652a36.784,36.784,0,0,0,21.486-6.921c5.372,3.705,11.827,6.921,19.3,6.921V94.9c-3.07,0-6.875-1.5-10.557-3.641.46-.559,1.031-1.084,1.456-1.637a54.657,54.657,0,0,0,7.1-12.2h7.83V65.769H657.59V59.943Z" fill="#e9791a"/>
    </g>
    <g id="Group_2116" data-name="Group 2116">
      <rect id="Rectangle_395" data-name="Rectangle 395" width="107.547" height="40.991" transform="translate(688.079 65.695)" fill="#28afb0"/>
    </g>
    <g id="Group_2117" data-name="Group 2117">
      <circle id="Ellipse_2577" data-name="Ellipse 2577" cx="6.145" cy="6.145" r="6.145" transform="translate(696.386 76.144)" fill="#fff"/>
    </g>
    <g id="Group_2118" data-name="Group 2118">
      <rect id="Rectangle_396" data-name="Rectangle 396" width="107.547" height="40.991" transform="translate(688.079 110.273)" fill="#28afb0"/>
    </g>
    <g id="Group_2119" data-name="Group 2119">
      <circle id="Ellipse_2578" data-name="Ellipse 2578" cx="6.145" cy="6.145" r="6.145" transform="translate(696.386 120.722)" fill="#fff"/>
    </g>
    <g id="Group_2120" data-name="Group 2120">
      <rect id="Rectangle_397" data-name="Rectangle 397" width="107.547" height="40.991" transform="translate(688.079 154.851)" fill="#28afb0"/>
    </g>
    <g id="Group_2121" data-name="Group 2121">
      <circle id="Ellipse_2579" data-name="Ellipse 2579" cx="6.145" cy="6.145" r="6.145" transform="translate(696.386 165.3)" fill="#fff"/>
    </g>
  </g>
</svg>
