<svg xmlns="http://www.w3.org/2000/svg" xmlns:xlink="http://www.w3.org/1999/xlink" width="1463.065" height="1420.837" viewBox="0 0 1463.065 1420.837"><defs><style>.a{opacity:0.997;}.b{fill:url(#a);}</style><linearGradient id="a" x1="0.116" y1="0.364" x2="0.766" y2="0.086" gradientUnits="objectBoundingBox"><stop offset="0" stop-color="#eee"/><stop offset="1" stop-color="#f5f5f5"/></linearGradient></defs><g class="a" transform="translate(442.178 -2361.366) rotate(43)"><g transform="translate(1582.555 2065.825)"><path class="b" d="M3020.629,1954.725c-121.076,0-182.542-26.669-241.985-52.466-60.227-26.132-117.111-50.817-234.06-50.817s-173.829,24.685-234.056,50.817c-59.443,25.8-120.909,52.466-241.989,52.466s-182.539-26.669-241.977-52.466c-60.223-26.132-117.112-50.817-234.048-50.817a9.96,9.96,0,1,1,0-19.92c121.072,0,182.538,26.669,241.976,52.462,60.223,26.136,117.112,50.821,234.048,50.821s173.833-24.685,234.06-50.821c59.443-25.793,120.908-52.462,241.984-52.462s182.546,26.669,241.989,52.462c60.227,26.136,117.116,50.821,234.056,50.821a9.96,9.96,0,0,1,0,19.92Z" transform="translate(-1582.555 -1831.522)"/></g><g transform="translate(1582.555 1987.618)"><path class="b" d="M3020.629,1935.1c-121.076,0-182.542-26.674-241.985-52.47-60.227-26.131-117.111-50.817-234.06-50.817s-173.829,24.686-234.056,50.817c-59.443,25.8-120.909,52.47-241.989,52.47s-182.539-26.674-241.977-52.47c-60.223-26.131-117.112-50.817-234.048-50.817a9.96,9.96,0,0,1,0-19.921c121.072,0,182.538,26.674,241.976,52.467,60.227,26.135,117.112,50.821,234.048,50.821s173.833-24.686,234.06-50.821c59.443-25.793,120.908-52.467,241.984-52.467s182.546,26.674,241.989,52.467c60.227,26.135,117.116,50.821,234.056,50.821a9.96,9.96,0,0,1,0,19.92Z" transform="translate(-1582.555 -1811.891)"/></g><g transform="translate(1582.555 2222.232)"><path class="b" d="M3020.629,1993.988c-121.076,0-182.542-26.669-241.985-52.466-60.227-26.131-117.111-50.821-234.06-50.821s-173.829,24.69-234.056,50.821c-59.443,25.8-120.909,52.466-241.989,52.466s-182.539-26.669-241.977-52.466c-60.223-26.131-117.112-50.821-234.048-50.821a9.96,9.96,0,1,1,0-19.92c121.072,0,182.538,26.673,241.976,52.466,60.223,26.135,117.112,50.821,234.048,50.821s173.833-24.685,234.06-50.821c59.443-25.793,120.908-52.466,241.984-52.466s182.546,26.673,241.989,52.466c60.227,26.135,117.116,50.821,234.056,50.821a9.96,9.96,0,0,1,0,19.92Z" transform="translate(-1582.555 -1870.78)"/></g><g transform="translate(1582.555 2144.024)"><path class="b" d="M3020.629,1974.362c-121.076,0-182.542-26.674-241.985-52.47-60.227-26.132-117.111-50.821-234.06-50.821s-173.829,24.689-234.056,50.821c-59.443,25.8-120.909,52.47-241.989,52.47s-182.539-26.674-241.977-52.47c-60.223-26.132-117.112-50.821-234.048-50.821a9.96,9.96,0,1,1,0-19.92c121.072,0,182.538,26.677,241.976,52.47,60.227,26.135,117.112,50.821,234.048,50.821s173.833-24.685,234.06-50.821c59.443-25.793,120.908-52.47,241.984-52.47s182.546,26.677,241.989,52.47c60.227,26.135,117.116,50.821,234.056,50.821a9.96,9.96,0,0,1,0,19.921Z" transform="translate(-1582.555 -1851.15)"/></g><g transform="translate(1582.555 1909.414)"><path class="b" d="M3020.629,1915.474c-121.076,0-182.542-26.677-241.985-52.47-60.227-26.135-117.111-50.821-234.06-50.821s-173.829,24.685-234.056,50.821c-59.443,25.793-120.909,52.47-241.989,52.47S1886,1888.8,1826.563,1863c-60.223-26.135-117.112-50.821-234.048-50.821a9.96,9.96,0,0,1,0-19.921c121.072,0,182.538,26.674,241.976,52.47,60.227,26.132,117.112,50.821,234.048,50.821s173.833-24.689,234.06-50.821c59.443-25.8,120.908-52.47,241.984-52.47s182.546,26.674,241.989,52.47c60.227,26.132,117.116,50.821,234.056,50.821a9.96,9.96,0,0,1,0,19.92Z" transform="translate(-1582.555 -1792.263)"/></g><g transform="translate(1582.555 1831.207)"><path class="b" d="M3020.629,1895.844c-121.076,0-182.542-26.677-241.985-52.47-60.227-26.135-117.111-50.821-234.06-50.821s-173.829,24.685-234.056,50.821c-59.443,25.793-120.909,52.47-241.989,52.47s-182.539-26.677-241.977-52.47c-60.223-26.135-117.112-50.821-234.048-50.821a9.96,9.96,0,1,1,0-19.92c121.072,0,182.538,26.673,241.976,52.47,60.227,26.132,117.112,50.821,234.048,50.821s173.833-24.689,234.06-50.821c59.443-25.8,120.908-52.47,241.984-52.47s182.546,26.673,241.989,52.47c60.227,26.132,117.116,50.821,234.056,50.821a9.96,9.96,0,0,1,0,19.92Z" transform="translate(-1582.555 -1772.633)"/></g><g transform="translate(1582.555 1753.004)"><path class="b" d="M3020.629,1876.215c-121.076,0-182.542-26.677-241.985-52.47-60.227-26.136-117.111-50.821-234.06-50.821s-173.829,24.685-234.056,50.821c-59.443,25.793-120.909,52.47-241.989,52.47s-182.539-26.677-241.977-52.47c-60.223-26.136-117.112-50.821-234.048-50.821a9.96,9.96,0,1,1,0-19.92c121.072,0,182.538,26.673,241.976,52.47,60.227,26.132,117.112,50.821,234.048,50.821s173.833-24.69,234.06-50.821c59.443-25.8,120.908-52.47,241.984-52.47s182.546,26.673,241.989,52.47c60.227,26.132,117.116,50.821,234.056,50.821a9.96,9.96,0,0,1,0,19.92Z" transform="translate(-1582.555 -1753.004)"/></g></g></svg>