<svg xmlns="http://www.w3.org/2000/svg" width="85.483" height="98.494" viewBox="0 0 85.483 98.494"><defs><style>.a{fill:#9b9b9b;}.b{fill:#e9791a;}</style></defs><g transform="translate(28.13)"><path class="a" d="M786.442,675.722h-30V645.729h30ZM759.564,672.6h23.761V648.847H759.564Z" transform="translate(-756.446 -645.729)"/></g><g transform="translate(28.13 34.246)"><path class="a" d="M779.74,697.256H763.148a6.707,6.707,0,0,1-6.7-6.7V673.96a6.708,6.708,0,0,1,6.7-6.7H779.74a6.707,6.707,0,0,1,6.7,6.7v16.594A6.707,6.707,0,0,1,779.74,697.256Zm-16.593-26.88a3.588,3.588,0,0,0-3.584,3.584v16.594a3.588,3.588,0,0,0,3.584,3.584H779.74a3.588,3.588,0,0,0,3.584-3.584V673.96a3.588,3.588,0,0,0-3.584-3.584Z" transform="translate(-756.446 -667.258)"/></g><g transform="translate(28.13 68.497)"><path class="b" d="M771.443,718.786a15,15,0,1,1,15-15A15.016,15.016,0,0,1,771.443,718.786Zm0-26.878a11.88,11.88,0,1,0,11.881,11.879A11.891,11.891,0,0,0,771.443,691.908Z" transform="translate(-756.446 -688.79)"/></g><g transform="translate(62.018 9.929)"><g transform="translate(0 31.759)"><path class="a" d="M784.737,687.05l-6.988-7.557,6.988-7.557,2.29,2.119-5.033,5.438,5.033,5.438Z" transform="translate(-777.749 -671.936)"/></g><g transform="translate(3.073)"><path class="a" d="M779.681,692.758v-3.118a17.276,17.276,0,0,0,0-34.552v-3.118a20.394,20.394,0,0,1,0,40.787Z" transform="translate(-779.681 -651.971)"/></g></g><g transform="translate(0 43.956)"><g transform="translate(14.191 31.76)"><path class="a" d="M749.973,708.442l-2.29-2.119,5.03-5.438-5.03-5.438,2.29-2.119,6.985,7.557Z" transform="translate(-747.683 -693.328)"/></g><path class="a" d="M759.155,714.146a20.392,20.392,0,1,1,0-40.784v3.118a17.274,17.274,0,1,0,0,34.549Z" transform="translate(-738.762 -673.362)"/></g></svg>