<svg xmlns="http://www.w3.org/2000/svg" width="221.619" height="154.146" viewBox="0 0 221.619 154.146">
  <g id="Privacy_protected" data-name="Privacy protected" transform="translate(-318.08 -507.453)">
    <g id="Group_2169" data-name="Group 2169" opacity="0.26">
      <rect id="Rectangle_421" data-name="Rectangle 421" width="221.618" height="154.145" transform="translate(318.08 507.453)" fill="#f4d35e"/>
    </g>
    <g id="Group_2170" data-name="Group 2170">
      <path id="Path_3027" data-name="Path 3027" d="M520.89,507.453a92,92,0,0,1-184,0" fill="#28afb0"/>
    </g>
    <g id="Group_2171" data-name="Group 2171">
      <rect id="Rectangle_422" data-name="Rectangle 422" width="92.234" height="77.073" transform="translate(382.818 584.526)" fill="#e9791a"/>
    </g>
    <g id="Group_2172" data-name="Group 2172">
      <path id="Path_3028" data-name="Path 3028" d="M464.327,609.18H393.452V578.79a35.438,35.438,0,1,1,70.875,0Zm-60.875-10h50.875V578.79a25.438,25.438,0,1,0-50.875,0Z" fill="#e9791a"/>
    </g>
    <g id="Group_2175" data-name="Group 2175">
      <g id="Group_2173" data-name="Group 2173">
        <circle id="Ellipse_2582" data-name="Ellipse 2582" cx="11.236" cy="11.236" r="11.236" transform="translate(417.758 601.321)" fill="#fff"/>
      </g>
      <g id="Group_2174" data-name="Group 2174">
        <rect id="Rectangle_423" data-name="Rectangle 423" width="7.442" height="30.332" transform="translate(425.273 616.557)" fill="#fff"/>
      </g>
    </g>
    <g id="Group_2176" data-name="Group 2176">
      <g id="Group_1116" data-name="Group 1116">
        <g id="Path_1219" data-name="Path 1219">
          <path id="Path_3029" data-name="Path 3029" d="M366.668,623.791l-30.915,17.85v-35.7Z" fill="#28afb0"/>
        </g>
      </g>
      <g id="Group_1116-2" data-name="Group 1116">
        <g id="Path_1219-2" data-name="Path 1219">
          <path id="Path_3030" data-name="Path 3030" d="M348.995,623.791l-30.915,17.85v-35.7Z" fill="#f4d35e"/>
        </g>
      </g>
    </g>
    <g id="Group_2177" data-name="Group 2177">
      <g id="Group_1116-3" data-name="Group 1116">
        <g id="Path_1219-3" data-name="Path 1219">
          <path id="Path_3031" data-name="Path 3031" d="M491.111,623.064l30.915-17.85v35.7Z" fill="#28afb0"/>
        </g>
      </g>
      <g id="Group_1116-4" data-name="Group 1116">
        <g id="Path_1219-4" data-name="Path 1219">
          <path id="Path_3032" data-name="Path 3032" d="M508.784,623.064l30.915-17.85v35.7Z" fill="#f4d35e"/>
        </g>
      </g>
    </g>
  </g>
</svg>
