<svg xmlns="http://www.w3.org/2000/svg" width="166.746" height="125.999" viewBox="0 0 166.746 125.999">
  <g id="Group_1749" data-name="Group 1749" transform="translate(-452.85 -528.09)">
    <g id="Group_1619" data-name="Group 1619" transform="translate(501.907 557.01)">
      <path id="Path_1420" data-name="Path 1420" d="M538.867,606.914H470.381V538.425h68.486Zm-65.688-2.8h62.889V541.223H473.179Z" transform="translate(-470.381 -538.425)" fill="#9b9b9b"/>
    </g>
    <g id="Group_1635" data-name="Group 1635" transform="translate(541.565 528.09)">
      <g id="Group_1620" data-name="Group 1620" transform="translate(26.03 18.74)">
        <path id="Path_1421" data-name="Path 1421" d="M515.382,560.512H495.254a1.4,1.4,0,1,1,0-2.8h17.33V536.186a1.4,1.4,0,1,1,2.8,0Z" transform="translate(-493.855 -534.787)" fill="#9b9b9b"/>
      </g>
      <g id="Group_1621" data-name="Group 1621" transform="translate(26.03 43.111)">
        <path id="Path_1422" data-name="Path 1422" d="M536.481,557.913H495.254a1.4,1.4,0,0,1,0-2.8h38.429V544.9a1.4,1.4,0,1,1,2.8,0Z" transform="translate(-493.855 -543.496)" fill="#9b9b9b"/>
      </g>
      <g id="Group_1622" data-name="Group 1622" transform="translate(35.393)">
        <path id="Path_1423" data-name="Path 1423" d="M507.977,549.637a10.773,10.773,0,1,1,10.773-10.776A10.788,10.788,0,0,1,507.977,549.637Zm0-18.748a7.975,7.975,0,1,0,7.975,7.972A7.982,7.982,0,0,0,507.977,530.888Z" transform="translate(-497.201 -528.09)" fill="#9b9b9b"/>
      </g>
      <g id="Group_1623" data-name="Group 1623" transform="translate(56.481 24.362)">
        <path id="Path_1424" data-name="Path 1424" d="M515.513,558.343a10.773,10.773,0,1,1,10.773-10.774A10.788,10.788,0,0,1,515.513,558.343Zm0-18.749a7.975,7.975,0,1,0,7.975,7.975A7.985,7.985,0,0,0,515.513,539.594Z" transform="translate(-504.737 -536.796)" fill="#9b9b9b"/>
      </g>
      <g id="Group_1628" data-name="Group 1628" transform="translate(26.03 68.472)">
        <g id="Group_1624" data-name="Group 1624" transform="translate(0 13.062)">
          <path id="Path_1425" data-name="Path 1425" d="M513.983,582.949a1.4,1.4,0,0,1-1.4-1.4V560.025h-17.33a1.4,1.4,0,0,1,0-2.8h20.128V581.55A1.4,1.4,0,0,1,513.983,582.949Z" transform="translate(-493.855 -557.227)" fill="#9b9b9b"/>
        </g>
        <g id="Group_1625" data-name="Group 1625">
          <path id="Path_1426" data-name="Path 1426" d="M535.082,566.976a1.4,1.4,0,0,1-1.4-1.4V555.357H495.254a1.4,1.4,0,1,1,0-2.8h41.227v13.018A1.4,1.4,0,0,1,535.082,566.976Z" transform="translate(-493.855 -552.559)" fill="#9b9b9b"/>
        </g>
        <g id="Group_1626" data-name="Group 1626" transform="translate(9.363 35.981)">
          <path id="Path_1427" data-name="Path 1427" d="M507.977,586.964a10.773,10.773,0,1,1,10.773-10.773A10.788,10.788,0,0,1,507.977,586.964Zm0-18.749a7.975,7.975,0,1,0,7.975,7.975A7.983,7.983,0,0,0,507.977,568.215Z" transform="translate(-497.201 -565.417)" fill="#9b9b9b"/>
        </g>
        <g id="Group_1627" data-name="Group 1627" transform="translate(30.451 11.619)">
          <path id="Path_1428" data-name="Path 1428" d="M515.513,578.258a10.773,10.773,0,1,1,10.773-10.773A10.788,10.788,0,0,1,515.513,578.258Zm0-18.749a7.975,7.975,0,1,0,7.975,7.975A7.985,7.985,0,0,0,515.513,559.509Z" transform="translate(-504.737 -556.711)" fill="#9b9b9b"/>
        </g>
      </g>
      <g id="Group_1631" data-name="Group 1631" transform="translate(0 11.126)">
        <g id="Group_1629" data-name="Group 1629" transform="translate(13.015)">
          <path id="Path_1429" data-name="Path 1429" d="M490.6,551.878a1.4,1.4,0,0,1-1.4-1.4V533.465a1.4,1.4,0,0,1,2.8,0v17.014A1.4,1.4,0,0,1,490.6,551.878Z" transform="translate(-489.204 -532.066)" fill="#9b9b9b"/>
        </g>
        <g id="Group_1630" data-name="Group 1630">
          <path id="Path_1430" data-name="Path 1430" d="M485.952,551.878a1.4,1.4,0,0,1-1.4-1.4V533.465a1.4,1.4,0,0,1,2.8,0v17.014A1.4,1.4,0,0,1,485.952,551.878Z" transform="translate(-484.553 -532.066)" fill="#9b9b9b"/>
        </g>
      </g>
      <g id="Group_1634" data-name="Group 1634" transform="translate(0 95.825)">
        <g id="Group_1632" data-name="Group 1632" transform="translate(13.015)">
          <path id="Path_1431" data-name="Path 1431" d="M490.6,582.146a1.4,1.4,0,0,1-1.4-1.4V563.733a1.4,1.4,0,0,1,2.8,0v17.014A1.4,1.4,0,0,1,490.6,582.146Z" transform="translate(-489.204 -562.334)" fill="#9b9b9b"/>
        </g>
        <g id="Group_1633" data-name="Group 1633">
          <path id="Path_1432" data-name="Path 1432" d="M485.952,582.146a1.4,1.4,0,0,1-1.4-1.4V563.733a1.4,1.4,0,0,1,2.8,0v17.014A1.4,1.4,0,0,1,485.952,582.146Z" transform="translate(-484.553 -562.334)" fill="#9b9b9b"/>
        </g>
      </g>
    </g>
    <g id="Group_1651" data-name="Group 1651" transform="translate(452.85 528.09)">
      <g id="Group_1636" data-name="Group 1636" transform="translate(30.474 18.74)">
        <path id="Path_1433" data-name="Path 1433" d="M483.868,560.512H463.74V536.186a1.4,1.4,0,1,1,2.8,0v21.527h17.33a1.4,1.4,0,1,1,0,2.8Z" transform="translate(-463.74 -534.787)" fill="#9b9b9b"/>
      </g>
      <g id="Group_1637" data-name="Group 1637" transform="translate(9.374 43.111)">
        <path id="Path_1434" data-name="Path 1434" d="M497.427,557.913H456.2V544.9a1.4,1.4,0,1,1,2.8,0v10.219h38.429a1.4,1.4,0,0,1,0,2.8Z" transform="translate(-456.2 -543.496)" fill="#9b9b9b"/>
      </g>
      <g id="Group_1638" data-name="Group 1638" transform="translate(21.088)">
        <path id="Path_1435" data-name="Path 1435" d="M471.159,549.637a10.773,10.773,0,1,1,10.776-10.776A10.786,10.786,0,0,1,471.159,549.637Zm0-18.748a7.975,7.975,0,1,0,7.978,7.972A7.982,7.982,0,0,0,471.159,530.888Z" transform="translate(-460.386 -528.09)" fill="#9b9b9b"/>
      </g>
      <g id="Group_1639" data-name="Group 1639" transform="translate(0 24.362)">
        <path id="Path_1436" data-name="Path 1436" d="M463.624,558.343A10.773,10.773,0,1,1,474.4,547.569,10.785,10.785,0,0,1,463.624,558.343Zm0-18.749a7.975,7.975,0,1,0,7.975,7.975A7.982,7.982,0,0,0,463.624,539.594Z" transform="translate(-452.85 -536.796)" fill="#9b9b9b"/>
      </g>
      <g id="Group_1644" data-name="Group 1644" transform="translate(0 68.472)">
        <g id="Group_1640" data-name="Group 1640" transform="translate(30.474 13.062)">
          <path id="Path_1437" data-name="Path 1437" d="M465.139,582.949a1.4,1.4,0,0,1-1.4-1.4V557.227h20.128a1.4,1.4,0,0,1,0,2.8h-17.33V581.55A1.4,1.4,0,0,1,465.139,582.949Z" transform="translate(-463.74 -557.227)" fill="#9b9b9b"/>
        </g>
        <g id="Group_1641" data-name="Group 1641" transform="translate(9.374)">
          <path id="Path_1438" data-name="Path 1438" d="M457.6,566.976a1.4,1.4,0,0,1-1.4-1.4V552.559h41.227a1.4,1.4,0,0,1,0,2.8H459v10.219A1.4,1.4,0,0,1,457.6,566.976Z" transform="translate(-456.2 -552.559)" fill="#9b9b9b"/>
        </g>
        <g id="Group_1642" data-name="Group 1642" transform="translate(21.088 35.981)">
          <path id="Path_1439" data-name="Path 1439" d="M471.159,586.964a10.773,10.773,0,1,1,10.776-10.773A10.785,10.785,0,0,1,471.159,586.964Zm0-18.749a7.975,7.975,0,1,0,7.978,7.975A7.982,7.982,0,0,0,471.159,568.215Z" transform="translate(-460.386 -565.417)" fill="#9b9b9b"/>
        </g>
        <g id="Group_1643" data-name="Group 1643" transform="translate(0 11.619)">
          <path id="Path_1440" data-name="Path 1440" d="M463.624,578.258A10.773,10.773,0,1,1,474.4,567.484,10.785,10.785,0,0,1,463.624,578.258Zm0-18.749a7.975,7.975,0,1,0,7.975,7.975A7.982,7.982,0,0,0,463.624,559.509Z" transform="translate(-452.85 -556.711)" fill="#9b9b9b"/>
        </g>
      </g>
      <g id="Group_1647" data-name="Group 1647" transform="translate(62.218 11.126)">
        <g id="Group_1645" data-name="Group 1645">
          <path id="Path_1441" data-name="Path 1441" d="M476.483,551.878a1.4,1.4,0,0,1-1.4-1.4V533.465a1.4,1.4,0,0,1,2.8,0v17.014A1.4,1.4,0,0,1,476.483,551.878Z" transform="translate(-475.084 -532.066)" fill="#9b9b9b"/>
        </g>
        <g id="Group_1646" data-name="Group 1646" transform="translate(13.015)">
          <path id="Path_1442" data-name="Path 1442" d="M481.134,551.878a1.4,1.4,0,0,1-1.4-1.4V533.465a1.4,1.4,0,0,1,2.8,0v17.014A1.4,1.4,0,0,1,481.134,551.878Z" transform="translate(-479.735 -532.066)" fill="#9b9b9b"/>
        </g>
      </g>
      <g id="Group_1650" data-name="Group 1650" transform="translate(62.218 95.825)">
        <g id="Group_1648" data-name="Group 1648">
          <path id="Path_1443" data-name="Path 1443" d="M476.483,582.146a1.4,1.4,0,0,1-1.4-1.4V563.733a1.4,1.4,0,0,1,2.8,0v17.014A1.4,1.4,0,0,1,476.483,582.146Z" transform="translate(-475.084 -562.334)" fill="#9b9b9b"/>
        </g>
        <g id="Group_1649" data-name="Group 1649" transform="translate(13.015)">
          <path id="Path_1444" data-name="Path 1444" d="M481.134,582.146a1.4,1.4,0,0,1-1.4-1.4V563.733a1.4,1.4,0,0,1,2.8,0v17.014A1.4,1.4,0,0,1,481.134,582.146Z" transform="translate(-479.735 -562.334)" fill="#9b9b9b"/>
        </g>
      </g>
    </g>
    <g id="Group_1652" data-name="Group 1652" transform="translate(538.962 571.201)">
      <path id="Path_1445" data-name="Path 1445" d="M496.476,560.647a1.4,1.4,0,0,1-1.4-1.4V546.294H485.022a1.4,1.4,0,0,1,0-2.8h12.853v15.752A1.4,1.4,0,0,1,496.476,560.647Z" transform="translate(-483.623 -543.496)" fill="#e9791a"/>
    </g>
  </g>
</svg>
