<svg xmlns="http://www.w3.org/2000/svg" width="180.52" height="118.752" viewBox="0 0 180.52 118.752">
  <g id="Group_1750" data-name="Group 1750" transform="translate(-525.549 -531.017)">
    <g id="Group_1688" data-name="Group 1688" transform="translate(593.936 567.352)">
      <g id="Group_1654" data-name="Group 1654" transform="translate(18.171 10.713)">
        <path id="Path_1446" data-name="Path 1446" d="M583.7,573.367H557.121V546.792H583.7Zm-24.336-2.239h22.1v-22.1h-22.1Z" transform="translate(-557.121 -546.792)" fill="#e9791a"/>
      </g>
      <g id="Group_1670" data-name="Group 1670" transform="translate(32.864)">
        <g id="Group_1655" data-name="Group 1655" transform="translate(9.643 6.942)">
          <path id="Path_1447" data-name="Path 1447" d="M573.892,556.351h-8.057a1.12,1.12,0,0,1,0-2.239h5.818v-7.375a1.12,1.12,0,1,1,2.239,0Z" transform="translate(-564.717 -545.615)" fill="#e9791a"/>
        </g>
        <g id="Group_1656" data-name="Group 1656" transform="translate(9.643 15.97)">
          <path id="Path_1448" data-name="Path 1448" d="M581.71,554.978H565.835a1.121,1.121,0,0,1,0-2.243H579.47v-3.185a1.12,1.12,0,0,1,2.239,0Z" transform="translate(-564.717 -548.433)" fill="#e9791a"/>
        </g>
        <g id="Group_1657" data-name="Group 1657" transform="translate(13.113)">
          <path id="Path_1449" data-name="Path 1449" d="M570.391,552.633a4.592,4.592,0,1,1,4.594-4.591A4.593,4.593,0,0,1,570.391,552.633Zm0-6.946a2.353,2.353,0,1,0,2.355,2.355A2.36,2.36,0,0,0,570.391,545.687Z" transform="translate(-565.8 -543.448)" fill="#e9791a"/>
        </g>
        <g id="Group_1658" data-name="Group 1658" transform="translate(20.924 9.025)">
          <path id="Path_1450" data-name="Path 1450" d="M572.832,555.45a4.592,4.592,0,1,1,4.591-4.594A4.6,4.6,0,0,1,572.832,555.45Zm0-6.946a2.353,2.353,0,1,0,2.352,2.352A2.36,2.36,0,0,0,572.832,548.5Z" transform="translate(-568.238 -546.265)" fill="#e9791a"/>
        </g>
        <g id="Group_1663" data-name="Group 1663" transform="translate(9.643 25.364)">
          <g id="Group_1659" data-name="Group 1659" transform="translate(0 4.838)">
            <path id="Path_1451" data-name="Path 1451" d="M572.771,563.611a1.12,1.12,0,0,1-1.118-1.122v-7.375h-5.818a1.12,1.12,0,0,1,0-2.239h8.057v9.614A1.121,1.121,0,0,1,572.771,563.611Z" transform="translate(-564.717 -552.875)" fill="#e9791a"/>
          </g>
          <g id="Group_1660" data-name="Group 1660">
            <path id="Path_1452" data-name="Path 1452" d="M580.591,557.91a1.12,1.12,0,0,1-1.121-1.118V553.6H565.835a1.12,1.12,0,0,1,0-2.239H581.71v5.427A1.117,1.117,0,0,1,580.591,557.91Z" transform="translate(-564.717 -551.365)" fill="#e9791a"/>
          </g>
          <g id="Group_1661" data-name="Group 1661" transform="translate(3.47 13.328)">
            <path id="Path_1453" data-name="Path 1453" d="M570.391,564.713a4.594,4.594,0,1,1,4.594-4.594A4.6,4.6,0,0,1,570.391,564.713Zm0-6.946a2.352,2.352,0,1,0,2.355,2.352A2.357,2.357,0,0,0,570.391,557.768Z" transform="translate(-565.8 -555.525)" fill="#e9791a"/>
          </g>
          <g id="Group_1662" data-name="Group 1662" transform="translate(11.28 4.306)">
            <path id="Path_1454" data-name="Path 1454" d="M572.832,561.894a4.592,4.592,0,1,1,4.591-4.591A4.6,4.6,0,0,1,572.832,561.894Zm0-6.945a2.353,2.353,0,1,0,2.352,2.355A2.36,2.36,0,0,0,572.832,554.949Z" transform="translate(-568.238 -552.709)" fill="#e9791a"/>
          </g>
        </g>
        <g id="Group_1666" data-name="Group 1666" transform="translate(0 4.123)">
          <g id="Group_1664" data-name="Group 1664" transform="translate(4.822)">
            <path id="Path_1455" data-name="Path 1455" d="M564.333,553.276a1.118,1.118,0,0,1-1.121-1.118v-6.3a1.12,1.12,0,1,1,2.24,0v6.3A1.117,1.117,0,0,1,564.333,553.276Z" transform="translate(-563.212 -544.735)" fill="#e9791a"/>
          </g>
          <g id="Group_1665" data-name="Group 1665">
            <path id="Path_1456" data-name="Path 1456" d="M562.828,553.276a1.118,1.118,0,0,1-1.121-1.118v-6.3a1.12,1.12,0,1,1,2.24,0v6.3A1.117,1.117,0,0,1,562.828,553.276Z" transform="translate(-561.707 -544.735)" fill="#e9791a"/>
          </g>
        </g>
        <g id="Group_1669" data-name="Group 1669" transform="translate(0 35.497)">
          <g id="Group_1667" data-name="Group 1667" transform="translate(4.822)">
            <path id="Path_1457" data-name="Path 1457" d="M564.333,563.069a1.118,1.118,0,0,1-1.121-1.118v-6.3a1.12,1.12,0,1,1,2.24,0v6.3A1.117,1.117,0,0,1,564.333,563.069Z" transform="translate(-563.212 -554.528)" fill="#e9791a"/>
          </g>
          <g id="Group_1668" data-name="Group 1668">
            <path id="Path_1458" data-name="Path 1458" d="M562.828,563.069a1.118,1.118,0,0,1-1.121-1.118v-6.3a1.12,1.12,0,1,1,2.24,0v6.3A1.117,1.117,0,0,1,562.828,563.069Z" transform="translate(-561.707 -554.528)" fill="#e9791a"/>
          </g>
        </g>
      </g>
      <g id="Group_1686" data-name="Group 1686">
        <g id="Group_1671" data-name="Group 1671" transform="translate(11.29 6.942)">
          <path id="Path_1459" data-name="Path 1459" d="M563.03,556.351h-8.057v-9.614a1.12,1.12,0,1,1,2.24,0v7.375h5.818a1.12,1.12,0,1,1,0,2.239Z" transform="translate(-554.973 -545.615)" fill="#e9791a"/>
        </g>
        <g id="Group_1672" data-name="Group 1672" transform="translate(3.473 15.97)">
          <path id="Path_1460" data-name="Path 1460" d="M568.407,554.978H552.533v-5.427a1.12,1.12,0,0,1,2.239,0v3.185h13.635a1.121,1.121,0,1,1,0,2.243Z" transform="translate(-552.533 -548.433)" fill="#e9791a"/>
        </g>
        <g id="Group_1673" data-name="Group 1673" transform="translate(7.814)">
          <path id="Path_1461" data-name="Path 1461" d="M558.479,552.633a4.592,4.592,0,1,1,4.594-4.591A4.593,4.593,0,0,1,558.479,552.633Zm0-6.946a2.353,2.353,0,1,0,2.355,2.355A2.36,2.36,0,0,0,558.479,545.687Z" transform="translate(-553.888 -543.448)" fill="#e9791a"/>
        </g>
        <g id="Group_1674" data-name="Group 1674" transform="translate(0 9.025)">
          <path id="Path_1462" data-name="Path 1462" d="M556.043,555.45a4.592,4.592,0,1,1,4.591-4.594A4.6,4.6,0,0,1,556.043,555.45Zm0-6.946a2.353,2.353,0,1,0,2.352,2.352A2.36,2.36,0,0,0,556.043,548.5Z" transform="translate(-551.449 -546.265)" fill="#e9791a"/>
        </g>
        <g id="Group_1679" data-name="Group 1679" transform="translate(0 25.364)">
          <g id="Group_1675" data-name="Group 1675" transform="translate(11.29 4.838)">
            <path id="Path_1463" data-name="Path 1463" d="M556.091,563.611a1.12,1.12,0,0,1-1.118-1.122v-9.614h8.057a1.12,1.12,0,1,1,0,2.239h-5.818v7.375A1.121,1.121,0,0,1,556.091,563.611Z" transform="translate(-554.973 -552.875)" fill="#e9791a"/>
          </g>
          <g id="Group_1676" data-name="Group 1676" transform="translate(3.473)">
            <path id="Path_1464" data-name="Path 1464" d="M553.654,557.91a1.118,1.118,0,0,1-1.121-1.118v-5.427h15.874a1.12,1.12,0,1,1,0,2.239H554.772v3.188A1.117,1.117,0,0,1,553.654,557.91Z" transform="translate(-552.533 -551.365)" fill="#e9791a"/>
          </g>
          <g id="Group_1677" data-name="Group 1677" transform="translate(7.814 13.328)">
            <path id="Path_1465" data-name="Path 1465" d="M558.479,564.713a4.594,4.594,0,1,1,4.594-4.594A4.6,4.6,0,0,1,558.479,564.713Zm0-6.946a2.352,2.352,0,1,0,2.355,2.352A2.357,2.357,0,0,0,558.479,557.768Z" transform="translate(-553.888 -555.525)" fill="#e9791a"/>
          </g>
          <g id="Group_1678" data-name="Group 1678" transform="translate(0 4.306)">
            <path id="Path_1466" data-name="Path 1466" d="M556.043,561.894a4.592,4.592,0,1,1,4.591-4.591A4.6,4.6,0,0,1,556.043,561.894Zm0-6.945a2.353,2.353,0,1,0,2.352,2.355A2.36,2.36,0,0,0,556.043,554.949Z" transform="translate(-551.449 -552.709)" fill="#e9791a"/>
          </g>
        </g>
        <g id="Group_1682" data-name="Group 1682" transform="translate(23.051 4.123)">
          <g id="Group_1680" data-name="Group 1680">
            <path id="Path_1467" data-name="Path 1467" d="M559.762,553.276a1.117,1.117,0,0,1-1.118-1.118v-6.3a1.12,1.12,0,1,1,2.24,0v6.3A1.118,1.118,0,0,1,559.762,553.276Z" transform="translate(-558.644 -544.735)" fill="#e9791a"/>
          </g>
          <g id="Group_1681" data-name="Group 1681" transform="translate(4.818)">
            <path id="Path_1468" data-name="Path 1468" d="M561.269,553.276a1.12,1.12,0,0,1-1.121-1.118v-6.3a1.121,1.121,0,1,1,2.243,0v6.3A1.12,1.12,0,0,1,561.269,553.276Z" transform="translate(-560.148 -544.735)" fill="#e9791a"/>
          </g>
        </g>
        <g id="Group_1685" data-name="Group 1685" transform="translate(23.051 35.497)">
          <g id="Group_1683" data-name="Group 1683">
            <path id="Path_1469" data-name="Path 1469" d="M559.762,563.069a1.117,1.117,0,0,1-1.118-1.118v-6.3a1.12,1.12,0,1,1,2.24,0v6.3A1.118,1.118,0,0,1,559.762,563.069Z" transform="translate(-558.644 -554.528)" fill="#e9791a"/>
          </g>
          <g id="Group_1684" data-name="Group 1684" transform="translate(4.818)">
            <path id="Path_1470" data-name="Path 1470" d="M561.269,563.069a1.12,1.12,0,0,1-1.121-1.118v-6.3a1.121,1.121,0,0,1,2.243,0v6.3A1.12,1.12,0,0,1,561.269,563.069Z" transform="translate(-560.148 -554.528)" fill="#e9791a"/>
          </g>
        </g>
      </g>
      <g id="Group_1687" data-name="Group 1687" transform="translate(31.9 15.97)">
        <path id="Path_1471" data-name="Path 1471" d="M566.769,555.99a1.121,1.121,0,0,1-1.122-1.121v-4.2h-3.12a1.12,1.12,0,1,1,0-2.24h5.363v6.436A1.12,1.12,0,0,1,566.769,555.99Z" transform="translate(-561.406 -548.433)" fill="#e9791a"/>
      </g>
    </g>
    <g id="Group_1689" data-name="Group 1689" transform="translate(577.109 548.443)">
      <path id="Path_1472" data-name="Path 1472" d="M611.6,639.271a4.66,4.66,0,0,1-3.892-2.054l-8.365-12.376a7.889,7.889,0,0,0-6.552-3.448H557.353a10.97,10.97,0,0,1-11.066-10.844v-61.76a10.97,10.97,0,0,1,11.066-10.844h73.916a10.971,10.971,0,0,1,11.069,10.844v61.76a10.971,10.971,0,0,1-11.069,10.844h-2.848a7.931,7.931,0,0,0-7.048,4.293l-5.555,11.026a4.646,4.646,0,0,1-3.905,2.55Q611.758,639.271,611.6,639.271Zm-54.252-98.186a7.794,7.794,0,0,0-7.862,7.7v61.76a7.794,7.794,0,0,0,7.862,7.7H592.8a11.1,11.1,0,0,1,9.223,4.855l8.365,12.373a1.5,1.5,0,0,0,1.326.647,1.475,1.475,0,0,0,1.237-.81l5.552-11.023a11.16,11.16,0,0,1,9.922-6.042h2.848a7.8,7.8,0,0,0,7.865-7.7v-61.76a7.8,7.8,0,0,0-7.865-7.7Z" transform="translate(-546.287 -537.944)" fill="#9b9b9b"/>
    </g>
    <g id="Group_1690" data-name="Group 1690" transform="translate(560.188 531.017)">
      <path id="Path_1473" data-name="Path 1473" d="M555.457,616.143H551.4a11.078,11.078,0,0,1-11.066-11.062v-63A11.076,11.076,0,0,1,551.4,531.017h73.919a11.071,11.071,0,0,1,11.062,11.062,1.6,1.6,0,1,1-3.2,0,7.866,7.866,0,0,0-7.859-7.858H551.4a7.869,7.869,0,0,0-7.862,7.858v63a7.871,7.871,0,0,0,7.862,7.859h4.059a1.6,1.6,0,0,1,0,3.2Z" transform="translate(-540.332 -531.017)" fill="#9b9b9b"/>
    </g>
    <g id="Group_1695" data-name="Group 1695" transform="translate(532.528 531.667)">
      <g id="Group_1691" data-name="Group 1691" transform="translate(137.359 21.465)">
        <path id="Path_1474" data-name="Path 1474" d="M598.4,564.037H576.83a1.6,1.6,0,0,1,0-3.2h18.364V539.522a1.6,1.6,0,0,1,3.2,0Z" transform="translate(-575.228 -537.92)" fill="#9b9b9b"/>
      </g>
      <g id="Group_1692" data-name="Group 1692" transform="translate(146.592)">
        <path id="Path_1475" data-name="Path 1475" d="M590.444,555.889a12.334,12.334,0,1,1,12.337-12.338A12.35,12.35,0,0,1,590.444,555.889Zm0-21.465a9.131,9.131,0,1,0,9.134,9.127A9.14,9.14,0,0,0,590.444,534.424Z" transform="translate(-578.11 -531.22)" fill="#9b9b9b"/>
      </g>
      <g id="Group_1693" data-name="Group 1693" transform="translate(6.736 21.465)">
        <path id="Path_1476" data-name="Path 1476" d="M555.4,564.037H533.83V539.522a1.6,1.6,0,1,1,3.2,0v21.311H555.4a1.6,1.6,0,1,1,0,3.2Z" transform="translate(-533.83 -537.92)" fill="#9b9b9b"/>
      </g>
      <g id="Group_1694" data-name="Group 1694" transform="translate(-4)">
        <path id="Path_1477" data-name="Path 1477" d="M542.817,555.889a12.334,12.334,0,1,1,12.334-12.338A12.353,12.353,0,0,1,542.817,555.889Zm0-21.465a9.131,9.131,0,1,0,9.131,9.127A9.141,9.141,0,0,0,542.817,534.424Z" transform="translate(-530.479 -531.22)" fill="#9b9b9b"/>
      </g>
    </g>
    <g id="Group_1700" data-name="Group 1700" transform="translate(532.528 598.545)">
      <g id="Group_1696" data-name="Group 1696" transform="translate(6.736)">
        <path id="Path_1478" data-name="Path 1478" d="M535.432,580.337a1.6,1.6,0,0,1-1.6-1.6V554.22H555.4a1.6,1.6,0,1,1,0,3.2H537.034v21.311A1.6,1.6,0,0,1,535.432,580.337Z" transform="translate(-533.83 -554.22)" fill="#9b9b9b"/>
      </g>
      <g id="Group_1697" data-name="Group 1697" transform="translate(-4 22.913)">
        <path id="Path_1479" data-name="Path 1479" d="M542.817,586.041a12.334,12.334,0,1,1,12.334-12.334A12.351,12.351,0,0,1,542.817,586.041Zm0-21.465a9.131,9.131,0,1,0,9.131,9.131A9.142,9.142,0,0,0,542.817,564.576Z" transform="translate(-530.479 -561.372)" fill="#9b9b9b"/>
      </g>
      <g id="Group_1698" data-name="Group 1698" transform="translate(137.359)">
        <path id="Path_1480" data-name="Path 1480" d="M596.8,580.337a1.6,1.6,0,0,1-1.6-1.6V557.424H576.83a1.6,1.6,0,0,1,0-3.2H598.4v24.515A1.6,1.6,0,0,1,596.8,580.337Z" transform="translate(-575.228 -554.22)" fill="#9b9b9b"/>
      </g>
      <g id="Group_1699" data-name="Group 1699" transform="translate(146.592 22.913)">
        <path id="Path_1481" data-name="Path 1481" d="M590.444,586.041a12.334,12.334,0,1,1,12.337-12.334A12.348,12.348,0,0,1,590.444,586.041Zm0-21.465a9.131,9.131,0,1,0,9.134,9.131A9.141,9.141,0,0,0,590.444,564.576Z" transform="translate(-578.11 -561.372)" fill="#9b9b9b"/>
      </g>
    </g>
    <g id="Group_1701" data-name="Group 1701" transform="translate(670.293 587.378)">
      <path id="Path_1482" data-name="Path 1482" d="M595.141,552.85h-17.56a1.6,1.6,0,0,1,0-3.2h17.56a1.6,1.6,0,1,1,0,3.2Z" transform="translate(-575.979 -549.646)" fill="#9b9b9b"/>
    </g>
    <g id="Group_1702" data-name="Group 1702" transform="translate(688.34 580.063)">
      <path id="Path_1483" data-name="Path 1483" d="M590.477,565.094a8.868,8.868,0,1,1,8.865-8.868A8.879,8.879,0,0,1,590.477,565.094Zm0-14.532a5.664,5.664,0,1,0,5.661,5.664A5.67,5.67,0,0,0,590.477,550.562Z" transform="translate(-581.612 -547.358)" fill="#9b9b9b"/>
    </g>
    <g id="Group_1703" data-name="Group 1703" transform="translate(540.562 587.378)">
      <path id="Path_1484" data-name="Path 1484" d="M553.4,552.85h-17.56a1.6,1.6,0,0,1,0-3.2H553.4a1.6,1.6,0,1,1,0,3.2Z" transform="translate(-534.235 -549.646)" fill="#9b9b9b"/>
    </g>
    <g id="Group_1704" data-name="Group 1704" transform="translate(525.549 580.063)">
      <path id="Path_1485" data-name="Path 1485" d="M538.414,565.094a8.868,8.868,0,1,1,8.868-8.868A8.876,8.876,0,0,1,538.414,565.094Zm0-14.532a5.664,5.664,0,1,0,5.664,5.664A5.669,5.669,0,0,0,538.414,550.562Z" transform="translate(-529.549 -547.358)" fill="#9b9b9b"/>
    </g>
  </g>
</svg>
