<svg xmlns="http://www.w3.org/2000/svg" width="155.519" height="128.051" viewBox="0 0 155.519 128.051">
  <g id="Group_1747" data-name="Group 1747" transform="translate(-330.168 -534.737)">
    <g id="Group_1581" data-name="Group 1581" transform="translate(352.611 582.421)">
      <path id="Path_1397" data-name="Path 1397" d="M339.642,567.574l-2.492-2.028,5.677-6.972L337.15,551.6l2.492-2.028,7.331,9Z" transform="translate(-337.15 -549.571)" fill="#9b9b9b"/>
    </g>
    <g id="Group_1582" data-name="Group 1582" transform="translate(352.611 603.256)">
      <path id="Path_1398" data-name="Path 1398" d="M339.642,574.056l-2.492-2.028,5.677-6.975-5.677-6.972,2.492-2.028,7.331,9Z" transform="translate(-337.15 -556.053)" fill="#9b9b9b"/>
    </g>
    <g id="Group_1585" data-name="Group 1585" transform="translate(383.891 569.511)">
      <g id="Group_1583" data-name="Group 1583">
        <path id="Path_1399" data-name="Path 1399" d="M376.126,605.28a2.658,2.658,0,0,1-.743-.106l-24.4-7.425a2.609,2.609,0,0,1-1.736-3.25l3.259-10.736a23.1,23.1,0,1,1,40.563-15.092c0,.585-.026,1.16-.071,1.733.717,1.447,1.623,3.247,2.395,4.774l1.376,2.7-1.218,1.154,1.421-.752a5.41,5.41,0,0,1,.556,2.34,5.212,5.212,0,0,1-5.191,5.2l.01,4.8a6.236,6.236,0,0,1-6.217,6.229l-5.548,0-1.954,6.564a2.61,2.61,0,0,1-2.5,1.861ZM352.5,594.852l23.224,7.062,2.462-8.274,7.943,0a3.017,3.017,0,0,0,3-3.009l-.019-8.023h3.218a2,2,0,0,0,1.832-2.758l-.01-.019v0l-.01-.026.109-.052,1.2-.919-1.553.5-1.369-2.7c-.852-1.681-1.868-3.69-2.613-5.2l-.2-.408.042-.453c.058-.62.1-1.254.1-1.893a19.878,19.878,0,1,0-34.375,13.594l.636.678Zm-.177.578v0Z" transform="translate(-346.881 -545.555)" fill="#e9791a"/>
      </g>
      <g id="Group_1584" data-name="Group 1584" transform="translate(6.557 6.728)">
        <path id="Path_1400" data-name="Path 1400" d="M381.763,565.678H348.921v-1.607a16.421,16.421,0,1,1,32.842,0Zm-29.531-3.215h26.217a13.207,13.207,0,0,0-26.217,0Z" transform="translate(-348.921 -547.648)" fill="#e9791a"/>
      </g>
    </g>
    <g id="Group_1586" data-name="Group 1586" transform="translate(437.258 631.894)">
      <path id="Path_1401" data-name="Path 1401" d="M396.464,595.856H378.935a15.447,15.447,0,1,1,0-30.894h17.528a15.447,15.447,0,1,1,0,30.894Zm-17.528-27.68a12.233,12.233,0,1,0,0,24.465h17.528a12.233,12.233,0,1,0,0-24.465Z" transform="translate(-363.483 -564.962)" fill="#9b9b9b"/>
    </g>
    <g id="Group_1587" data-name="Group 1587" transform="translate(447.964 643.153)">
      <circle id="Ellipse_2566" data-name="Ellipse 2566" cx="3.707" cy="3.707" r="3.707" fill="#9b9b9b"/>
    </g>
    <g id="Group_1588" data-name="Group 1588" transform="translate(461.473 645.734)">
      <rect id="Rectangle_407" data-name="Rectangle 407" width="12.495" height="3.214" fill="#9b9b9b"/>
    </g>
    <g id="Group_1589" data-name="Group 1589" transform="translate(336.263 631.894)">
      <path id="Path_1402" data-name="Path 1402" d="M365.044,595.856H347.513a15.447,15.447,0,1,1,0-30.894h17.532a15.447,15.447,0,0,1,0,30.894Zm-17.532-27.68a12.233,12.233,0,1,0,0,24.465h17.532a12.233,12.233,0,0,0,0-24.465Z" transform="translate(-332.064 -564.962)" fill="#9b9b9b"/>
    </g>
    <g id="Group_1590" data-name="Group 1590" transform="translate(346.967 643.153)">
      <circle id="Ellipse_2567" data-name="Ellipse 2567" cx="3.707" cy="3.707" r="3.707" fill="#9b9b9b"/>
    </g>
    <g id="Group_1591" data-name="Group 1591" transform="translate(360.476 645.734)">
      <rect id="Rectangle_408" data-name="Rectangle 408" width="12.495" height="3.214" fill="#9b9b9b"/>
    </g>
    <g id="Group_1595" data-name="Group 1595" transform="translate(330.168 534.737)">
      <g id="Group_1592" data-name="Group 1592">
        <path id="Path_1403" data-name="Path 1403" d="M344.906,574.42l-.768-8.856a15.449,15.449,0,0,1,1.479-30.827h17.532a15.449,15.449,0,0,1,0,30.9h-5.063Zm.71-36.468a12.234,12.234,0,1,0,0,24.468h1.475l.546,6.313,9.473-6.313h6.037a12.234,12.234,0,0,0,0-24.468Z" transform="translate(-330.168 -534.737)" fill="#9b9b9b"/>
      </g>
      <g id="Group_1593" data-name="Group 1593" transform="translate(10.704 13.841)">
        <rect id="Rectangle_409" data-name="Rectangle 409" width="7.415" height="3.214" fill="#9b9b9b"/>
      </g>
      <g id="Group_1594" data-name="Group 1594" transform="translate(24.231 13.841)">
        <rect id="Rectangle_410" data-name="Rectangle 410" width="11.924" height="3.214" fill="#9b9b9b"/>
      </g>
    </g>
    <g id="Group_1599" data-name="Group 1599" transform="translate(437.078 534.737)">
      <g id="Group_1596" data-name="Group 1596">
        <path id="Path_1404" data-name="Path 1404" d="M397.115,574.42l-13.176-8.785h-5.063a15.449,15.449,0,1,1,0-30.9h17.532a15.449,15.449,0,0,1,1.479,30.827Zm-18.239-36.468a12.234,12.234,0,1,0,0,24.468h6.037l9.473,6.313.546-6.313h1.475a12.234,12.234,0,1,0,0-24.468Z" transform="translate(-363.427 -534.737)" fill="#9b9b9b"/>
      </g>
      <g id="Group_1597" data-name="Group 1597" transform="translate(30.309 13.841)">
        <rect id="Rectangle_411" data-name="Rectangle 411" width="7.415" height="3.214" fill="#9b9b9b"/>
      </g>
      <g id="Group_1598" data-name="Group 1598" transform="translate(12.273 13.841)">
        <rect id="Rectangle_412" data-name="Rectangle 412" width="11.924" height="3.214" fill="#9b9b9b"/>
      </g>
    </g>
    <g id="Group_1602" data-name="Group 1602" transform="translate(394.132 545.866)">
      <g id="Group_1600" data-name="Group 1600" transform="translate(0 6.156)">
        <path id="Path_1405" data-name="Path 1405" d="M359.068,549.937l-9-7.33,2.031-2.493,6.971,5.679,6.972-5.679,2.031,2.493Z" transform="translate(-350.067 -540.114)" fill="#9b9b9b"/>
      </g>
      <g id="Group_1601" data-name="Group 1601" transform="translate(7.394)">
        <path id="Path_1406" data-name="Path 1406" d="M355.582,550.4h-3.215V538.2h23.371v3.214H355.582Z" transform="translate(-352.367 -538.199)" fill="#9b9b9b"/>
      </g>
    </g>
    <g id="Group_1605" data-name="Group 1605" transform="translate(453.05 586.169)">
      <g id="Group_1603" data-name="Group 1603">
        <path id="Path_1407" data-name="Path 1407" d="M375.727,568.737l-7.331-9,7.331-9,2.493,2.028-5.677,6.972,5.677,6.972Z" transform="translate(-368.396 -550.737)" fill="#9b9b9b"/>
      </g>
      <g id="Group_1604" data-name="Group 1604" transform="translate(3.776 7.393)">
        <path id="Path_1408" data-name="Path 1408" d="M381.776,586.051h-3.214v-29.8h-8.99v-3.214h12.2Z" transform="translate(-369.571 -553.037)" fill="#9b9b9b"/>
      </g>
    </g>
    <g id="Group_1606" data-name="Group 1606" transform="translate(342.972 575.584)">
      <path id="Path_1409" data-name="Path 1409" d="M351.541,564.892H334.151V547.444h3.215v14.233h14.175Z" transform="translate(-334.151 -547.444)" fill="#9b9b9b"/>
    </g>
    <g id="Group_1607" data-name="Group 1607" transform="translate(342.972 610.648)">
      <path id="Path_1410" data-name="Path 1410" d="M337.366,575.8h-3.215V558.353h17.389v3.214H337.366Z" transform="translate(-334.151 -558.353)" fill="#9b9b9b"/>
    </g>
  </g>
</svg>
