<svg xmlns="http://www.w3.org/2000/svg" width="134.62" height="127.799" viewBox="0 0 134.62 127.799">
  <g id="Group_1748" data-name="Group 1748" transform="translate(-394.785 -533.493)">
    <g id="Group_1609" data-name="Group 1609" transform="translate(394.785 616.044)">
      <path id="Path_1411" data-name="Path 1411" d="M433.315,576.494h-32.6a5.932,5.932,0,0,1-5.926-5.923v-5.755a5.933,5.933,0,0,1,5.926-5.926h32.6a5.932,5.932,0,0,1,5.923,5.926v5.755A5.932,5.932,0,0,1,433.315,576.494Zm-32.6-14.382a2.705,2.705,0,0,0-2.7,2.7v5.755a2.7,2.7,0,0,0,2.7,2.7h32.6a2.7,2.7,0,0,0,2.7-2.7v-5.755a2.7,2.7,0,0,0-2.7-2.7Z" transform="translate(-394.785 -558.89)" fill="#9b9b9b"/>
    </g>
    <g id="Group_1610" data-name="Group 1610" transform="translate(394.785 629.987)">
      <path id="Path_1412" data-name="Path 1412" d="M433.315,580.744h-32.6a5.932,5.932,0,0,1-5.926-5.923v-5.755a5.932,5.932,0,0,1,5.926-5.923h32.6a5.931,5.931,0,0,1,5.923,5.923v5.755A5.931,5.931,0,0,1,433.315,580.744Zm-32.6-14.378a2.7,2.7,0,0,0-2.7,2.7v5.755a2.7,2.7,0,0,0,2.7,2.7h32.6a2.7,2.7,0,0,0,2.7-2.7v-5.755a2.7,2.7,0,0,0-2.7-2.7Z" transform="translate(-394.785 -563.143)" fill="#9b9b9b"/>
    </g>
    <g id="Group_1611" data-name="Group 1611" transform="translate(394.785 643.691)">
      <path id="Path_1413" data-name="Path 1413" d="M433.315,585h-32.6a5.932,5.932,0,0,1-5.926-5.923v-5.758a5.929,5.929,0,0,1,5.926-5.919h32.6a5.928,5.928,0,0,1,5.923,5.919v5.758A5.931,5.931,0,0,1,433.315,585Zm-32.6-14.378a2.7,2.7,0,0,0-2.7,2.7v5.758a2.7,2.7,0,0,0,2.7,2.7h32.6a2.7,2.7,0,0,0,2.7-2.7v-5.758a2.7,2.7,0,0,0-2.7-2.7Z" transform="translate(-394.785 -567.396)" fill="#9b9b9b"/>
    </g>
    <g id="Group_1612" data-name="Group 1612" transform="translate(484.952 616.044)">
      <path id="Path_1414" data-name="Path 1414" d="M460.983,576.494h-32.6a5.93,5.93,0,0,1-5.923-5.923v-5.755a5.93,5.93,0,0,1,5.923-5.926h32.6a5.933,5.933,0,0,1,5.926,5.926v5.755A5.932,5.932,0,0,1,460.983,576.494Zm-32.6-14.382a2.7,2.7,0,0,0-2.7,2.7v5.755a2.7,2.7,0,0,0,2.7,2.7h32.6a2.7,2.7,0,0,0,2.7-2.7v-5.755a2.705,2.705,0,0,0-2.7-2.7Z" transform="translate(-422.456 -558.89)" fill="#9b9b9b"/>
    </g>
    <g id="Group_1615" data-name="Group 1615" transform="translate(437.361 644.171)">
      <path id="Path_1417" data-name="Path 1417" d="M454.9,570.768H403.758c-.552,0-1-.722-1-1.611s.445-1.611,1-1.611H454.9c.552,0,1,.722,1,1.611S455.449,570.768,454.9,570.768Z" transform="translate(-402.761 -567.545)" fill="#e9791a"/>
    </g>
    <g id="Group_1613" data-name="Group 1613" transform="translate(484.952 629.987)">
      <path id="Path_1415" data-name="Path 1415" d="M460.983,580.744h-32.6a5.929,5.929,0,0,1-5.923-5.923v-5.755a5.929,5.929,0,0,1,5.923-5.923h32.6a5.932,5.932,0,0,1,5.926,5.923v5.755A5.932,5.932,0,0,1,460.983,580.744Zm-32.6-14.378a2.7,2.7,0,0,0-2.7,2.7v5.755a2.7,2.7,0,0,0,2.7,2.7h32.6a2.7,2.7,0,0,0,2.7-2.7v-5.755a2.7,2.7,0,0,0-2.7-2.7Z" transform="translate(-422.456 -563.143)" fill="#9b9b9b"/>
    </g>
    <g id="Group_1614" data-name="Group 1614" transform="translate(484.952 643.691)">
      <path id="Path_1416" data-name="Path 1416" d="M460.983,585h-32.6a5.929,5.929,0,0,1-5.923-5.923v-5.758a5.927,5.927,0,0,1,5.923-5.919h32.6a5.929,5.929,0,0,1,5.926,5.919v5.758A5.932,5.932,0,0,1,460.983,585Zm-32.6-14.378a2.7,2.7,0,0,0-2.7,2.7v5.758a2.7,2.7,0,0,0,2.7,2.7h32.6a2.7,2.7,0,0,0,2.7-2.7v-5.758a2.7,2.7,0,0,0-2.7-2.7Z" transform="translate(-422.456 -567.396)" fill="#9b9b9b"/>
    </g>
    <g id="Group_1616" data-name="Group 1616" transform="translate(459.003 610.743)">
      <path id="Path_1418" data-name="Path 1418" d="M416.173,593.822a1.61,1.61,0,0,1-1.611-1.611V558.782a1.611,1.611,0,0,1,3.222,0v33.429A1.612,1.612,0,0,1,416.173,593.822Z" transform="translate(-414.562 -557.171)" fill="#e9791a"/>
    </g>
    <g id="Group_1617" data-name="Group 1617" transform="translate(398.971 533.493)">
      <path id="Path_1419" data-name="Path 1419" d="M458.159,611.52a28.7,28.7,0,0,1-18.551-6.79,31.115,31.115,0,1,1-12.19-59.649,31.54,31.54,0,0,1,8.169,1.07,31.435,31.435,0,0,1,54.982,8.688,22.789,22.789,0,1,1-8.917,44.511A28.59,28.59,0,0,1,458.159,611.52Zm-17.957-10.6.8.728a25.485,25.485,0,0,0,38.611-5.079l.7-1.086,1.219.432a19.591,19.591,0,1,0,7.723-37.957L488.1,557.9l-.322-1.092a28.165,28.165,0,0,0-50.19-7.885l-.676.986-1.151-.351a28.294,28.294,0,0,0-8.344-1.254,27.838,27.838,0,1,0,11.8,53.076Z" transform="translate(-396.084 -533.493)" fill="#9b9b9b"/>
    </g>
  </g>
</svg>
