<svg xmlns="http://www.w3.org/2000/svg" width="117.639" height="117.636" viewBox="0 0 117.639 117.636">
  <g id="Group_1580" data-name="Group 1580" transform="translate(-270.71 -534.863)">
    <g id="Group_1572" data-name="Group 1572" transform="translate(356.874 554.127)">
      <path id="Path_1392" data-name="Path 1392" d="M303.4,557.505l-2.191-1.782,4.99-6.131-4.99-6.128,2.191-1.782,6.444,7.911Z" transform="translate(-301.205 -541.681)" fill="#e9791a"/>
    </g>
    <g id="Group_1573" data-name="Group 1573" transform="translate(289.849 621.714)">
      <path id="Path_1393" data-name="Path 1393" d="M285.4,574.234l-7.914-6.443,1.785-2.191,6.128,4.992,6.127-4.992,1.785,2.191Z" transform="translate(-277.483 -565.601)" fill="#e9791a"/>
    </g>
    <g id="Group_1574" data-name="Group 1574" transform="translate(270.71 534.863)">
      <path id="Path_1394" data-name="Path 1394" d="M375.863,652.5H283.2a12.5,12.5,0,0,1-12.489-12.486V547.349A12.5,12.5,0,0,1,283.2,534.863h92.664a12.5,12.5,0,0,1,12.486,12.486v92.664A12.5,12.5,0,0,1,375.863,652.5ZM283.2,537.688a9.675,9.675,0,0,0-9.663,9.661v92.664a9.675,9.675,0,0,0,9.663,9.66h92.664a9.672,9.672,0,0,0,9.661-9.66V547.349a9.672,9.672,0,0,0-9.661-9.661Z" transform="translate(-270.71 -534.863)" fill="#9b9b9b"/>
    </g>
    <g id="Group_1575" data-name="Group 1575" transform="translate(290.944 549.5)">
      <path id="Path_1395" data-name="Path 1395" d="M289.546,563.393a11.675,11.675,0,1,1,11.675-11.675A11.69,11.69,0,0,1,289.546,563.393Zm0-20.525a8.85,8.85,0,1,0,8.85,8.849A8.86,8.86,0,0,0,289.546,542.869Z" transform="translate(-277.871 -540.043)" fill="#9b9b9b"/>
    </g>
    <g id="Group_1578" data-name="Group 1578" transform="translate(333.601 595.994)">
      <g id="Group_1576" data-name="Group 1576" transform="translate(0 13.305)">
        <rect id="Rectangle_405" data-name="Rectangle 405" width="29.439" height="2.826" fill="#9b9b9b"/>
      </g>
      <g id="Group_1577" data-name="Group 1577" transform="translate(13.307)">
        <rect id="Rectangle_406" data-name="Rectangle 406" width="2.826" height="29.437" fill="#9b9b9b"/>
      </g>
    </g>
    <g id="Group_1579" data-name="Group 1579" transform="translate(296.349 560.624)">
      <path id="Path_1396" data-name="Path 1396" d="M282.61,611.884h-2.826a67.979,67.979,0,0,1,67.9-67.9v2.826A65.153,65.153,0,0,0,282.61,611.884Z" transform="translate(-279.784 -543.98)" fill="#e9791a"/>
    </g>
  </g>
</svg>
