<svg xmlns="http://www.w3.org/2000/svg" width="139.554" height="128.023" viewBox="0 0 139.554 128.023">
  <g id="Group_1760" data-name="Group 1760" transform="translate(-605.483 -531.494)">
    <g id="Group_1706" data-name="Group 1706" transform="translate(694.657 531.494)">
      <path id="Path_1486" data-name="Path 1486" d="M664.494,563.247H632.741V547.37a15.876,15.876,0,0,1,31.753,0Zm-28.482-3.271h25.21V547.37a12.605,12.605,0,0,0-25.21,0Z" transform="translate(-632.741 -531.494)" fill="#9b9b9b"/>
    </g>
    <g id="Group_1707" data-name="Group 1707" transform="translate(676.032 560.149)">
      <path id="Path_1487" data-name="Path 1487" d="M682.094,597.039H641.007a13.975,13.975,0,0,1-13.959-13.959V554.212a13.975,13.975,0,0,1,13.959-13.959h41.087a13.974,13.974,0,0,1,13.959,13.959V583.08A13.974,13.974,0,0,1,682.094,597.039Zm-41.087-53.515a10.7,10.7,0,0,0-10.688,10.688V583.08a10.7,10.7,0,0,0,10.688,10.688h41.087a10.7,10.7,0,0,0,10.688-10.688V554.212a10.7,10.7,0,0,0-10.688-10.688Z" transform="translate(-627.048 -540.253)" fill="#9b9b9b"/>
    </g>
    <g id="Group_1708" data-name="Group 1708" transform="translate(653.096 592.477)">
      <path id="Path_1488" data-name="Path 1488" d="M629.75,569.558a9.711,9.711,0,1,1,9.717-9.71A9.724,9.724,0,0,1,629.75,569.558Zm0-16.151a6.44,6.44,0,1,0,6.445,6.442A6.448,6.448,0,0,0,629.75,553.406Z" transform="translate(-620.037 -550.135)" fill="#e9791a"/>
    </g>
    <g id="Group_1709" data-name="Group 1709" transform="translate(629.29 624.849)">
      <path id="Path_1489" data-name="Path 1489" d="M622.473,579.459a9.715,9.715,0,1,1,9.713-9.713A9.724,9.724,0,0,1,622.473,579.459Zm0-16.158a6.443,6.443,0,1,0,6.441,6.445A6.452,6.452,0,0,0,622.473,563.3Z" transform="translate(-612.76 -560.03)" fill="#e9791a"/>
    </g>
    <g id="Group_1710" data-name="Group 1710" transform="translate(661.173 608.629)">
      <path id="Path_1490" data-name="Path 1490" d="M624.142,605.96a1.634,1.634,0,0,1-1.636-1.636V556.708a1.636,1.636,0,0,1,3.271,0v47.616A1.636,1.636,0,0,1,624.142,605.96Z" transform="translate(-622.506 -555.072)" fill="#9b9b9b"/>
    </g>
    <g id="Group_1711" data-name="Group 1711" transform="translate(661.173 544.861)">
      <path id="Path_1491" data-name="Path 1491" d="M624.142,586.468a1.634,1.634,0,0,1-1.636-1.636V537.216a1.636,1.636,0,0,1,3.271,0v47.616A1.636,1.636,0,0,1,624.142,586.468Z" transform="translate(-622.506 -535.58)" fill="#9b9b9b"/>
    </g>
    <g id="Group_1712" data-name="Group 1712" transform="translate(605.483 600.555)">
      <path id="Path_1492" data-name="Path 1492" d="M654.732,555.875H607.119a1.636,1.636,0,1,1,0-3.271h47.613a1.636,1.636,0,1,1,0,3.271Z" transform="translate(-605.483 -552.604)" fill="#9b9b9b"/>
    </g>
    <g id="Group_1713" data-name="Group 1713" transform="translate(645.443 630.459)">
      <path id="Path_1493" data-name="Path 1493" d="M676.048,572.806a1.624,1.624,0,0,1-.661-.141c-11.136-4.933-25.455-7.649-40.324-7.649a118.907,118.907,0,0,0-15.513,1,1.637,1.637,0,1,1-.428-3.245,122.04,122.04,0,0,1,15.942-1.031c15.314,0,30.1,2.813,41.646,7.93a1.635,1.635,0,0,1-.661,3.131Z" transform="translate(-617.698 -561.745)" fill="#9b9b9b"/>
    </g>
    <g id="Group_1714" data-name="Group 1714" transform="translate(620.186 634.986)">
      <path id="Path_1494" data-name="Path 1494" d="M611.615,569.662a1.636,1.636,0,0,1-.664-3.131,81.363,81.363,0,0,1,9-3.334,1.637,1.637,0,1,1,.959,3.131,78.018,78.018,0,0,0-8.633,3.193A1.646,1.646,0,0,1,611.615,569.662Z" transform="translate(-609.977 -563.129)" fill="#9b9b9b"/>
    </g>
    <g id="Group_1715" data-name="Group 1715" transform="translate(640.191 613.663)">
      <path id="Path_1495" data-name="Path 1495" d="M638.71,602.464c-8.5,0-16.459-5.9-22.409-16.593a1.635,1.635,0,0,1,2.856-1.593c5.349,9.618,12.291,14.915,19.553,14.915,12.906,0,24.533-17.309,27.644-41.155a1.636,1.636,0,1,1,3.245.422C666.216,584.37,653.513,602.464,638.71,602.464Z" transform="translate(-616.092 -556.611)" fill="#9b9b9b"/>
    </g>
    <g id="Group_1716" data-name="Group 1716" transform="translate(631.069 544.861)">
      <path id="Path_1496" data-name="Path 1496" d="M618.113,619.467a1.639,1.639,0,0,1-1.577-1.207,96.969,96.969,0,0,1-3.232-25.351c0-31.612,14.237-57.329,31.74-57.329,8.67,0,16.74,6.1,22.727,17.169a1.636,1.636,0,0,1-2.876,1.56c-5.388-9.968-12.441-15.458-19.851-15.458-15.7,0-28.468,24.248-28.468,54.058a93.679,93.679,0,0,0,3.118,24.493,1.642,1.642,0,0,1-1.58,2.064Z" transform="translate(-613.304 -535.58)" fill="#9b9b9b"/>
    </g>
    <g id="Group_1717" data-name="Group 1717" transform="translate(669.254 600.555)">
      <path id="Path_1497" data-name="Path 1497" d="M633.39,555.875h-6.778a1.636,1.636,0,1,1,0-3.271h6.778a1.636,1.636,0,1,1,0,3.271Z" transform="translate(-624.976 -552.604)" fill="#9b9b9b"/>
    </g>
    <g id="Group_1718" data-name="Group 1718" transform="translate(620.186 562.859)">
      <path id="Path_1498" data-name="Path 1498" d="M652.6,552.141c-15.313,0-30.1-2.813-41.649-7.93a1.635,1.635,0,0,1,1.325-2.99c11.136,4.933,25.455,7.648,40.324,7.648a120.214,120.214,0,0,0,14.97-.929,1.636,1.636,0,1,1,.409,3.245A123.646,123.646,0,0,1,652.6,552.141Z" transform="translate(-609.977 -541.081)" fill="#9b9b9b"/>
    </g>
    <g id="Group_1719" data-name="Group 1719" transform="translate(605.483 544.861)">
      <path id="Path_1499" data-name="Path 1499" d="M662.809,650.235a57.328,57.328,0,1,1,33.641-103.751,1.636,1.636,0,0,1-1.924,2.646,54.054,54.054,0,1,0,20.829,56.5,1.637,1.637,0,0,1,3.183.769A57.14,57.14,0,0,1,662.809,650.235Z" transform="translate(-605.483 -535.58)" fill="#9b9b9b"/>
    </g>
  </g>
</svg>
