<svg xmlns="http://www.w3.org/2000/svg" width="201.428" height="193.967" viewBox="0 0 201.428 193.967">
  <g id="Affiliate_marketing" data-name="Affiliate marketing" transform="translate(-264.541 -273.262)">
    <g id="Group_9921" data-name="Group 9921" transform="translate(327.691 414.552)">
      <path id="Path_6913" data-name="Path 6913" d="M415.415,622.832l1.263-2.175,1.262-2.175,1.263-2.175,1.263-2.175,1.263-2.175,1.263-2.175,1.263-2.175,1.263-2.175-.413-.219-.41-.222-.408-.226-.406-.229-.4-.233-.4-.237-.4-.24-.4-.244-1.262,2.173-1.262,2.173-1.262,2.173-1.262,2.173-1.262,2.173-1.262,2.173-1.262,2.173-1.262,2.173.4.233.4.233.4.233.4.233.4.233.4.233.4.233Z" transform="translate(-412.18 -603.584)" fill="#9b9b9b"/>
    </g>
    <g id="Group_9922" data-name="Group 9922" transform="translate(301.282 368.384)">
      <path id="Path_6914" data-name="Path 6914" d="M362.283,495.648H350.437v3.73h11.846c0-.078-.006-.156-.011-.234s-.009-.155-.014-.233-.01-.155-.015-.233-.011-.155-.016-.233-.01-.155-.015-.233-.009-.156-.012-.234-.007-.156-.009-.234,0-.157,0-.236,0-.157,0-.235,0-.156.009-.234.008-.155.012-.233.01-.154.015-.232.011-.154.016-.231.011-.154.015-.232.01-.155.014-.232S362.28,495.726,362.283,495.648Z" transform="translate(-350.437 -495.648)" fill="#9b9b9b"/>
    </g>
    <g id="Group_9923" data-name="Group 9923" transform="translate(417.382 368.384)">
      <path id="Path_6915" data-name="Path 6915" d="M633.714,499.378v-3.73H621.868q0,.117.01.233t.014.232c0,.077.01.154.015.232s.011.154.016.231.01.155.015.232.009.155.012.233.007.155.008.234,0,.156,0,.235,0,.157,0,.236,0,.156-.008.234-.008.156-.012.234-.009.155-.015.233-.011.155-.016.233-.011.155-.015.233-.01.155-.014.233-.007.156-.01.234h11.846Z" transform="translate(-621.868 -495.648)" fill="#9b9b9b"/>
    </g>
    <g id="Group_9924" data-name="Group 9924" transform="translate(389.486 414.552)">
      <path id="Path_6916" data-name="Path 6916" d="M570.03,620.945l-1.268-2.17-1.268-2.17-1.268-2.17-1.268-2.17-1.268-2.17-1.268-2.17-1.268-2.17-1.268-2.17-.4.246q-.2.122-.4.242t-.4.237l-.4.233-.4.229-.406.225-.409.221q-.2.11-.41.218l1.262,2.175,1.262,2.175,1.262,2.175,1.262,2.175,1.262,2.175,1.262,2.175,1.262,2.175,1.262,2.175.411-.236.41-.236.41-.236.41-.236.41-.236.41-.236.411-.236Z" transform="translate(-556.65 -603.584)" fill="#9b9b9b"/>
    </g>
    <g id="Group_9925" data-name="Group 9925" transform="translate(327.691 306.691)">
      <path id="Path_6917" data-name="Path 6917" d="M415.415,351.416l-.139.08-.367.211-.519.3-.595.342-.595.342-.518.3-.365.21-.137.079,1.328,2.288,1.328,2.288,1.328,2.288,1.328,2.288,1.328,2.288,1.328,2.288,1.328,2.288,1.328,2.288q.11-.275.226-.542t.234-.528q.119-.261.242-.515t.249-.5q.126-.248.256-.492t.263-.482q.133-.238.268-.472t.273-.463l-1.175-2.021-1.175-2.022-1.175-2.021-1.175-2.021-1.175-2.021-1.175-2.021-1.175-2.021Z" transform="translate(-412.18 -351.416)" fill="#9b9b9b"/>
    </g>
    <g id="Group_9926" data-name="Group 9926" transform="translate(390.186 306.691)">
      <path id="Path_6918" data-name="Path 6918" d="M567.684,351.416l-1.174,2.021-1.175,2.021-1.175,2.021-1.175,2.021-1.174,2.021-1.175,2.021-1.175,2.022-1.174,2.021q.138.23.273.463t.268.472q.133.239.262.482t.256.492q.126.249.249.5t.242.515q.119.26.234.528t.226.542l1.327-2.288,1.327-2.288,1.327-2.288,1.327-2.288,1.327-2.288,1.327-2.288,1.327-2.288,1.327-2.288-.136-.079-.364-.21-.517-.3-.594-.342-.595-.342-.519-.3-.367-.211Z" transform="translate(-558.286 -351.416)" fill="#9b9b9b"/>
    </g>
    <g id="Group_9927" data-name="Group 9927" transform="translate(301.842 273.262)">
      <path id="Path_6919" data-name="Path 6919" d="M370.4,310.563a18.559,18.559,0,1,1,3.754-.38A18.655,18.655,0,0,1,370.4,310.563Zm0-33.571a14.925,14.925,0,0,0-5.8,28.666,14.876,14.876,0,0,0,14.14-1.377,15.038,15.038,0,0,0,4.032-4.033A14.912,14.912,0,0,0,370.4,276.992Z" transform="translate(-351.748 -273.262)" fill="#9b9b9b"/>
    </g>
    <g id="Group_9928" data-name="Group 9928" transform="translate(264.541 351.595)">
      <path id="Path_6920" data-name="Path 6920" d="M283.192,493.7a18.54,18.54,0,1,1,3.754-.379A18.654,18.654,0,0,1,283.192,493.7Zm0-33.571a14.955,14.955,0,0,0-3,.3,14.838,14.838,0,0,0-5.333,2.249,14.994,14.994,0,0,0-5.409,6.567,14.894,14.894,0,0,0,0,11.6,14.926,14.926,0,1,0,13.747-20.722Z" transform="translate(-264.541 -456.396)" fill="#9b9b9b"/>
    </g>
    <g id="Group_9929" data-name="Group 9929" transform="translate(301.842 429.928)">
      <path id="Path_6921" data-name="Path 6921" d="M370.4,676.832a18.632,18.632,0,1,1,17.183-25.9A18.592,18.592,0,0,1,385.86,668.6a18.748,18.748,0,0,1-8.209,6.763,18.5,18.5,0,0,1-3.5,1.089A18.687,18.687,0,0,1,370.4,676.832Zm0-33.571a14.961,14.961,0,0,0-13.746,9.119,14.843,14.843,0,0,0-1.174,5.8,14.922,14.922,0,1,0,25.467-10.545,15.077,15.077,0,0,0-2.209-1.824,14.838,14.838,0,0,0-8.337-2.552Z" transform="translate(-351.748 -639.531)" fill="#9b9b9b"/>
    </g>
    <g id="Group_9930" data-name="Group 9930" transform="translate(391.366 429.928)">
      <path id="Path_6922" data-name="Path 6922" d="M579.7,676.832a18.687,18.687,0,0,1-3.754-.379,18.562,18.562,0,0,1-6.666-2.81,18.749,18.749,0,0,1-6.762-8.209,18.49,18.49,0,0,1-1.089-3.5,18.761,18.761,0,0,1,0-7.508,18.56,18.56,0,0,1,2.81-6.667A18.748,18.748,0,0,1,572.443,641a18.592,18.592,0,0,1,17.673,1.722,18.76,18.76,0,0,1,6.763,8.209,18.588,18.588,0,0,1-1.722,17.673,18.745,18.745,0,0,1-8.208,6.763,18.539,18.539,0,0,1-7.253,1.468Zm0-33.571a14.842,14.842,0,0,0-8.337,2.552,15.035,15.035,0,0,0-4.032,4.033,14.875,14.875,0,0,0,0,16.671,14.993,14.993,0,0,0,6.567,5.41,14.774,14.774,0,0,0,2.8.871,15.006,15.006,0,0,0,6.008,0,14.848,14.848,0,0,0,5.333-2.248,15,15,0,0,0,5.409-6.567,14.877,14.877,0,0,0-1.377-14.137,14.994,14.994,0,0,0-6.567-5.41,14.834,14.834,0,0,0-5.8-1.174Z" transform="translate(-561.045 -639.531)" fill="#9b9b9b"/>
    </g>
    <g id="Group_9931" data-name="Group 9931" transform="translate(428.667 351.595)">
      <path id="Path_6923" data-name="Path 6923" d="M666.9,493.7a18.544,18.544,0,1,1,3.754-.379A18.656,18.656,0,0,1,666.9,493.7Zm0-33.571a14.95,14.95,0,0,0-3,.3,14.849,14.849,0,0,0-5.333,2.248,15.035,15.035,0,0,0-4.032,4.032,14.878,14.878,0,0,0,0,16.672,15.026,15.026,0,0,0,4.032,4.033,14.9,14.9,0,0,0,18.883-1.823,14.968,14.968,0,0,0,3.2-4.744,14.9,14.9,0,0,0,0-11.6,14.905,14.905,0,0,0-13.747-9.118Z" transform="translate(-648.252 -456.396)" fill="#9b9b9b"/>
    </g>
    <g id="Group_9932" data-name="Group 9932" transform="translate(391.366 273.262)">
      <path id="Path_6924" data-name="Path 6924" d="M579.7,310.563a18.563,18.563,0,1,1,3.754-.38A18.659,18.659,0,0,1,579.7,310.563Zm0-33.571a14.911,14.911,0,1,0,14.617,11.917,14.844,14.844,0,0,0-2.247-5.333,14.994,14.994,0,0,0-6.567-5.41,14.845,14.845,0,0,0-5.8-1.174Z" transform="translate(-561.045 -273.262)" fill="#9b9b9b"/>
    </g>
    <g id="Group_9933" data-name="Group 9933" transform="translate(316.763 330.912)">
      <path id="Path_6925" data-name="Path 6925" d="M579.733,469.836l.118.034.118.033.118.034.118.034.118.034.118.034.118.033.118.034q.676-1.272,1.279-2.587t1.128-2.671q.525-1.355.971-2.749t.808-2.821q.362-1.428.639-2.889t.464-2.951q.187-1.49.283-3.008t.1-3.059a48.9,48.9,0,0,0-.367-5.984,48.137,48.137,0,0,0-8.072-21.308,48.944,48.944,0,0,0-11.76-12.038q.086.321.165.651t.154.666q.074.337.143.682t.133.7q.064.351.124.709t.115.722q.055.363.107.732t.1.743a45.228,45.228,0,0,1,9.029,10.733,44.375,44.375,0,0,1,6.4,23q0,1.475-.095,2.926t-.282,2.876q-.186,1.424-.462,2.82t-.636,2.758q-.36,1.363-.8,2.691t-.965,2.618q-.522,1.29-1.12,2.539t-1.269,2.455l.344.1.344.1.344.1.344.1.344.1.344.1.344.1Z" transform="translate(-489.361 -408.041)" fill="#ea791a"/>
      <path id="Path_6926" data-name="Path 6926" d="M405.792,413.641q.047-.373.1-.743t.107-.732q.055-.364.115-.722t.124-.709q.064-.352.133-.7t.143-.682q.074-.337.154-.666t.165-.651a48.766,48.766,0,0,0-14.681,16.886A48,48,0,0,0,387,441.387a48.8,48.8,0,0,0-.367,5.984q0,1.542.1,3.059t.283,3.008q.187,1.49.464,2.951t.639,2.889q.363,1.428.808,2.821t.971,2.749q.525,1.356,1.128,2.671t1.279,2.587l.118-.034.118-.033.118-.034.118-.034.118-.034.118-.034.118-.033.118-.034.344-.1.344-.1.343-.1.344-.1.344-.1.344-.1.343-.1.344-.1q-.67-1.205-1.269-2.455t-1.12-2.539q-.522-1.29-.965-2.618t-.8-2.691q-.361-1.363-.636-2.758t-.462-2.82q-.187-1.424-.282-2.876t-.1-2.926a44.876,44.876,0,0,1,.276-4.976,44.378,44.378,0,0,1,6.126-18.02,45.337,45.337,0,0,1,9.029-10.733Z" transform="translate(-386.631 -408.041)" fill="#ea791a"/>
    </g>
    <g id="Group_9935" data-name="Group 9935" transform="translate(324.398 388.896)">
      <g id="Group_9934" data-name="Group 9934">
        <path id="Path_6927" data-name="Path 6927" d="M482.392,549.923h0l-2.766-.79-2.766-.79-2.766-.791-2.766-.79-2.766-.791-2.766-.79-2.766-.791-2.766-.79-.466.645-.466.644-.467.644-.466.645-.466.644-.466.644-.466.644-.466.645-1.4.7-1.4.7-1.4.7-1.4.7-1.4.7-1.4.7-1.4.7-1.4.7-1.4-.7-1.4-.7-1.4-.7-1.4-.7-1.4-.7-1.4-.7-1.4-.7-1.4-.7-.466-.645-.466-.644-.466-.644-.466-.644-.467-.645-.466-.644-.466-.644-.466-.645-3.242.925-3.242.925-3.242.925-3.242.925-3.242.925-3.242.925-3.242.925-3.242.925c.083.13.355.578.823,1.262s1.128,1.606,1.989,2.682,1.921,2.307,3.184,3.612a51.657,51.657,0,0,0,4.409,4.053,49.572,49.572,0,0,0,5.661,4,47.16,47.16,0,0,0,6.943,3.466,46.516,46.516,0,0,0,8.254,2.439,50.408,50.408,0,0,0,19.186,0,46.515,46.515,0,0,0,8.254-2.439,47.129,47.129,0,0,0,6.943-3.465,49.461,49.461,0,0,0,5.661-4,51.588,51.588,0,0,0,4.408-4.051c1.263-1.3,2.323-2.535,3.183-3.61s1.521-2,1.987-2.679.738-1.13.82-1.259l-.07-.02-.2-.059-.328-.094-.443-.127-.551-.158-.648-.186-.737-.211ZM410.717,553.1l2.19-.624,2.189-.624,2.189-.625,2.19-.624,2.189-.624,2.189-.624,2.189-.624,2.19-.625,1.055,2.581,1.056,2.581,1.055,2.581,1.056,2.581,1.055,2.581,1.056,2.581,1.055,2.581,1.056,2.581.008,0,.008,0,.008,0,.009,0,.008,0,.008,0,.008,0,.008,0q-1.956-.386-3.849-.939t-3.709-1.261q-1.817-.709-3.554-1.569t-3.384-1.861q-1.647-1-3.2-2.138t-3-2.4q-1.446-1.263-2.782-2.646T410.717,553.1Zm34.62,16.611q-.277,0-.552-.006t-.549-.017q-.274-.011-.547-.027t-.545-.035q-.271-.019-.543-.042c-.18-.014-.361-.03-.542-.047l-.541-.051-.54-.053-.841-2.057-.841-2.057-.841-2.057-.841-2.057-.841-2.057-.841-2.057-.841-2.057-.841-2.057,1.385.693,1.386.693,1.385.692,1.385.693,1.386.693,1.385.693,1.386.692,1.385.693,1.385-.693,1.386-.692,1.385-.693,1.386-.693,1.385-.693,1.385-.692,1.386-.693,1.385-.693-.841,2.057-.841,2.057-.841,2.057-.841,2.057-.841,2.057-.841,2.057-.841,2.057-.841,2.057-.54.053-.541.051c-.18.016-.361.032-.542.047s-.362.029-.543.042-.363.024-.545.035-.364.02-.547.027-.365.013-.549.017S445.522,569.711,445.338,569.711Zm8.6-.921.008,0,.008,0,.008,0,.008,0,.009,0,.008,0,.008,0,.008,0,1.055-2.581,1.055-2.581,1.055-2.581,1.055-2.581,1.055-2.581,1.055-2.581,1.055-2.581,1.055-2.581,2.19.625,2.189.624,2.189.624,2.19.624,2.189.624,2.189.625,2.19.624,2.189.624q-1.214,1.492-2.55,2.875t-2.781,2.645q-1.446,1.263-3,2.4t-3.2,2.138q-1.647,1-3.383,1.862t-3.554,1.569q-1.816.709-3.708,1.262T453.938,568.789Z" transform="translate(-404.481 -543.603)" fill="#9b9b9b"/>
      </g>
    </g>
    <g id="Group_9936" data-name="Group 9936" transform="translate(350.334 378.639)">
      <path id="Path_6928" data-name="Path 6928" d="M491.134,523.352h.095v11.092l-1.4.758-1.4.758-1.4.758-1.4.758-1.4.758-1.4.758-1.4.758-1.4.758-1.4-.758-1.4-.758-1.4-.758-1.4-.758-1.4-.758-1.4-.758-1.4-.758-1.4-.758V523.352h.095q-.2-.21-.406-.427t-.4-.44q-.2-.223-.394-.451t-.387-.462q-.191-.234-.379-.473t-.373-.483q-.185-.244-.366-.492t-.359-.5h-.761V537.03l1.865,1.025,1.865,1.026,1.865,1.025,1.865,1.025,1.865,1.026,1.865,1.025,1.865,1.025,1.865,1.026,1.865-1.026,1.865-1.025,1.865-1.025,1.865-1.026,1.865-1.025,1.865-1.025,1.865-1.026,1.865-1.025V519.622H494.2q-.178.252-.359.5t-.366.492q-.185.245-.373.483t-.379.473q-.192.234-.387.462t-.393.451q-.2.223-.4.44T491.134,523.352Z" transform="translate(-465.117 -519.622)" fill="#9b9b9b"/>
    </g>
    <g id="Group_9938" data-name="Group 9938" transform="translate(339.271 314.108)">
      <path id="Path_6929" data-name="Path 6929" d="M487.491,413.431q.143.4.272.808c.085.272.166.548.241.827s.145.561.208.846.122.574.174.866.1.587.138.885.074.6.1.9.047.612.062.923.021.625.021.942v18.651a24.1,24.1,0,0,1-.415,4.326,31.457,31.457,0,0,1-1.173,4.462,35.871,35.871,0,0,1-1.826,4.377,35.055,35.055,0,0,1-2.374,4.074,29.471,29.471,0,0,1-2.816,3.551,21.647,21.647,0,0,1-3.153,2.808,14.53,14.53,0,0,1-3.384,1.846,9.6,9.6,0,0,1-7.018,0,14.528,14.528,0,0,1-3.384-1.846,21.643,21.643,0,0,1-3.153-2.808,29.471,29.471,0,0,1-2.816-3.551,35.06,35.06,0,0,1-2.374-4.074,35.881,35.881,0,0,1-1.826-4.377,31.457,31.457,0,0,1-1.173-4.462,24.1,24.1,0,0,1-.415-4.326V420.433q0-.472.021-.936t.061-.917q.04-.454.1-.9t.137-.879q.077-.435.172-.861t.206-.842q.111-.416.238-.823t.268-.8a3.078,3.078,0,0,0-.518.639,12.062,12.062,0,0,0-.6,1.051c-.21.408-.429.867-.652,1.362s-.45,1.024-.676,1.572-.452,1.114-.672,1.681-.434,1.136-.638,1.689-.4,1.091-.576,1.6-.342.978-.485,1.4c-.006-.018-.012-.036-.017-.053s-.01-.035-.015-.053-.009-.035-.014-.052l-.013-.052-.013-.052-.014-.052-.015-.052c-.005-.018-.011-.036-.017-.053v15.037a28.416,28.416,0,0,0,.476,5.058,35.3,35.3,0,0,0,1.356,5.153,38.913,38.913,0,0,0,2.127,5.01,37.562,37.562,0,0,0,2.791,4.63,31.973,31.973,0,0,0,3.345,4.014,24.5,24.5,0,0,0,3.793,3.16,17.728,17.728,0,0,0,4.131,2.07,13.173,13.173,0,0,0,8.723,0,17.727,17.727,0,0,0,4.132-2.07,24.5,24.5,0,0,0,3.793-3.16,32.012,32.012,0,0,0,3.346-4.014,37.609,37.609,0,0,0,2.791-4.63,38.913,38.913,0,0,0,2.127-5.01,35.278,35.278,0,0,0,1.355-5.153,28.4,28.4,0,0,0,.476-5.058V424.061c-.182-.488-.379-1-.585-1.534s-.423-1.076-.645-1.625-.45-1.1-.68-1.641-.461-1.073-.689-1.582-.455-1-.674-1.448-.432-.87-.633-1.241-.391-.694-.566-.959A3.56,3.56,0,0,0,487.491,413.431Z" transform="translate(-444.073 -394.322)" fill="#9b9b9b"/>
      <g id="Group_9937" data-name="Group 9937" transform="translate(0 0)">
        <path id="Path_6930" data-name="Path 6930" d="M465.237,372.485a31.61,31.61,0,0,1,4.582.318,24.139,24.139,0,0,1,4.114.962,19.509,19.509,0,0,1,3.622,1.616,17.438,17.438,0,0,1,3.1,2.281,17.762,17.762,0,0,1,2.563,2.956,20.627,20.627,0,0,1,2,3.642,26.369,26.369,0,0,1,1.405,4.339,35.669,35.669,0,0,1,.79,5.046c-.157-.464-.337-.934-.533-1.4s-.409-.933-.633-1.388-.458-.9-.7-1.321-.483-.826-.725-1.2-.484-.719-.718-1.027a9.27,9.27,0,0,0-.675-.8,3.678,3.678,0,0,0-.6-.519.927.927,0,0,0-.483-.185,5.462,5.462,0,0,0-.636.037,5.8,5.8,0,0,0-.616.107c-.2.046-.4.1-.6.167s-.4.139-.594.221-.394.17-.592.265-.4.2-.6.3-.4.216-.605.331-.411.232-.621.352c-.329.187-.674.383-1.036.583s-.743.4-1.145.6-.823.4-1.27.595-.915.38-1.411.555-1.018.338-1.569.485-1.132.276-1.744.384-1.257.194-1.936.253-1.393.091-2.144.091-1.468-.032-2.149-.091-1.326-.144-1.94-.252-1.2-.237-1.747-.382-1.075-.309-1.572-.483-.967-.361-1.413-.553-.869-.392-1.271-.593-.783-.4-1.146-.6-.708-.394-1.038-.581c-.21-.119-.417-.237-.621-.35s-.406-.224-.605-.33-.4-.206-.6-.3-.394-.183-.591-.264-.394-.155-.593-.219-.4-.121-.6-.167a5.765,5.765,0,0,0-.614-.106,5.4,5.4,0,0,0-.633-.037.93.93,0,0,0-.482.184,3.693,3.693,0,0,0-.6.518,9.144,9.144,0,0,0-.674.8c-.234.307-.475.651-.717,1.025s-.485.776-.724,1.2-.472.864-.695,1.317-.435.917-.63,1.384-.374.935-.53,1.4a35.682,35.682,0,0,1,.79-5.045,26.358,26.358,0,0,1,1.405-4.338,20.626,20.626,0,0,1,2-3.642,17.761,17.761,0,0,1,2.563-2.957,17.443,17.443,0,0,1,3.1-2.281,19.534,19.534,0,0,1,3.622-1.617,24.106,24.106,0,0,1,4.114-.962,31.561,31.561,0,0,1,4.582-.319Zm0-3.73a33.9,33.9,0,0,0-5.454.424,27.146,27.146,0,0,0-4.867,1.249,23.094,23.094,0,0,0-4.256,2.039,21.437,21.437,0,0,0-3.622,2.8,21.974,21.974,0,0,0-2.966,3.517,24.76,24.76,0,0,0-2.286,4.2,29.869,29.869,0,0,0-1.583,4.859,37.418,37.418,0,0,0-.857,5.478,27.92,27.92,0,0,0-.062,3.548c.051,1.178.168,2.344.33,3.477s.37,2.234.6,3.281.494,2.042.76,2.962.539,1.767.8,2.519.5,1.409.716,1.952.391.97.517,1.262.2.448.2.448l.423-2.241.423-2.241.423-2.241.423-2.241.423-2.241.423-2.241.423-2.241.424-2.241c.084-.248.174-.5.27-.741s.2-.489.3-.728.214-.476.326-.707.225-.456.34-.675.23-.429.345-.632.229-.4.341-.58.222-.357.328-.519.208-.311.3-.447c.066.027.134.057.2.089l.214.1c.073.035.148.074.226.113s.156.081.238.124l.251.135.265.146.279.156.294.166c.354.2.73.414,1.132.633s.828.446,1.282.672.936.452,1.447.672,1.054.434,1.628.635,1.182.391,1.825.56,1.32.321,2.036.447,1.469.227,2.262.3,1.628.107,2.5.107,1.707-.038,2.5-.107,1.544-.171,2.258-.3,1.391-.278,2.033-.448,1.249-.36,1.823-.562,1.116-.417,1.627-.637.993-.448,1.447-.675.88-.454,1.281-.674.777-.434,1.13-.635l.294-.167.28-.157.265-.147.252-.136.239-.125.227-.113q.11-.054.216-.1c.07-.032.138-.062.2-.089.1.136.2.286.306.447s.217.336.329.52.227.379.342.583.231.416.346.635.229.446.341.678.222.469.327.71.208.485.3.732.187.5.272.744l.394,2.314.394,2.314.394,2.314.394,2.314.394,2.314.394,2.314.394,2.314.394,2.314s.069-.157.189-.45.292-.723.5-1.271.442-1.212.7-1.975.522-1.623.788-2.562.53-1.956.773-3.032.466-2.211.65-3.385.33-2.388.42-3.621a35.637,35.637,0,0,0,.083-3.739,31.181,31.181,0,0,0-.623-5.344,26.392,26.392,0,0,0-1.474-4.8,23.38,23.38,0,0,0-2.272-4.2,22.046,22.046,0,0,0-3.018-3.547,22.335,22.335,0,0,0-3.714-2.847,24.215,24.215,0,0,0-4.357-2.1,27.761,27.761,0,0,0-4.948-1.295,33.122,33.122,0,0,0-5.487-.443Z" transform="translate(-439.253 -368.755)" fill="#9b9b9b"/>
      </g>
    </g>
  </g>
</svg>
