<svg xmlns="http://www.w3.org/2000/svg" width="908.212" height="366.072" viewBox="0 0 908.212 366.072">
  <g id="Group_3212" data-name="Group 3212" transform="translate(-138.509 -110.547)">
    <g id="Group_1309" data-name="Group 1309" transform="translate(594.726 249.501)">
      <text id="System_of_intelligence" data-name="System of
intelligence" transform="translate(116.762 32.211)" fill="#2a2a2a" font-size="35" font-family="Roboto-BlackItalic, Roboto" font-weight="800" font-style="italic"><tspan x="0" y="0">System of</tspan><tspan x="0" y="42">intelligence</tspan></text>
      <g id="Group_1308" data-name="Group 1308">
        <g id="Group_1307" data-name="Group 1307">
          <path id="Path_1239" data-name="Path 1239" d="M640.343,288.477H626.848a1.464,1.464,0,0,0-1.039.431l-5.447,5.447H619.23a4.408,4.408,0,1,0,0,2.939h1.74a1.468,1.468,0,0,0,1.04-.431l5.447-5.447h12.886a4.365,4.365,0,0,0,7.041,1.822l5.987,3.331a4.259,4.259,0,0,0-.073.725,4.408,4.408,0,0,0,8.816,0,4.253,4.253,0,0,0-.073-.725l5.988-3.331a4.393,4.393,0,1,0,4.372-7.43v-6.42a4.4,4.4,0,1,0-4.372-7.429l-5.988-3.331a4.231,4.231,0,0,0,.073-.724,4.408,4.408,0,1,0-8.816,0,4.259,4.259,0,0,0,.073.725l-5.987,3.331a4.365,4.365,0,0,0-7.041,1.822H627.457l-5.447-5.447a1.468,1.468,0,0,0-1.04-.431h-1.74a4.408,4.408,0,1,0,0,2.939h1.132l5.447,5.447a1.464,1.464,0,0,0,1.039.431h13.495a4.4,4.4,0,0,0,2.669,2.667v1.74H619.23a4.409,4.409,0,1,0,0,2.939h23.781v1.74a4.4,4.4,0,0,0-2.669,2.668Zm-25.25,8.817a1.469,1.469,0,1,1,1.469-1.469,1.472,1.472,0,0,1-1.469,1.469Zm0-26.45a1.469,1.469,0,1,1,1.469-1.469,1.472,1.472,0,0,1-1.469,1.469Zm0,13.224a1.469,1.469,0,1,1,1.469-1.469,1.472,1.472,0,0,1-1.469,1.469Zm29.388,7.347a1.469,1.469,0,1,1,1.469-1.469,1.472,1.472,0,0,1-1.469,1.469Zm2.9-12.872,5.987,3.331a3.608,3.608,0,0,0,0,1.448l-5.987,3.331a4.432,4.432,0,0,0-1.434-.846v-6.42a4.357,4.357,0,0,0,1.434-.844Zm20.644,8.111-5.988-3.331a3.608,3.608,0,0,0,0-1.448l5.988-3.331a4.4,4.4,0,0,0,1.433.845v6.42a4.361,4.361,0,0,0-1.433.845Zm-19.212,2.567,5.987-3.33a4.413,4.413,0,0,0,1.434.845v6.42A4.379,4.379,0,0,0,654.8,294l-5.987-3.33a3.622,3.622,0,0,0,0-1.451Zm8.889-8.092a1.469,1.469,0,1,1-1.469,1.47,1.473,1.473,0,0,1,1.469-1.47Zm1.469,5.607a4.375,4.375,0,0,0,1.434-.845l5.987,3.33a3.612,3.612,0,0,0,0,1.449L660.609,294a4.4,4.4,0,0,0-1.434-.846Zm7.421-10.761-5.987,3.331a4.412,4.412,0,0,0-1.434-.845v-6.42a4.4,4.4,0,0,0,1.434-.846l5.987,3.33a4.4,4.4,0,0,0-.073.727,4.342,4.342,0,0,0,.073.724Zm-10.359,2.486a4.376,4.376,0,0,0-1.434.845l-5.987-3.331a3.607,3.607,0,0,0,0-1.448L654.8,271.2a4.415,4.415,0,0,0,1.434.846Zm1.469,20.3a1.469,1.469,0,1,1,1.469-1.469,1.472,1.472,0,0,1-1.469,1.469Zm13.225-7.347a1.469,1.469,0,1,1,1.469-1.469,1.472,1.472,0,0,1-1.469,1.469Zm0-17.633a1.469,1.469,0,1,1-1.47,1.469,1.472,1.472,0,0,1,1.47-1.469Zm-13.225-7.347a1.469,1.469,0,1,1-1.469,1.469,1.472,1.472,0,0,1,1.469-1.469Zm-13.224,7.347a1.469,1.469,0,1,1-1.469,1.469,1.472,1.472,0,0,1,1.469-1.469Zm0,0" transform="translate(-610.685 -254.682)" fill="#e97a32"/>
          <path id="Path_1240" data-name="Path 1240" d="M642.1,342.537h23.511a1.47,1.47,0,0,0,1.469-1.469V330.781h19.1a1.47,1.47,0,0,0,1.469-1.469V311.679h10.286a1.471,1.471,0,0,0,1.4-1.908l-7.327-23.444a33.041,33.041,0,0,0-35-31.9,33.194,33.194,0,0,0-25.848,15.312l2.474,1.585a30.249,30.249,0,0,1,23.547-13.964,30.1,30.1,0,0,1,31.9,29.407,1.414,1.414,0,0,0,.208.7l6.646,21.268h-9.757a1.47,1.47,0,0,0-1.469,1.469v5.878H680.3a4.413,4.413,0,0,1-4.408-4.408h-2.939a7.355,7.355,0,0,0,7.346,7.347h4.408v8.816h-19.1a1.471,1.471,0,0,0-1.469,1.469V339.6H643.565v-1.421a67.955,67.955,0,0,0-10.336-35.156,29.858,29.858,0,0,1-3.36-7.882l-2.842.752a32.821,32.821,0,0,0,3.692,8.658,65.027,65.027,0,0,1,9.908,33.628v2.891a1.471,1.471,0,0,0,1.469,1.469Zm0,0" transform="translate(-611.239 -254.372)" fill="#e97a32"/>
        </g>
      </g>
    </g>
    <g id="Group_1310" data-name="Group 1310" transform="translate(271.119 264.192)">
      <path id="Path_1241" data-name="Path 1241" d="M285.028,294.043a5.045,5.045,0,0,0,1.489,1.641,6.359,6.359,0,0,0,2.1.942,9.814,9.814,0,0,0,2.462.3,9.158,9.158,0,0,0,1.915-.214,6.5,6.5,0,0,0,1.823-.668,4.133,4.133,0,0,0,1.368-1.216,3.194,3.194,0,0,0,.547-1.914q0-1.945-2.583-2.918a51.619,51.619,0,0,0-7.2-1.945q-1.885-.425-3.678-1a12.544,12.544,0,0,1-3.19-1.521,7.371,7.371,0,0,1-2.25-2.37,6.717,6.717,0,0,1-.85-3.5,9.459,9.459,0,0,1,1.185-4.984,8.749,8.749,0,0,1,3.13-3.069,13.754,13.754,0,0,1,4.377-1.581,27.028,27.028,0,0,1,4.984-.455,24.936,24.936,0,0,1,4.953.486,13.105,13.105,0,0,1,4.285,1.641,9.833,9.833,0,0,1,3.13,3.069,10.309,10.309,0,0,1,1.49,4.833H296.3a3.775,3.775,0,0,0-1.884-3.374,8.616,8.616,0,0,0-4.011-.882,14.9,14.9,0,0,0-1.581.092,5.221,5.221,0,0,0-1.55.4,3.19,3.19,0,0,0-1.185.881,2.328,2.328,0,0,0-.486,1.55,2.365,2.365,0,0,0,.851,1.885,6.557,6.557,0,0,0,2.218,1.185,27.857,27.857,0,0,0,3.13.82q1.762.364,3.586.789a37.061,37.061,0,0,1,3.677,1.034,12.1,12.1,0,0,1,3.191,1.612,7.779,7.779,0,0,1,2.249,2.492,7.316,7.316,0,0,1,.851,3.677,9.546,9.546,0,0,1-4.5,8.571,13.32,13.32,0,0,1-4.589,1.793,26.781,26.781,0,0,1-5.258.517,26.059,26.059,0,0,1-5.348-.547,14.121,14.121,0,0,1-4.65-1.824,10.426,10.426,0,0,1-3.344-3.373,10.565,10.565,0,0,1-1.428-5.258h8.205a4.73,4.73,0,0,0,.578,2.4Z" transform="translate(-275.75 -269.578)" fill="#2a2a2a"/>
      <path id="Path_1242" data-name="Path 1242" d="M386.222,302.224V284.475a11.029,11.029,0,0,0-1.215-5.805q-1.217-1.914-4.316-1.914-3.526,0-5.106,2.1t-1.581,6.9v16.472h-8.63V270.8h8.205v4.377h.182a9.915,9.915,0,0,1,4.256-3.981,12.306,12.306,0,0,1,5.349-1.245,14.659,14.659,0,0,1,5.683.942,8.439,8.439,0,0,1,3.5,2.613,10.124,10.124,0,0,1,1.793,4.073,25.356,25.356,0,0,1,.517,5.319v19.328Zm35.74,0a11.973,11.973,0,0,1-.4-1.489,12.743,12.743,0,0,1-.214-1.551,11.238,11.238,0,0,1-4.863,2.979,19.519,19.519,0,0,1-5.714.851,15.453,15.453,0,0,1-4.194-.547,9.616,9.616,0,0,1-3.4-1.7,7.914,7.914,0,0,1-2.279-2.918,9.865,9.865,0,0,1-.82-4.194,9.164,9.164,0,0,1,.941-4.407,7.887,7.887,0,0,1,2.432-2.766,10.894,10.894,0,0,1,3.4-1.55,36.724,36.724,0,0,1,3.86-.821q1.943-.3,3.829-.486a23.012,23.012,0,0,0,3.343-.547,5.827,5.827,0,0,0,2.31-1.064,2.334,2.334,0,0,0,.79-2.037,4.577,4.577,0,0,0-.456-2.218,3.354,3.354,0,0,0-1.215-1.276,4.785,4.785,0,0,0-1.763-.608,14.41,14.41,0,0,0-2.157-.152,6.553,6.553,0,0,0-4.012,1.094,4.883,4.883,0,0,0-1.7,3.647h-8.631a10.026,10.026,0,0,1,1.52-5.045,10.354,10.354,0,0,1,3.4-3.222,14.852,14.852,0,0,1,4.65-1.732,26.539,26.539,0,0,1,5.2-.516,35.316,35.316,0,0,1,4.8.334,14.706,14.706,0,0,1,4.437,1.306,8.759,8.759,0,0,1,3.283,2.705,7.559,7.559,0,0,1,1.276,4.589v16.351a32.586,32.586,0,0,0,.243,4.072,7.321,7.321,0,0,0,.85,2.918Zm-.973-15.378a3.868,3.868,0,0,1-1.368.759,13.945,13.945,0,0,1-1.762.456q-.943.183-1.976.3t-2.067.3a15.563,15.563,0,0,0-1.915.487,5.661,5.661,0,0,0-1.641.82,3.9,3.9,0,0,0-1.125,1.306,4.2,4.2,0,0,0-.426,2.006,4.056,4.056,0,0,0,.426,1.946,3.25,3.25,0,0,0,1.155,1.246,4.881,4.881,0,0,0,1.7.638A10.831,10.831,0,0,0,414,297.3a7.62,7.62,0,0,0,3.951-.851,5.677,5.677,0,0,0,2.067-2.037,6.493,6.493,0,0,0,.821-2.4,16.656,16.656,0,0,0,.152-1.945v-3.221Zm46.437,6.078a15.472,15.472,0,0,1-2.582,5.167,12.8,12.8,0,0,1-4.316,3.586,12.993,12.993,0,0,1-6.048,1.337,12.237,12.237,0,0,1-5.379-1.185,10.182,10.182,0,0,1-4.042-3.494h-.121v14.892h-8.631V270.8h8.205v4.012h.122a9.487,9.487,0,0,1,4.011-3.708,12.32,12.32,0,0,1,5.349-1.155,13.634,13.634,0,0,1,6.382,1.4,13.2,13.2,0,0,1,4.436,3.708,15.681,15.681,0,0,1,2.613,5.379,23.916,23.916,0,0,1,.851,6.413,21.6,21.6,0,0,1-.851,6.078ZM459.252,282.9a9.915,9.915,0,0,0-1.307-3.253,7.3,7.3,0,0,0-2.34-2.309,6.538,6.538,0,0,0-3.5-.881,6.656,6.656,0,0,0-3.555.881,7.086,7.086,0,0,0-2.31,2.279A9.431,9.431,0,0,0,445,282.833a19.154,19.154,0,0,0-.365,3.769,17.437,17.437,0,0,0,.4,3.708A9.574,9.574,0,0,0,446.3,293.5a7.365,7.365,0,0,0,9.422,2.218,6.926,6.926,0,0,0,2.31-2.218,9.152,9.152,0,0,0,1.245-3.191,18.838,18.838,0,0,0,.365-3.708,17.485,17.485,0,0,0-.4-3.707Zm22.884-2.371a6.554,6.554,0,0,0,2.219,1.184,27.641,27.641,0,0,0,3.13.821q1.762.365,3.586.79a36.726,36.726,0,0,1,3.677,1.033,12.125,12.125,0,0,1,3.191,1.611,7.824,7.824,0,0,1,2.249,2.493,7.316,7.316,0,0,1,.851,3.677,9.544,9.544,0,0,1-4.5,8.571,13.32,13.32,0,0,1-4.589,1.793,26.788,26.788,0,0,1-5.258.517,26.068,26.068,0,0,1-5.349-.547,14.133,14.133,0,0,1-4.65-1.823,10.422,10.422,0,0,1-3.344-3.375,10.562,10.562,0,0,1-1.428-5.258h8.205a4.724,4.724,0,0,0,.578,2.4,5.021,5.021,0,0,0,1.49,1.641,6.345,6.345,0,0,0,2.1.942,9.814,9.814,0,0,0,2.462.3,9.227,9.227,0,0,0,1.915-.213,6.53,6.53,0,0,0,1.823-.669,4.148,4.148,0,0,0,1.367-1.215,3.194,3.194,0,0,0,.548-1.916q0-1.943-2.583-2.917a51.621,51.621,0,0,0-7.2-1.945q-1.885-.426-3.678-1a12.509,12.509,0,0,1-3.19-1.519,7.372,7.372,0,0,1-2.249-2.371,6.707,6.707,0,0,1-.851-3.495,9.469,9.469,0,0,1,1.184-4.985,8.74,8.74,0,0,1,3.131-3.068,13.708,13.708,0,0,1,4.377-1.581,26.946,26.946,0,0,1,4.984-.456,24.938,24.938,0,0,1,4.953.486,13.134,13.134,0,0,1,4.285,1.64,9.87,9.87,0,0,1,3.131,3.07,10.32,10.32,0,0,1,1.489,4.832h-8.206A3.776,3.776,0,0,0,490.1,276.6a8.613,8.613,0,0,0-4.011-.881,14.873,14.873,0,0,0-1.581.091,5.28,5.28,0,0,0-1.55.4,3.191,3.191,0,0,0-1.185.881,2.328,2.328,0,0,0-.486,1.55,2.363,2.363,0,0,0,.85,1.885Zm53.732,8.084H513.2q.183,4.194,2.127,6.079a8.848,8.848,0,0,0,10.089.577,5.423,5.423,0,0,0,2.31-2.765h7.6q-1.825,5.652-5.593,8.084a16.449,16.449,0,0,1-9.117,2.432,17.937,17.937,0,0,1-6.686-1.185,13.877,13.877,0,0,1-5.045-3.374,15.155,15.155,0,0,1-3.191-5.227,19.11,19.11,0,0,1-1.125-6.687,18.337,18.337,0,0,1,1.155-6.565,15.193,15.193,0,0,1,8.358-8.752,16.269,16.269,0,0,1,6.534-1.276,14.937,14.937,0,0,1,6.99,1.55,13.95,13.95,0,0,1,4.893,4.163,17.141,17.141,0,0,1,2.766,5.957,22.214,22.214,0,0,1,.608,6.99Zm-10.789-10.454a6.065,6.065,0,0,0-4.711-1.7,7.513,7.513,0,0,0-3.435.7,6.541,6.541,0,0,0-2.188,1.732,6.354,6.354,0,0,0-1.155,2.188,9.833,9.833,0,0,0-.4,2.067h14.041a9.987,9.987,0,0,0-2.157-4.984Z" transform="translate(-278.769 -269.591)" fill="#2a2a2a"/>
      <path id="Path_1243" data-name="Path 1243" d="M275.733,309.905H427.928v3.575H275.733v-3.575Z" transform="translate(-275.733 -270.944)" fill="#e9791a" fill-rule="evenodd"/>
      <path id="Path_1244" data-name="Path 1244" d="M453.562,310.276h87.651v3.575H453.562v-3.575Z" transform="translate(-281.756 -270.956)" fill="#e9791a" fill-rule="evenodd"/>
      <path id="Path_1245" data-name="Path 1245" d="M472.313,318.883a.973.973,0,0,0-.742.242,1.185,1.185,0,0,0-.223.813v.554H473.1v1.7h-1.752v7.545h-2.539V322.19H467.29v-1.7h1.519v-.715a2.768,2.768,0,0,1,.769-2.02,3.117,3.117,0,0,1,2.325-.786c.226,0,.452.01.679.027s.447.033.662.044v1.9a7.618,7.618,0,0,0-.93-.054Zm8.152,10.852v-1.287h-.053a2.862,2.862,0,0,1-1.252,1.162,3.7,3.7,0,0,1-1.573.356,4.441,4.441,0,0,1-1.671-.268,2.408,2.408,0,0,1-1.028-.759,2.966,2.966,0,0,1-.527-1.2,7.44,7.44,0,0,1-.153-1.564v-5.686h2.539v5.221a3.238,3.238,0,0,0,.357,1.707,1.387,1.387,0,0,0,1.269.563,1.758,1.758,0,0,0,1.5-.617,3.424,3.424,0,0,0,.466-2.029v-4.845h2.538v9.243Zm7.776-2.11a1.243,1.243,0,0,0,.859.215c.142,0,.279-.006.411-.018a3.153,3.153,0,0,0,.375-.054v1.967a5.961,5.961,0,0,1-.715.072c-.262.012-.518.018-.769.018a7.342,7.342,0,0,1-1.117-.081,2.608,2.608,0,0,1-.929-.313,1.654,1.654,0,0,1-.635-.661,2.358,2.358,0,0,1-.233-1.127V322.19h-1.537v-1.7h1.537v-2.771h2.539v2.771h1.859v1.7h-1.859v4.577a1.239,1.239,0,0,0,.214.858Zm9.117,2.11v-1.287H497.3a2.86,2.86,0,0,1-1.251,1.162,3.7,3.7,0,0,1-1.573.356,4.446,4.446,0,0,1-1.672-.268,2.42,2.42,0,0,1-1.028-.759,2.978,2.978,0,0,1-.527-1.2,7.445,7.445,0,0,1-.152-1.564v-5.686h2.538v5.221A3.238,3.238,0,0,0,494,327.42a1.387,1.387,0,0,0,1.269.563,1.758,1.758,0,0,0,1.5-.617,3.424,3.424,0,0,0,.466-2.029v-4.845h2.538v9.243Zm9.868-7.107a4.669,4.669,0,0,0-.483-.026,2.694,2.694,0,0,0-1.18.233,2.047,2.047,0,0,0-.778.634,2.562,2.562,0,0,0-.42.939,5.128,5.128,0,0,0-.125,1.162v4.165H501.7v-9.243h2.413v1.717h.036a3.107,3.107,0,0,1,.483-.8,3.155,3.155,0,0,1,.7-.626,3.433,3.433,0,0,1,.841-.4,3.05,3.05,0,0,1,.93-.143,1.971,1.971,0,0,1,.554.09v2.359c-.119-.023-.262-.044-.429-.063Zm9.868,3.1h-6.668a2.568,2.568,0,0,0,.626,1.788,2.6,2.6,0,0,0,2.968.169,1.6,1.6,0,0,0,.679-.812h2.234a4.233,4.233,0,0,1-1.644,2.377,4.836,4.836,0,0,1-2.681.715,5.293,5.293,0,0,1-1.967-.348,4.1,4.1,0,0,1-1.484-.992,4.468,4.468,0,0,1-.938-1.538,5.627,5.627,0,0,1-.33-1.966,5.407,5.407,0,0,1,.339-1.931,4.474,4.474,0,0,1,2.459-2.574,4.785,4.785,0,0,1,1.922-.376,4.4,4.4,0,0,1,2.056.456,4.111,4.111,0,0,1,1.44,1.225,5.053,5.053,0,0,1,.813,1.752,6.529,6.529,0,0,1,.179,2.056Zm-3.173-3.075a1.785,1.785,0,0,0-1.385-.5,2.208,2.208,0,0,0-1.01.206,1.941,1.941,0,0,0-.643.509,1.88,1.88,0,0,0-.34.644,2.862,2.862,0,0,0-.116.608h4.13a2.95,2.95,0,0,0-.635-1.467Zm4.782,7.08v-2.753h2.806v2.753Zm9.278-7.58a1.787,1.787,0,0,0-1.019.277,2.2,2.2,0,0,0-.67.715,3.123,3.123,0,0,0-.366.965,5.25,5.25,0,0,0-.107,1.046,5.024,5.024,0,0,0,.107,1.019,3.154,3.154,0,0,0,.349.938,2.016,2.016,0,0,0,.653.689,1.788,1.788,0,0,0,1,.268,1.861,1.861,0,0,0,1.4-.509,2.419,2.419,0,0,0,.617-1.368H532.4A4.19,4.19,0,0,1,530.968,329a4.615,4.615,0,0,1-3.021.965,5.063,5.063,0,0,1-1.9-.348,4.218,4.218,0,0,1-1.475-.975,4.409,4.409,0,0,1-.948-1.493,5.161,5.161,0,0,1-.339-1.9,6.161,6.161,0,0,1,.312-1.994,4.5,4.5,0,0,1,.921-1.591A4.215,4.215,0,0,1,526,320.617a5.035,5.035,0,0,1,2-.376,5.831,5.831,0,0,1,1.582.214,4.221,4.221,0,0,1,1.359.653,3.372,3.372,0,0,1,1.4,2.637h-2.485a1.7,1.7,0,0,0-1.877-1.591Zm14.48,7.58h-2.9l-1.931-2.914-1.93,2.914h-2.842l3.325-4.863-3.039-4.38h2.9l1.626,2.413,1.61-2.413h2.807l-3.039,4.326,3.414,4.917Z" transform="translate(-282.221 -271.183)" fill="#2a2a2a"/>
      <path id="Path_1246" data-name="Path 1246" d="M308.237,302.057h9.453l6.235-22.041,6.436,22.041h9.553l-9.553-31.739H317.79Z" transform="translate(-276.834 -269.603)" fill="#e9791a"/>
      <path id="Path_1247" data-name="Path 1247" d="M341.024,270.318h9.352l9.553,31.739-9.453.179Z" transform="translate(-277.945 -269.603)" fill="#e9791a"/>
    </g>
    <path id="Path_1264" data-name="Path 1264" d="M-72.908,0H364.579V112.573H-72.908Z" transform="translate(212.506 110.547)" fill="#fff"/>
    <path id="Path_1263" data-name="Path 1263" d="M0,0H453.773V112.573H0Z" transform="translate(591.721 110.547)" fill="#fff"/>
    <rect id="Rectangle_385" data-name="Rectangle 385" width="906.212" height="112.573" transform="translate(139.509 237.297)" fill="none" stroke="#e97a32" stroke-miterlimit="10" stroke-width="2"/>
    <rect id="Rectangle_386" data-name="Rectangle 386" width="906.212" height="112.573" transform="translate(139.509 364.046)" fill="#fff"/>
    <text id="System_of_rules_workflows" data-name="System of rules
&amp; workflows" transform="translate(728.619 157.022)" fill="#2a2a2a" font-size="27" font-family="Roboto-Regular, Roboto"><tspan x="0" y="0">System of rules</tspan><tspan x="0" y="33">&amp; workflows</tspan></text>
    <text id="System_of_engagement" data-name="System of
engagement" transform="translate(343.652 157.022)" fill="#2a2a2a" font-size="27" font-family="Roboto-Regular, Roboto"><tspan x="0" y="0">System of</tspan><tspan x="0" y="33">engagement</tspan></text>
    <g id="Group_1312" data-name="Group 1312" transform="translate(258.291 135.494)">
      <g id="Group_1311" data-name="Group 1311">
        <path id="Path_1248" data-name="Path 1248" d="M314.543,175.431V159.986a5.507,5.507,0,1,0-5.412-9.378l-13.379-7.724a5.508,5.508,0,1,0-10.924-1.006,5.554,5.554,0,0,0,.094,1.006l-13.379,7.724a5.507,5.507,0,1,0-5.412,9.378v15.445a5.508,5.508,0,1,0,4.591,9.964,5.456,5.456,0,0,0,.824-.585l13.376,7.723a5.571,5.571,0,0,0-.094,1.006,5.509,5.509,0,1,0,10.924-1.006l13.379-7.724a5.507,5.507,0,1,0,5.412-9.378Zm-43-16.452,3.564,2.057-.918,1.59a1.833,1.833,0,0,0,.671,2.508l2.667,1.54c-.029.348-.043.691-.043,1.035s.014.688.043,1.035l-2.667,1.539a1.835,1.835,0,0,0-.671,2.509l.918,1.59-3.56,2.055a5.526,5.526,0,0,0-1.743-1V159.986a5.515,5.515,0,0,0,1.739-1.008Zm35.749-3.18-3.56,2.056-.918-1.59a1.836,1.836,0,0,0-2.509-.671l-2.67,1.542a12.716,12.716,0,0,0-1.788-1.03v-3.087a1.836,1.836,0,0,0-1.836-1.837h-1.837v-4.111a5.5,5.5,0,0,0,1.74-1.008l13.378,7.724a5.443,5.443,0,0,0,0,2.011Zm-7.934,10.233a8.793,8.793,0,0,1,0,3.353,1.835,1.835,0,0,0,.887,1.923l2.143,1.238-1.837,3.18-2.143-1.237a1.837,1.837,0,0,0-2.112.194,9.1,9.1,0,0,1-2.9,1.672,1.835,1.835,0,0,0-1.223,1.731v2.476H288.5v-2.476a1.836,1.836,0,0,0-1.224-1.731,9.1,9.1,0,0,1-2.9-1.672,1.837,1.837,0,0,0-2.112-.194l-2.142,1.237-1.837-3.18,2.142-1.238a1.836,1.836,0,0,0,.888-1.924,9.082,9.082,0,0,1-.161-1.676,9.175,9.175,0,0,1,.161-1.676,1.836,1.836,0,0,0-.888-1.924l-2.142-1.237,1.837-3.181,2.142,1.237a1.836,1.836,0,0,0,2.112-.2,9.127,9.127,0,0,1,2.9-1.67,1.838,1.838,0,0,0,1.224-1.731v-2.476h3.672v2.476a1.837,1.837,0,0,0,1.223,1.731,9.127,9.127,0,0,1,2.9,1.67,1.836,1.836,0,0,0,2.112.2l2.143-1.237,1.837,3.181-2.143,1.237a1.836,1.836,0,0,0-.887,1.924ZM288.5,151.182h-1.837a1.836,1.836,0,0,0-1.837,1.837V156.1a12.9,12.9,0,0,0-1.787,1.03l-2.671-1.541a1.835,1.835,0,0,0-2.508.671l-.918,1.59-3.561-2.056a5.445,5.445,0,0,0,0-2.011l13.379-7.724a5.509,5.509,0,0,0,1.74,1.008Zm-15.119,28.436,3.56-2.056.918,1.59a1.837,1.837,0,0,0,2.509.672l2.671-1.543a12.707,12.707,0,0,0,1.787,1.031V182.4a1.836,1.836,0,0,0,1.837,1.837H288.5v4.111a5.509,5.509,0,0,0-1.74,1.008l-13.382-7.725a5.515,5.515,0,0,0,0-2.01Zm18.791,4.617h1.837a1.836,1.836,0,0,0,1.836-1.837v-3.086a12.866,12.866,0,0,0,1.788-1.03l2.67,1.542a1.837,1.837,0,0,0,2.509-.672l.918-1.59,3.56,2.056a5.448,5.448,0,0,0,0,2.012l-13.378,7.723a5.5,5.5,0,0,0-1.74-1.007Zm16.958-7.8-3.563-2.057.918-1.59a1.835,1.835,0,0,0-.672-2.508l-2.667-1.54c.03-.347.044-.691.044-1.035s-.014-.687-.044-1.035l2.667-1.539a1.835,1.835,0,0,0,.672-2.508l-.918-1.591,3.563-2.057a5.49,5.49,0,0,0,1.74,1.008v15.445a5.49,5.49,0,0,0-1.74,1.008Zm3.576-23.482a1.837,1.837,0,1,1-1.836,1.837,1.839,1.839,0,0,1,1.836-1.837Zm-22.37-12.915a1.837,1.837,0,1,1-1.836,1.837,1.839,1.839,0,0,1,1.836-1.837Zm-22.37,12.915a1.837,1.837,0,1,1-1.837,1.837,1.838,1.838,0,0,1,1.837-1.837Zm.918,29.257a1.836,1.836,0,1,1-.921-3.427,1.885,1.885,0,0,1,.478.063,1.836,1.836,0,0,1,.442,3.364Zm21.452,13.162a1.836,1.836,0,1,1,1.837-1.837,1.838,1.838,0,0,1-1.837,1.837Zm22.37-12.915a1.836,1.836,0,1,1,1.837-1.837,1.838,1.838,0,0,1-1.837,1.837Zm0,0" transform="translate(-262.455 -136.369)" fill="#2a2a2a"/>
      </g>
      <path id="Path_1249" data-name="Path 1249" d="M291.121,163.105a5.509,5.509,0,1,0,5.509,5.509,5.515,5.515,0,0,0-5.509-5.509Zm0,7.345a1.837,1.837,0,1,1,1.837-1.837,1.838,1.838,0,0,1-1.837,1.837Zm0,0" transform="translate(-263.24 -137.275)" fill="#2a2a2a"/>
    </g>
    <g id="Group_1314" data-name="Group 1314" transform="translate(476.46 385.521)">
      <text id="System_of_records" data-name="System of
records" transform="translate(88.818 25)" fill="#2a2a2a" font-size="27" font-family="Roboto-Regular, Roboto"><tspan x="0" y="0">System of</tspan><tspan x="0" y="33">records</tspan></text>
      <g id="Group_1313" data-name="Group 1313" transform="translate(0 3.473)">
        <path id="Path_1250" data-name="Path 1250" d="M531.96,417.568a3.121,3.121,0,0,0-2.947-2.1h-1.044v-2.09h1.044a3.143,3.143,0,0,0,3.134-3.133v-8.358a3.143,3.143,0,0,0-3.134-3.133H491.406a3.142,3.142,0,0,0-3.133,3.133v8.358a3.142,3.142,0,0,0,3.133,3.133h1.045v2.09h-1.045a3.143,3.143,0,0,0-3.133,3.134v8.357a3.143,3.143,0,0,0,3.133,3.134h1.045v2.089h-1.045a3.143,3.143,0,0,0-3.133,3.134v8.357a3.142,3.142,0,0,0,3.133,3.134h19.849v8.357c0,4.117,9.986,6.268,19.848,6.268s19.848-2.152,19.848-6.268V423.826c0-4-9.412-6.132-18.991-6.258Zm-40.554-6.278a1.046,1.046,0,0,1-1.044-1.044v-8.358a1.046,1.046,0,0,1,1.044-1.044h37.608a1.045,1.045,0,0,1,1.044,1.044v8.358a1.045,1.045,0,0,1-1.044,1.044Zm34.473,2.089v2.09H521.7v-2.09Zm-6.267,0v2.09h-18.8v-2.09Zm-20.893,0v2.09H494.54v-2.09Zm12.536,31.34H491.406a1.046,1.046,0,0,1-1.044-1.045v-8.357a1.045,1.045,0,0,1,1.044-1.044h19.849ZM494.54,432.183v-2.089h4.178v2.089Zm16.715,0H500.809v-2.089h10.447Zm0-8.357V428H491.406a1.045,1.045,0,0,1-1.044-1.044V418.6a1.045,1.045,0,0,1,1.044-1.044h37.608a.679.679,0,0,1,.146.031c-9.193.261-17.9,2.392-17.9,6.236Zm37.607,31.339c0,1.421-6.267,4.178-17.758,4.178s-17.759-2.757-17.759-4.178v-7.5c3.437,2.183,10.614,3.322,17.759,3.322s14.322-1.138,17.758-3.322Zm0-10.446c0,1.42-6.267,4.179-17.758,4.179s-17.759-2.758-17.759-4.179v-7.5c3.437,2.183,10.614,3.322,17.759,3.322s14.322-1.138,17.758-3.322Zm0-10.447c0,1.42-6.267,4.178-17.758,4.178s-17.759-2.758-17.759-4.178v-7.5c3.437,2.182,10.614,3.322,17.759,3.322s14.322-1.139,17.758-3.322ZM531.1,428c-11.491,0-17.759-2.757-17.759-4.179s6.268-4.178,17.759-4.178,17.758,2.758,17.758,4.178S542.595,428,531.1,428Zm0,0" transform="translate(-488.273 -398.755)" fill="#2a2a2a"/>
        <rect id="Rectangle_387" data-name="Rectangle 387" width="2.089" height="2.089" transform="translate(41.785 34.473)" fill="#2a2a2a"/>
        <rect id="Rectangle_388" data-name="Rectangle 388" width="2.089" height="2.089" transform="translate(41.785 45.964)" fill="#2a2a2a"/>
        <rect id="Rectangle_389" data-name="Rectangle 389" width="2.089" height="2.089" transform="translate(41.785 55.366)" fill="#2a2a2a"/>
        <path id="Path_1251" data-name="Path 1251" d="M497.821,420.38h-4.179a1.044,1.044,0,0,0-1.044,1.044V425.6a1.045,1.045,0,0,0,1.044,1.044h4.179a1.045,1.045,0,0,0,1.044-1.044v-4.179a1.044,1.044,0,0,0-1.044-1.044Zm-1.044,4.178h-2.09V422.47h2.09Zm0,0" transform="translate(-488.419 -399.487)" fill="#2a2a2a"/>
        <path id="Path_1252" data-name="Path 1252" d="M506.471,420.38h-4.178a1.044,1.044,0,0,0-1.044,1.044V425.6a1.045,1.045,0,0,0,1.044,1.044h4.178a1.045,1.045,0,0,0,1.044-1.044v-4.179a1.044,1.044,0,0,0-1.044-1.044Zm-1.044,4.178h-2.09V422.47h2.09Zm0,0" transform="translate(-488.712 -399.487)" fill="#2a2a2a"/>
        <path id="Path_1253" data-name="Path 1253" d="M497.821,403.08h-4.179a1.044,1.044,0,0,0-1.044,1.044V408.3a1.044,1.044,0,0,0,1.044,1.044h4.179a1.044,1.044,0,0,0,1.044-1.044v-4.178a1.044,1.044,0,0,0-1.044-1.044Zm-1.044,4.179h-2.09v-2.09h2.09Zm0,0" transform="translate(-488.419 -398.901)" fill="#2a2a2a"/>
        <path id="Path_1254" data-name="Path 1254" d="M506.471,403.08h-4.178a1.044,1.044,0,0,0-1.044,1.044V408.3a1.044,1.044,0,0,0,1.044,1.044h4.178a1.044,1.044,0,0,0,1.044-1.044v-4.178a1.044,1.044,0,0,0-1.044-1.044Zm-1.044,4.179h-2.09v-2.09h2.09Zm0,0" transform="translate(-488.712 -398.901)" fill="#2a2a2a"/>
        <rect id="Rectangle_390" data-name="Rectangle 390" width="14.625" height="2.089" transform="translate(20.893 4.178)" fill="#2a2a2a"/>
        <rect id="Rectangle_391" data-name="Rectangle 391" width="2.089" height="2.089" transform="translate(37.607 4.178)" fill="#2a2a2a"/>
        <rect id="Rectangle_392" data-name="Rectangle 392" width="14.625" height="2.089" transform="translate(20.893 8.357)" fill="#2a2a2a"/>
        <rect id="Rectangle_393" data-name="Rectangle 393" width="2.089" height="2.089" transform="translate(37.607 8.357)" fill="#2a2a2a"/>
        <path id="Path_1255" data-name="Path 1255" d="M497.821,437.681h-4.179a1.044,1.044,0,0,0-1.044,1.044V442.9a1.044,1.044,0,0,0,1.044,1.044h4.179a1.044,1.044,0,0,0,1.044-1.044v-4.179a1.044,1.044,0,0,0-1.044-1.044Zm-1.044,4.178h-2.09V439.77h2.09Zm0,0" transform="translate(-488.419 -400.073)" fill="#2a2a2a"/>
        <path id="Path_1256" data-name="Path 1256" d="M506.471,437.681h-4.178a1.044,1.044,0,0,0-1.044,1.044V442.9a1.044,1.044,0,0,0,1.044,1.044h4.178a1.044,1.044,0,0,0,1.044-1.044v-4.179a1.044,1.044,0,0,0-1.044-1.044Zm-1.044,4.178h-2.09V439.77h2.09Zm0,0" transform="translate(-488.712 -400.073)" fill="#2a2a2a"/>
      </g>
    </g>
    <g id="Group_1315" data-name="Group 1315" transform="translate(639.799 135.494)">
      <path id="Path_1257" data-name="Path 1257" d="M707.886,174.785a12.072,12.072,0,0,0-7.826,2.876l-2.09-2.09,1.26-1.261-1.365-2.391q.158-.343.289-.692l2.655-.725V168.72h8.274a3.033,3.033,0,1,0,0-2.022h-8.274v-1.783l-2.654-.726c-.087-.232-.185-.464-.289-.693l1.366-2.391-1.262-1.261,2.09-2.089a12.149,12.149,0,1,0-1.43-1.429l-2.09,2.09-1.261-1.261-2.391,1.364c-.228-.1-.459-.2-.692-.287l-.725-2.655h-1.784V147.3a3.033,3.033,0,1,0-2.021,0v8.274h-1.783l-.726,2.653c-.232.087-.464.185-.694.289l-2.39-1.365-1.261,1.261-2.089-2.09a12.15,12.15,0,1,0-1.429,1.43l2.09,2.09-1.261,1.261,1.366,2.391c-.105.23-.2.46-.289.692l-2.656.726V166.7h-8.273a3.032,3.032,0,1,0,0,2.022h8.273V170.5l2.654.725c.087.232.185.464.289.694l-1.365,2.39,1.261,1.261-2.09,2.09a12.149,12.149,0,1,0,1.43,1.429l2.09-2.09,1.261,1.26,2.391-1.365c.23.105.46.2.692.289l.726,2.655h1.783v8.274a3.033,3.033,0,1,0,2.021,0V179.84h1.784l.726-2.654c.232-.087.464-.185.693-.288l2.39,1.365L696.542,177l2.089,2.09a12.121,12.121,0,1,0,9.256-4.306Zm4.043-8.087a1.011,1.011,0,1,1-1.011,1.011,1.011,1.011,0,0,1,1.011-1.011Zm-4.043-28.307a10.11,10.11,0,1,1-10.11,10.11,10.12,10.12,0,0,1,10.11-10.11Zm-19.209,5.055a1.011,1.011,0,1,1-1.011,1.011,1.011,1.011,0,0,1,1.011-1.011ZM669.47,158.61a10.11,10.11,0,1,1,10.11-10.11,10.12,10.12,0,0,1-10.11,10.11Zm-4.044,10.11a1.011,1.011,0,1,1,1.011-1.012,1.011,1.011,0,0,1-1.011,1.012Zm4.044,28.307a10.11,10.11,0,1,1,10.11-10.11,10.12,10.12,0,0,1-10.11,10.11Zm19.208-5.055a1.011,1.011,0,1,1,1.011-1.012,1.011,1.011,0,0,1-1.011,1.012Zm6.265-16.231-2-1.142-.492.261a8.038,8.038,0,0,1-1.383.578l-.53.162-.609,2.218h-2.5l-.608-2.216-.529-.163a7.993,7.993,0,0,1-1.385-.579l-.49-.261-2,1.143-1.767-1.767,1.143-2-.261-.491a8.015,8.015,0,0,1-.579-1.384l-.162-.529-2.218-.611v-2.5l2.217-.608.163-.529a7.988,7.988,0,0,1,.578-1.385l.261-.49-1.143-2,1.768-1.767,2,1.143.491-.261a8.013,8.013,0,0,1,1.384-.579l.53-.162.61-2.218h2.5l.608,2.217.53.163a8.031,8.031,0,0,1,1.383.577l.492.262,2-1.142,1.767,1.767-1.143,2,.261.491a7.939,7.939,0,0,1,.579,1.384l.162.53,2.218.61v2.5l-2.216.607-.163.53a7.976,7.976,0,0,1-.579,1.384l-.261.491,1.143,2Zm12.943,21.286a10.11,10.11,0,1,1,10.109-10.11,10.12,10.12,0,0,1-10.109,10.11Zm0,0" transform="translate(-657.338 -136.369)" fill="#2a2a2a"/>
      <path id="Path_1258" data-name="Path 1258" d="M674.77,144l-1.43,1.43,3.329,3.329-3.329,3.328,1.43,1.43,4.758-4.758Zm0,0" transform="translate(-657.88 -136.627)" fill="#2a2a2a"/>
      <path id="Path_1259" data-name="Path 1259" d="M664.8,144l-4.758,4.759,4.758,4.758,1.43-1.43-3.329-3.328,3.329-3.329Zm0,0" transform="translate(-657.43 -136.627)" fill="#2a2a2a"/>
      <path id="Path_1260" data-name="Path 1260" d="M667.816,155.612l2.029-14.155,2,.288-2.03,14.153Zm0,0" transform="translate(-657.693 -136.541)" fill="#2a2a2a"/>
      <path id="Path_1261" data-name="Path 1261" d="M689.563,162.529a6.065,6.065,0,1,0,6.065,6.065,6.071,6.071,0,0,0-6.065-6.065Zm0,10.11a4.044,4.044,0,1,1,4.044-4.044,4.048,4.048,0,0,1-4.044,4.044Zm0,0" transform="translate(-658.224 -137.255)" fill="#2a2a2a"/>
      <rect id="Rectangle_394" data-name="Rectangle 394" width="12.131" height="2.022" transform="translate(44.482 10.11)" fill="#2a2a2a"/>
      <rect id="Rectangle_395" data-name="Rectangle 395" width="12.131" height="2.022" transform="translate(44.482 14.153)" fill="#2a2a2a"/>
      <rect id="Rectangle_396" data-name="Rectangle 396" width="12.131" height="2.022" transform="translate(44.482 6.066)" fill="#2a2a2a"/>
      <rect id="Rectangle_397" data-name="Rectangle 397" width="2.022" height="2.022" transform="translate(53.58 18.197)" fill="#2a2a2a"/>
      <rect id="Rectangle_398" data-name="Rectangle 398" width="2.022" height="2.022" transform="translate(49.537 18.197)" fill="#2a2a2a"/>
      <rect id="Rectangle_399" data-name="Rectangle 399" width="2.022" height="2.022" transform="translate(45.493 18.197)" fill="#2a2a2a"/>
      <rect id="Rectangle_400" data-name="Rectangle 400" width="2.022" height="8.088" transform="translate(43.471 46.504)" fill="#2a2a2a"/>
      <rect id="Rectangle_401" data-name="Rectangle 401" width="2.022" height="8.088" transform="translate(47.515 46.504)" fill="#2a2a2a"/>
      <rect id="Rectangle_402" data-name="Rectangle 402" width="2.022" height="8.088" transform="translate(51.558 46.504)" fill="#2a2a2a"/>
      <rect id="Rectangle_403" data-name="Rectangle 403" width="2.022" height="8.088" transform="translate(55.602 46.504)" fill="#2a2a2a"/>
      <path id="Path_1262" data-name="Path 1262" d="M674.585,186.561a5.056,5.056,0,0,0-9.948,0,4.044,4.044,0,0,0,.93,7.98h8.088a4.044,4.044,0,0,0,.93-7.98Zm-.93,5.958h-8.088a2.022,2.022,0,1,1,0-4.043h1.011v-1.012a3.033,3.033,0,0,1,6.066,0v1.012h1.011a2.022,2.022,0,1,1,0,4.043Zm0,0" transform="translate(-657.48 -137.928)" fill="#2a2a2a"/>
    </g>
  </g>
</svg>
