<svg xmlns="http://www.w3.org/2000/svg" xmlns:xlink="http://www.w3.org/1999/xlink" width="1601" height="473.18" viewBox="0 0 1601 473.18"><defs><style>.a{fill:#f4f0ed;}.b{fill:#f5f5f5;}.c{clip-path:url(#a);}.d{opacity:0.997;}.e{fill:url(#b);}.f{fill:#efefef;}.g,.i,.p{fill:#2a2a2a;}.g{font-size:37.072px;font-family:Roboto-BlackItalic, Roboto;font-weight:800;font-style:italic;}.h{fill:#e97a32;}.j,.k{fill:#e9791a;}.j{fill-rule:evenodd;}.l{fill:url(#h);}.m{fill:url(#i);}.n{fill:none;stroke:#e97a32;stroke-miterlimit:10;stroke-width:2px;}.o{fill:url(#j);}.p{font-size:29.349px;font-family:Roboto-Regular, Roboto;}</style><clipPath id="a"><path class="a" d="M0,0H1601V473.18H0Z"/></clipPath><linearGradient id="b" x1="0.116" y1="0.364" x2="0.766" y2="0.086" gradientUnits="objectBoundingBox"><stop offset="0" stop-color="#eee"/><stop offset="1" stop-color="#f5f5f5"/></linearGradient><linearGradient id="h" x1="0.98" y1="1" x2="0" y2="1" gradientUnits="objectBoundingBox"><stop offset="0" stop-color="#fff"/><stop offset="1" stop-color="#fff" stop-opacity="0"/></linearGradient><linearGradient id="i" x1="0.98" y1="1" x2="0.022" y2="1" gradientUnits="objectBoundingBox"><stop offset="0" stop-color="#fff" stop-opacity="0"/><stop offset="1" stop-color="#fff"/></linearGradient><linearGradient id="j" x1="0.117" y1="0.785" x2="0.884" y2="0.762" gradientUnits="objectBoundingBox"><stop offset="0" stop-color="#fff" stop-opacity="0"/><stop offset="0.186" stop-color="#fff"/><stop offset="0.522" stop-color="#fff"/><stop offset="0.781" stop-color="#fff"/><stop offset="1" stop-color="#fff" stop-opacity="0"/></linearGradient></defs><g transform="translate(-160 -1340)"><g transform="translate(0 38)"><rect class="b" width="1601" height="471" transform="translate(160 1302)"/><g class="c" transform="translate(160 1302)"><g class="d" transform="translate(303.473 -319.273) rotate(38)"><g transform="translate(-0.186 247.651)"><path class="e" d="M1138.833,96.681c-95.888.072-144.551-21-191.613-41.392C899.539,34.637,854.5,15.128,761.883,15.2S624.2,34.844,576.488,55.567C529.4,76.025,480.7,97.175,384.81,97.247s-144.549-21-191.606-41.392C145.525,35.2,100.486,15.695,7.876,15.764A7.885,7.885,0,1,1,7.888-.006c95.885-.072,144.548,21,191.606,41.388,47.679,20.655,92.719,40.164,185.328,40.094S522.507,61.831,570.22,41.1C617.312,20.649,666.007-.5,761.9-.573s144.555,21,191.616,41.388c47.682,20.655,92.721,40.164,185.334,40.094a7.885,7.885,0,1,1-.012,15.77Z"/></g><g transform="translate(-0.14 185.737)"><path class="f" d="M1138.833,96.684c-95.888.072-144.551-21.008-191.613-41.4C899.539,34.637,854.5,15.129,761.884,15.2S624.2,34.844,576.489,55.568C529.4,76.025,480.7,97.179,384.81,97.251S240.262,76.243,193.2,55.856C145.525,35.2,100.486,15.7,7.876,15.765A7.885,7.885,0,1,1,7.888-.006C103.773-.078,152.436,21,199.494,41.386,247.177,62.041,292.213,81.55,384.822,81.48s137.685-19.646,185.4-40.373C617.312,20.653,666.007-.5,761.9-.573S906.45,20.436,953.511,40.82c47.683,20.655,92.721,40.164,185.334,40.094a7.885,7.885,0,1,1-.012,15.77Z"/></g><g transform="translate(-0.279 371.474)"><path class="e" d="M1138.833,96.684c-95.888.072-144.551-21-191.613-41.392C899.539,34.641,854.5,15.128,761.883,15.2S624.2,34.847,576.489,55.571C529.4,76.028,480.7,97.179,384.81,97.251s-144.549-21-191.606-41.392C145.525,35.207,100.486,15.695,7.876,15.765A7.885,7.885,0,1,1,7.888-.006C103.773-.078,152.436,21,199.494,41.386,247.174,62.041,292.213,81.55,384.822,81.48s137.685-19.646,185.4-40.373C617.312,20.653,666.007-.5,761.9-.573S906.45,20.435,953.511,40.82c47.682,20.655,92.721,40.164,185.334,40.094a7.885,7.885,0,1,1-.012,15.771Z"/></g><g transform="translate(-0.233 309.559)"><path class="e" d="M1138.833,96.687c-95.888.072-144.551-21.008-191.613-41.4C899.539,34.64,854.5,15.128,761.883,15.2S624.2,34.847,576.488,55.57C529.4,76.028,480.7,97.182,384.81,97.254S240.262,76.245,193.2,55.858C145.525,35.207,100.486,15.694,7.876,15.764A7.885,7.885,0,1,1,7.888-.006C103.773-.078,152.436,21,199.494,41.389c47.682,20.655,92.719,40.163,185.328,40.094S522.507,61.837,570.22,41.11C617.312,20.655,666.007-.5,761.9-.573S906.45,20.438,953.511,40.822c47.683,20.655,92.721,40.163,185.334,40.094a7.886,7.886,0,1,1-.012,15.771Z"/></g><g transform="translate(-0.093 123.825)"><path class="e" d="M1138.833,96.687c-95.888.072-144.551-21.011-191.613-41.395C899.539,34.637,854.5,15.129,761.883,15.2S624.2,34.844,576.488,55.571C529.4,76.026,480.7,97.182,384.81,97.254S240.262,76.243,193.2,55.859C145.525,35.2,100.486,15.7,7.876,15.765A7.885,7.885,0,1,1,7.888-.006C103.773-.078,152.436,21,199.494,41.389c47.682,20.652,92.719,40.164,185.328,40.094s137.685-19.649,185.4-40.373C617.312,20.653,666.007-.5,761.9-.573s144.555,21.009,191.616,41.4c47.682,20.652,92.721,40.164,185.334,40.094a7.885,7.885,0,1,1-.012,15.771Z"/></g><g transform="translate(-0.047 61.911)"><path class="e" d="M1138.833,96.687c-95.888.072-144.551-21.011-191.613-41.4C899.539,34.637,854.5,15.128,761.883,15.2S624.2,34.844,576.488,55.57C529.4,76.025,480.7,97.181,384.81,97.253S240.262,76.242,193.2,55.858C145.525,35.2,100.486,15.695,7.876,15.764A7.885,7.885,0,1,1,7.888-.006C103.773-.078,152.436,21,199.494,41.389c47.682,20.652,92.719,40.164,185.328,40.094S522.507,61.834,570.22,41.11C617.312,20.653,666.007-.5,761.9-.573S906.45,20.435,953.511,40.822c47.682,20.652,92.721,40.164,185.334,40.094a7.885,7.885,0,1,1-.012,15.77Z"/></g><g transform="translate(0 0)"><path class="e" d="M1138.833,96.687c-95.888.072-144.551-21.011-191.613-41.4C899.539,34.636,854.5,15.128,761.883,15.2S624.2,34.843,576.488,55.57C529.4,76.025,480.7,97.182,384.81,97.254S240.262,76.242,193.2,55.858C145.525,35.2,100.486,15.695,7.876,15.764A7.885,7.885,0,1,1,7.888-.006C103.773-.078,152.436,21,199.494,41.389c47.682,20.652,92.719,40.164,185.328,40.094S522.507,61.834,570.22,41.11C617.312,20.652,666.007-.5,761.9-.573s144.555,21.008,191.616,41.4c47.683,20.652,92.721,40.164,185.334,40.094a7.885,7.885,0,1,1-.012,15.77Z"/></g></g></g></g><g transform="translate(326.491 1276.453)"><text class="g" transform="translate(731.54 288.591)"><tspan x="0" y="0">System of</tspan><tspan x="0" y="44.487">intelligence</tspan></text><path class="h" d="M641.383,289.353H627.415a1.516,1.516,0,0,0-1.075.446l-5.638,5.638H619.53a4.563,4.563,0,1,0,0,3.042h1.8a1.52,1.52,0,0,0,1.076-.446l5.638-5.638h13.338a4.518,4.518,0,0,0,7.288,1.886l6.2,3.448a4.4,4.4,0,0,0-.076.75,4.563,4.563,0,0,0,9.125,0,4.4,4.4,0,0,0-.076-.75l6.2-3.448a4.547,4.547,0,1,0,4.525-7.69v-6.645a4.549,4.549,0,1,0-4.525-7.689l-6.2-3.448a4.382,4.382,0,0,0,.076-.749,4.563,4.563,0,1,0-9.125,0,4.4,4.4,0,0,0,.076.75l-6.2,3.448a4.518,4.518,0,0,0-7.288,1.886H628.045l-5.638-5.638a1.52,1.52,0,0,0-1.076-.446h-1.8a4.563,4.563,0,1,0,0,3.042H620.7l5.638,5.638a1.516,1.516,0,0,0,1.075.446h13.968a4.554,4.554,0,0,0,2.762,2.761v1.8H619.53a4.563,4.563,0,1,0,0,3.042h24.615v1.8a4.558,4.558,0,0,0-2.762,2.762Zm-26.135,9.126a1.521,1.521,0,1,1,1.52-1.521,1.524,1.524,0,0,1-1.52,1.521Zm0-27.377a1.521,1.521,0,1,1,1.52-1.521,1.524,1.524,0,0,1-1.52,1.521Zm0,13.688a1.521,1.521,0,1,1,1.52-1.521,1.524,1.524,0,0,1-1.52,1.521Zm30.418,7.6a1.521,1.521,0,1,1,1.521-1.521,1.524,1.524,0,0,1-1.521,1.521Zm3.005-13.323,6.2,3.448a3.734,3.734,0,0,0,0,1.5l-6.2,3.448a4.588,4.588,0,0,0-1.484-.876v-6.645a4.509,4.509,0,0,0,1.484-.874Zm21.368,8.4-6.2-3.448a3.734,3.734,0,0,0,0-1.5l6.2-3.448a4.552,4.552,0,0,0,1.483.875v6.645a4.513,4.513,0,0,0-1.483.875Zm-19.886,2.657,6.2-3.447a4.567,4.567,0,0,0,1.484.875V294.2a4.532,4.532,0,0,0-1.484.876l-6.2-3.447a3.749,3.749,0,0,0,0-1.5Zm9.2-8.376a1.521,1.521,0,1,1-1.52,1.521,1.524,1.524,0,0,1,1.52-1.521Zm1.521,5.8a4.529,4.529,0,0,0,1.484-.875l6.2,3.447a3.736,3.736,0,0,0,0,1.5l-6.2,3.448a4.552,4.552,0,0,0-1.484-.876Zm7.681-11.138-6.2,3.448a4.567,4.567,0,0,0-1.484-.875v-6.645a4.549,4.549,0,0,0,1.484-.876l6.2,3.447a4.551,4.551,0,0,0-.076.752,4.493,4.493,0,0,0,.076.749Zm-10.722,2.573a4.529,4.529,0,0,0-1.484.875l-6.2-3.448a3.734,3.734,0,0,0,0-1.5l6.2-3.448a4.57,4.57,0,0,0,1.484.876ZM659.354,300a1.521,1.521,0,1,1,1.521-1.521A1.524,1.524,0,0,1,659.354,300Zm13.689-7.605a1.521,1.521,0,1,1,1.521-1.521,1.524,1.524,0,0,1-1.521,1.521Zm0-18.251a1.521,1.521,0,1,1-1.521,1.521,1.524,1.524,0,0,1,1.521-1.521Zm-13.689-7.605a1.521,1.521,0,1,1-1.52,1.521,1.524,1.524,0,0,1,1.52-1.521Zm-13.688,7.605a1.521,1.521,0,1,1-1.521,1.521,1.524,1.524,0,0,1,1.521-1.521Zm0,0"/><path class="h" d="M642.624,345.628h24.335a1.522,1.522,0,0,0,1.521-1.521V333.46h19.772a1.521,1.521,0,0,0,1.521-1.521V313.688H700.42a1.523,1.523,0,0,0,1.452-1.975l-7.584-24.266a34.2,34.2,0,0,0-36.228-33.015,34.357,34.357,0,0,0-26.754,15.849l2.561,1.641a31.309,31.309,0,0,1,24.373-14.454,31.159,31.159,0,0,1,33.017,30.438,1.463,1.463,0,0,0,.215.726l6.879,22.014h-10.1a1.522,1.522,0,0,0-1.521,1.521v6.084h-4.563a4.567,4.567,0,0,1-4.562-4.563h-3.042a7.613,7.613,0,0,0,7.6,7.605h4.563v9.125H666.959a1.522,1.522,0,0,0-1.521,1.521v10.647H644.145v-1.471a70.337,70.337,0,0,0-10.7-36.388,30.9,30.9,0,0,1-3.478-8.158l-2.942.778a33.972,33.972,0,0,0,3.821,8.961A67.306,67.306,0,0,1,641.1,341.115v2.992a1.522,1.522,0,0,0,1.521,1.521Zm0,0"/><path class="i" d="M285.336,294.9a5.222,5.222,0,0,0,1.541,1.7,6.582,6.582,0,0,0,2.171.975,10.158,10.158,0,0,0,2.548.315,9.48,9.48,0,0,0,1.982-.221,6.729,6.729,0,0,0,1.887-.691,4.278,4.278,0,0,0,1.416-1.259,3.306,3.306,0,0,0,.566-1.981q0-2.013-2.674-3.02a53.433,53.433,0,0,0-7.455-2.013q-1.951-.439-3.807-1.038a12.984,12.984,0,0,1-3.3-1.574,7.629,7.629,0,0,1-2.329-2.453,6.952,6.952,0,0,1-.88-3.618,9.79,9.79,0,0,1,1.227-5.159,9.055,9.055,0,0,1,3.24-3.177,14.236,14.236,0,0,1,4.53-1.636,27.974,27.974,0,0,1,5.159-.471,25.812,25.812,0,0,1,5.127.5,13.564,13.564,0,0,1,4.435,1.7,10.178,10.178,0,0,1,3.24,3.177,10.671,10.671,0,0,1,1.542,5h-8.494a3.907,3.907,0,0,0-1.95-3.492,8.917,8.917,0,0,0-4.152-.913,15.417,15.417,0,0,0-1.636.1,5.4,5.4,0,0,0-1.6.409,3.3,3.3,0,0,0-1.227.912,2.409,2.409,0,0,0-.5,1.6,2.448,2.448,0,0,0,.881,1.951,6.787,6.787,0,0,0,2.3,1.227,28.83,28.83,0,0,0,3.24.849q1.824.376,3.712.817a38.367,38.367,0,0,1,3.806,1.07,12.521,12.521,0,0,1,3.3,1.668,8.052,8.052,0,0,1,2.328,2.579,7.572,7.572,0,0,1,.881,3.806,9.881,9.881,0,0,1-4.656,8.871,13.787,13.787,0,0,1-4.75,1.856,27.72,27.72,0,0,1-5.442.535,26.973,26.973,0,0,1-5.536-.566,14.616,14.616,0,0,1-4.813-1.888,10.791,10.791,0,0,1-3.461-3.491,10.936,10.936,0,0,1-1.478-5.442h8.493a4.9,4.9,0,0,0,.6,2.485Z"/><path class="i" d="M386.953,303.355V284.984a11.416,11.416,0,0,0-1.258-6.009q-1.26-1.982-4.467-1.981-3.649,0-5.285,2.17t-1.636,7.142v17.049h-8.933V270.828h8.493v4.53h.188a10.263,10.263,0,0,1,4.4-4.121A12.737,12.737,0,0,1,384,269.948a15.172,15.172,0,0,1,5.882.975,8.734,8.734,0,0,1,3.618,2.7,10.479,10.479,0,0,1,1.856,4.216,26.245,26.245,0,0,1,.535,5.505v20.006Zm36.993,0a12.389,12.389,0,0,1-.409-1.541,13.189,13.189,0,0,1-.221-1.6,11.632,11.632,0,0,1-5.033,3.083,20.2,20.2,0,0,1-5.914.881,15.994,15.994,0,0,1-4.341-.566,9.953,9.953,0,0,1-3.523-1.762,8.191,8.191,0,0,1-2.359-3.02,10.211,10.211,0,0,1-.849-4.341,9.485,9.485,0,0,1,.974-4.561,8.164,8.164,0,0,1,2.517-2.863,11.276,11.276,0,0,1,3.524-1.6,38.011,38.011,0,0,1,3.995-.85q2.012-.313,3.963-.5a23.823,23.823,0,0,0,3.46-.566,6.032,6.032,0,0,0,2.391-1.1,2.416,2.416,0,0,0,.818-2.108,4.738,4.738,0,0,0-.472-2.3,3.472,3.472,0,0,0-1.258-1.321,4.952,4.952,0,0,0-1.825-.629,14.913,14.913,0,0,0-2.233-.157A6.783,6.783,0,0,0,413,277.057a5.054,5.054,0,0,0-1.761,3.775H402.3a10.377,10.377,0,0,1,1.573-5.222,10.718,10.718,0,0,1,3.523-3.335,15.373,15.373,0,0,1,4.813-1.793,27.47,27.47,0,0,1,5.379-.534,36.55,36.55,0,0,1,4.97.346,15.222,15.222,0,0,1,4.593,1.352,9.067,9.067,0,0,1,3.4,2.8,7.824,7.824,0,0,1,1.321,4.75V296.12a33.732,33.732,0,0,0,.252,4.215,7.578,7.578,0,0,0,.88,3.02Zm-1.007-15.917a4,4,0,0,1-1.416.786,14.432,14.432,0,0,1-1.824.472q-.977.189-2.045.315t-2.139.314a16.11,16.11,0,0,0-1.982.5,5.859,5.859,0,0,0-1.7.849,4.038,4.038,0,0,0-1.164,1.352,4.35,4.35,0,0,0-.441,2.076,4.2,4.2,0,0,0,.441,2.014,3.364,3.364,0,0,0,1.2,1.29,5.052,5.052,0,0,0,1.762.66,11.21,11.21,0,0,0,2.076.189,7.887,7.887,0,0,0,4.089-.881,5.876,5.876,0,0,0,2.139-2.108,6.72,6.72,0,0,0,.85-2.485,17.242,17.242,0,0,0,.157-2.013v-3.334ZM471,293.729a16.014,16.014,0,0,1-2.673,5.348,13.25,13.25,0,0,1-4.467,3.712,13.449,13.449,0,0,1-6.26,1.384,12.666,12.666,0,0,1-5.568-1.227,10.539,10.539,0,0,1-4.184-3.617h-.125v15.414h-8.934V270.828h8.493v4.153h.126a9.82,9.82,0,0,1,4.152-3.838,12.752,12.752,0,0,1,5.537-1.2,14.112,14.112,0,0,1,6.606,1.446,13.663,13.663,0,0,1,4.592,3.838A16.23,16.23,0,0,1,471,280.8a24.754,24.754,0,0,1,.881,6.638,22.358,22.358,0,0,1-.881,6.291Zm-8.461-10.38a10.262,10.262,0,0,0-1.353-3.367,7.552,7.552,0,0,0-2.422-2.39,6.768,6.768,0,0,0-3.618-.912,6.889,6.889,0,0,0-3.68.912,7.335,7.335,0,0,0-2.391,2.359,9.762,9.762,0,0,0-1.289,3.334,19.827,19.827,0,0,0-.378,3.9,18.048,18.048,0,0,0,.409,3.838,9.91,9.91,0,0,0,1.321,3.3,7.623,7.623,0,0,0,9.752,2.3,7.169,7.169,0,0,0,2.391-2.3,9.473,9.473,0,0,0,1.289-3.3,19.5,19.5,0,0,0,.378-3.838,18.1,18.1,0,0,0-.409-3.837Zm23.686-2.454a6.783,6.783,0,0,0,2.3,1.226,28.6,28.6,0,0,0,3.24.85q1.824.378,3.712.818a38.019,38.019,0,0,1,3.806,1.069,12.55,12.55,0,0,1,3.3,1.667,8.1,8.1,0,0,1,2.328,2.58,7.572,7.572,0,0,1,.881,3.806,9.878,9.878,0,0,1-4.656,8.871,13.787,13.787,0,0,1-4.75,1.856,27.728,27.728,0,0,1-5.442.535,26.981,26.981,0,0,1-5.536-.566,14.628,14.628,0,0,1-4.813-1.887,10.787,10.787,0,0,1-3.461-3.493,10.932,10.932,0,0,1-1.478-5.442h8.493a4.89,4.89,0,0,0,.6,2.485,5.2,5.2,0,0,0,1.542,1.7,6.567,6.567,0,0,0,2.17.975,10.158,10.158,0,0,0,2.548.315,9.551,9.551,0,0,0,1.982-.22,6.761,6.761,0,0,0,1.887-.692,4.293,4.293,0,0,0,1.415-1.258,3.306,3.306,0,0,0,.567-1.983q0-2.011-2.674-3.019a53.431,53.431,0,0,0-7.455-2.013q-1.951-.441-3.807-1.039a12.948,12.948,0,0,1-3.3-1.572,7.629,7.629,0,0,1-2.328-2.454,6.942,6.942,0,0,1-.881-3.617,9.8,9.8,0,0,1,1.226-5.16,9.047,9.047,0,0,1,3.241-3.176,14.188,14.188,0,0,1,4.53-1.636,27.89,27.89,0,0,1,5.159-.472,25.812,25.812,0,0,1,5.127.5,13.594,13.594,0,0,1,4.435,1.7,10.215,10.215,0,0,1,3.241,3.178,10.681,10.681,0,0,1,1.541,5h-8.494a3.909,3.909,0,0,0-1.95-3.491,8.915,8.915,0,0,0-4.152-.912,15.393,15.393,0,0,0-1.636.094,5.465,5.465,0,0,0-1.6.409,3.3,3.3,0,0,0-1.227.912,2.409,2.409,0,0,0-.5,1.6,2.446,2.446,0,0,0,.88,1.951Zm55.616,8.367H518.378q.189,4.341,2.2,6.292a9.158,9.158,0,0,0,10.443.6,5.614,5.614,0,0,0,2.391-2.862h7.865q-1.888,5.85-5.789,8.367a17.026,17.026,0,0,1-9.437,2.517,18.566,18.566,0,0,1-6.92-1.227,14.364,14.364,0,0,1-5.222-3.492,15.686,15.686,0,0,1-3.3-5.41,19.78,19.78,0,0,1-1.164-6.921,18.98,18.98,0,0,1,1.2-6.795,15.726,15.726,0,0,1,8.651-9.059,16.839,16.839,0,0,1,6.763-1.321,15.461,15.461,0,0,1,7.235,1.6,14.44,14.44,0,0,1,5.065,4.309,17.742,17.742,0,0,1,2.863,6.166,22.992,22.992,0,0,1,.629,7.235Zm-11.167-10.821a6.278,6.278,0,0,0-4.876-1.761,7.776,7.776,0,0,0-3.555.723,6.77,6.77,0,0,0-2.265,1.793,6.577,6.577,0,0,0-1.2,2.265,10.179,10.179,0,0,0-.409,2.139h14.533a10.337,10.337,0,0,0-2.233-5.159Z"/><path class="j" d="M275.733,309.905h157.53v3.7H275.733v-3.7Z"/><path class="j" d="M453.562,310.276h90.724v3.7H453.562v-3.7Z"/><path class="i" d="M472.489,318.95a1.007,1.007,0,0,0-.768.25,1.227,1.227,0,0,0-.231.842v.573H473.3v1.758H471.49v7.809h-2.628v-7.809H467.29v-1.758h1.572v-.74a2.865,2.865,0,0,1,.8-2.091,3.227,3.227,0,0,1,2.406-.814c.234,0,.468.01.7.028s.463.034.685.046v1.962a7.886,7.886,0,0,0-.963-.056Zm8.438,11.232V328.85h-.055a2.963,2.963,0,0,1-1.3,1.2,3.83,3.83,0,0,1-1.628.369,4.6,4.6,0,0,1-1.73-.277,2.493,2.493,0,0,1-1.064-.786,3.07,3.07,0,0,1-.546-1.24,7.7,7.7,0,0,1-.158-1.619v-5.885h2.628v5.4a3.352,3.352,0,0,0,.37,1.767,1.436,1.436,0,0,0,1.314.583,1.82,1.82,0,0,0,1.554-.639,3.543,3.543,0,0,0,.482-2.1v-5.015h2.627v9.567ZM488.976,328a1.286,1.286,0,0,0,.889.223c.147,0,.289-.006.425-.019a3.261,3.261,0,0,0,.388-.056v2.036a6.176,6.176,0,0,1-.74.074c-.271.012-.536.019-.8.019a7.6,7.6,0,0,1-1.156-.084,2.7,2.7,0,0,1-.962-.324,1.712,1.712,0,0,1-.657-.684,2.441,2.441,0,0,1-.241-1.166v-5.644h-1.591v-1.758h1.591v-2.868h2.628v2.868h1.924v1.758h-1.924v4.737a1.282,1.282,0,0,0,.222.888Zm9.437,2.184V328.85h-.056a2.96,2.96,0,0,1-1.295,1.2,3.83,3.83,0,0,1-1.628.369,4.6,4.6,0,0,1-1.731-.277,2.5,2.5,0,0,1-1.064-.786,3.083,3.083,0,0,1-.545-1.24,7.708,7.708,0,0,1-.157-1.619v-5.885h2.627v5.4a3.352,3.352,0,0,0,.37,1.767,1.436,1.436,0,0,0,1.314.583,1.82,1.82,0,0,0,1.554-.639,3.543,3.543,0,0,0,.482-2.1v-5.015h2.627v9.567Zm10.214-7.356a4.832,4.832,0,0,0-.5-.027,2.789,2.789,0,0,0-1.221.241,2.119,2.119,0,0,0-.8.656,2.652,2.652,0,0,0-.435.972,5.309,5.309,0,0,0-.129,1.2v4.311h-2.628v-9.567h2.5v1.777h.037a3.215,3.215,0,0,1,.5-.823,3.266,3.266,0,0,1,.721-.648,3.554,3.554,0,0,1,.87-.417,3.158,3.158,0,0,1,.963-.148,2.041,2.041,0,0,1,.573.093v2.442c-.123-.024-.271-.046-.444-.065Zm10.214,3.211h-6.9a2.659,2.659,0,0,0,.648,1.851,2.7,2.7,0,0,0,3.072.175,1.653,1.653,0,0,0,.7-.841h2.312a4.381,4.381,0,0,1-1.7,2.46,5.006,5.006,0,0,1-2.775.74,5.478,5.478,0,0,1-2.036-.36,4.249,4.249,0,0,1-1.536-1.027,4.624,4.624,0,0,1-.971-1.592,5.825,5.825,0,0,1-.342-2.035,5.6,5.6,0,0,1,.351-2,4.631,4.631,0,0,1,2.545-2.664,4.953,4.953,0,0,1,1.989-.389,4.558,4.558,0,0,1,2.128.472,4.256,4.256,0,0,1,1.49,1.268,5.23,5.23,0,0,1,.841,1.813,6.758,6.758,0,0,1,.185,2.128Zm-3.284-3.183a1.848,1.848,0,0,0-1.434-.518,2.286,2.286,0,0,0-1.046.213,2.01,2.01,0,0,0-.666.527,1.945,1.945,0,0,0-.352.667,2.964,2.964,0,0,0-.12.629h4.275a3.053,3.053,0,0,0-.657-1.518Zm4.95,7.328v-2.849h2.9v2.849Zm9.6-7.846a1.849,1.849,0,0,0-1.055.287,2.278,2.278,0,0,0-.694.74,3.232,3.232,0,0,0-.379,1,5.434,5.434,0,0,0-.111,1.083,5.2,5.2,0,0,0,.111,1.055,3.263,3.263,0,0,0,.361.971,2.086,2.086,0,0,0,.676.713,1.851,1.851,0,0,0,1.035.277,1.926,1.926,0,0,0,1.453-.527,2.5,2.5,0,0,0,.639-1.416h2.535a4.336,4.336,0,0,1-1.481,2.9,4.777,4.777,0,0,1-3.127,1,5.24,5.24,0,0,1-1.97-.36,4.366,4.366,0,0,1-1.527-1.009,4.564,4.564,0,0,1-.981-1.545,5.342,5.342,0,0,1-.351-1.97,6.379,6.379,0,0,1,.323-2.064,4.657,4.657,0,0,1,.953-1.647,4.363,4.363,0,0,1,1.537-1.082,5.212,5.212,0,0,1,2.072-.389,6.034,6.034,0,0,1,1.637.222,4.369,4.369,0,0,1,1.407.676,3.49,3.49,0,0,1,1.452,2.729h-2.572a1.762,1.762,0,0,0-1.943-1.647Zm14.988,7.846h-3l-2-3.016-2,3.016h-2.942l3.441-5.033-3.145-4.534h3l1.683,2.5,1.666-2.5h2.905l-3.146,4.478,3.534,5.089Z"/><path class="k" d="M308.237,303.17h9.784l6.453-22.813,6.661,22.813h9.888l-9.888-32.852H318.125Z"/><path class="k" d="M341.024,270.318h9.68l9.888,32.852-9.784.185Z"/><path class="l" d="M-72.908,0H379.916V116.52H-72.908Z" transform="translate(212.509 110.547)"/><path class="m" d="M0,0H469.681V116.52H0Z" transform="translate(607.575 110.547)"/><rect class="n" width="937.982" height="116.52" transform="translate(139.509 241.74)"/><rect class="o" width="937.982" height="116.52" transform="translate(139.509 372.933)"/><text class="p" transform="translate(749.271 159.775)"><tspan x="0" y="0">System of rules</tspan><tspan x="0" y="35.219">&amp; workflows</tspan></text><text class="p" transform="translate(350.809 159.775)"><tspan x="0" y="0">System of</tspan><tspan x="0" y="35.219">engagement</tspan></text><path class="i" d="M316.369,176.8V160.814a5.7,5.7,0,1,0-5.6-9.707l-13.848-7.995a5.7,5.7,0,1,0-11.307-1.041,5.749,5.749,0,0,0,.1,1.041l-13.848,7.995a5.7,5.7,0,1,0-5.6,9.707V176.8a5.7,5.7,0,1,0,4.752,10.313,5.646,5.646,0,0,0,.853-.605l13.845,7.994a5.7,5.7,0,1,0,11.307,1.041,5.679,5.679,0,0,0-.1-1.041l13.848-7.995a5.7,5.7,0,1,0,5.6-9.707Zm-44.508-17.029,3.689,2.129-.95,1.646a1.9,1.9,0,0,0,.7,2.6l2.76,1.594c-.03.36-.045.715-.045,1.071s.015.712.045,1.071l-2.76,1.593a1.9,1.9,0,0,0-.7,2.6l.95,1.646-3.685,2.127a5.719,5.719,0,0,0-1.8-1.038V160.814a5.708,5.708,0,0,0,1.8-1.043Zm37-3.291-3.685,2.128-.95-1.646a1.9,1.9,0,0,0-2.6-.7l-2.764,1.6a13.163,13.163,0,0,0-1.851-1.066V153.6a1.9,1.9,0,0,0-1.9-1.9h-1.9v-4.255a5.693,5.693,0,0,0,1.8-1.043l13.847,7.995a5.634,5.634,0,0,0,0,2.082Zm-8.212,10.592a9.1,9.1,0,0,1,0,3.471,1.9,1.9,0,0,0,.918,1.99l2.218,1.281-1.9,3.291-2.218-1.28a1.9,1.9,0,0,0-2.186.2,9.415,9.415,0,0,1-3,1.731,1.9,1.9,0,0,0-1.266,1.792v2.563h-3.8v-2.563a1.9,1.9,0,0,0-1.267-1.792,9.415,9.415,0,0,1-3-1.731,1.9,1.9,0,0,0-2.186-.2l-2.217,1.28-1.9-3.291,2.217-1.281a1.9,1.9,0,0,0,.919-1.991,9.4,9.4,0,0,1-.167-1.735,9.5,9.5,0,0,1,.167-1.735,1.9,1.9,0,0,0-.919-1.991l-2.217-1.28,1.9-3.292,2.217,1.28a1.9,1.9,0,0,0,2.186-.2,9.447,9.447,0,0,1,3-1.729,1.9,1.9,0,0,0,1.267-1.792V155.5h3.8v2.563a1.9,1.9,0,0,0,1.266,1.792,9.447,9.447,0,0,1,3,1.729,1.9,1.9,0,0,0,2.186.2l2.218-1.28,1.9,3.292-2.218,1.28a1.9,1.9,0,0,0-.918,1.991ZM289.414,151.7h-1.9a1.9,1.9,0,0,0-1.9,1.9V156.8a13.351,13.351,0,0,0-1.85,1.066l-2.765-1.6a1.9,1.9,0,0,0-2.6.7l-.95,1.646-3.686-2.128a5.635,5.635,0,0,0,0-2.082l13.848-7.995a5.7,5.7,0,0,0,1.8,1.043Zm-15.649,29.433,3.685-2.128.95,1.646a1.9,1.9,0,0,0,2.6.7l2.765-1.6a13.158,13.158,0,0,0,1.85,1.067v3.194a1.9,1.9,0,0,0,1.9,1.9h1.9v4.255a5.7,5.7,0,0,0-1.8,1.043l-13.851-8a5.708,5.708,0,0,0,0-2.081Zm19.45,4.779h1.9a1.9,1.9,0,0,0,1.9-1.9v-3.194a13.319,13.319,0,0,0,1.851-1.066l2.764,1.6a1.9,1.9,0,0,0,2.6-.7l.95-1.646,3.685,2.128a5.639,5.639,0,0,0,0,2.083l-13.847,7.994a5.691,5.691,0,0,0-1.8-1.042Zm17.552-8.07-3.688-2.129.95-1.646a1.9,1.9,0,0,0-.7-2.6l-2.76-1.594c.031-.359.046-.715.046-1.071s-.015-.711-.046-1.071l2.76-1.593a1.9,1.9,0,0,0,.7-2.6l-.95-1.647,3.688-2.129a5.683,5.683,0,0,0,1.8,1.043V176.8a5.683,5.683,0,0,0-1.8,1.043Zm3.7-24.305a1.9,1.9,0,1,1-1.9,1.9,1.9,1.9,0,0,1,1.9-1.9ZM291.314,140.17a1.9,1.9,0,1,1-1.9,1.9,1.9,1.9,0,0,1,1.9-1.9ZM268.16,153.538a1.9,1.9,0,1,1-1.9,1.9,1.9,1.9,0,0,1,1.9-1.9Zm.95,30.283a1.9,1.9,0,1,1-.953-3.547,1.951,1.951,0,0,1,.495.065,1.9,1.9,0,0,1,.458,3.482Zm22.2,13.623a1.9,1.9,0,1,1,1.9-1.9,1.9,1.9,0,0,1-1.9,1.9Zm23.154-13.368a1.9,1.9,0,1,1,1.9-1.9,1.9,1.9,0,0,1-1.9,1.9Zm0,0"/><path class="i" d="M291.314,163.1a5.7,5.7,0,1,0,5.7,5.7,5.709,5.709,0,0,0-5.7-5.7Zm0,7.6a1.9,1.9,0,1,1,1.9-1.9,1.9,1.9,0,0,1-1.9,1.9Zm0,0"/><text class="p" transform="translate(580.205 422.161)"><tspan x="0" y="0">System of</tspan><tspan x="0" y="35.219">records</tspan></text><path class="i" d="M533.492,418.228a3.231,3.231,0,0,0-3.05-2.173h-1.081v-2.163h1.081a3.253,3.253,0,0,0,3.244-3.243V402a3.253,3.253,0,0,0-3.244-3.243H491.516A3.252,3.252,0,0,0,488.273,402v8.651a3.252,3.252,0,0,0,3.243,3.243H492.6v2.163h-1.082a3.253,3.253,0,0,0-3.243,3.244v8.65a3.254,3.254,0,0,0,3.243,3.244H492.6v2.162h-1.082a3.254,3.254,0,0,0-3.243,3.244v8.65a3.252,3.252,0,0,0,3.243,3.244h20.545v8.65c0,4.261,10.336,6.488,20.544,6.488s20.544-2.227,20.544-6.488V424.7c0-4.141-9.742-6.347-19.657-6.477Zm-41.976-6.5a1.082,1.082,0,0,1-1.081-1.081V402a1.082,1.082,0,0,1,1.081-1.081h38.926A1.082,1.082,0,0,1,531.523,402v8.651a1.082,1.082,0,0,1-1.081,1.081Zm35.682,2.162v2.163h-4.325v-2.163Zm-6.487,0v2.163H501.248v-2.163Zm-21.626,0v2.163H494.76v-2.163Zm12.976,32.439H491.516a1.083,1.083,0,0,1-1.081-1.082V436.6a1.082,1.082,0,0,1,1.081-1.081h20.545Zm-17.3-12.976v-2.162h4.325v2.162Zm17.3,0H501.248v-2.162h10.813Zm0-8.65v4.325H491.516a1.082,1.082,0,0,1-1.081-1.081V419.3a1.082,1.082,0,0,1,1.081-1.081h38.926a.7.7,0,0,1,.151.032c-9.515.27-18.532,2.476-18.532,6.455Zm38.925,32.438c0,1.471-6.487,4.325-18.381,4.325s-18.382-2.854-18.382-4.325V449.38c3.557,2.26,10.986,3.438,18.382,3.438s14.824-1.178,18.381-3.438Zm0-10.812c0,1.47-6.487,4.325-18.381,4.325s-18.382-2.855-18.382-4.325v-7.764c3.557,2.26,10.986,3.438,18.382,3.438s14.824-1.178,18.381-3.438Zm0-10.813c0,1.47-6.487,4.325-18.381,4.325s-18.382-2.855-18.382-4.325v-7.763c3.557,2.259,10.986,3.438,18.382,3.438s14.824-1.179,18.381-3.438ZM532.6,429.03c-11.894,0-18.382-2.854-18.382-4.325s6.488-4.325,18.382-4.325,18.381,2.855,18.381,4.325S544.5,429.03,532.6,429.03Zm0,0"/><rect class="i" width="2.163" height="2.163" transform="translate(531.523 434.437)"/><rect class="i" width="2.163" height="2.163" transform="translate(531.523 446.331)"/><rect class="i" width="2.163" height="2.162" transform="translate(531.523 456.062)"/><path class="i" d="M498,420.38h-4.325a1.081,1.081,0,0,0-1.081,1.081v4.326a1.082,1.082,0,0,0,1.081,1.081H498a1.082,1.082,0,0,0,1.081-1.081v-4.326A1.081,1.081,0,0,0,498,420.38Zm-1.081,4.325H494.76v-2.162h2.163Zm0,0"/><path class="i" d="M506.654,420.38h-4.325a1.081,1.081,0,0,0-1.081,1.081v4.326a1.082,1.082,0,0,0,1.081,1.081h4.325a1.082,1.082,0,0,0,1.081-1.081v-4.326a1.081,1.081,0,0,0-1.081-1.081Zm-1.081,4.325H503.41v-2.162h2.163Zm0,0"/><path class="i" d="M498,403.08h-4.325a1.081,1.081,0,0,0-1.081,1.081v4.325a1.081,1.081,0,0,0,1.081,1.081H498a1.081,1.081,0,0,0,1.081-1.081v-4.325A1.081,1.081,0,0,0,498,403.08Zm-1.081,4.325H494.76v-2.163h2.163Zm0,0"/><path class="i" d="M506.654,403.08h-4.325a1.081,1.081,0,0,0-1.081,1.081v4.325a1.081,1.081,0,0,0,1.081,1.081h4.325a1.081,1.081,0,0,0,1.081-1.081v-4.325a1.081,1.081,0,0,0-1.081-1.081Zm-1.081,4.325H503.41v-2.163h2.163Zm0,0"/><rect class="i" width="15.138" height="2.162" transform="translate(509.898 403.08)"/><rect class="i" width="2.162" height="2.162" transform="translate(527.198 403.08)"/><rect class="i" width="15.138" height="2.162" transform="translate(509.898 407.405)"/><rect class="i" width="2.162" height="2.162" transform="translate(527.198 407.405)"/><path class="i" d="M498,437.681h-4.325a1.081,1.081,0,0,0-1.081,1.081v4.325a1.081,1.081,0,0,0,1.081,1.081H498a1.081,1.081,0,0,0,1.081-1.081v-4.325A1.081,1.081,0,0,0,498,437.681Zm-1.081,4.324H494.76v-2.162h2.163Zm0,0"/><path class="i" d="M506.654,437.681h-4.325a1.081,1.081,0,0,0-1.081,1.081v4.325a1.081,1.081,0,0,0,1.081,1.081h4.325a1.081,1.081,0,0,0,1.081-1.081v-4.325a1.081,1.081,0,0,0-1.081-1.081Zm-1.081,4.324H503.41v-2.162h2.163Zm0,0"/><path class="i" d="M709.658,176.132a12.5,12.5,0,0,0-8.1,2.977l-2.163-2.163,1.3-1.3-1.413-2.475q.164-.355.3-.716l2.748-.75v-1.846H710.9a3.14,3.14,0,1,0,0-2.093h-8.564v-1.846l-2.747-.751c-.09-.24-.191-.48-.3-.717l1.414-2.475-1.306-1.3,2.163-2.162a12.575,12.575,0,1,0-1.48-1.479l-2.163,2.163-1.3-1.3-2.475,1.412c-.236-.108-.475-.208-.716-.3l-.75-2.748h-1.847v-8.564a3.139,3.139,0,1,0-2.092,0v8.564h-1.846L686.133,159c-.24.09-.48.191-.718.3l-2.474-1.413-1.3,1.305-2.162-2.163a12.575,12.575,0,1,0-1.479,1.48l2.163,2.163-1.3,1.305,1.414,2.475c-.109.238-.21.476-.3.716l-2.749.751v1.846h-8.563a3.139,3.139,0,1,0,0,2.093h8.563V171.7l2.747.75c.09.24.191.48.3.718l-1.413,2.474,1.3,1.305-2.163,2.163a12.575,12.575,0,1,0,1.48,1.479l2.163-2.163,1.3,1.3,2.475-1.413c.238.109.476.209.716.3l.751,2.748h1.846v8.564a3.139,3.139,0,1,0,2.092,0v-8.564h1.847l.751-2.747c.24-.09.48-.191.717-.3l2.474,1.413,1.3-1.306,2.162,2.163a12.546,12.546,0,1,0,9.58-4.457Zm4.185-8.371a1.047,1.047,0,1,1-1.046,1.046,1.046,1.046,0,0,1,1.046-1.046Zm-4.185-29.3a10.464,10.464,0,1,1-10.464,10.464,10.475,10.475,0,0,1,10.464-10.464Zm-19.882,5.232a1.047,1.047,0,1,1-1.046,1.046,1.046,1.046,0,0,1,1.046-1.046ZM669.9,159.39a10.464,10.464,0,1,1,10.464-10.464A10.475,10.475,0,0,1,669.9,159.39Zm-4.186,10.464a1.047,1.047,0,1,1,1.046-1.047,1.046,1.046,0,0,1-1.046,1.047Zm4.186,29.3a10.464,10.464,0,1,1,10.464-10.464A10.475,10.475,0,0,1,669.9,199.153Zm19.881-5.232a1.047,1.047,0,1,1,1.046-1.047,1.046,1.046,0,0,1-1.046,1.047Zm6.485-16.8-2.072-1.182-.509.27a8.322,8.322,0,0,1-1.432.6l-.549.168-.63,2.3h-2.587l-.629-2.294-.548-.169a8.273,8.273,0,0,1-1.434-.6l-.507-.27-2.073,1.183-1.829-1.829,1.183-2.072-.27-.508a8.3,8.3,0,0,1-.6-1.433l-.168-.548-2.3-.632v-2.587l2.295-.629.169-.548a8.263,8.263,0,0,1,.6-1.434l.27-.507-1.183-2.073,1.83-1.829,2.071,1.183.508-.27a8.3,8.3,0,0,1,1.433-.6l.549-.168.631-2.3h2.587l.629,2.295.549.169a8.315,8.315,0,0,1,1.432.6l.509.271,2.072-1.182,1.829,1.829-1.183,2.071.27.508a8.22,8.22,0,0,1,.6,1.433l.168.549,2.3.631V170.1l-2.294.628-.169.549a8.259,8.259,0,0,1-.6,1.433l-.27.508,1.183,2.072Zm13.4,22.032a10.464,10.464,0,1,1,10.463-10.464,10.475,10.475,0,0,1-10.463,10.464Zm0,0"/><path class="i" d="M674.82,144l-1.48,1.48,3.446,3.446-3.446,3.445,1.48,1.48,4.925-4.925Zm0,0"/><path class="i" d="M664.969,144l-4.925,4.926,4.925,4.925,1.48-1.48L663,148.926l3.446-3.446Zm0,0"/><path class="i" d="M667.816,156.108l2.1-14.651,2.074.3-2.1,14.649Zm0,0"/><path class="i" d="M689.776,162.529a6.278,6.278,0,1,0,6.278,6.278,6.284,6.284,0,0,0-6.278-6.278Zm0,10.464a4.186,4.186,0,1,1,4.186-4.186,4.19,4.19,0,0,1-4.186,4.186Zm0,0"/><rect class="i" width="12.557" height="2.093" transform="translate(703.379 146.833)"/><rect class="i" width="12.557" height="2.093" transform="translate(703.379 151.018)"/><rect class="i" width="12.557" height="2.093" transform="translate(703.379 142.647)"/><rect class="i" width="2.093" height="2.093" transform="translate(712.797 155.204)"/><rect class="i" width="2.093" height="2.093" transform="translate(708.611 155.204)"/><rect class="i" width="2.093" height="2.093" transform="translate(704.426 155.204)"/><rect class="i" width="2.093" height="8.371" transform="translate(702.333 184.503)"/><rect class="i" width="2.093" height="8.371" transform="translate(706.518 184.503)"/><rect class="i" width="2.093" height="8.371" transform="translate(710.704 184.503)"/><rect class="i" width="2.093" height="8.371" transform="translate(714.89 184.503)"/><path class="i" d="M675.043,186.707a5.233,5.233,0,0,0-10.3,0,4.186,4.186,0,0,0,.963,8.26h8.371a4.186,4.186,0,0,0,.963-8.26Zm-.963,6.167h-8.371a2.092,2.092,0,1,1,0-4.185h1.046v-1.047a3.139,3.139,0,0,1,6.279,0v1.047h1.046a2.092,2.092,0,1,1,0,4.185Zm0,0"/></g></g></svg>