<svg xmlns="http://www.w3.org/2000/svg" xmlns:xlink="http://www.w3.org/1999/xlink" width="675" height="675" viewBox="0 0 675 675"><defs><style>.a,.h{fill:#fff;}.b{fill:#fadfc8;}.c{clip-path:url(#e);}.d{fill:#e9791a;}.e{fill:#ff9031;}.f{fill:#723636;font-size:177px;font-family:Roboto-Bold, Roboto;font-weight:700;}.g{font-size:79px;}.h{font-size:21px;font-family:Roboto-Medium, Roboto;font-weight:500;}.i{filter:url(#c);}.j{filter:url(#a);}</style><filter id="a" x="0" y="0" width="675" height="675" filterUnits="userSpaceOnUse"><feOffset dy="13" input="SourceAlpha"/><feGaussianBlur stdDeviation="23" result="b"/><feFlood flood-color="#e9791a" flood-opacity="0.192"/><feComposite operator="in" in2="b"/><feComposite in="SourceGraphic"/></filter><filter id="c" x="34" y="34" width="607" height="607" filterUnits="userSpaceOnUse"><feOffset dy="13" input="SourceAlpha"/><feGaussianBlur stdDeviation="23" result="d"/><feFlood flood-color="#e9791a" flood-opacity="0.192"/><feComposite operator="in" in2="d"/><feComposite in="SourceGraphic"/></filter><clipPath id="e"><circle class="a" cx="234.5" cy="234.5" r="234.5" transform="translate(-0.095 -0.095)"/></clipPath></defs><g transform="translate(-611 -2728)"><circle class="a" cx="317.5" cy="317.5" r="317.5" transform="translate(631 2735)"/><g class="j" transform="matrix(1, 0, 0, 1, 611, 2728)"><circle class="a" cx="268.5" cy="268.5" r="268.5" transform="translate(69 56)"/></g><g class="i" transform="matrix(1, 0, 0, 1, 611, 2728)"><circle class="b" cx="234.5" cy="234.5" r="234.5" transform="translate(103 90)"/></g><g transform="translate(714 2818)"><g class="c" transform="translate(0.095 0.095)"><path class="d" d="M327.4,79.781C130.744,179.875,0,80.046,0,188.192S146.581,384.008,327.4,384.008s327.4-87.67,327.4-195.816S524.052-20.313,327.4,79.781Z" transform="translate(-100.541 119.119)"/><g transform="translate(-32.812 263.389)"><g transform="translate(0 108.328)"><path class="e" d="M2080.552,1874.187c-41.928,0-63.214-9.236-83.8-18.169-20.856-9.049-40.555-17.6-81.054-17.6s-60.2,8.548-81.053,17.6c-20.584,8.933-41.87,18.169-83.8,18.169s-63.212-9.236-83.795-18.169c-20.855-9.049-40.555-17.6-81.05-17.6a3.449,3.449,0,0,1,0-6.9c41.926,0,63.212,9.236,83.795,18.167,20.855,9.051,40.555,17.6,81.05,17.6s60.2-8.548,81.054-17.6c20.585-8.932,41.87-18.167,83.8-18.167s63.214,9.236,83.8,18.167c20.856,9.051,40.556,17.6,81.052,17.6a3.449,3.449,0,0,1,0,6.9Z" transform="translate(-1582.555 -1831.522)"/></g><g transform="translate(0 81.245)"><path class="e" d="M2080.552,1854.558c-41.928,0-63.214-9.237-83.8-18.17-20.856-9.049-40.555-17.6-81.054-17.6s-60.2,8.548-81.053,17.6c-20.584,8.933-41.87,18.17-83.8,18.17s-63.212-9.237-83.795-18.17c-20.855-9.049-40.555-17.6-81.05-17.6a3.45,3.45,0,0,1,0-6.9c41.926,0,63.212,9.237,83.795,18.169,20.856,9.051,40.555,17.6,81.05,17.6s60.2-8.549,81.054-17.6c20.585-8.931,41.87-18.169,83.8-18.169s63.214,9.237,83.8,18.169c20.856,9.051,40.556,17.6,81.052,17.6a3.449,3.449,0,0,1,0,6.9Z" transform="translate(-1582.555 -1811.892)"/></g><g transform="translate(0 162.491)"><path class="e" d="M2080.552,1913.446c-41.928,0-63.214-9.236-83.8-18.169-20.856-9.049-40.555-17.6-81.054-17.6s-60.2,8.55-81.053,17.6c-20.584,8.933-41.87,18.169-83.8,18.169s-63.212-9.236-83.795-18.169c-20.855-9.049-40.555-17.6-81.05-17.6a3.449,3.449,0,0,1,0-6.9c41.926,0,63.212,9.237,83.795,18.168,20.855,9.051,40.555,17.6,81.05,17.6s60.2-8.548,81.054-17.6c20.585-8.932,41.87-18.168,83.8-18.168s63.214,9.237,83.8,18.168c20.856,9.051,40.556,17.6,81.052,17.6a3.449,3.449,0,0,1,0,6.9Z" transform="translate(-1582.555 -1870.78)"/></g><g transform="translate(0 135.408)"><path class="e" d="M2080.552,1893.818c-41.928,0-63.214-9.238-83.8-18.17-20.856-9.049-40.555-17.6-81.054-17.6s-60.2,8.55-81.053,17.6c-20.584,8.933-41.87,18.17-83.8,18.17s-63.212-9.238-83.795-18.17c-20.855-9.049-40.555-17.6-81.05-17.6a3.449,3.449,0,0,1,0-6.9c41.926,0,63.212,9.239,83.795,18.17,20.856,9.05,40.555,17.6,81.05,17.6s60.2-8.549,81.054-17.6c20.585-8.932,41.87-18.17,83.8-18.17s63.214,9.239,83.8,18.17c20.856,9.05,40.556,17.6,81.052,17.6a3.449,3.449,0,0,1,0,6.9Z" transform="translate(-1582.555 -1851.15)"/></g><g transform="translate(0 54.164)"><path class="e" d="M2080.552,1834.93c-41.928,0-63.214-9.238-83.8-18.169-20.856-9.051-40.555-17.6-81.054-17.6s-60.2,8.549-81.053,17.6c-20.584,8.931-41.87,18.169-83.8,18.169s-63.212-9.238-83.795-18.169c-20.855-9.051-40.555-17.6-81.05-17.6a3.449,3.449,0,1,1,0-6.9c41.926,0,63.212,9.237,83.795,18.17,20.856,9.049,40.555,17.6,81.05,17.6s60.2-8.55,81.054-17.6c20.585-8.933,41.87-18.17,83.8-18.17s63.214,9.237,83.8,18.17c20.856,9.049,40.556,17.6,81.052,17.6a3.449,3.449,0,0,1,0,6.9Z" transform="translate(-1582.555 -1792.263)"/></g><g transform="translate(0 27.081)"><path class="e" d="M2080.552,1815.3c-41.928,0-63.214-9.238-83.8-18.17-20.856-9.051-40.555-17.6-81.054-17.6s-60.2,8.548-81.053,17.6c-20.584,8.932-41.87,18.17-83.8,18.17s-63.212-9.238-83.795-18.17c-20.855-9.051-40.555-17.6-81.05-17.6a3.449,3.449,0,0,1,0-6.9c41.926,0,63.212,9.237,83.795,18.17,20.856,9.05,40.555,17.6,81.05,17.6s60.2-8.55,81.054-17.6c20.585-8.933,41.87-18.17,83.8-18.17s63.214,9.237,83.8,18.17c20.856,9.05,40.556,17.6,81.052,17.6a3.449,3.449,0,0,1,0,6.9Z" transform="translate(-1582.555 -1772.633)"/></g><g transform="translate(0 0)"><path class="e" d="M2080.552,1795.671c-41.928,0-63.214-9.239-83.8-18.17-20.856-9.051-40.555-17.6-81.054-17.6s-60.2,8.548-81.053,17.6c-20.584,8.932-41.87,18.17-83.8,18.17s-63.212-9.239-83.795-18.17c-20.855-9.051-40.555-17.6-81.05-17.6a3.449,3.449,0,0,1,0-6.9c41.926,0,63.212,9.237,83.795,18.17,20.856,9.049,40.555,17.6,81.05,17.6s60.2-8.55,81.054-17.6c20.585-8.933,41.87-18.17,83.8-18.17s63.214,9.237,83.8,18.17c20.856,9.049,40.556,17.6,81.052,17.6a3.449,3.449,0,0,1,0,6.9Z" transform="translate(-1582.555 -1753.004)"/></g></g></g></g><text class="f" transform="translate(831 3110)"><tspan x="0" y="0">50</tspan><tspan class="g" y="0">%</tspan></text><text class="h" transform="translate(841 3159)"><tspan x="0.185" y="19">Drop in cost of support </tspan><tspan x="90.691" y="43">ops</tspan></text></g></svg>