<svg id="Group_9917" data-name="Group 9917" xmlns="http://www.w3.org/2000/svg" width="183.206" height="185.33" viewBox="0 0 183.206 185.33">
  <g id="Group_9902" data-name="Group 9902" transform="translate(139.6 3.941)">
    <g id="Group_9896" data-name="Group 9896" transform="translate(0 7.071)">
      <path id="Path_6891" data-name="Path 6891" d="M624.686,668.4H609.926v-3.8h10.962V653.452h14.191v3.8H624.686Z" transform="translate(-609.926 -653.452)" fill="#9b9b9b"/>
    </g>
    <g id="Group_9897" data-name="Group 9897" transform="translate(0 73.756)">
      <path id="Path_6892" data-name="Path 6892" d="M635.079,703.508H620.316V692.36H609.926v-3.8h14.189v11.147h10.964Z" transform="translate(-609.926 -688.561)" fill="#9b9b9b"/>
    </g>
    <g id="Group_9898" data-name="Group 9898" transform="translate(0 46.149)">
      <rect id="Rectangle_648" data-name="Rectangle 648" width="22.581" height="3.799" fill="#9b9b9b"/>
    </g>
    <g id="Group_9899" data-name="Group 9899" transform="translate(21.75)">
      <path id="Path_6893" data-name="Path 6893" d="M630.424,667.82a9.046,9.046,0,1,1,9.043-9.045A9.056,9.056,0,0,1,630.424,667.82Zm0-14.293a5.247,5.247,0,1,0,5.244,5.248A5.254,5.254,0,0,0,630.424,653.528Z" transform="translate(-621.377 -649.729)" fill="#9b9b9b"/>
    </g>
    <g id="Group_9900" data-name="Group 9900" transform="translate(21.75 37.996)">
      <path id="Path_6894" data-name="Path 6894" d="M630.424,687.825a9.046,9.046,0,1,1,9.043-9.047A9.058,9.058,0,0,1,630.424,687.825Zm0-14.293a5.247,5.247,0,1,0,5.244,5.246A5.253,5.253,0,0,0,630.424,673.533Z" transform="translate(-621.377 -669.734)" fill="#9b9b9b"/>
    </g>
    <g id="Group_9901" data-name="Group 9901" transform="translate(21.75 75.99)">
      <path id="Path_6895" data-name="Path 6895" d="M630.424,707.829a9.046,9.046,0,1,1,9.043-9.045A9.056,9.056,0,0,1,630.424,707.829Zm0-14.292a5.247,5.247,0,1,0,5.244,5.248A5.254,5.254,0,0,0,630.424,693.537Z" transform="translate(-621.377 -689.738)" fill="#9b9b9b"/>
    </g>
  </g>
  <g id="Group_9909" data-name="Group 9909" transform="translate(0.378 3.941)">
    <g id="Group_9903" data-name="Group 9903" transform="translate(14.686 7.071)">
      <path id="Path_6896" data-name="Path 6896" d="M569.511,668.4H554.748V657.251H544.357v-3.8h14.189V664.6h10.964Z" transform="translate(-544.357 -653.452)" fill="#9b9b9b"/>
    </g>
    <g id="Group_9904" data-name="Group 9904" transform="translate(14.686 73.756)">
      <path id="Path_6897" data-name="Path 6897" d="M559.12,703.508H544.357v-3.8h10.964V688.561h14.189v3.8H559.12Z" transform="translate(-544.357 -688.561)" fill="#9b9b9b"/>
    </g>
    <g id="Group_9905" data-name="Group 9905" transform="translate(17.259 46.149)">
      <rect id="Rectangle_649" data-name="Rectangle 649" width="22.581" height="3.799" fill="#9b9b9b"/>
    </g>
    <g id="Group_9906" data-name="Group 9906">
      <path id="Path_6898" data-name="Path 6898" d="M545.67,667.82a9.046,9.046,0,1,1,9.045-9.045A9.054,9.054,0,0,1,545.67,667.82Zm0-14.293a5.247,5.247,0,1,0,5.246,5.248A5.253,5.253,0,0,0,545.67,653.528Z" transform="translate(-536.625 -649.729)" fill="#9b9b9b"/>
    </g>
    <g id="Group_9907" data-name="Group 9907" transform="translate(0 37.996)">
      <path id="Path_6899" data-name="Path 6899" d="M545.67,687.825a9.046,9.046,0,1,1,9.045-9.047A9.056,9.056,0,0,1,545.67,687.825Zm0-14.293a5.247,5.247,0,1,0,5.246,5.246A5.253,5.253,0,0,0,545.67,673.533Z" transform="translate(-536.625 -669.734)" fill="#9b9b9b"/>
    </g>
    <g id="Group_9908" data-name="Group 9908" transform="translate(0 75.99)">
      <path id="Path_6900" data-name="Path 6900" d="M545.67,707.829a9.046,9.046,0,1,1,9.045-9.045A9.054,9.054,0,0,1,545.67,707.829Zm0-14.292a5.247,5.247,0,1,0,5.246,5.248A5.254,5.254,0,0,0,545.67,693.537Z" transform="translate(-536.625 -689.738)" fill="#9b9b9b"/>
    </g>
  </g>
  <g id="Group_9891" data-name="Group 9891" transform="translate(38.319 0)">
    <path id="Path_6886" data-name="Path 6886" d="M651.52,749.62H565.439a8.848,8.848,0,0,1-8.838-8.839V656.493a8.848,8.848,0,0,1,8.838-8.839H651.52a8.848,8.848,0,0,1,8.838,8.839V740.78A8.848,8.848,0,0,1,651.52,749.62Zm-86.081-98.167a5.046,5.046,0,0,0-5.039,5.041V740.78a5.046,5.046,0,0,0,5.039,5.041H651.52a5.046,5.046,0,0,0,5.039-5.041V656.493a5.046,5.046,0,0,0-5.039-5.041Z" transform="translate(-556.601 -647.654)" fill="#e66c0c"/>
  </g>
  <g id="Group_9892" data-name="Group 9892" transform="translate(0 116.173)">
    <path id="Path_6887" data-name="Path 6887" d="M563.022,767.919H545.245a8.831,8.831,0,0,1-8.819-8.822V717.639a8.829,8.829,0,0,1,8.819-8.82h17.778a8.829,8.829,0,0,1,8.819,8.82V759.1A8.831,8.831,0,0,1,563.022,767.919Zm-17.778-55.3a5.026,5.026,0,0,0-5.02,5.022V759.1a5.027,5.027,0,0,0,5.02,5.024h17.778a5.027,5.027,0,0,0,5.02-5.024V717.639a5.026,5.026,0,0,0-5.02-5.022Z" transform="translate(-536.426 -708.819)" fill="#9b9b9b"/>
  </g>
  <g id="Group_9893" data-name="Group 9893" transform="translate(32.619 114.103)">
    <path id="Path_6888" data-name="Path 6888" d="M651.415,737.556H592.532v-3.8h58.883a4.4,4.4,0,0,0,4.389-4.391v-1.525a4.368,4.368,0,0,0-3.666-4.328c-16.292-2.691-69.751-11.508-73.563-11.985-2.475-.3-13.74,4.741-23.181,9.8l-1.795-3.35c3.386-1.812,20.545-10.828,25.447-10.215,3.88.484,57.4,9.31,73.713,12.006a8.15,8.15,0,0,1,6.843,8.076v1.525A8.2,8.2,0,0,1,651.415,737.556Z" transform="translate(-553.6 -707.729)" fill="#9b9b9b"/>
  </g>
  <g id="Group_9894" data-name="Group 9894" transform="translate(34.215 117.986)">
    <path id="Path_6889" data-name="Path 6889" d="M625.967,777.117a9.17,9.17,0,0,1-2.249-.279L554.44,759.383l.929-3.685,69.276,17.457a5.362,5.362,0,0,0,4.494-.885l68.71-50.767a4.39,4.39,0,0,0-4.716-7.381l-65.109,35.611-20.95-12.868,1.988-3.238,19.071,11.717,63.177-34.553a8.188,8.188,0,0,1,8.794,13.77L631.4,775.326A9.146,9.146,0,0,1,625.967,777.117Z" transform="translate(-554.44 -709.774)" fill="#9b9b9b"/>
  </g>
  <g id="Group_9895" data-name="Group 9895" transform="translate(125.996 115.575)">
    <path id="Path_6890" data-name="Path 6890" d="M604.187,721.915l-1.424-3.52,21.842-8.843a14.408,14.408,0,0,1,13.007,1.126l6.794,4.239-2.009,3.223L635.6,713.9a10.613,10.613,0,0,0-9.573-.832Z" transform="translate(-602.763 -708.504)" fill="#9b9b9b"/>
  </g>
  <g id="Group_9916" data-name="Group 9916" transform="translate(65.079 71.37)">
    <g id="Group_9912" data-name="Group 9912">
      <g id="Group_9910" data-name="Group 9910">
        <path id="Path_6901" data-name="Path 6901" d="M583.667,694.883l-5.234-4.6-5.234,4.6-2.508-2.853,7.742-6.8,7.742,6.8Z" transform="translate(-570.69 -685.23)" fill="#b5b5b5"/>
      </g>
      <g id="Group_9911" data-name="Group 9911" transform="translate(5.843 3.673)">
        <rect id="Rectangle_650" data-name="Rectangle 650" width="3.799" height="10.003" fill="#b5b5b5"/>
      </g>
    </g>
    <g id="Group_9915" data-name="Group 9915" transform="translate(36.265)">
      <g id="Group_9913" data-name="Group 9913">
        <path id="Path_6902" data-name="Path 6902" d="M602.76,694.883l-5.234-4.6-5.234,4.6-2.508-2.853,7.742-6.8,7.742,6.8Z" transform="translate(-589.784 -685.23)" fill="#b5b5b5"/>
      </g>
      <g id="Group_9914" data-name="Group 9914" transform="translate(5.843 3.673)">
        <rect id="Rectangle_651" data-name="Rectangle 651" width="3.799" height="10.003" fill="#b5b5b5"/>
      </g>
    </g>
  </g>
</svg>
