<svg xmlns="http://www.w3.org/2000/svg" width="284.586" height="178.776" viewBox="0 0 284.586 178.776"><defs><style>.a{fill:#4dbbbc;}</style></defs><path class="a" d="M413.9,359.2c-.393-1.785-.6-3.128-.988-4.42-2.036-6.865-4.121-13.715-6.179-20.572q-22.263-74.205-44.439-148.435c-1.09-3.666-2.551-4.994-6.524-4.949-20.618.228-41.24.194-61.859.021-3.534-.03-5.032.919-6.081,4.442Q264.8,262.663,241.461,339.943c-1.863,6.2-3.665,12.425-5.65,19.163,1.758.164,2.973.373,4.188.376,15.241.022,30.483-.073,45.722.085,3.217.033,4.376-1.211,5.2-4.142q14.851-52.594,29.933-105.12c1.228-4.3,2.567-8.565,4.123-13.738.616,1.879.921,2.71,1.164,3.56,10.876,38.108,21.81,76.2,32.522,114.352,1.11,3.955,2.777,5.193,6.846,5.12,14.468-.259,28.943-.094,43.416-.113C410.416,359.484,411.9,359.321,413.9,359.2Z" transform="translate(-235.811 -180.825)"/><path class="a" d="M466.841,181.2c.48,1.788.835,3.252,1.267,4.693q25.475,85.02,50.917,170.049c.792,2.653,2.033,3.645,4.84,3.623,15.364-.12,30.728-.048,46.092-.075a38.392,38.392,0,0,0,3.925-.428c-.391-1.69-.606-2.923-.963-4.115q-7.2-24.055-14.443-48.1Q540.115,245.7,521.8,184.549c-.761-2.545-1.767-3.713-4.7-3.683-15.49.161-30.984.071-46.476.085C469.505,180.954,468.386,181.093,466.841,181.2Z" transform="translate(-289.297 -180.835)"/></svg>