<svg xmlns="http://www.w3.org/2000/svg" width="16.455" height="16.455" viewBox="0 0 16.455 16.455"><defs><style>.a{fill:#e9791a;}</style></defs><path class="a" d="M19.12,18.836h0V12.8c0-2.952-.636-5.227-4.087-5.227a3.583,3.583,0,0,0-3.227,1.774h-.048V7.85H8.489V18.835H11.9V13.4c0-1.432.272-2.817,2.045-2.817,1.748,0,1.774,1.635,1.774,2.909v5.349Z" transform="translate(-2.669 -2.381)"/><path class="a" d="M.4,7.977H3.808V18.963H.4Z" transform="translate(-0.124 -2.508)"/><path class="a" d="M1.976,0A1.985,1.985,0,1,0,3.952,1.976,1.977,1.977,0,0,0,1.976,0Z"/></svg>