<svg xmlns="http://www.w3.org/2000/svg" width="59" height="59" viewBox="0 0 59 59">
  <g id="Group_3340" data-name="Group 3340" transform="translate(-325 -2075)">
    <rect id="Rectangle_594" data-name="Rectangle 594" width="59" height="59" rx="6" transform="translate(325 2075)" fill="#e9791a"/>
    <path id="github" d="M12.613,28.3C5.032,30.579,5.032,24.514,2,23.756m21.226,9.1V26.986A5.109,5.109,0,0,0,21.8,23.029c4.761-.531,9.764-2.335,9.764-10.613a8.247,8.247,0,0,0-2.273-5.685,7.687,7.687,0,0,0-.137-5.717S27.366.483,23.226,3.258a20.286,20.286,0,0,0-10.613,0C8.474.483,6.685,1.014,6.685,1.014A7.687,7.687,0,0,0,6.549,6.73a8.248,8.248,0,0,0-2.274,5.731c0,8.218,5,10.022,9.764,10.613a5.109,5.109,0,0,0-1.425,3.912v5.868" transform="translate(337.467 2088.1)" fill="none" stroke="#fff" stroke-linecap="round" stroke-linejoin="round" stroke-width="2"/>
  </g>
</svg>
