<svg xmlns="http://www.w3.org/2000/svg" width="126.081" height="135.528" viewBox="0 0 126.081 135.528"><defs><style>.a{fill:#9b9b9b;}.b{fill:#e9791a;}</style></defs><g transform="translate(-501.548 -446.645)"><g transform="translate(501.548 476.088)"><path class="a" d="M542.462,531.378h-5.19a4.591,4.591,0,0,1-4.586-4.589v-3.574a.6.6,0,0,0-.455-.582,30.575,30.575,0,0,1-7.876-3.272v0a.632.632,0,0,0-.731.1l-2.533,2.533a4.559,4.559,0,0,1-3.243,1.343h0a4.544,4.544,0,0,1-3.243-1.346l-3.668-3.669a4.582,4.582,0,0,1,.007-6.489l2.529-2.53a.606.606,0,0,0,.095-.735,30.292,30.292,0,0,1-3.272-7.872.6.6,0,0,0-.582-.455h-3.577a4.589,4.589,0,0,1-4.586-4.582v-5.19a4.591,4.591,0,0,1,4.586-4.589h3.577a.6.6,0,0,0,.582-.451,30.435,30.435,0,0,1,3.268-7.876.6.6,0,0,0-.091-.731l-2.537-2.537a4.6,4.6,0,0,1,0-6.485l3.672-3.672a4.689,4.689,0,0,1,6.486.007l2.529,2.533a.607.607,0,0,0,.731.091,30.292,30.292,0,0,1,7.876-3.268.6.6,0,0,0,.455-.582v-3.581a4.592,4.592,0,0,1,4.586-4.586h5.19a4.6,4.6,0,0,1,4.589,4.586V462.9a.6.6,0,0,0,.451.582,30.349,30.349,0,0,1,7.876,3.264.613.613,0,0,0,.732-.087l2.533-2.54a4.565,4.565,0,0,1,3.239-1.343h0a4.577,4.577,0,0,1,3.25,1.35l3.665,3.665a4.59,4.59,0,0,1,0,6.485l-2.533,2.537a.6.6,0,0,0-.091.731,30.436,30.436,0,0,1,3.268,7.876.6.6,0,0,0,.582.451H573.6a4.59,4.59,0,0,1,4.582,4.589v5.19a4.589,4.589,0,0,1-4.582,4.586h-3.581a.6.6,0,0,0-.582.451,30.505,30.505,0,0,1-3.265,7.876.606.606,0,0,0,.091.739l2.533,2.53a4.586,4.586,0,0,1,0,6.485l-3.668,3.669a4.554,4.554,0,0,1-3.239,1.343h0a4.556,4.556,0,0,1-3.246-1.346l-2.529-2.529a.6.6,0,0,0-.735-.095,30.448,30.448,0,0,1-7.872,3.272.6.6,0,0,0-.451.582v3.574A4.594,4.594,0,0,1,542.462,531.378Zm-16.25-15.151a26.809,26.809,0,0,0,6.93,2.879,4.25,4.25,0,0,1,3.184,4.109v3.574a.95.95,0,0,0,.946.95h5.19a.951.951,0,0,0,.95-.95v-3.574a4.247,4.247,0,0,1,3.181-4.109,26.755,26.755,0,0,0,6.93-2.879,4.259,4.259,0,0,1,5.161.655l2.533,2.533a.951.951,0,0,0,.67.277h0a.933.933,0,0,0,.666-.273l3.672-3.672a.944.944,0,0,0,0-1.339l-2.537-2.533a4.241,4.241,0,0,1-.648-5.164,26.47,26.47,0,0,0,2.872-6.929,4.251,4.251,0,0,1,4.109-3.181H573.6a.946.946,0,0,0,.943-.946v-5.19a.947.947,0,0,0-.943-.95h-3.581a4.247,4.247,0,0,1-4.109-3.181,26.357,26.357,0,0,0-2.875-6.929,4.24,4.24,0,0,1,.652-5.161l2.533-2.537a.948.948,0,0,0,0-1.343l-3.665-3.665a.982.982,0,0,0-.677-.28h0a.937.937,0,0,0-.666.277l-2.533,2.54a4.223,4.223,0,0,1-5.161.644,26.845,26.845,0,0,0-6.93-2.871,4.239,4.239,0,0,1-3.181-4.105v-3.581a.95.95,0,0,0-.95-.946h-5.19a.949.949,0,0,0-.946.946V462.9a4.243,4.243,0,0,1-3.184,4.105,26.783,26.783,0,0,0-6.93,2.875,4.227,4.227,0,0,1-5.161-.648l-2.533-2.537c-.666-.662-1.059-.284-1.332,0l-3.676,3.672a.949.949,0,0,0,0,1.343l2.533,2.533a4.235,4.235,0,0,1,.648,5.161,26.6,26.6,0,0,0-2.871,6.929,4.247,4.247,0,0,1-4.109,3.181h-3.577a.947.947,0,0,0-.946.95v5.19a.944.944,0,0,0,.946.943h3.577a4.25,4.25,0,0,1,4.109,3.184,26.639,26.639,0,0,0,2.875,6.929,4.24,4.24,0,0,1-.651,5.161l-2.533,2.533a.944.944,0,0,0,0,1.339l3.672,3.672a.938.938,0,0,0,.67.277h0a.946.946,0,0,0,.669-.277l2.533-2.533a4.237,4.237,0,0,1,5.161-.655Z" transform="translate(-501.548 -454.735)"/></g><g transform="translate(519.236 493.779)"><path class="a" d="M527.04,500.86a20.632,20.632,0,1,1,20.632-20.632A20.655,20.655,0,0,1,527.04,500.86Zm0-37.624a16.992,16.992,0,1,0,16.992,16.992A17.012,17.012,0,0,0,527.04,463.235Z" transform="translate(-506.408 -459.596)"/></g><g transform="translate(565.107 446.645)"><path class="b" d="M552.367,509.17h-4.189a4.054,4.054,0,0,1-4.051-4.051v-2.886a29.294,29.294,0,0,1-6.54-2.806h0a.131.131,0,0,0-.175.029l-2.035,2.038a4.006,4.006,0,0,1-2.864,1.186h0a4.01,4.01,0,0,1-2.864-1.19l-2.959-2.959a4.051,4.051,0,0,1,0-5.732l2.042-2.038a29.506,29.506,0,0,1-2.657-6.609l-3.014-.1A4.054,4.054,0,0,1,519.012,480v-4.189a4.054,4.054,0,0,1,4.051-4.051h2.886a29.319,29.319,0,0,1,2.8-6.544l-2.06-2.209a4.06,4.06,0,0,1,0-5.732l2.963-2.959a4.055,4.055,0,0,1,5.728,0l2.042,2.045a29.475,29.475,0,0,1,6.609-2.653l.1-3.017a4.054,4.054,0,0,1,4.051-4.051h4.189a4.054,4.054,0,0,1,4.051,4.051v2.886a29.8,29.8,0,0,1,6.544,2.8l2.209-2.064a4.014,4.014,0,0,1,2.857-1.183h0a4.021,4.021,0,0,1,2.871,1.19l2.955,2.955a4.054,4.054,0,0,1,0,5.732l-2.042,2.042a29.367,29.367,0,0,1,2.653,6.606l3.013.1a4.054,4.054,0,0,1,4.051,4.051V480a4.054,4.054,0,0,1-4.051,4.051H574.6a29.579,29.579,0,0,1-2.8,6.54l2.06,2.209a4.042,4.042,0,0,1,0,5.732l-2.955,2.959a4.039,4.039,0,0,1-2.849,1.186,3.521,3.521,0,0,1-2.883-1.186l-2.042-2.045a29.712,29.712,0,0,1-6.6,2.657l-.105,3.013A4.054,4.054,0,0,1,552.367,509.17Zm-14.823-13.4a3.694,3.694,0,0,1,1.893.524h0a21.166,21.166,0,0,0,5.5,2.286,3.768,3.768,0,0,1,2.824,3.654v2.886a.418.418,0,0,0,.411.411h4.189a.418.418,0,0,0,.411-.411v-2.886a3.766,3.766,0,0,1,2.835-3.654,21.277,21.277,0,0,0,5.492-2.286,3.77,3.77,0,0,1,4.6.586l2.038,2.042a.475.475,0,0,0,.586,0l2.959-2.962v-.582l-2.045-2.042a3.784,3.784,0,0,1-.575-4.593,21.057,21.057,0,0,0,2.278-5.5,3.773,3.773,0,0,1,3.654-2.828h2.886a.411.411,0,0,0,.411-.411v-4.189a.411.411,0,0,0-.411-.411H574.6a3.779,3.779,0,0,1-3.654-2.831,21.09,21.09,0,0,0-2.282-5.5,3.773,3.773,0,0,1,.579-4.586l2.045-2.042v-.586l-2.959-2.959-.582,0-2.045,2.045a3.768,3.768,0,0,1-4.59.579,21.041,21.041,0,0,0-5.5-2.278,3.783,3.783,0,0,1-2.832-3.658V450.7a.416.416,0,0,0-.411-.411h-4.189a.416.416,0,0,0-.411.411v2.886a3.774,3.774,0,0,1-2.824,3.654,20.972,20.972,0,0,0-5.5,2.286,3.786,3.786,0,0,1-4.593-.582l-2.042-2.045a.415.415,0,0,0-.582,0l-2.963,2.959a.416.416,0,0,0,0,.586l2.045,2.045a3.766,3.766,0,0,1,.575,4.589,21.391,21.391,0,0,0-2.278,5.5,3.779,3.779,0,0,1-3.654,2.831h-2.886a.411.411,0,0,0-.411.411V480a.415.415,0,0,0,.411.411h2.886a3.773,3.773,0,0,1,3.654,2.828,21.246,21.246,0,0,0,2.282,5.5,3.779,3.779,0,0,1-.575,4.586l-2.049,2.045v.582l2.963,2.962h.582l2.042-2.045A3.89,3.89,0,0,1,537.544,495.77Z" transform="translate(-519.012 -446.645)"/></g><g transform="translate(579.377 460.912)"><path class="b" d="M539.925,484.553a16.994,16.994,0,1,1,16.992-16.992A17.009,17.009,0,0,1,539.925,484.553Zm0-30.349a13.355,13.355,0,1,0,13.353,13.357A13.37,13.37,0,0,0,539.925,454.2Z" transform="translate(-522.933 -450.565)"/></g><g transform="translate(565.107 519.648)"><path class="a" d="M552.367,529.229h-4.189a4.054,4.054,0,0,1-4.051-4.051v-2.886a29.429,29.429,0,0,1-6.544-2.806.125.125,0,0,0-.171.029l-2.035,2.034a4.01,4.01,0,0,1-2.864,1.19h0a4.014,4.014,0,0,1-2.864-1.194l-2.959-2.955a4.051,4.051,0,0,1,0-5.732l2.042-2.042a29.413,29.413,0,0,1-2.657-6.606l-3.014-.1a4.054,4.054,0,0,1-4.051-4.051v-4.185a4.055,4.055,0,0,1,4.051-4.054h2.886a29.481,29.481,0,0,1,2.8-6.536l-2.06-2.213a4.055,4.055,0,0,1,0-5.728l2.963-2.962a4.022,4.022,0,0,1,2.861-1.186h0a4.027,4.027,0,0,1,2.864,1.186l2.042,2.045a29.683,29.683,0,0,1,6.609-2.653l.1-3.017a4.054,4.054,0,0,1,4.051-4.051h4.189a4.054,4.054,0,0,1,4.051,4.051v2.886a29.809,29.809,0,0,1,6.544,2.8l2.209-2.064a4.028,4.028,0,0,1,2.861-1.186h0a4.042,4.042,0,0,1,2.871,1.19l2.955,2.959a4.05,4.05,0,0,1,0,5.732l-2.038,2.042a29.576,29.576,0,0,1,2.653,6.606l3.013.1a4.055,4.055,0,0,1,4.051,4.054v4.185a4.054,4.054,0,0,1-4.051,4.051H574.6a29.433,29.433,0,0,1-2.8,6.54l2.06,2.213a4.042,4.042,0,0,1,0,5.732L570.9,521.55a4.018,4.018,0,0,1-2.864,1.19h0a4.023,4.023,0,0,1-2.864-1.19l-2.042-2.042a29.619,29.619,0,0,1-6.606,2.653l-.1,3.017A4.054,4.054,0,0,1,552.367,529.229Zm-14.823-13.4a3.664,3.664,0,0,1,1.893.528h0a21.156,21.156,0,0,0,5.5,2.286,3.776,3.776,0,0,1,2.828,3.654v2.886a.418.418,0,0,0,.411.411h4.189a.418.418,0,0,0,.411-.411v-2.886a3.779,3.779,0,0,1,2.832-3.654,21.182,21.182,0,0,0,5.5-2.286,3.773,3.773,0,0,1,4.6.586l2.038,2.038h.586l2.959-2.959v-.582l-2.045-2.045a3.771,3.771,0,0,1-.575-4.589,21.058,21.058,0,0,0,2.278-5.5,3.779,3.779,0,0,1,3.654-2.832h2.886a.408.408,0,0,0,.411-.411v-4.185a.412.412,0,0,0-.411-.415H574.6a3.77,3.77,0,0,1-3.65-2.824,21.11,21.11,0,0,0-2.285-5.506,3.773,3.773,0,0,1,.579-4.586l2.045-2.045v-.582l-2.959-2.959h-.582L565.7,479a3.763,3.763,0,0,1-4.59.575,21.289,21.289,0,0,0-5.5-2.278,3.779,3.779,0,0,1-2.832-3.654v-2.886a.413.413,0,0,0-.411-.411h-4.189a.413.413,0,0,0-.411.411v2.886a3.77,3.77,0,0,1-2.824,3.65,21.3,21.3,0,0,0-5.506,2.285,3.766,3.766,0,0,1-4.59-.579l-2.042-2.042h-.582l-2.963,2.959a.412.412,0,0,0,0,.582l2.045,2.045a3.766,3.766,0,0,1,.575,4.589,21.294,21.294,0,0,0-2.278,5.5,3.776,3.776,0,0,1-3.654,2.828h-2.886a.416.416,0,0,0-.411.415v4.185a.413.413,0,0,0,.411.411h2.886a3.772,3.772,0,0,1,3.65,2.828,21.282,21.282,0,0,0,2.286,5.5,3.778,3.778,0,0,1-.575,4.586l-2.049,2.049v.582l2.963,2.959h.582l2.042-2.042A3.892,3.892,0,0,1,537.544,515.825Z" transform="translate(-519.012 -466.704)"/></g><g transform="translate(579.377 533.918)"><path class="a" d="M539.925,504.61a16.992,16.992,0,1,1,16.992-16.992A17.012,17.012,0,0,1,539.925,504.61Zm0-30.345a13.353,13.353,0,1,0,13.353,13.353A13.366,13.366,0,0,0,539.925,474.264Z" transform="translate(-522.933 -470.625)"/></g></g></svg>