<svg xmlns="http://www.w3.org/2000/svg" width="114.106" height="123.285" viewBox="0 0 114.106 123.285"><defs><style>.a{fill:#9b9b9b;}.b{fill:#e9791a;}</style></defs><g transform="translate(-620.073 -452.742)"><g transform="translate(620.073 452.742)"><path class="a" d="M653.882,486.555H620.073V452.742h33.809Zm-29.6-4.21h25.389V456.952H624.283Z" transform="translate(-620.073 -452.742)"/></g><g transform="translate(628.494 464.176)"><path class="b" d="M628.713,468.766l-6.639-6.64,2.976-2.976,3.663,3.663,7.355-7.355,2.977,2.977Z" transform="translate(-622.073 -455.458)"/></g><g transform="translate(664.47 456.208)"><rect class="a" width="69.709" height="4.21"/></g><g transform="translate(664.47 467.979)"><rect class="a" width="36.03" height="4.21"/></g><g transform="translate(620.073 497.728)"><path class="a" d="M653.882,497.241H620.073V463.428h33.809Zm-29.6-4.21h25.389V467.638H624.283Z" transform="translate(-620.073 -463.428)"/></g><g transform="translate(628.494 509.16)"><path class="b" d="M628.713,479.451l-6.639-6.64,2.976-2.976,3.663,3.663,7.355-7.355,2.977,2.977Z" transform="translate(-622.073 -466.144)"/></g><g transform="translate(664.47 501.193)"><rect class="a" width="69.709" height="4.21"/></g><g transform="translate(664.47 512.963)"><rect class="a" width="36.03" height="4.21"/></g><g transform="translate(620.073 542.218)"><path class="a" d="M653.882,507.805H620.073V474h33.809Zm-29.6-4.21h25.389V478.206H624.283Z" transform="translate(-620.073 -473.996)"/></g><g transform="translate(628.494 553.647)"><path class="b" d="M628.713,490.019l-6.639-6.64,2.976-2.976,3.663,3.663,7.355-7.355,2.977,2.977Z" transform="translate(-622.073 -476.711)"/></g><g transform="translate(664.47 545.684)"><rect class="a" width="69.709" height="4.21"/></g><g transform="translate(664.47 557.454)"><rect class="a" width="36.03" height="4.21"/></g></g></svg>