<svg xmlns="http://www.w3.org/2000/svg" width="111.793" height="147.846" viewBox="0 0 111.793 147.846"><defs><style>.a{fill:#9b9b9b;}.b{fill:#e9791a;}</style></defs><g transform="translate(-567.375 -445.44)"><g transform="translate(610.415 468.579)"><path class="a" d="M594.514,461.377H580.52V458.1h10.906a7.243,7.243,0,0,1,7.046-5.6H641v3.274H598.473a3.961,3.961,0,0,0-3.958,3.959Z" transform="translate(-580.52 -452.507)"/></g><g transform="translate(567.375 474.174)"><path class="a" d="M573.962,485.817h-6.587v-31.6H573.7v3.274h-3.047v25.053h3.313Z" transform="translate(-567.375 -454.216)"/></g><g transform="translate(610.415 502.5)"><path class="a" d="M606.393,475.738H602.11a10.128,10.128,0,0,1-10.1-9.6H580.52v-3.274h14.754v2.757a6.849,6.849,0,0,0,6.837,6.84h1.008v-5.789H641v3.274H606.393Z" transform="translate(-580.52 -462.867)"/></g><g transform="translate(604.687 480.23)"><rect class="a" width="3.274" height="3.959"/></g><g transform="translate(572.706 463.134)"><g transform="translate(33.276 104.472)"><rect class="b" width="3.274" height="9.957"/></g><g transform="translate(32.119 110.672)"><circle class="b" cx="2.794" cy="2.794" r="2.794"/></g><g transform="translate(36.589 39.894)"><path class="b" d="M586.187,475.915l-5.134-5.134a2.987,2.987,0,0,1-.088-4.132l3.34-3.621,2.406,2.22-3.146,3.412,2.61,2.613,7.079-7.167,2.328,2.305Z" transform="translate(-580.178 -463.028)"/></g><g transform="translate(0 19.416)"><path class="b" d="M608.35,492.49H576.531A7.465,7.465,0,0,1,569,485.106V456.774H608.35Zm-36.073-32.441v25.058a4.188,4.188,0,0,0,4.253,4.109h28.545V460.048Z" transform="translate(-569.003 -456.774)"/></g><g transform="translate(3.808 58.557)"><path class="b" d="M604.811,479.464H570.166V468.728h34.645ZM573.44,476.19h28.1V472h-28.1Z" transform="translate(-570.166 -468.728)"/></g><path class="b" d="M581.416,468.283H569V457.049a6.206,6.206,0,0,1,12.413,0Zm-9.138-3.274h5.864v-7.96a2.932,2.932,0,0,0-5.864,0Z" transform="translate(-569.003 -450.844)"/><g transform="translate(9.139)"><path class="b" d="M584.207,468.283H571.794V457.049a6.206,6.206,0,0,1,12.413,0Zm-9.139-3.274h5.864v-7.96a2.932,2.932,0,0,0-5.864,0Z" transform="translate(-571.794 -450.844)"/></g><g transform="translate(18.277)"><path class="b" d="M586.994,468.283H574.585V457.049a6.2,6.2,0,1,1,12.409,0Zm-9.135-3.274h5.861v-7.96a2.93,2.93,0,1,0-5.861,0Z" transform="translate(-574.585 -450.844)"/></g><g transform="translate(27.412)"><path class="b" d="M589.788,468.283H577.375V457.049a6.206,6.206,0,0,1,12.413,0Zm-9.138-3.274h5.864v-7.96a2.932,2.932,0,0,0-5.864,0Z" transform="translate(-577.375 -450.844)"/></g><g transform="translate(4.569 17.096)"><rect class="b" width="3.274" height="3.959"/></g><g transform="translate(10.357 54.862)"><rect class="b" width="3.274" height="3.962"/></g><g transform="translate(18.884 54.862)"><rect class="b" width="3.274" height="3.962"/></g><g transform="translate(27.412 54.862)"><rect class="b" width="3.274" height="3.962"/></g><g transform="translate(13.708 17.096)"><rect class="b" width="3.274" height="3.959"/></g><g transform="translate(22.843 17.096)"><rect class="b" width="3.274" height="3.959"/></g><g transform="translate(15.288 119.34)"><path class="b" d="M579.078,498.1a5.406,5.406,0,1,1,5.406-5.409A5.414,5.414,0,0,1,579.078,498.1Zm0-7.537a2.132,2.132,0,1,0,2.131,2.128A2.133,2.133,0,0,0,579.078,490.566Z" transform="translate(-573.672 -487.292)"/></g><g transform="translate(18.884 104.472)"><rect class="b" width="3.274" height="16.506"/></g><g transform="translate(27.412 104.472)"><rect class="b" width="3.274" height="13.251"/></g><g transform="translate(10.357 104.472)"><rect class="b" width="3.274" height="13.251"/></g><g transform="translate(3.808 104.472)"><rect class="b" width="3.274" height="9.957"/></g><g transform="translate(8.938 116.522)"><circle class="b" cx="3.055" cy="3.055" r="3.055"/></g><g transform="translate(25.995 116.522)"><circle class="b" cx="3.055" cy="3.055" r="3.055"/></g><g transform="translate(2.651 110.672)"><circle class="b" cx="2.794" cy="2.794" r="2.794"/></g></g><g transform="translate(662.453 468.609)"><path class="a" d="M607.608,465.142H596.413v-3.274h11.194a2.249,2.249,0,0,0,2.246-2.243v-1.591a2.247,2.247,0,0,0-2.246-2.243H596.413v-3.274h11.194a5.523,5.523,0,0,1,5.521,5.517v1.591A5.525,5.525,0,0,1,607.608,465.142Z" transform="translate(-596.413 -452.516)"/></g><g transform="translate(662.453 478.235)"><path class="a" d="M607.608,468.085H596.413v-3.274h11.194a2.248,2.248,0,0,0,2.246-2.246V460.98a2.251,2.251,0,0,0-2.246-2.249H596.413v-3.274h11.194a5.528,5.528,0,0,1,5.521,5.524v1.585A5.525,5.525,0,0,1,607.608,468.085Z" transform="translate(-596.413 -455.456)"/></g><g transform="translate(662.453 487.589)"><path class="a" d="M607.608,470.942H596.413v-3.274h11.194a2.25,2.25,0,0,0,2.246-2.246v-1.588a2.25,2.25,0,0,0-2.246-2.246H596.413v-3.274h11.194a5.525,5.525,0,0,1,5.521,5.52v1.588A5.525,5.525,0,0,1,607.608,470.942Z" transform="translate(-596.413 -458.313)"/></g><g transform="translate(662.453 496.944)"><path class="a" d="M607.608,473.8H596.413v-3.274h11.194a2.248,2.248,0,0,0,2.246-2.246V466.69a2.25,2.25,0,0,0-2.246-2.246H596.413V461.17h11.194a5.527,5.527,0,0,1,5.521,5.52v1.588A5.525,5.525,0,0,1,607.608,473.8Z" transform="translate(-596.413 -461.17)"/></g><g transform="translate(567.375 523.488)"><g transform="translate(8.271 37.922)"><path class="a" d="M612.43,489.729H569.9v-3.274H612.43a3.962,3.962,0,0,0,3.959-3.959v-1.637H628.6v3.274h-9.125A7.245,7.245,0,0,1,612.43,489.729Z" transform="translate(-569.901 -480.859)"/></g><g transform="translate(103.52 9.597)"><path class="a" d="M607.263,503.809h-8.272v-3.274h5V475.482h-3.8v-3.274h7.073Z" transform="translate(-598.991 -472.208)"/></g><g transform="translate(8.271)"><path class="a" d="M630.786,482.148h-15.16v-2.757a6.846,6.846,0,0,0-6.837-6.84h-1.005v5.789H569.9v-3.274H604.51v-5.789h4.279a10.126,10.126,0,0,1,10.1,9.6h11.9Z" transform="translate(-569.901 -469.277)"/></g><g transform="translate(0 34.137)"><path class="a" d="M584.087,492.332H572.9a5.528,5.528,0,0,1-5.524-5.52v-1.588a5.528,5.528,0,0,1,5.524-5.52h11.188v3.274H572.9a2.25,2.25,0,0,0-2.249,2.246v1.588a2.25,2.25,0,0,0,2.249,2.246h11.188Z" transform="translate(-567.375 -479.703)"/></g><g transform="translate(0 24.508)"><path class="a" d="M584.087,489.391H572.9a5.53,5.53,0,0,1-5.524-5.52v-1.588a5.53,5.53,0,0,1,5.524-5.52h11.188v3.274H572.9a2.248,2.248,0,0,0-2.249,2.246v1.588a2.248,2.248,0,0,0,2.249,2.246h11.188Z" transform="translate(-567.375 -476.762)"/></g><g transform="translate(0 15.153)"><path class="a" d="M584.087,486.534H572.9a5.528,5.528,0,0,1-5.524-5.52v-1.588a5.528,5.528,0,0,1,5.524-5.52h11.188v3.274H572.9a2.25,2.25,0,0,0-2.249,2.246v1.588a2.25,2.25,0,0,0,2.249,2.246h11.188Z" transform="translate(-567.375 -473.905)"/></g><g transform="translate(0 5.799)"><path class="a" d="M584.087,483.677H572.9a5.53,5.53,0,0,1-5.524-5.52v-1.588a5.53,5.53,0,0,1,5.524-5.52h11.188v3.274H572.9a2.248,2.248,0,0,0-2.249,2.246v1.588A2.248,2.248,0,0,0,572.9,480.4h11.188Z" transform="translate(-567.375 -471.048)"/></g></g><g transform="translate(621.354 445.44)"><g transform="translate(15.442 15.724)"><rect class="b" width="3.274" height="9.957"/></g><g transform="translate(14.286 13.892)"><circle class="b" cx="2.794" cy="2.794" r="2.794"/></g><g transform="translate(0 77.371)"><path class="b" d="M595.141,481.958l-2.413-2.22,3.117-3.379-2.587-2.632-7.069,7.154-2.328-2.3,9.394-9.508,4.9,4.9a3.315,3.315,0,0,1,.092,4.6Z" transform="translate(-583.861 -469.07)"/></g><g transform="translate(12.167)"><g transform="translate(0 75.023)"><path class="b" d="M627.4,504.065H587.577V468.353H619.8a7.5,7.5,0,0,1,7.606,7.38Zm-36.55-3.274h33.276V475.733a4.228,4.228,0,0,0-4.332-4.106H590.851Z" transform="translate(-587.577 -468.353)"/></g><g transform="translate(1.372 60.859)"><path class="b" d="M622.641,474.767H588v-10.74h34.645Zm-31.371-3.274h28.1V467.3h-28.1Z" transform="translate(-587.996 -464.027)"/></g><g transform="translate(27.412 112.713)"><path class="b" d="M602.157,497.3a6.211,6.211,0,0,1-6.208-6.2V479.864h12.413V491.1A6.208,6.208,0,0,1,602.157,497.3Zm-2.934-14.161v7.96a2.932,2.932,0,0,0,5.864,0v-7.96Z" transform="translate(-595.949 -479.864)"/></g><g transform="translate(18.277 112.713)"><path class="b" d="M599.364,497.3a6.208,6.208,0,0,1-6.2-6.2V479.864h12.409V491.1A6.209,6.209,0,0,1,599.364,497.3Zm-2.93-14.161v7.96a2.93,2.93,0,0,0,5.861,0v-7.96Z" transform="translate(-593.159 -479.864)"/></g><g transform="translate(9.138 112.713)"><path class="b" d="M596.576,497.3a6.211,6.211,0,0,1-6.208-6.2V479.864h12.413V491.1A6.209,6.209,0,0,1,596.576,497.3Zm-2.934-14.161v7.96a2.932,2.932,0,0,0,5.864,0v-7.96Z" transform="translate(-590.368 -479.864)"/></g><g transform="translate(0 112.713)"><path class="b" d="M593.785,497.3a6.211,6.211,0,0,1-6.208-6.2V479.864H599.99V491.1A6.209,6.209,0,0,1,593.785,497.3Zm-2.934-14.161v7.96a2.932,2.932,0,0,0,5.864,0v-7.96Z" transform="translate(-587.577 -479.864)"/></g><g transform="translate(31.982 109.097)"><rect class="b" width="3.274" height="3.959"/></g><g transform="translate(26.194 71.328)"><rect class="b" width="3.274" height="3.962"/></g><g transform="translate(17.667 71.328)"><rect class="b" width="3.274" height="3.962"/></g><g transform="translate(9.139 71.328)"><rect class="b" width="3.274" height="3.962"/></g><g transform="translate(22.843 109.097)"><rect class="b" width="3.274" height="3.959"/></g><g transform="translate(13.708 109.097)"><rect class="b" width="3.274" height="3.959"/></g><g transform="translate(4.57 109.097)"><rect class="b" width="3.274" height="3.959"/></g><g transform="translate(13.729)"><path class="b" d="M597.172,456.252a5.406,5.406,0,1,1,5.406-5.406A5.411,5.411,0,0,1,597.172,456.252Zm0-7.537a2.132,2.132,0,1,0,2.131,2.131A2.133,2.133,0,0,0,597.172,448.714Z" transform="translate(-591.77 -445.44)"/></g><g transform="translate(17.667 9.175)"><rect class="b" width="3.274" height="16.506"/></g><g transform="translate(9.139 12.43)"><rect class="b" width="3.274" height="13.251"/></g><g transform="translate(26.194 12.43)"><rect class="b" width="3.274" height="13.251"/></g><g transform="translate(32.743 15.724)"><rect class="b" width="3.274" height="9.957"/></g><g transform="translate(24.777 7.519)"><circle class="b" cx="3.055" cy="3.055" r="3.055"/></g><g transform="translate(7.72 7.519)"><circle class="b" cx="3.055" cy="3.055" r="3.055"/></g><g transform="translate(31.587 13.892)"><circle class="b" cx="2.794" cy="2.794" r="2.794"/></g></g></g></g></svg>