<svg xmlns="http://www.w3.org/2000/svg" width="38.351" height="41.225" viewBox="0 0 38.351 41.225">
  <g id="Group_9858" data-name="Group 9858" transform="translate(-501.548 -446.645)">
    <g id="Group_1430" data-name="Group 1430" transform="translate(501.548 455.601)">
      <path id="Path_1326" data-name="Path 1326" d="M513.993,478.048h-1.579a1.4,1.4,0,0,1-1.395-1.4v-1.087a.182.182,0,0,0-.138-.177,9.3,9.3,0,0,1-2.4-1h0a.192.192,0,0,0-.222.03l-.771.77a1.387,1.387,0,0,1-.986.409h0a1.382,1.382,0,0,1-.986-.41l-1.116-1.116a1.394,1.394,0,0,1,0-1.974l.769-.769a.184.184,0,0,0,.029-.224,9.213,9.213,0,0,1-1-2.395.183.183,0,0,0-.177-.138h-1.088a1.4,1.4,0,0,1-1.395-1.394V465.6a1.4,1.4,0,0,1,1.395-1.4h1.088a.182.182,0,0,0,.177-.137,9.256,9.256,0,0,1,.994-2.4.181.181,0,0,0-.028-.222l-.772-.772a1.4,1.4,0,0,1,0-1.973l1.117-1.117a1.426,1.426,0,0,1,1.973,0l.769.77a.185.185,0,0,0,.222.028,9.215,9.215,0,0,1,2.4-.994.183.183,0,0,0,.138-.177V456.13a1.4,1.4,0,0,1,1.395-1.395h1.579a1.4,1.4,0,0,1,1.4,1.395v1.089a.184.184,0,0,0,.137.177,9.234,9.234,0,0,1,2.4.993.186.186,0,0,0,.223-.027l.771-.773a1.389,1.389,0,0,1,.985-.409h0a1.392,1.392,0,0,1,.989.411L522,458.707a1.4,1.4,0,0,1,0,1.973l-.77.772a.182.182,0,0,0-.028.222,9.26,9.26,0,0,1,.994,2.4.183.183,0,0,0,.177.137h1.089a1.4,1.4,0,0,1,1.394,1.4v1.579a1.4,1.4,0,0,1-1.394,1.395h-1.089a.183.183,0,0,0-.177.137,9.28,9.28,0,0,1-.993,2.4.184.184,0,0,0,.028.225l.77.769a1.4,1.4,0,0,1,0,1.973l-1.116,1.116a1.385,1.385,0,0,1-.985.409h0a1.386,1.386,0,0,1-.988-.41l-.769-.769a.183.183,0,0,0-.224-.029,9.262,9.262,0,0,1-2.395,1,.183.183,0,0,0-.137.177v1.087A1.4,1.4,0,0,1,513.993,478.048Zm-4.943-4.609a8.155,8.155,0,0,0,2.108.876,1.293,1.293,0,0,1,.969,1.25v1.087a.289.289,0,0,0,.288.289h1.579a.289.289,0,0,0,.289-.289v-1.087a1.292,1.292,0,0,1,.967-1.25,8.138,8.138,0,0,0,2.108-.876,1.3,1.3,0,0,1,1.57.2l.771.77a.289.289,0,0,0,.2.084h0a.284.284,0,0,0,.2-.083l1.117-1.117a.287.287,0,0,0,0-.407l-.772-.771a1.29,1.29,0,0,1-.2-1.571,8.053,8.053,0,0,0,.873-2.108,1.293,1.293,0,0,1,1.25-.967h1.089a.288.288,0,0,0,.287-.288V465.6a.288.288,0,0,0-.287-.289h-1.089a1.292,1.292,0,0,1-1.25-.968,8.018,8.018,0,0,0-.875-2.108,1.29,1.29,0,0,1,.2-1.57l.77-.772a.289.289,0,0,0,0-.409l-1.115-1.115a.3.3,0,0,0-.206-.085h0a.285.285,0,0,0-.2.084l-.771.773a1.284,1.284,0,0,1-1.57.2,8.168,8.168,0,0,0-2.108-.873,1.289,1.289,0,0,1-.967-1.249V456.13a.289.289,0,0,0-.289-.288h-1.579a.289.289,0,0,0-.288.288v1.089a1.291,1.291,0,0,1-.969,1.249,8.148,8.148,0,0,0-2.108.875,1.286,1.286,0,0,1-1.57-.2l-.771-.772c-.2-.2-.322-.086-.405,0l-1.118,1.117a.289.289,0,0,0,0,.408l.771.771a1.288,1.288,0,0,1,.2,1.57,8.091,8.091,0,0,0-.873,2.108,1.292,1.292,0,0,1-1.25.968h-1.088a.288.288,0,0,0-.288.289v1.579a.287.287,0,0,0,.288.287h1.088a1.293,1.293,0,0,1,1.25.969,8.1,8.1,0,0,0,.874,2.108,1.29,1.29,0,0,1-.2,1.57l-.771.771a.287.287,0,0,0,0,.407l1.117,1.117a.285.285,0,0,0,.2.084h0a.288.288,0,0,0,.2-.084l.771-.77a1.289,1.289,0,0,1,1.57-.2Z" transform="translate(-501.548 -454.735)" fill="#fff"/>
    </g>
    <g id="Group_1431" data-name="Group 1431" transform="translate(506.928 460.982)">
      <path id="Path_1327" data-name="Path 1327" d="M512.684,472.148a6.276,6.276,0,1,1,6.276-6.276A6.283,6.283,0,0,1,512.684,472.148Zm0-11.444a5.169,5.169,0,1,0,5.169,5.169A5.175,5.175,0,0,0,512.684,460.7Z" transform="translate(-506.408 -459.596)" fill="#fff"/>
    </g>
    <g id="Group_1432" data-name="Group 1432" transform="translate(520.881 446.645)">
      <path id="Path_1328" data-name="Path 1328" d="M529.158,465.664h-1.274a1.233,1.233,0,0,1-1.232-1.232v-.878a8.913,8.913,0,0,1-1.989-.854h0a.04.04,0,0,0-.053.009l-.619.62a1.219,1.219,0,0,1-.871.361h0a1.22,1.22,0,0,1-.871-.362l-.9-.9a1.232,1.232,0,0,1,0-1.744l.621-.62a8.972,8.972,0,0,1-.808-2.01l-.917-.03a1.233,1.233,0,0,1-1.232-1.232v-1.274a1.233,1.233,0,0,1,1.232-1.232h.878a8.92,8.92,0,0,1,.851-1.99l-.627-.672a1.235,1.235,0,0,1,0-1.744l.9-.9a1.233,1.233,0,0,1,1.742,0l.621.622a8.965,8.965,0,0,1,2.01-.807l.03-.918a1.233,1.233,0,0,1,1.232-1.232h1.274a1.233,1.233,0,0,1,1.232,1.232v.878a9.066,9.066,0,0,1,1.99.852l.672-.628a1.221,1.221,0,0,1,.869-.36h0a1.223,1.223,0,0,1,.873.362l.9.9a1.233,1.233,0,0,1,0,1.744l-.621.621a8.931,8.931,0,0,1,.807,2.009l.917.031a1.233,1.233,0,0,1,1.232,1.232v1.274a1.233,1.233,0,0,1-1.232,1.232h-.878a9,9,0,0,1-.851,1.989l.627.672a1.229,1.229,0,0,1,0,1.744l-.9.9a1.229,1.229,0,0,1-.867.361,1.071,1.071,0,0,1-.877-.361l-.621-.622a9.04,9.04,0,0,1-2.008.808l-.032.917A1.233,1.233,0,0,1,529.158,465.664Zm-4.509-4.076a1.123,1.123,0,0,1,.576.159h0a6.439,6.439,0,0,0,1.674.7,1.146,1.146,0,0,1,.859,1.111v.878a.127.127,0,0,0,.125.125h1.274a.127.127,0,0,0,.125-.125v-.878a1.145,1.145,0,0,1,.862-1.111,6.472,6.472,0,0,0,1.671-.7,1.147,1.147,0,0,1,1.4.178l.62.621a.145.145,0,0,0,.178,0l.9-.9v-.177l-.622-.621a1.151,1.151,0,0,1-.175-1.4,6.4,6.4,0,0,0,.693-1.673,1.148,1.148,0,0,1,1.111-.86h.878a.125.125,0,0,0,.125-.125v-1.274a.125.125,0,0,0-.125-.125h-.878a1.15,1.15,0,0,1-1.111-.861,6.416,6.416,0,0,0-.694-1.674,1.148,1.148,0,0,1,.176-1.395l.622-.621v-.178l-.9-.9h-.177l-.622.622a1.146,1.146,0,0,1-1.4.176,6.4,6.4,0,0,0-1.673-.693,1.151,1.151,0,0,1-.861-1.113v-.878a.126.126,0,0,0-.125-.125h-1.274a.126.126,0,0,0-.125.125v.878a1.148,1.148,0,0,1-.859,1.111,6.379,6.379,0,0,0-1.674.7,1.152,1.152,0,0,1-1.4-.177l-.621-.622a.126.126,0,0,0-.177,0l-.9.9a.127.127,0,0,0,0,.178l.622.622a1.146,1.146,0,0,1,.175,1.4,6.51,6.51,0,0,0-.693,1.673,1.15,1.15,0,0,1-1.111.861h-.878a.125.125,0,0,0-.125.125v1.274a.126.126,0,0,0,.125.125h.878a1.148,1.148,0,0,1,1.111.86,6.464,6.464,0,0,0,.694,1.674,1.149,1.149,0,0,1-.175,1.395l-.623.622v.177l.9.9h.177l.621-.622A1.183,1.183,0,0,1,524.649,461.588Z" transform="translate(-519.012 -446.645)" fill="#fff"/>
    </g>
    <g id="Group_1433" data-name="Group 1433" transform="translate(525.222 450.985)">
      <path id="Path_1329" data-name="Path 1329" d="M528.1,460.9a5.169,5.169,0,1,1,5.169-5.169A5.174,5.174,0,0,1,528.1,460.9Zm0-9.232a4.062,4.062,0,1,0,4.062,4.063A4.067,4.067,0,0,0,528.1,451.672Z" transform="translate(-522.933 -450.565)" fill="#fff"/>
    </g>
    <g id="Group_1434" data-name="Group 1434" transform="translate(520.881 468.851)">
      <path id="Path_1330" data-name="Path 1330" d="M529.158,485.723h-1.274a1.233,1.233,0,0,1-1.232-1.232v-.878a8.953,8.953,0,0,1-1.991-.854.038.038,0,0,0-.052.009l-.619.619a1.22,1.22,0,0,1-.871.362h0a1.221,1.221,0,0,1-.871-.363l-.9-.9a1.232,1.232,0,0,1,0-1.744l.621-.621a8.943,8.943,0,0,1-.808-2.009l-.917-.031a1.233,1.233,0,0,1-1.232-1.232v-1.273a1.233,1.233,0,0,1,1.232-1.233h.878a8.969,8.969,0,0,1,.851-1.988l-.627-.673a1.234,1.234,0,0,1,0-1.742l.9-.9a1.223,1.223,0,0,1,.87-.361h0a1.225,1.225,0,0,1,.871.361l.621.622a9.029,9.029,0,0,1,2.01-.807l.03-.918a1.233,1.233,0,0,1,1.232-1.232h1.274a1.233,1.233,0,0,1,1.232,1.232v.878a9.07,9.07,0,0,1,1.99.852l.672-.628a1.225,1.225,0,0,1,.87-.361h0a1.229,1.229,0,0,1,.873.362l.9.9a1.232,1.232,0,0,1,0,1.744l-.62.621a8.995,8.995,0,0,1,.807,2.009l.917.03a1.233,1.233,0,0,1,1.232,1.233v1.273a1.233,1.233,0,0,1-1.232,1.232h-.878a8.952,8.952,0,0,1-.851,1.989l.627.673a1.229,1.229,0,0,1,0,1.744l-.9.9a1.222,1.222,0,0,1-.871.362h0a1.224,1.224,0,0,1-.871-.362l-.621-.621a9.011,9.011,0,0,1-2.009.807l-.031.918A1.233,1.233,0,0,1,529.158,485.723Zm-4.509-4.077a1.114,1.114,0,0,1,.576.16h0a6.434,6.434,0,0,0,1.673.7,1.149,1.149,0,0,1,.86,1.111v.878a.127.127,0,0,0,.125.125h1.274a.127.127,0,0,0,.125-.125v-.878a1.15,1.15,0,0,1,.861-1.111,6.442,6.442,0,0,0,1.672-.7,1.148,1.148,0,0,1,1.4.178l.62.62h.178l.9-.9v-.177l-.622-.622a1.147,1.147,0,0,1-.175-1.4,6.4,6.4,0,0,0,.693-1.673,1.149,1.149,0,0,1,1.111-.861h.878a.124.124,0,0,0,.125-.125v-1.273a.125.125,0,0,0-.125-.126h-.878a1.147,1.147,0,0,1-1.11-.859,6.42,6.42,0,0,0-.7-1.675,1.148,1.148,0,0,1,.176-1.395l.622-.622v-.177l-.9-.9h-.177l-.622.621a1.145,1.145,0,0,1-1.4.175,6.476,6.476,0,0,0-1.673-.693,1.15,1.15,0,0,1-.861-1.112v-.878a.126.126,0,0,0-.125-.125h-1.274a.126.126,0,0,0-.125.125v.878a1.147,1.147,0,0,1-.859,1.11,6.482,6.482,0,0,0-1.675.7,1.146,1.146,0,0,1-1.4-.176l-.621-.621h-.177l-.9.9a.125.125,0,0,0,0,.177l.622.622a1.145,1.145,0,0,1,.175,1.4,6.479,6.479,0,0,0-.693,1.673,1.148,1.148,0,0,1-1.111.86h-.878a.127.127,0,0,0-.125.126v1.273a.126.126,0,0,0,.125.125h.878a1.147,1.147,0,0,1,1.11.86,6.473,6.473,0,0,0,.7,1.674,1.149,1.149,0,0,1-.175,1.395l-.623.623v.177l.9.9h.177l.621-.621A1.184,1.184,0,0,1,524.649,481.646Z" transform="translate(-519.012 -466.704)" fill="#fff"/>
    </g>
    <g id="Group_1435" data-name="Group 1435" transform="translate(525.222 473.192)">
      <path id="Path_1331" data-name="Path 1331" d="M528.1,480.962a5.169,5.169,0,1,1,5.169-5.169A5.175,5.175,0,0,1,528.1,480.962Zm0-9.23a4.062,4.062,0,1,0,4.062,4.062A4.066,4.066,0,0,0,528.1,471.732Z" transform="translate(-522.933 -470.625)" fill="#fff"/>
    </g>
  </g>
</svg>
