<svg xmlns="http://www.w3.org/2000/svg" width="38.11" height="38.109" viewBox="0 0 38.11 38.109"><defs><style>.a{fill:#fff;}</style></defs><g transform="translate(-349.52 -638.314)"><g transform="translate(349.52 638.314)"><path class="a" d="M514.723,683.838H497.19v-3.389h-11.1l-.158-5.213-9.321-.039V664.784a19.055,19.055,0,0,1,38.11,0Zm-16.313-1.221H513.5V664.784a17.834,17.834,0,0,0-35.668,0v9.2l9.285.039.157,5.209h11.134Z" transform="translate(-476.613 -645.729)"/></g><g transform="translate(361.004 660.171)"><path class="a" d="M510.169,685.2H495.047v-4.385h15.122Zm-13.9-1.221h12.68v-1.943h-12.68Z" transform="translate(-495.047 -680.812)"/></g><g transform="translate(361.201 645.532)"><g transform="translate(0 6.252)"><path class="a" d="M498.978,671.591l-3.616-3.344.829-.9,2.787,2.578,2.787-2.578.829.9Z" transform="translate(-495.362 -667.35)"/></g><g transform="translate(3.006 0.831)"><rect class="a" width="1.221" height="8.029"/></g><g transform="translate(8.475)"><path class="a" d="M515.369,661.555l-2.787-2.578-2.787,2.578-.829-.9,3.616-3.344,3.616,3.344Z" transform="translate(-508.965 -657.315)"/></g><g transform="translate(11.481 1.632)"><rect class="a" width="1.221" height="8.029"/></g></g></g></svg>