<svg xmlns="http://www.w3.org/2000/svg" width="35.357" height="35.357" viewBox="0 0 35.357 35.357"><defs><style>.a{fill:#e9791a;}</style></defs><path class="a" d="M32.1,4.438H26.481v-3.4A1.036,1.036,0,0,0,25.445,0H1.036A1.036,1.036,0,0,0,0,1.036V29.883a5.48,5.48,0,0,0,5.474,5.474H29.883a5.474,5.474,0,0,0,5.474-5.474V7.693A3.259,3.259,0,0,0,32.1,4.438ZM29.068,6.51a3.252,3.252,0,0,0-.221,1.183v3.4H26.481V6.51h2.587ZM5.474,33.285a3.406,3.406,0,0,1-3.4-3.4V2.072H24.409V29.883a5.449,5.449,0,0,0,1.187,3.4Zm27.811-3.4a3.4,3.4,0,0,1-6.643,1.036h3.241a1.036,1.036,0,0,0,0-2.072h-3.4V26.481h3.4a1.036,1.036,0,1,0,0-2.072h-3.4V22.043h3.4a1.036,1.036,0,1,0,0-2.072h-3.4V17.6h3.4a1.036,1.036,0,1,0,0-2.072h-3.4V13.167h3.4a1.036,1.036,0,0,0,1.036-1.036V7.693a1.183,1.183,0,1,1,2.366,0v22.19Z"/><path class="a" d="M80.836,64.266H65.3a1.036,1.036,0,0,0,0,2.072H80.836a1.036,1.036,0,1,0,0-2.072Z" transform="translate(-59.829 -59.828)"/><path class="a" d="M215.45,289.2H209.9a1.036,1.036,0,1,0,0,2.072h5.548a1.036,1.036,0,1,0,0-2.072Z" transform="translate(-194.443 -269.228)"/><path class="a" d="M70.85,289.2H65.3a1.036,1.036,0,1,0,0,2.072H70.85a1.036,1.036,0,1,0,0-2.072Z" transform="translate(-59.829 -269.228)"/><path class="a" d="M215.45,417.733H209.9a1.036,1.036,0,0,0,0,2.072h5.548a1.036,1.036,0,0,0,0-2.072Z" transform="translate(-194.443 -388.886)"/><path class="a" d="M70.85,417.733H65.3a1.036,1.036,0,0,0,0,2.072H70.85a1.036,1.036,0,0,0,0-2.072Z" transform="translate(-59.829 -388.886)"/><path class="a" d="M215.45,353.466H209.9a1.036,1.036,0,1,0,0,2.072h5.548a1.036,1.036,0,1,0,0-2.072Z" transform="translate(-194.443 -329.057)"/><path class="a" d="M70.85,353.466H65.3a1.036,1.036,0,1,0,0,2.072H70.85a1.036,1.036,0,1,0,0-2.072Z" transform="translate(-59.829 -329.057)"/><path class="a" d="M80.836,128.532H65.3a1.036,1.036,0,0,0-1.036,1.036v6.657a1.036,1.036,0,0,0,1.036,1.036H80.836a1.036,1.036,0,0,0,1.036-1.036v-6.657A1.036,1.036,0,0,0,80.836,128.532ZM79.8,135.189H66.339V130.6H79.8Z" transform="translate(-59.829 -119.656)"/></svg>