<svg id="Group_3313" data-name="Group 3313" xmlns="http://www.w3.org/2000/svg" width="334.051" height="209.85" viewBox="0 0 334.051 209.85">
  <path id="Path_1" data-name="Path 1" d="M444.853,390.208c-.462-2.1-.71-3.671-1.16-5.188-2.39-8.058-4.837-16.1-7.253-24.148q-26.132-87.1-52.163-174.236c-1.279-4.3-2.994-5.862-7.659-5.809-24.2.268-48.408.228-72.611.024-4.149-.035-5.907,1.079-7.138,5.214Q269.84,276.888,242.443,367.6c-2.187,7.281-4.3,14.585-6.632,22.494,2.064.192,3.49.438,4.916.441,17.89.026,35.781-.086,53.669.1,3.776.039,5.136-1.422,6.108-4.862q17.432-61.735,35.135-123.392c1.441-5.045,3.013-10.054,4.84-16.126.723,2.206,1.081,3.182,1.366,4.178,12.766,44.732,25.6,89.443,38.174,134.228,1.3,4.643,3.26,6.1,8.036,6.01,16.982-.3,33.974-.11,50.962-.133C440.765,390.537,442.512,390.346,444.853,390.208Z" transform="translate(-235.811 -180.825)" fill="#4dbbbc"/>
  <path id="Path_2" data-name="Path 2" d="M466.841,181.254c.564,2.1.981,3.818,1.487,5.509q29.9,99.8,59.767,199.606c.929,3.114,2.386,4.279,5.681,4.253,18.034-.141,36.069-.056,54.1-.087a45.062,45.062,0,0,0,4.607-.5c-.459-1.984-.712-3.431-1.13-4.831Q582.9,356.965,574.4,328.74q-21.553-71.767-43.054-143.55c-.893-2.988-2.074-4.358-5.513-4.323-18.183.189-36.369.083-54.554.1C469.969,180.969,468.654,181.132,466.841,181.254Z" transform="translate(-258.437 -180.83)" fill="#4dbbbc"/>
</svg>
