<svg xmlns="http://www.w3.org/2000/svg" width="28.089" height="44.713" viewBox="0 0 28.089 44.713">
  <g id="Group_9993" data-name="Group 9993" transform="translate(0 44.713) rotate(-90)">
    <path id="Path_1" data-name="Path 1" d="M27.981,28.026c-.062-.28-.1-.491-.155-.694-.32-1.079-.647-2.155-.971-3.232Q23.357,12.441,19.872.778A.886.886,0,0,0,18.847,0c-3.239.036-6.48.031-9.719,0a.813.813,0,0,0-.955.7Q4.555,12.858.888,25C.6,25.975.312,26.952,0,28.011c.276.026.467.059.658.059,2.395,0,4.789-.011,7.184.013.505.005.688-.19.818-.651q2.333-8.263,4.7-16.516c.193-.675.4-1.346.648-2.159.1.3.145.426.183.559C15.9,15.3,17.62,21.289,19.3,27.284a.913.913,0,0,0,1.076.8c2.273-.041,4.547-.015,6.821-.018C27.433,28.07,27.667,28.045,27.981,28.026Z" fill="#fff"/>
    <path id="Path_2" data-name="Path 2" d="M0,.052C.075.333.131.563.2.789q4,13.358,8,26.718a.67.67,0,0,0,.76.569c2.414-.019,4.828-.007,7.242-.012A6.036,6.036,0,0,0,16.818,28c-.061-.266-.1-.459-.151-.647q-1.132-3.779-2.269-7.558Q11.513,10.187,8.635.579C8.515.179,8.357,0,7.9,0,5.463.025,3.029.011.595.014.419.014.243.036,0,.052Z" transform="translate(27.895 0.005)" fill="#fff"/>
  </g>
</svg>
