<svg xmlns="http://www.w3.org/2000/svg" width="1191.915" height="748.76" viewBox="0 0 1191.915 748.76"><defs><style>.a{opacity:0.387;}.b{fill:#eee;}</style></defs><g class="a" transform="translate(-118.876 -200.24)"><g transform="translate(118.876 200.24)"><path class="b" d="M981.686,927.915c-1.648-7.477-2.533-13.1-4.139-18.51-8.526-28.752-17.258-57.44-25.878-86.163q-93.242-310.789-186.12-621.684c-4.564-15.353-10.683-20.915-27.326-20.728-86.353.956-172.724.814-259.08.087-14.8-.125-21.076,3.849-25.469,18.6Q357.23,523.581,259.474,847.25c-7.8,25.981-15.35,52.039-23.663,80.26,7.364.686,12.453,1.564,17.542,1.574,63.832.093,127.67-.306,191.5.357,13.473.138,18.327-5.072,21.793-17.348q62.2-220.275,125.365-440.269c5.143-18,10.75-35.872,17.268-57.539,2.581,7.87,3.856,11.352,4.873,14.909C659.7,588.8,705.492,748.332,750.357,908.127c4.651,16.566,11.632,21.748,28.672,21.446,60.594-1.085,121.22-.393,181.836-.473C967.1,929.09,973.333,928.407,981.686,927.915Z" transform="translate(-235.811 -180.825)"/><path class="b" d="M466.841,182.249c2.012,7.49,3.5,13.621,5.308,19.656Q578.846,557.99,685.4,914.114c3.315,11.111,8.513,15.266,20.271,15.176,64.347-.5,128.7-.2,193.047-.312,5.044-.01,10.084-1.072,16.438-1.793-1.638-7.078-2.539-12.244-4.033-17.236Q880.949,809.2,850.633,708.488q-76.9-256.069-153.622-512.2c-3.187-10.66-7.4-15.549-19.669-15.424-64.878.676-129.769.3-194.653.357C478,181.232,473.31,181.815,466.841,182.249Z" transform="translate(276.758 -180.735)"/></g></g></svg>