<svg xmlns="http://www.w3.org/2000/svg" xmlns:xlink="http://www.w3.org/1999/xlink" width="17.628" height="14.326" viewBox="0 0 17.628 14.326"><defs><style>.a,.b{fill:#e9791a;}.a{clip-rule:evenodd;}.c{clip-path:url(#a);}.d{clip-path:url(#b);}</style><clipPath id="a"><path class="a" d="M18.023-14.1a7.2,7.2,0,0,1-2.077.569,3.623,3.623,0,0,0,1.59-2,7.24,7.24,0,0,1-2.3.878A3.612,3.612,0,0,0,12.6-15.8a3.617,3.617,0,0,0-3.616,3.617,3.621,3.621,0,0,0,.094.824,10.269,10.269,0,0,1-7.455-3.779,3.6,3.6,0,0,0-.49,1.819,3.615,3.615,0,0,0,1.609,3.01A3.606,3.606,0,0,1,1.1-10.762c0,.015,0,.03,0,.046A3.619,3.619,0,0,0,4-7.17a3.636,3.636,0,0,1-.953.127,3.583,3.583,0,0,1-.681-.065A3.621,3.621,0,0,0,5.749-4.6,7.255,7.255,0,0,1,1.257-3.048,7.311,7.311,0,0,1,.395-3.1,10.234,10.234,0,0,0,5.939-1.474a10.22,10.22,0,0,0,10.29-10.29q0-.235-.01-.468A7.325,7.325,0,0,0,18.023-14.1Z" transform="translate(-0.395 15.8)"/></clipPath><clipPath id="b"><path class="b" d="M-554-161.351H766.432V-4439H-554Z" transform="translate(554 4439)"/></clipPath></defs><g class="c"><g class="d" transform="translate(-508.361 -4055.926)"><path class="b" d="M-4.605-20.8h26.8V2.7h-26.8Z" transform="translate(508.382 4072.142)"/></g></g></svg>