<svg xmlns="http://www.w3.org/2000/svg" width="258.435" height="175.852" viewBox="0 0 258.435 175.852"><defs><style>.a{fill:#e9791a;}.b{fill:#9b9b9b;}</style></defs><g transform="translate(-529.549 -531.017)"><g transform="translate(627.813 586.794)"><g transform="translate(25.45 15.004)"><path class="a" d="M594.34,584.011H557.121V546.792H594.34Zm-34.083-3.136H591.2V549.929H560.257Z" transform="translate(-557.121 -546.792)"/></g><g transform="translate(46.027)"><g transform="translate(13.506 9.723)"><path class="a" d="M577.568,560.651H566.283a1.568,1.568,0,0,1,0-3.136h8.148V547.186a1.568,1.568,0,1,1,3.136,0Z" transform="translate(-564.717 -545.615)"/></g><g transform="translate(13.506 22.367)"><path class="a" d="M588.516,557.6H566.283a1.57,1.57,0,0,1,0-3.141h19.1V550a1.568,1.568,0,0,1,3.136,0Z" transform="translate(-564.717 -548.433)"/></g><g transform="translate(18.365)"><path class="a" d="M572.23,556.312a6.432,6.432,0,1,1,6.434-6.43A6.432,6.432,0,0,1,572.23,556.312Zm0-9.728a3.3,3.3,0,1,0,3.3,3.3A3.305,3.305,0,0,0,572.23,546.584Z" transform="translate(-565.8 -543.448)"/></g><g transform="translate(29.304 12.64)"><path class="a" d="M574.672,559.129a6.432,6.432,0,1,1,6.43-6.434A6.44,6.44,0,0,1,574.672,559.129Zm0-9.728a3.3,3.3,0,1,0,3.293,3.293A3.305,3.305,0,0,0,574.672,549.4Z" transform="translate(-568.238 -546.265)"/></g><g transform="translate(13.506 35.523)"><g transform="translate(0 6.775)"><path class="a" d="M576,567.911a1.569,1.569,0,0,1-1.566-1.571V556.011h-8.148a1.568,1.568,0,0,1,0-3.136h11.285V566.34A1.57,1.57,0,0,1,576,567.911Z" transform="translate(-564.717 -552.875)"/></g><path class="a" d="M586.95,560.532a1.568,1.568,0,0,1-1.57-1.566V554.5h-19.1a1.568,1.568,0,0,1,0-3.136h22.233v7.6A1.564,1.564,0,0,1,586.95,560.532Z" transform="translate(-564.717 -551.365)"/><g transform="translate(4.859 18.666)"><path class="a" d="M572.23,568.394a6.434,6.434,0,1,1,6.434-6.434A6.436,6.436,0,0,1,572.23,568.394Zm0-9.728a3.293,3.293,0,1,0,3.3,3.293A3.3,3.3,0,0,0,572.23,558.666Z" transform="translate(-565.8 -555.525)"/></g><g transform="translate(15.799 6.03)"><path class="a" d="M574.672,565.573a6.432,6.432,0,1,1,6.43-6.43A6.436,6.436,0,0,1,574.672,565.573Zm0-9.728a3.3,3.3,0,1,0,3.293,3.3A3.306,3.306,0,0,0,574.672,555.846Z" transform="translate(-568.238 -552.709)"/></g></g><g transform="translate(0 5.775)"><g transform="translate(6.753)"><path class="a" d="M564.783,556.7a1.565,1.565,0,0,1-1.571-1.566v-8.826a1.568,1.568,0,1,1,3.136,0v8.826A1.564,1.564,0,0,1,564.783,556.7Z" transform="translate(-563.212 -544.735)"/></g><path class="a" d="M563.278,556.7a1.565,1.565,0,0,1-1.571-1.566v-8.826a1.568,1.568,0,1,1,3.136,0v8.826A1.564,1.564,0,0,1,563.278,556.7Z" transform="translate(-561.707 -544.735)"/></g><g transform="translate(0 49.716)"><g transform="translate(6.753)"><path class="a" d="M564.783,566.49a1.565,1.565,0,0,1-1.571-1.566V556.1a1.568,1.568,0,1,1,3.136,0v8.826A1.564,1.564,0,0,1,564.783,566.49Z" transform="translate(-563.212 -554.528)"/></g><path class="a" d="M563.278,566.49a1.565,1.565,0,0,1-1.571-1.566V556.1a1.568,1.568,0,1,1,3.136,0v8.826A1.564,1.564,0,0,1,563.278,566.49Z" transform="translate(-561.707 -554.528)"/></g></g><g transform="translate(15.812 9.723)"><path class="a" d="M566.258,560.651H554.973V547.186a1.568,1.568,0,1,1,3.136,0v10.329h8.148a1.568,1.568,0,1,1,0,3.136Z" transform="translate(-554.973 -545.615)"/></g><g transform="translate(4.864 22.367)"><path class="a" d="M574.766,557.6H552.533V550a1.568,1.568,0,0,1,3.136,0v4.46h19.1a1.57,1.57,0,1,1,0,3.141Z" transform="translate(-552.533 -548.433)"/></g><g transform="translate(10.944)"><path class="a" d="M560.318,556.312a6.432,6.432,0,1,1,6.434-6.43A6.432,6.432,0,0,1,560.318,556.312Zm0-9.728a3.3,3.3,0,1,0,3.3,3.3A3.306,3.306,0,0,0,560.318,546.584Z" transform="translate(-553.888 -543.448)"/></g><g transform="translate(0 12.64)"><path class="a" d="M557.883,559.129a6.432,6.432,0,1,1,6.43-6.434A6.44,6.44,0,0,1,557.883,559.129Zm0-9.728a3.3,3.3,0,1,0,3.293,3.293A3.305,3.305,0,0,0,557.883,549.4Z" transform="translate(-551.449 -546.265)"/></g><g transform="translate(0 35.523)"><g transform="translate(15.812 6.775)"><path class="a" d="M556.539,567.911a1.569,1.569,0,0,1-1.566-1.571V552.875h11.285a1.568,1.568,0,1,1,0,3.136h-8.148V566.34A1.57,1.57,0,0,1,556.539,567.911Z" transform="translate(-554.973 -552.875)"/></g><g transform="translate(4.864)"><path class="a" d="M554.1,560.532a1.565,1.565,0,0,1-1.57-1.566v-7.6h22.233a1.568,1.568,0,1,1,0,3.136h-19.1v4.465A1.564,1.564,0,0,1,554.1,560.532Z" transform="translate(-552.533 -551.365)"/></g><g transform="translate(10.944 18.666)"><path class="a" d="M560.318,568.394a6.434,6.434,0,1,1,6.434-6.434A6.436,6.436,0,0,1,560.318,568.394Zm0-9.728a3.293,3.293,0,1,0,3.3,3.293A3.3,3.3,0,0,0,560.318,558.666Z" transform="translate(-553.888 -555.525)"/></g><g transform="translate(0 6.03)"><path class="a" d="M557.883,565.573a6.432,6.432,0,1,1,6.43-6.43A6.436,6.436,0,0,1,557.883,565.573Zm0-9.728a3.3,3.3,0,1,0,3.293,3.3A3.306,3.306,0,0,0,557.883,555.846Z" transform="translate(-551.449 -552.709)"/></g></g><g transform="translate(32.284 5.775)"><path class="a" d="M560.21,556.7a1.564,1.564,0,0,1-1.566-1.566v-8.826a1.568,1.568,0,1,1,3.136,0v8.826A1.565,1.565,0,0,1,560.21,556.7Z" transform="translate(-558.644 -544.735)"/><g transform="translate(6.749)"><path class="a" d="M561.718,556.7a1.568,1.568,0,0,1-1.57-1.566v-8.826a1.571,1.571,0,1,1,3.141,0v8.826A1.569,1.569,0,0,1,561.718,556.7Z" transform="translate(-560.148 -544.735)"/></g></g><g transform="translate(32.284 49.716)"><path class="a" d="M560.21,566.49a1.564,1.564,0,0,1-1.566-1.566V556.1a1.568,1.568,0,1,1,3.136,0v8.826A1.565,1.565,0,0,1,560.21,566.49Z" transform="translate(-558.644 -554.528)"/><g transform="translate(6.749)"><path class="a" d="M561.718,566.49a1.568,1.568,0,0,1-1.57-1.566V556.1a1.571,1.571,0,0,1,3.141,0v8.826A1.568,1.568,0,0,1,561.718,566.49Z" transform="translate(-560.148 -554.528)"/></g></g><g transform="translate(44.677 22.367)"><path class="a" d="M568.917,559.018a1.57,1.57,0,0,1-1.571-1.57v-5.878h-4.37a1.568,1.568,0,1,1,0-3.136h7.511v9.014A1.569,1.569,0,0,1,568.917,559.018Z" transform="translate(-561.406 -548.433)"/></g></g><g transform="translate(604.652 562.098)"><path class="b" d="M637.767,682.716a6.491,6.491,0,0,1-5.451-2.935L620.6,662.1a10.989,10.989,0,0,0-9.176-4.927H561.785a15.515,15.515,0,0,1-15.5-15.494v-88.24a15.515,15.515,0,0,1,15.5-15.493H665.308a15.516,15.516,0,0,1,15.5,15.493v88.24a15.516,15.516,0,0,1-15.5,15.494h-3.989a11.084,11.084,0,0,0-9.871,6.134l-7.781,15.754A6.5,6.5,0,0,1,638.2,682.7Q637.983,682.716,637.767,682.716ZM561.785,542.431a11.023,11.023,0,0,0-11.011,11.007v88.24a11.023,11.023,0,0,0,11.011,11.007h49.639a15.464,15.464,0,0,1,12.918,6.937L636.058,677.3a2.088,2.088,0,0,0,1.858.924,2.06,2.06,0,0,0,1.732-1.157l7.776-15.749a15.6,15.6,0,0,1,13.9-8.633h3.989a11.024,11.024,0,0,0,11.016-11.007v-88.24a11.024,11.024,0,0,0-11.016-11.007Z" transform="translate(-546.287 -537.944)"/></g><g transform="translate(577.932 531.017)"><path class="b" d="M561.515,650.24H555.83a15.515,15.515,0,0,1-15.5-15.493V546.51a15.512,15.512,0,0,1,15.5-15.493H659.358a15.505,15.505,0,0,1,15.493,15.493,2.243,2.243,0,1,1-4.487,0A11.017,11.017,0,0,0,659.358,535.5H555.83a11.02,11.02,0,0,0-11.011,11.006v88.236a11.023,11.023,0,0,0,11.011,11.007h5.685a2.243,2.243,0,0,1,0,4.487Z" transform="translate(-540.332 -531.017)"/></g><g transform="translate(533.722 531.928)"><g transform="translate(200.787 30.063)"><path class="b" d="M607.678,574.5H577.471a2.244,2.244,0,0,1,0-4.487h25.719V540.163a2.244,2.244,0,0,1,4.487,0Z" transform="translate(-575.228 -537.92)"/></g><g transform="translate(213.718)"><path class="b" d="M595.385,565.77a17.275,17.275,0,1,1,17.279-17.279A17.3,17.3,0,0,1,595.385,565.77Zm0-30.062a12.788,12.788,0,1,0,12.792,12.783A12.8,12.8,0,0,0,595.385,535.707Z" transform="translate(-578.11 -531.22)"/></g><g transform="translate(15.036 30.063)"><path class="b" d="M564.036,574.5H533.83V540.163a2.243,2.243,0,0,1,4.487,0v29.847h25.719a2.244,2.244,0,1,1,0,4.487Z" transform="translate(-533.83 -537.92)"/></g><path class="b" d="M547.758,565.77a17.275,17.275,0,1,1,17.275-17.279A17.3,17.3,0,0,1,547.758,565.77Zm0-30.062a12.788,12.788,0,1,0,12.788,12.783A12.8,12.8,0,0,0,547.758,535.707Z" transform="translate(-530.479 -531.22)"/></g><g transform="translate(533.722 635.128)"><g transform="translate(15.036)"><path class="b" d="M536.073,590.8a2.244,2.244,0,0,1-2.243-2.243V554.22h30.206a2.244,2.244,0,1,1,0,4.487H538.317v29.847A2.244,2.244,0,0,1,536.073,590.8Z" transform="translate(-533.83 -554.22)"/></g><g transform="translate(0 32.091)"><path class="b" d="M547.758,595.922a17.275,17.275,0,1,1,17.275-17.275A17.3,17.3,0,0,1,547.758,595.922Zm0-30.063a12.788,12.788,0,1,0,12.788,12.788A12.8,12.8,0,0,0,547.758,565.859Z" transform="translate(-530.479 -561.372)"/></g><g transform="translate(200.787)"><path class="b" d="M605.434,590.8a2.244,2.244,0,0,1-2.243-2.243V558.707H577.471a2.244,2.244,0,0,1,0-4.487h30.206v34.334A2.244,2.244,0,0,1,605.434,590.8Z" transform="translate(-575.228 -554.22)"/></g><g transform="translate(213.718 32.091)"><path class="b" d="M595.385,595.922a17.275,17.275,0,1,1,17.279-17.275A17.294,17.294,0,0,1,595.385,595.922Zm0-30.063a12.788,12.788,0,1,0,12.792,12.788A12.8,12.8,0,0,0,595.385,565.859Z" transform="translate(-578.11 -561.372)"/></g></g><g transform="translate(737.879 614.604)"><path class="b" d="M602.815,554.133H578.222a2.244,2.244,0,0,1,0-4.487h24.593a2.244,2.244,0,1,1,0,4.487Z" transform="translate(-575.979 -549.646)"/></g><g transform="translate(763.154 604.338)"><path class="b" d="M594.027,572.2a12.42,12.42,0,1,1,12.415-12.42A12.435,12.435,0,0,1,594.027,572.2Zm0-20.353a7.933,7.933,0,1,0,7.928,7.933A7.941,7.941,0,0,0,594.027,551.845Z" transform="translate(-581.612 -547.358)"/></g><g transform="translate(550.575 614.604)"><path class="b" d="M561.072,554.133H536.479a2.244,2.244,0,0,1,0-4.487h24.593a2.244,2.244,0,1,1,0,4.487Z" transform="translate(-534.235 -549.646)"/></g><g transform="translate(529.549 604.338)"><path class="b" d="M541.964,572.2a12.42,12.42,0,1,1,12.42-12.42A12.432,12.432,0,0,1,541.964,572.2Zm0-20.353a7.933,7.933,0,1,0,7.933,7.933A7.94,7.94,0,0,0,541.964,551.845Z" transform="translate(-529.549 -547.358)"/></g></g></svg>