<svg xmlns="http://www.w3.org/2000/svg" width="193.694" height="183.881" viewBox="0 0 193.694 183.881"><defs><style>.a{fill:#9b9b9b;}.b{fill:#e9791a;}</style></defs><g transform="translate(-394.785 -533.493)"><g transform="translate(394.785 652.127)"><path class="a" d="M450.638,584.409H403.375a8.6,8.6,0,0,1-8.59-8.586V567.48a8.6,8.6,0,0,1,8.59-8.59h47.263a8.6,8.6,0,0,1,8.586,8.59v8.343A8.6,8.6,0,0,1,450.638,584.409Zm-47.263-20.848a3.921,3.921,0,0,0-3.919,3.919v8.343a3.92,3.92,0,0,0,3.919,3.914h47.263a3.919,3.919,0,0,0,3.914-3.914V567.48a3.92,3.92,0,0,0-3.914-3.919Z" transform="translate(-394.785 -558.89)"/></g><g transform="translate(394.785 671.993)"><path class="a" d="M450.638,588.657H403.375a8.6,8.6,0,0,1-8.59-8.586v-8.343a8.6,8.6,0,0,1,8.59-8.586h47.263a8.6,8.6,0,0,1,8.586,8.586v8.343A8.6,8.6,0,0,1,450.638,588.657Zm-47.263-20.843a3.92,3.92,0,0,0-3.919,3.914v8.343a3.92,3.92,0,0,0,3.919,3.914h47.263a3.919,3.919,0,0,0,3.914-3.914v-8.343a3.919,3.919,0,0,0-3.914-3.914Z" transform="translate(-394.785 -563.143)"/></g><g transform="translate(394.785 691.86)"><path class="a" d="M450.638,592.91H403.375a8.6,8.6,0,0,1-8.59-8.586v-8.348a8.6,8.6,0,0,1,8.59-8.581h47.263a8.594,8.594,0,0,1,8.586,8.581v8.348A8.6,8.6,0,0,1,450.638,592.91Zm-47.263-20.843a3.916,3.916,0,0,0-3.919,3.91v8.348a3.92,3.92,0,0,0,3.919,3.914h47.263a3.919,3.919,0,0,0,3.914-3.914v-8.348a3.915,3.915,0,0,0-3.914-3.91Z" transform="translate(-394.785 -567.396)"/></g><g transform="translate(524.041 652.127)"><path class="a" d="M478.3,584.409H431.042a8.6,8.6,0,0,1-8.586-8.586V567.48a8.6,8.6,0,0,1,8.586-8.59H478.3a8.6,8.6,0,0,1,8.59,8.59v8.343A8.6,8.6,0,0,1,478.3,584.409Zm-47.263-20.848a3.92,3.92,0,0,0-3.915,3.919v8.343a3.919,3.919,0,0,0,3.915,3.914H478.3a3.921,3.921,0,0,0,3.919-3.914V567.48a3.921,3.921,0,0,0-3.919-3.919Z" transform="translate(-422.456 -558.89)"/></g><g transform="translate(455.745 692.555)"><path class="b" d="M478.336,572.216h-74.13c-.8,0-1.446-1.046-1.446-2.336s.645-2.336,1.446-2.336h74.13c.8,0,1.446,1.046,1.446,2.336S479.137,572.216,478.336,572.216Z" transform="translate(-402.761 -567.545)"/></g><g transform="translate(524.041 671.993)"><path class="a" d="M478.3,588.657H431.042a8.6,8.6,0,0,1-8.586-8.586v-8.343a8.6,8.6,0,0,1,8.586-8.586H478.3a8.6,8.6,0,0,1,8.59,8.586v8.343A8.6,8.6,0,0,1,478.3,588.657Zm-47.263-20.843a3.919,3.919,0,0,0-3.915,3.914v8.343a3.919,3.919,0,0,0,3.915,3.914H478.3a3.92,3.92,0,0,0,3.919-3.914v-8.343a3.92,3.92,0,0,0-3.919-3.914Z" transform="translate(-422.456 -563.143)"/></g><g transform="translate(524.041 691.86)"><path class="a" d="M478.3,592.91H431.042a8.6,8.6,0,0,1-8.586-8.586v-8.348a8.591,8.591,0,0,1,8.586-8.581H478.3a8.6,8.6,0,0,1,8.59,8.581v8.348A8.6,8.6,0,0,1,478.3,592.91Zm-47.263-20.843a3.915,3.915,0,0,0-3.915,3.91v8.348a3.919,3.919,0,0,0,3.915,3.914H478.3a3.92,3.92,0,0,0,3.919-3.914v-8.348a3.916,3.916,0,0,0-3.919-3.91Z" transform="translate(-422.456 -567.396)"/></g><g transform="translate(487.167 644.097)"><path class="b" d="M416.9,610.3a2.334,2.334,0,0,1-2.336-2.336V559.507a2.336,2.336,0,0,1,4.671,0v48.458A2.336,2.336,0,0,1,416.9,610.3Z" transform="translate(-414.562 -557.171)"/></g><g transform="translate(400.853 533.493)"><path class="a" d="M485.285,646.6a41.031,41.031,0,0,1-26.658-9.842,44.529,44.529,0,0,1-17.517,3.583,45.025,45.025,0,1,1,11.739-88.5,45,45,0,0,1,79.008,12.593,33.029,33.029,0,1,1-12.813,64.523A40.978,40.978,0,0,1,485.285,646.6Zm-25.8-15.359,1.144,1.056a36.424,36.424,0,0,0,55.484-7.362l1-1.574,1.752.626a28.353,28.353,0,1,0,11.1-55.022l-1.649-.093-.462-1.583a40.332,40.332,0,0,0-72.123-11.431l-.971,1.429-1.654-.509a40.369,40.369,0,1,0,4.965,75.122Z" transform="translate(-396.084 -533.493)"/></g></g></svg>