<svg xmlns="http://www.w3.org/2000/svg" width="195.378" height="209.205" viewBox="0 0 195.378 209.205"><defs><style>.a{fill:#9b9b9b;}</style></defs><g transform="translate(-661.396 -531.09)"><g transform="translate(661.396 654.915)"><g transform="translate(22.644)"><path class="a" d="M693.527,605.557a2.812,2.812,0,0,1-2.812-2.812V558.734h-19.67v44.011a2.811,2.811,0,1,1-5.623,0V553.111h30.916v49.634A2.813,2.813,0,0,1,693.527,605.557Z" transform="translate(-665.423 -553.111)"/></g><g transform="translate(0 47.284)"><path class="a" d="M699.5,599.616l-38.1-38.1h25.455a2.812,2.812,0,0,1,0,5.623H674.975L699.5,591.665l24.516-24.522h-11.87a2.812,2.812,0,0,1,0-5.623h25.444Z" transform="translate(-661.396 -561.52)"/></g></g><g transform="translate(780.582 654.915)"><g transform="translate(22.638)"><path class="a" d="M714.722,605.557a2.812,2.812,0,0,1-2.811-2.812V558.734h-19.67v44.011a2.812,2.812,0,1,1-5.623,0V553.111h30.916v49.634A2.809,2.809,0,0,1,714.722,605.557Z" transform="translate(-686.618 -553.111)"/></g><g transform="translate(0 47.284)"><path class="a" d="M720.688,599.616l-38.1-38.1h25.45a2.812,2.812,0,0,1,0,5.623H696.166l24.522,24.522,24.522-24.522H733.334a2.812,2.812,0,0,1,0-5.623h25.45Z" transform="translate(-682.592 -561.52)"/></g></g><g transform="translate(720.989 615.188)"><g transform="translate(22.644)"><path class="a" d="M704.125,598.486a2.809,2.809,0,0,1-2.812-2.812V551.669H681.644v44.006a2.812,2.812,0,0,1-5.623,0V546.046h30.915v49.629A2.813,2.813,0,0,1,704.125,598.486Z" transform="translate(-676.021 -546.046)"/></g><g transform="translate(0 47.284)"><path class="a" d="M710.1,592.551l-38.1-38.1h25.455a2.812,2.812,0,0,1,0,5.623H685.568L710.1,584.6l24.516-24.522h-11.87a2.812,2.812,0,0,1,0-5.623h25.444Z" transform="translate(-671.994 -554.455)"/></g></g><g transform="translate(667.48 569.293)"><path class="a" d="M701.372,619.908H685.206V611.7c-10.352-1.6-17.977-7.062-21.621-15.587l-1.108-2.592,14.991-6.349,1.1,2.592c1.659,3.931,7.783,7,13.934,7,2.716,0,11.555-.45,11.555-6.241,0-2.761-4.083-4.639-12.135-5.6-10.341-1.153-25.984-2.907-25.984-19.984,0-9.93,7.315-17.229,19.27-19.444v-7.614h16.166v7.681c5.769,1.2,12.865,4.06,16.987,12.494l1.265,2.581-13.861,6.416-1.3-2.154c-1.445-2.39-6.466-4.954-11.628-4.954-3.126,0-10.391.489-10.391,4.993,0,2.71,3.722,3.649,11.049,4.521,10.988,1.349,27.57,3.4,27.57,21.058,0,10.684-7.968,18.938-19.686,20.771Zm-10.543-5.623h4.92v-8.109l2.6-.191c8.5-.613,17.083-5.634,17.083-15.463,0-11.758-9.807-13.9-22.622-15.48-6.742-.8-16-1.906-16-10.1,0-6.646,5.989-10.616,16.014-10.616,5.747,0,11.556,2.277,14.856,5.651l4.172-1.94c-2.845-4.083-7.108-6.326-13.732-7.344l-2.378-.36v-6.827h-4.92v6.9l-2.48.3c-5.044.607-16.79,3.222-16.79,14.237,0,10.251,6.77,12.809,21,14.4,4.7.551,17.117,2.019,17.117,11.179,0,7.321-6.585,11.865-17.178,11.865-6.371,0-13.968-2.727-17.73-7.968l-4.723,2c4.656,7.619,13.231,9.537,18.213,9.981l2.57.231Z" transform="translate(-662.478 -537.884)"/></g><g transform="translate(729.351 531.09)"><path class="a" d="M712.381,613.113H696.209v-8.2c-10.347-1.6-17.977-7.068-21.615-15.593l-1.113-2.592,14.991-6.349,1.1,2.592c1.659,3.931,7.782,7.006,13.934,7.006,2.716,0,11.555-.455,11.555-6.247,0-2.761-4.082-4.639-12.129-5.595-10.341-1.153-25.99-2.907-25.99-19.984,0-9.93,7.31-17.229,19.265-19.445V531.09h16.172v7.681c5.769,1.2,12.866,4.06,16.987,12.495l1.265,2.581-13.861,6.421-1.3-2.154c-1.445-2.4-6.461-4.96-11.623-4.96-3.126,0-10.4.489-10.4,4.993,0,2.71,3.722,3.649,11.055,4.521,10.982,1.349,27.558,3.4,27.558,21.058,0,10.684-7.968,18.933-19.681,20.777Zm-10.549-5.623h4.926v-8.108l2.609-.191c8.5-.613,17.071-5.634,17.071-15.463,0-11.758-9.8-13.9-22.61-15.48-6.742-.8-16-1.9-16-10.1,0-6.647,5.989-10.616,16.02-10.616,5.747,0,11.55,2.277,14.845,5.651l4.178-1.94c-2.845-4.082-7.107-6.326-13.726-7.344l-2.384-.359v-6.826h-4.926v6.9l-2.474.3c-5.044.613-16.791,3.222-16.791,14.237,0,10.251,6.776,12.809,21.008,14.4,4.69.557,17.111,2.019,17.111,11.178,0,7.321-6.584,11.87-17.178,11.87-6.376,0-13.968-2.733-17.729-7.968l-4.723,2c4.656,7.625,13.231,9.542,18.213,9.987l2.564.23Z" transform="translate(-673.481 -531.09)"/></g><g transform="translate(788.943 565.93)"><path class="a" d="M722.979,619.315H706.807v-8.21c-10.352-1.6-17.977-7.068-21.62-15.587l-1.108-2.592,14.991-6.343,1.1,2.592c1.659,3.919,7.782,7,13.939,7,2.71,0,11.555-.45,11.555-6.241,0-2.761-4.082-4.639-12.134-5.6-10.335-1.153-25.99-2.9-25.99-19.979,0-9.936,7.316-17.235,19.27-19.444v-7.625h16.172v7.687c5.763,1.2,12.86,4.06,16.987,12.494l1.26,2.581-13.861,6.427-1.3-2.159c-1.445-2.4-6.467-4.959-11.623-4.959-3.126,0-10.4.489-10.4,5,0,2.7,3.722,3.644,11.055,4.516,10.982,1.355,27.558,3.4,27.558,21.058,0,10.683-7.968,18.938-19.68,20.777Zm-10.549-5.623h4.926v-8.1l2.609-.2c8.5-.613,17.072-5.634,17.072-15.463,0-11.753-9.8-13.895-22.61-15.475-6.748-.8-16-1.9-16-10.1,0-6.652,5.983-10.622,16.02-10.622,5.747,0,11.544,2.277,14.845,5.651l4.172-1.94c-2.846-4.076-7.1-6.326-13.72-7.343l-2.384-.36v-6.832H712.43v6.911l-2.474.292c-5.05.613-16.8,3.227-16.8,14.243,0,10.245,6.776,12.8,21.014,14.395,4.69.557,17.111,2.025,17.111,11.179,0,7.315-6.585,11.865-17.178,11.865-6.377,0-13.967-2.727-17.729-7.968l-4.723,2c4.656,7.63,13.225,9.548,18.213,9.992l2.564.23Z" transform="translate(-684.079 -537.286)"/></g></g></svg>