<svg xmlns="http://www.w3.org/2000/svg" width="238.208" height="179.999" viewBox="0 0 238.208 179.999"><defs><style>.a{fill:#9b9b9b;}.b{fill:#e9791a;}</style></defs><g transform="translate(-452.85 -528.09)"><g transform="translate(522.932 569.405)"><path class="a" d="M568.218,636.266H470.381V538.425h97.837Zm-93.839-4H564.22V542.422H474.379Z" transform="translate(-470.381 -538.425)"/></g><g transform="translate(579.585 528.09)"><g transform="translate(37.185 26.772)"><path class="a" d="M524.608,571.537H495.854a2,2,0,0,1,0-4h24.757V536.786a2,2,0,1,1,4,0Z" transform="translate(-493.855 -534.787)"/></g><g transform="translate(37.185 61.587)"><path class="a" d="M554.75,564.092h-58.9a2,2,0,0,1,0-4h54.9v-14.6a2,2,0,1,1,4,0Z" transform="translate(-493.855 -543.496)"/></g><g transform="translate(50.561)"><path class="a" d="M512.6,558.871a15.391,15.391,0,1,1,15.391-15.394A15.412,15.412,0,0,1,512.6,558.871Zm0-26.783a11.393,11.393,0,1,0,11.393,11.389A11.4,11.4,0,0,0,512.6,532.088Z" transform="translate(-497.201 -528.09)"/></g><g transform="translate(80.687 34.803)"><path class="a" d="M520.132,567.577a15.391,15.391,0,1,1,15.391-15.391A15.411,15.411,0,0,1,520.132,567.577Zm0-26.784a11.393,11.393,0,1,0,11.393,11.393A11.407,11.407,0,0,0,520.132,540.793Z" transform="translate(-504.737 -536.796)"/></g><g transform="translate(37.185 97.817)"><g transform="translate(0 18.661)"><path class="a" d="M522.609,593.973a2,2,0,0,1-2-2V561.224H495.854a2,2,0,0,1,0-4h28.755v34.747A2,2,0,0,1,522.609,593.973Z" transform="translate(-493.855 -557.227)"/></g><path class="a" d="M552.751,573.154a2,2,0,0,1-2-2v-14.6h-54.9a2,2,0,0,1,0-4h58.9v18.6A2,2,0,0,1,552.751,573.154Z" transform="translate(-493.855 -552.559)"/><g transform="translate(13.376 51.401)"><path class="a" d="M512.6,596.2a15.391,15.391,0,1,1,15.391-15.391A15.411,15.411,0,0,1,512.6,596.2Zm0-26.784a11.393,11.393,0,1,0,11.393,11.393A11.4,11.4,0,0,0,512.6,569.414Z" transform="translate(-497.201 -565.417)"/></g><g transform="translate(43.502 16.598)"><path class="a" d="M520.132,587.492A15.391,15.391,0,1,1,535.522,572.1,15.411,15.411,0,0,1,520.132,587.492Zm0-26.784A11.393,11.393,0,1,0,531.525,572.1,11.407,11.407,0,0,0,520.132,560.708Z" transform="translate(-504.737 -556.711)"/></g></g><g transform="translate(0 15.894)"><g transform="translate(18.593)"><path class="a" d="M491.2,560.369a2,2,0,0,1-2-2V534.065a2,2,0,0,1,4,0V558.37A2,2,0,0,1,491.2,560.369Z" transform="translate(-489.204 -532.066)"/></g><path class="a" d="M486.552,560.369a2,2,0,0,1-2-2V534.065a2,2,0,1,1,4,0V558.37A2,2,0,0,1,486.552,560.369Z" transform="translate(-484.553 -532.066)"/></g><g transform="translate(0 136.893)"><g transform="translate(18.593)"><path class="a" d="M491.2,590.637a2,2,0,0,1-2-2V564.333a2,2,0,0,1,4,0v24.305A2,2,0,0,1,491.2,590.637Z" transform="translate(-489.204 -562.334)"/></g><path class="a" d="M486.552,590.637a2,2,0,0,1-2-2V564.333a2,2,0,1,1,4,0v24.305A2,2,0,0,1,486.552,590.637Z" transform="translate(-484.553 -562.334)"/></g></g><g transform="translate(452.85 528.09)"><g transform="translate(43.534 26.772)"><path class="a" d="M492.495,571.537H463.74V536.786a2,2,0,1,1,4,0v30.753h24.757a2,2,0,0,1,0,4Z" transform="translate(-463.74 -534.787)"/></g><g transform="translate(13.392 61.587)"><path class="a" d="M515.1,564.092H456.2v-18.6a2,2,0,1,1,4,0v14.6h54.9a2,2,0,0,1,0,4Z" transform="translate(-456.2 -543.496)"/></g><g transform="translate(30.126)"><path class="a" d="M475.777,558.871a15.391,15.391,0,1,1,15.395-15.394A15.408,15.408,0,0,1,475.777,558.871Zm0-26.783a11.393,11.393,0,1,0,11.4,11.389A11.4,11.4,0,0,0,475.777,532.088Z" transform="translate(-460.386 -528.09)"/></g><g transform="translate(0 34.803)"><path class="a" d="M468.241,567.577a15.391,15.391,0,1,1,15.391-15.391A15.408,15.408,0,0,1,468.241,567.577Zm0-26.784a11.393,11.393,0,1,0,11.393,11.393A11.4,11.4,0,0,0,468.241,540.793Z" transform="translate(-452.85 -536.796)"/></g><g transform="translate(0 97.817)"><g transform="translate(43.534 18.661)"><path class="a" d="M465.739,593.973a2,2,0,0,1-2-2V557.227h28.755a2,2,0,0,1,0,4H467.737v30.749A2,2,0,0,1,465.739,593.973Z" transform="translate(-463.74 -557.227)"/></g><g transform="translate(13.392)"><path class="a" d="M458.2,573.154a2,2,0,0,1-2-2v-18.6h58.9a2,2,0,0,1,0,4H460.2v14.6A2,2,0,0,1,458.2,573.154Z" transform="translate(-456.2 -552.559)"/></g><g transform="translate(30.126 51.401)"><path class="a" d="M475.777,596.2a15.391,15.391,0,1,1,15.395-15.391A15.408,15.408,0,0,1,475.777,596.2Zm0-26.784a11.393,11.393,0,1,0,11.4,11.393A11.4,11.4,0,0,0,475.777,569.414Z" transform="translate(-460.386 -565.417)"/></g><g transform="translate(0 16.598)"><path class="a" d="M468.241,587.492A15.391,15.391,0,1,1,483.631,572.1,15.408,15.408,0,0,1,468.241,587.492Zm0-26.784A11.393,11.393,0,1,0,479.634,572.1,11.4,11.4,0,0,0,468.241,560.708Z" transform="translate(-452.85 -556.711)"/></g></g><g transform="translate(88.882 15.894)"><path class="a" d="M477.083,560.369a2,2,0,0,1-2-2V534.065a2,2,0,0,1,4,0V558.37A2,2,0,0,1,477.083,560.369Z" transform="translate(-475.084 -532.066)"/><g transform="translate(18.593)"><path class="a" d="M481.734,560.369a2,2,0,0,1-2-2V534.065a2,2,0,1,1,4,0V558.37A2,2,0,0,1,481.734,560.369Z" transform="translate(-479.735 -532.066)"/></g></g><g transform="translate(88.882 136.893)"><path class="a" d="M477.083,590.637a2,2,0,0,1-2-2V564.333a2,2,0,0,1,4,0v24.305A2,2,0,0,1,477.083,590.637Z" transform="translate(-475.084 -562.334)"/><g transform="translate(18.593)"><path class="a" d="M481.734,590.637a2,2,0,0,1-2-2V564.333a2,2,0,1,1,4,0v24.305A2,2,0,0,1,481.734,590.637Z" transform="translate(-479.735 -562.334)"/></g></g></g><g transform="translate(575.867 589.677)"><path class="b" d="M501.984,568a2,2,0,0,1-2-2v-18.5H485.622a2,2,0,0,1,0-4h18.361V566A2,2,0,0,1,501.984,568Z" transform="translate(-483.623 -543.496)"/></g></g></svg>