<svg xmlns="http://www.w3.org/2000/svg" width="162.367" height="162.363" viewBox="0 0 162.367 162.363"><defs><style>.a{fill:#e9791a;}.b{fill:#9b9b9b;}</style></defs><g transform="translate(-270.71 -534.863)"><g transform="translate(389.635 561.451)"><path class="a" d="M304.229,563.522l-3.024-2.46,6.888-8.462-6.888-8.459,3.024-2.46,8.895,10.919Z" transform="translate(-301.205 -541.681)"/></g><g transform="translate(297.125 654.736)"><path class="a" d="M288.406,577.517l-10.923-8.893,2.464-3.024,8.459,6.889,8.457-6.889,2.464,3.024Z" transform="translate(-277.483 -565.601)"/></g><g transform="translate(270.71 534.863)"><path class="b" d="M415.844,697.226h-127.9a17.255,17.255,0,0,1-17.237-17.233V552.1a17.257,17.257,0,0,1,17.237-17.233h127.9A17.254,17.254,0,0,1,433.077,552.1v127.9A17.251,17.251,0,0,1,415.844,697.226Zm-127.9-158.464A13.353,13.353,0,0,0,274.61,552.1v127.9a13.353,13.353,0,0,0,13.338,13.333h127.9a13.35,13.35,0,0,0,13.334-13.333V552.1a13.35,13.35,0,0,0-13.334-13.334Z" transform="translate(-270.71 -534.863)"/></g><g transform="translate(298.637 555.065)"><path class="b" d="M293.985,572.271A16.114,16.114,0,1,1,310.1,556.157,16.135,16.135,0,0,1,293.985,572.271Zm0-28.329A12.214,12.214,0,1,0,306.2,556.157,12.228,12.228,0,0,0,293.985,543.943Z" transform="translate(-277.871 -540.043)"/></g><g transform="translate(357.513 619.237)"><g transform="translate(0 18.364)"><rect class="b" width="40.633" height="3.9"/></g><g transform="translate(18.366)"><rect class="b" width="3.9" height="40.629"/></g></g><g transform="translate(306.097 570.418)"><path class="a" d="M283.684,637.7h-3.9A93.826,93.826,0,0,1,373.5,543.98v3.9A89.925,89.925,0,0,0,283.684,637.7Z" transform="translate(-279.784 -543.98)"/></g></g></svg>