<svg xmlns="http://www.w3.org/2000/svg" width="238.105" height="196.051" viewBox="0 0 238.105 196.051"><defs><style>.a{fill:#9b9b9b;}.b{fill:#e9791a;}</style></defs><g transform="translate(-330.168 -534.737)"><g transform="translate(364.529 607.743)"><path class="a" d="M340.966,577.134l-3.816-3.1,8.692-10.674-8.692-10.679,3.816-3.1,11.225,13.784Z" transform="translate(-337.15 -549.571)"/></g><g transform="translate(364.529 639.641)"><path class="a" d="M340.966,583.616l-3.816-3.1,8.692-10.679-8.692-10.674,3.816-3.1,11.225,13.779Z" transform="translate(-337.15 -556.053)"/></g><g transform="translate(412.42 587.977)"><path class="b" d="M391.656,637a4.07,4.07,0,0,1-1.137-.162l-37.364-11.369a3.995,3.995,0,0,1-2.658-4.976l4.99-16.437a35.361,35.361,0,1,1,62.1-23.106c0,.9-.039,1.777-.108,2.653,1.1,2.215,2.485,4.971,3.667,7.309l2.106,4.139-1.865,1.766,2.175-1.151a8.282,8.282,0,0,1,.851,3.583,7.98,7.98,0,0,1-7.948,7.968l.015,7.353a9.548,9.548,0,0,1-9.518,9.537l-8.494-.005-2.992,10.05a4,4,0,0,1-3.824,2.85Zm-36.178-15.965,35.558,10.813,3.77-12.668,12.161.005a4.62,4.62,0,0,0,4.6-4.607l-.029-12.284h4.926a3.056,3.056,0,0,0,2.805-4.223l-.015-.029v0l-.015-.039.167-.079,1.836-1.408-2.377.763-2.1-4.139c-1.3-2.574-2.859-5.65-4-7.967l-.305-.625.064-.694c.089-.95.148-1.92.148-2.9a30.434,30.434,0,1,0-52.63,20.813l.974,1.038Zm-.271.886v0Z" transform="translate(-346.881 -545.555)"/><g transform="translate(10.04 10.301)"><path class="b" d="M399.2,575.253H348.921v-2.461a25.141,25.141,0,1,1,50.282,0Zm-45.213-4.922h40.139a20.22,20.22,0,0,0-40.139,0Z" transform="translate(-348.921 -547.648)"/></g></g><g transform="translate(494.126 683.488)"><path class="a" d="M413.977,612.262H387.141a23.65,23.65,0,1,1,0-47.3h26.837a23.65,23.65,0,1,1,0,47.3Zm-26.837-42.379a18.729,18.729,0,1,0,0,37.457h26.837a18.729,18.729,0,1,0,0-37.457Z" transform="translate(-363.483 -564.962)"/></g><g transform="translate(510.517 700.725)"><circle class="a" cx="5.676" cy="5.676" r="5.676"/></g><g transform="translate(531.2 704.677)"><rect class="a" width="19.131" height="4.921"/></g><g transform="translate(339.499 683.488)"><path class="a" d="M382.558,612.262H355.717a23.65,23.65,0,1,1,0-47.3h26.842a23.65,23.65,0,0,1,0,47.3Zm-26.842-42.379a18.729,18.729,0,1,0,0,37.457h26.842a18.729,18.729,0,0,0,0-37.457Z" transform="translate(-332.064 -564.962)"/></g><g transform="translate(355.888 700.725)"><circle class="a" cx="5.676" cy="5.676" r="5.676"/></g><g transform="translate(376.571 704.677)"><rect class="a" width="19.131" height="4.921"/></g><g transform="translate(330.168 534.737)"><path class="a" d="M352.733,595.492l-1.176-13.558a23.653,23.653,0,0,1,2.264-47.2h26.842a23.652,23.652,0,0,1,0,47.3h-7.751Zm1.088-55.834a18.731,18.731,0,1,0,0,37.462h2.259l.837,9.666,14.5-9.666h9.243a18.731,18.731,0,0,0,0-37.462Z" transform="translate(-330.168 -534.737)"/><g transform="translate(16.389 21.192)"><rect class="a" width="11.352" height="4.921"/></g><g transform="translate(37.098 21.192)"><rect class="a" width="18.256" height="4.921"/></g></g><g transform="translate(493.85 534.737)"><path class="a" d="M415,595.492l-20.173-13.45H387.08a23.652,23.652,0,1,1,0-47.3h26.842a23.653,23.653,0,0,1,2.264,47.2ZM387.08,539.659a18.731,18.731,0,1,0,0,37.462h9.242l14.5,9.666.837-9.666h2.259a18.731,18.731,0,1,0,0-37.462Z" transform="translate(-363.427 -534.737)"/><g transform="translate(46.404 21.192)"><rect class="a" width="11.352" height="4.921"/></g><g transform="translate(18.791 21.192)"><rect class="a" width="18.256" height="4.921"/></g></g><g transform="translate(428.099 551.776)"><g transform="translate(0 9.425)"><path class="a" d="M363.849,555.153l-13.782-11.222,3.109-3.816,10.672,8.694,10.674-8.694,3.109,3.816Z" transform="translate(-350.067 -540.114)"/></g><g transform="translate(11.321)"><path class="a" d="M357.289,556.885h-4.922V538.2h35.782v4.921h-30.86Z" transform="translate(-352.367 -538.199)"/></g></g><g transform="translate(518.305 613.482)"><path class="a" d="M379.621,578.3,368.4,564.517l11.225-13.779,3.816,3.1-8.692,10.674,8.692,10.674Z" transform="translate(-368.396 -550.737)"/><g transform="translate(5.782 11.318)"><path class="a" d="M388.257,603.583h-4.921V557.959H369.571v-4.921h18.686Z" transform="translate(-369.571 -553.037)"/></g></g><g transform="translate(349.772 597.276)"><path class="a" d="M360.775,574.157H334.151V547.444h4.922v21.791h21.7Z" transform="translate(-334.151 -547.444)"/></g><g transform="translate(349.772 650.96)"><path class="a" d="M339.073,585.06h-4.922V558.353h26.623v4.921h-21.7Z" transform="translate(-334.151 -558.353)"/></g></g></svg>