<svg xmlns="http://www.w3.org/2000/svg" width="209.44" height="192.133" viewBox="0 0 209.44 192.133"><defs><style>.a{fill:#9b9b9b;}.b{fill:#e9791a;}</style></defs><g transform="translate(-605.483 -531.494)"><g transform="translate(739.313 531.494)"><path class="a" d="M680.4,579.148H632.741V555.321a23.827,23.827,0,0,1,47.654,0Zm-42.744-4.91h37.834V555.321a18.917,18.917,0,0,0-37.834,0Z" transform="translate(-632.741 -531.494)"/></g><g transform="translate(711.362 574.498)"><path class="a" d="M709.659,625.476H648a20.973,20.973,0,0,1-20.95-20.95V561.2A20.973,20.973,0,0,1,648,540.253h61.662a20.972,20.972,0,0,1,20.95,20.95v43.323A20.972,20.972,0,0,1,709.659,625.476ZM648,545.163a16.061,16.061,0,0,0-16.04,16.04v43.323A16.058,16.058,0,0,0,648,620.567h61.662a16.058,16.058,0,0,0,16.04-16.04V561.2a16.061,16.061,0,0,0-16.04-16.04Z" transform="translate(-627.048 -540.253)"/></g><g transform="translate(676.939 623.016)"><path class="b" d="M634.614,579.284A14.575,14.575,0,1,1,649.2,564.712,14.594,14.594,0,0,1,634.614,579.284Zm0-24.24a9.665,9.665,0,1,0,9.672,9.667A9.676,9.676,0,0,0,634.614,555.045Z" transform="translate(-620.037 -550.135)"/></g><g transform="translate(641.211 671.598)"><path class="b" d="M627.337,589.189a14.579,14.579,0,1,1,14.577-14.577A14.594,14.594,0,0,1,627.337,589.189Zm0-24.249A9.67,9.67,0,1,0,637,574.612,9.683,9.683,0,0,0,627.337,564.94Z" transform="translate(-612.76 -560.03)"/></g><g transform="translate(689.062 647.256)"><path class="a" d="M624.961,631.443a2.453,2.453,0,0,1-2.455-2.455V557.527a2.455,2.455,0,0,1,4.91,0v71.461A2.456,2.456,0,0,1,624.961,631.443Z" transform="translate(-622.506 -555.072)"/></g><g transform="translate(689.062 551.555)"><path class="a" d="M624.961,611.951a2.453,2.453,0,0,1-2.455-2.455V538.035a2.455,2.455,0,0,1,4.91,0V609.5A2.456,2.456,0,0,1,624.961,611.951Z" transform="translate(-622.506 -535.58)"/></g><g transform="translate(605.483 635.139)"><path class="a" d="M679.394,557.514H607.938a2.455,2.455,0,1,1,0-4.91h71.456a2.455,2.455,0,0,1,0,4.91Z" transform="translate(-605.483 -552.604)"/></g><g transform="translate(665.454 680.018)"><path class="a" d="M705.269,578.345a2.435,2.435,0,0,1-.992-.211c-16.713-7.4-38.2-11.479-60.518-11.479a178.474,178.474,0,0,0-23.282,1.507,2.456,2.456,0,1,1-.643-4.87,183.167,183.167,0,0,1,23.925-1.547c22.983,0,45.18,4.222,62.5,11.9a2.454,2.454,0,0,1-.992,4.7Z" transform="translate(-617.698 -561.745)"/></g><g transform="translate(627.549 686.813)"><path class="a" d="M612.436,572.934a2.455,2.455,0,0,1-1-4.7,122.066,122.066,0,0,1,13.507-5,2.457,2.457,0,1,1,1.438,4.7,117.118,117.118,0,0,0-12.957,4.792A2.469,2.469,0,0,1,612.436,572.934Z" transform="translate(-609.977 -563.129)"/></g><g transform="translate(657.573 654.811)"><path class="a" d="M650.036,625.426c-12.76,0-24.7-8.847-33.632-24.9a2.454,2.454,0,0,1,4.286-2.391c8.028,14.435,18.446,22.384,29.345,22.384,19.369,0,36.818-25.977,41.488-61.764a2.456,2.456,0,1,1,4.87.633C691.317,598.271,672.253,625.426,650.036,625.426Z" transform="translate(-616.092 -556.611)"/></g><g transform="translate(643.882 551.555)"><path class="a" d="M620.521,661.475a2.461,2.461,0,0,1-2.366-1.812,145.531,145.531,0,0,1-4.851-38.046c0-47.443,21.367-86.038,47.634-86.038,13.011,0,25.123,9.152,34.108,25.766a2.455,2.455,0,0,1-4.316,2.342c-8.086-14.96-18.672-23.2-29.792-23.2-23.562,0-42.724,36.391-42.724,81.129a140.592,140.592,0,0,0,4.679,36.759,2.465,2.465,0,0,1-2.372,3.1Z" transform="translate(-613.304 -535.58)"/></g><g transform="translate(701.189 635.139)"><path class="a" d="M637.6,557.514H627.431a2.455,2.455,0,1,1,0-4.91H637.6a2.455,2.455,0,0,1,0,4.91Z" transform="translate(-624.976 -552.604)"/></g><g transform="translate(627.549 578.565)"><path class="a" d="M673.944,557.679c-22.982,0-45.179-4.222-62.506-11.9a2.454,2.454,0,0,1,1.988-4.488c16.713,7.4,38.2,11.479,60.517,11.479a180.41,180.41,0,0,0,22.467-1.395,2.455,2.455,0,1,1,.614,4.871A185.567,185.567,0,0,1,673.944,557.679Z" transform="translate(-609.977 -541.081)"/></g><g transform="translate(605.483 551.555)"><path class="a" d="M691.516,707.652A86.036,86.036,0,1,1,742,551.944a2.455,2.455,0,0,1-2.887,3.972,81.123,81.123,0,1,0,31.26,84.8,2.457,2.457,0,0,1,4.777,1.154A85.754,85.754,0,0,1,691.516,707.652Z" transform="translate(-605.483 -535.58)"/></g></g></svg>