<svg xmlns="http://www.w3.org/2000/svg" width="87.733" height="93.999" viewBox="0 0 87.733 93.999">
  <g id="Group_9956" data-name="Group 9956" transform="translate(-132 -129.999)">
    <g id="Group_9949" data-name="Group 9949" transform="translate(167.51 180.814)">
      <path id="Path_6949" data-name="Path 6949" d="M153.178,178.711H149v-9.4l.836-.627c.05-.038,5.431-4.161,5.431-8.773v-5.586h4.178v5.586c0,5.383-4.382,9.784-6.267,11.428Z" transform="translate(-149 -154.326)" fill="#9b9b9b"/>
    </g>
    <g id="Group_9950" data-name="Group 9950" transform="translate(146.637 160.378)">
      <path id="Path_6950" data-name="Path 6950" d="M149.121,178.919v-4.178a8.381,8.381,0,0,0,6.582-8.355V161.25l.727-.625c.023-.021,2.154-1.855,4.293-3.986a5.978,5.978,0,0,0-.192-7.574c-.62-.56-.892-.37-1.262,0-3.82,3.82-16.828,16.22-17.379,16.746l-2.883-3.025c.134-.127,13.521-12.89,17.308-16.675a4.866,4.866,0,0,1,7-.159c3.117,2.791,4.13,8.974.6,13.385l-.155.171c-1.521,1.523-3.023,2.885-3.881,3.647v3.231C159.881,175.786,151.4,178.919,149.121,178.919Z" transform="translate(-139.007 -144.543)" fill="#9b9b9b"/>
    </g>
    <g id="Group_9951" data-name="Group 9951" transform="translate(148.708 129.999)">
      <path id="Path_6951" data-name="Path 6951" d="M175.512,190.577a2.1,2.1,0,0,1-1.485-.618,166.992,166.992,0,0,0-15.052-13.12l-.238-.19a2.09,2.09,0,1,1,2.609-3.265l.238.19a183.455,183.455,0,0,1,13.928,11.973,183.371,183.371,0,0,1,13.945-11.986c8.606-6.874,15.4-12.305,17.053-20.4a16.6,16.6,0,0,0-2.822-13.072,13.935,13.935,0,0,0-9.765-5.822c-6.757-.762-14.006,3.043-16.5,8.635a2.089,2.089,0,0,1-3.814,0c-2.5-5.592-9.742-9.4-16.5-8.635a13.94,13.94,0,0,0-9.767,5.822,16.605,16.605,0,0,0-2.82,13.072c.952,4.677,3.57,8.7,8.748,13.469a2.088,2.088,0,1,1-2.828,3.073c-5.876-5.4-8.869-10.1-10.014-15.706a20.785,20.785,0,0,1,3.539-16.366,18.065,18.065,0,0,1,12.681-7.516A21.387,21.387,0,0,1,175.512,138a21.386,21.386,0,0,1,18.873-7.883,18.073,18.073,0,0,1,12.681,7.514A20.8,20.8,0,0,1,210.6,154c-1.955,9.577-9.274,15.424-18.538,22.827A166.939,166.939,0,0,0,177,189.959,2.1,2.1,0,0,1,175.512,190.577Z" transform="translate(-139.999 -129.999)" fill="#e9791a"/>
    </g>
    <g id="Group_9952" data-name="Group 9952" transform="translate(132 203.11)">
      <path id="Path_6952" data-name="Path 6952" d="M177.954,185.888H132V165h45.954Zm-41.777-4.178h37.6V169.178h-37.6Z" transform="translate(-132 -165)" fill="#9b9b9b"/>
    </g>
    <g id="Group_9953" data-name="Group 9953" transform="translate(140.355 211.465)">
      <path id="Path_6953" data-name="Path 6953" d="M142.267,173.178h-4.178a2.089,2.089,0,0,1,0-4.178h4.178a2.089,2.089,0,0,1,0,4.178Z" transform="translate(-136 -169)" fill="#9b9b9b"/>
    </g>
    <g id="Group_9954" data-name="Group 9954" transform="translate(157.066 138.356)">
      <path id="Path_6954" data-name="Path 6954" d="M146.089,146.533A2.09,2.09,0,0,1,144,144.444,10.456,10.456,0,0,1,154.444,134a2.089,2.089,0,0,1,0,4.178,6.274,6.274,0,0,0-6.267,6.267A2.09,2.09,0,0,1,146.089,146.533Z" transform="translate(-144 -134)" fill="#e9791a"/>
    </g>
    <g id="Group_9955" data-name="Group 9955" transform="translate(138.267 157.467)">
      <path id="Path_6955" data-name="Path 6955" d="M135,190.881l0-30.915c0-5.076,1.834-7.123,4.854-9.895l8.729-6.922,2.6,3.273-8.616,6.826c-2.678,2.463-3.386,3.467-3.386,6.718l0,30.915Z" transform="translate(-135 -143.149)" fill="#9b9b9b"/>
    </g>
  </g>
</svg>
