<svg xmlns="http://www.w3.org/2000/svg" width="104.44" height="101.905" viewBox="0 0 104.44 101.905">
  <g id="Group_9959" data-name="Group 9959" transform="translate(-434.78 -270)">
    <path id="Path_6964" data-name="Path 6964" d="M505.8,334.65a1.966,1.966,0,0,0,1.4-.578l19.98-19.979,13.14,13.14a1.973,1.973,0,0,0,2.79,0l50.1-50.1v11.81a1.973,1.973,0,1,0,3.946,0V271.973A1.973,1.973,0,0,0,595.183,270H578.215a1.973,1.973,0,1,0,0,3.946h12.6l-49.1,49.1-13.14-13.14a1.973,1.973,0,0,0-2.79,0l-21.375,21.375a1.973,1.973,0,0,0,1.4,3.368Z" transform="translate(-62.671)" fill="#e9791a"/>
    <path id="Path_6965" data-name="Path 6965" d="M1229.8,736.593a26.776,26.776,0,0,0-10.917,2.107c-3.435,1.583-5.327,3.871-5.327,6.442s1.892,4.859,5.327,6.442a29.332,29.332,0,0,0,21.835,0c3.435-1.583,5.327-3.871,5.327-6.442s-1.892-4.859-5.327-6.442A26.776,26.776,0,0,0,1229.8,736.593Zm12.3,8.55c0,.9-1.162,2-3.033,2.859a25.471,25.471,0,0,1-18.532,0c-1.871-.862-3.033-1.957-3.033-2.859s1.162-2,3.033-2.859a25.47,25.47,0,0,1,18.532,0C1240.94,743.146,1242.1,744.242,1242.1,745.143Z" transform="translate(-706.829 -423.485)" fill="#9b9b9b"/>
    <path id="Path_6966" data-name="Path 6966" d="M1244.075,918.831a1.973,1.973,0,0,0-1.973,1.973c0,.9-1.162,2-3.033,2.859a25.471,25.471,0,0,1-18.532,0c-1.871-.862-3.033-1.958-3.033-2.859a1.973,1.973,0,0,0-3.946,0c0,2.571,1.892,4.859,5.327,6.443a29.333,29.333,0,0,0,21.835,0c3.435-1.583,5.327-3.871,5.327-6.443A1.973,1.973,0,0,0,1244.075,918.831Z" transform="translate(-706.829 -588.886)" fill="#9b9b9b"/>
    <path id="Path_6967" data-name="Path 6967" d="M1244.075,1029.881a1.973,1.973,0,0,0-1.973,1.973c0,.9-1.162,2-3.033,2.859a25.47,25.47,0,0,1-18.532,0c-1.871-.862-3.033-1.957-3.033-2.859a1.973,1.973,0,0,0-3.946,0c0,2.571,1.892,4.859,5.327,6.443a29.332,29.332,0,0,0,21.835,0c3.435-1.583,5.327-3.871,5.327-6.443A1.973,1.973,0,0,0,1244.075,1029.881Z" transform="translate(-706.829 -689.677)" fill="#9b9b9b"/>
    <path id="Path_6968" data-name="Path 6968" d="M850.62,952.26a29.332,29.332,0,0,0-21.835,0c-3.435,1.583-5.327,3.871-5.327,6.442s1.892,4.859,5.327,6.442a29.333,29.333,0,0,0,21.835,0c3.435-1.583,5.327-3.871,5.327-6.442S854.055,953.844,850.62,952.26Zm-1.652,9.3a25.471,25.471,0,0,1-18.532,0c-1.871-.862-3.033-1.958-3.033-2.859s1.162-2,3.033-2.859a25.47,25.47,0,0,1,18.532,0c1.871.862,3.033,1.958,3.033,2.859S850.839,960.7,848.969,961.561Z" transform="translate(-352.769 -617.315)" fill="#9b9b9b"/>
    <path id="Path_6969" data-name="Path 6969" d="M853.974,1132.39a1.973,1.973,0,0,0-1.973,1.973c0,.9-1.162,2-3.033,2.859a25.471,25.471,0,0,1-18.532,0c-1.871-.862-3.033-1.958-3.033-2.859a1.973,1.973,0,1,0-3.946,0c0,2.571,1.892,4.859,5.327,6.442a29.332,29.332,0,0,0,21.835,0c3.435-1.583,5.327-3.871,5.327-6.442A1.973,1.973,0,0,0,853.974,1132.39Z" transform="translate(-352.769 -782.715)" fill="#9b9b9b"/>
    <path id="Path_6970" data-name="Path 6970" d="M461.942,1078.972a29.331,29.331,0,0,0-21.835,0c-3.435,1.583-5.327,3.871-5.327,6.442s1.892,4.859,5.327,6.443a29.334,29.334,0,0,0,21.835,0c3.435-1.583,5.327-3.871,5.327-6.443S465.377,1080.555,461.942,1078.972Zm-1.652,9.3a25.471,25.471,0,0,1-18.532,0c-1.871-.862-3.033-1.958-3.033-2.859s1.162-2,3.033-2.859a25.47,25.47,0,0,1,18.532,0c1.871.862,3.033,1.957,3.033,2.859S462.161,1087.411,460.291,1088.273Z" transform="translate(0 -732.319)" fill="#9b9b9b"/>
    <path id="Path_6971" data-name="Path 6971" d="M465.3,1259.1a1.973,1.973,0,0,0-1.973,1.973c0,.9-1.162,2-3.033,2.859a25.471,25.471,0,0,1-18.532,0c-1.871-.862-3.033-1.958-3.033-2.859a1.973,1.973,0,1,0-3.946,0c0,2.571,1.892,4.859,5.327,6.443a29.332,29.332,0,0,0,21.835,0c3.435-1.583,5.327-3.871,5.327-6.443A1.973,1.973,0,0,0,465.3,1259.1Z" transform="translate(0 -897.72)" fill="#9b9b9b"/>
    <path id="Path_6972" data-name="Path 6972" d="M853.974,1243.441a1.973,1.973,0,0,0-1.973,1.973c0,.9-1.162,2-3.033,2.859a25.471,25.471,0,0,1-18.532,0c-1.871-.862-3.033-1.958-3.033-2.859a1.973,1.973,0,1,0-3.946,0c0,2.571,1.892,4.859,5.327,6.443a29.332,29.332,0,0,0,21.835,0c3.435-1.583,5.327-3.871,5.327-6.443A1.973,1.973,0,0,0,853.974,1243.441Z" transform="translate(-352.769 -883.506)" fill="#9b9b9b"/>
    <path id="Path_6973" data-name="Path 6973" d="M1244.075,1133.814a1.973,1.973,0,0,0-1.973,1.973c0,.9-1.162,2-3.033,2.859a25.471,25.471,0,0,1-18.532,0c-1.871-.862-3.033-1.958-3.033-2.859a1.973,1.973,0,0,0-3.946,0c0,2.571,1.892,4.859,5.327,6.443a29.332,29.332,0,0,0,21.835,0c3.435-1.583,5.327-3.871,5.327-6.443A1.973,1.973,0,0,0,1244.075,1133.814Z" transform="translate(-706.829 -784.007)" fill="#9b9b9b"/>
    <path id="Path_6974" data-name="Path 6974" d="M1244.075,1236.322a1.973,1.973,0,0,0-1.973,1.973c0,.9-1.162,2-3.033,2.859a25.47,25.47,0,0,1-18.532,0c-1.871-.862-3.033-1.958-3.033-2.859a1.973,1.973,0,0,0-3.946,0c0,2.571,1.892,4.859,5.327,6.443a29.332,29.332,0,0,0,21.835,0c3.435-1.583,5.327-3.871,5.327-6.443A1.973,1.973,0,0,0,1244.075,1236.322Z" transform="translate(-706.829 -877.045)" fill="#9b9b9b"/>
  </g>
</svg>
