<svg xmlns="http://www.w3.org/2000/svg" width="99.572" height="115.83" viewBox="0 0 99.572 115.83">
  <g id="Group_9957" data-name="Group 9957" transform="translate(-442.329 -281.586)">
    <path id="Path_6956" data-name="Path 6956" d="M525.427,350.126a6.74,6.74,0,0,0-3.115.787V349.6a6.829,6.829,0,0,0-6.823-6.821,6.731,6.731,0,0,0-3.129.8,6.822,6.822,0,0,0-6.807-6.657,6.737,6.737,0,0,0-3.114.788V324.1a7.048,7.048,0,1,0-14.1,0v26.5l-4.444,4.657a20.4,20.4,0,0,0-5.6,13.252c-.594,14.408,1.152,16.694,1.692,17.4l7.45,10.38v2.695a1.854,1.854,0,0,0,3.709,0v-3.29a1.869,1.869,0,0,0-.348-1.081L482.967,383.7c-.558-.734-1.391-4.726-.963-15.041a16.7,16.7,0,0,1,4.575-10.846l1.764-1.848V373.1a1.854,1.854,0,1,0,3.708,0V324.1a3.34,3.34,0,0,1,6.679,0v33.2a1.854,1.854,0,1,0,3.709,0V343.744a3.115,3.115,0,1,1,6.229,0v12.731a1.854,1.854,0,1,0,3.709,0V349.6a3.113,3.113,0,0,1,6.226,0v11.37a1.854,1.854,0,0,0,3.709,0v-4.024a3.115,3.115,0,0,1,6.23,0V372c0,6.9-2.684,16.563-7.813,21.692a1.853,1.853,0,0,0-.543,1.311v3.967a1.854,1.854,0,0,0,3.709,0v-3.222c5.486-5.954,8.356-16.329,8.356-23.749V356.947A6.83,6.83,0,0,0,525.427,350.126Z" transform="translate(-3.451 -3.414)" fill="#9b9b9b"/>
    <path id="Path_6957" data-name="Path 6957" d="M541.761,332.084a1.86,1.86,0,0,0-.4-2.022l-7.5-7.5a1.854,1.854,0,1,0-2.622,2.622l4.336,4.338H522.925a30.722,30.722,0,0,0-7.678-18.756l8.735-8.736v6.135a1.854,1.854,0,1,0,3.709,0V297.553a1.862,1.862,0,0,0-1.146-1.712,1.868,1.868,0,0,0-.709-.143H515.225a1.854,1.854,0,1,0,0,3.709h6.135l-8.732,8.732a30.717,30.717,0,0,0-18.657-7.763V287.92l4.335,4.334a1.854,1.854,0,0,0,2.623-2.623l-7.5-7.5a1.869,1.869,0,0,0-1.313-.546h0a1.869,1.869,0,0,0-1.313.546l-7.5,7.5a1.854,1.854,0,0,0,2.623,2.623l4.335-4.334v12.456a30.725,30.725,0,0,0-18.84,7.932l-8.9-8.9h6.135a1.854,1.854,0,1,0,0-3.709H458.042a1.862,1.862,0,0,0-1.854,1.854v10.612a1.854,1.854,0,0,0,3.709,0V302.03l8.922,8.922a30.715,30.715,0,0,0-7.509,18.57H448.657l4.336-4.338a1.854,1.854,0,0,0-2.622-2.622l-7.5,7.5a1.86,1.86,0,0,0,0,2.627l7.5,7.5a1.854,1.854,0,0,0,2.622-2.623l-4.336-4.337h14.268a1.822,1.822,0,0,0,1.432-.722,1.844,1.844,0,0,0,.577-1.336A27.208,27.208,0,0,1,491.92,304a1.743,1.743,0,0,0,.193.039h0a1.7,1.7,0,0,0,.193-.039A27.208,27.208,0,0,1,519.3,331.173a2.239,2.239,0,0,0,2.007,2.058h14.267l-4.336,4.337a1.854,1.854,0,1,0,2.622,2.623l7.5-7.5A1.864,1.864,0,0,0,541.761,332.084Z" transform="translate(0)" fill="#e9791a"/>
  </g>
</svg>
